<?xml version="1.0" standalone="no"?>
<!DOCTYPE svg PUBLIC "-//W3C//DTD SVG 1.1//EN" "http://www.w3.org/Graphics/SVG/1.1/DTD/svg11.dtd" >
<svg>
<metadata>
Created by FontForge 20120731 at Fri May 13 12:53:16 2016
 By ,,,
Christopher Hansen
</metadata>
<defs>
<font id="againstmyself" horiz-adv-x="1139" >
  <font-face 
    font-family="against myself"
    font-weight="400"
    font-stretch="normal"
    units-per-em="2048"
    panose-1="2 0 0 0 0 0 0 0 0 0"
    ascent="1638"
    descent="-410"
    x-height="1141"
    cap-height="1388"
    bbox="-105 -630 2438 1808"
    underline-thickness="150"
    underline-position="-142"
    unicode-range="U+0020-F005"
  />
<missing-glyph horiz-adv-x="1536" 
d="M256 0v1280h1024v-1280h-1024zM288 32h960v1216h-960v-1216z" />
    <glyph glyph-name=".notdef" horiz-adv-x="1536" 
d="M256 0v1280h1024v-1280h-1024zM288 32h960v1216h-960v-1216z" />
    <glyph glyph-name=".null" horiz-adv-x="0" 
 />
    <glyph glyph-name="nonmarkingreturn" horiz-adv-x="569" 
 />
    <glyph glyph-name="space" unicode=" " horiz-adv-x="569" 
 />
    <glyph glyph-name="space" unicode="&#xa0;" horiz-adv-x="569" 
 />
    <glyph glyph-name="exclam" unicode="!" horiz-adv-x="569" 
 />
    <glyph glyph-name="quotedbl" unicode="&#x22;" horiz-adv-x="727" 
 />
    <glyph glyph-name="numbersign" unicode="#" 
 />
    <glyph glyph-name="dollar" unicode="$" 
 />
    <glyph glyph-name="percent" unicode="%" horiz-adv-x="1821" 
 />
    <glyph glyph-name="ampersand" unicode="&#x26;" horiz-adv-x="1366" 
 />
    <glyph glyph-name="quotesingle" unicode="'" horiz-adv-x="391" 
 />
    <glyph glyph-name="parenleft" unicode="(" horiz-adv-x="682" 
 />
    <glyph glyph-name="parenright" unicode=")" horiz-adv-x="682" 
 />
    <glyph glyph-name="asterisk" unicode="*" horiz-adv-x="797" 
 />
    <glyph glyph-name="plus" unicode="+" horiz-adv-x="1196" 
 />
    <glyph glyph-name="comma" unicode="," horiz-adv-x="569" 
 />
    <glyph glyph-name="hyphen" unicode="-" horiz-adv-x="682" 
 />
    <glyph glyph-name="hyphen" unicode="&#xad;" horiz-adv-x="682" 
 />
    <glyph glyph-name="period" unicode="." horiz-adv-x="569" 
 />
    <glyph glyph-name="slash" unicode="/" horiz-adv-x="569" 
 />
    <glyph glyph-name="zero" unicode="0" 
 />
    <glyph glyph-name="one" unicode="1" 
 />
    <glyph glyph-name="two" unicode="2" 
 />
    <glyph glyph-name="three" unicode="3" 
 />
    <glyph glyph-name="four" unicode="4" 
 />
    <glyph glyph-name="five" unicode="5" 
 />
    <glyph glyph-name="six" unicode="6" 
 />
    <glyph glyph-name="seven" unicode="7" 
 />
    <glyph glyph-name="eight" unicode="8" 
 />
    <glyph glyph-name="nine" unicode="9" 
 />
    <glyph glyph-name="colon" unicode=":" horiz-adv-x="569" 
 />
    <glyph glyph-name="semicolon" unicode=";" horiz-adv-x="569" 
 />
    <glyph glyph-name="semicolon" unicode="&#x37e;" horiz-adv-x="569" 
 />
    <glyph glyph-name="less" unicode="&#x3c;" horiz-adv-x="1196" 
 />
    <glyph glyph-name="equal" unicode="=" horiz-adv-x="1196" 
 />
    <glyph glyph-name="greater" unicode="&#x3e;" horiz-adv-x="1196" 
 />
    <glyph glyph-name="question" unicode="?" 
 />
    <glyph glyph-name="at" unicode="@" horiz-adv-x="2079" 
 />
    <glyph glyph-name="A" unicode="A" horiz-adv-x="2175" 
d="M1200 1808l36 -36l60 12l140 -72l108 -36l12 -12l32 12h56v-12h64l60 -24l80 -60q24 -10 36 -36l48 -24l-12 -60l68 -72l-8 -56l4 -16l36 12l44 -100v-144l24 -116l24 -48v-36l12 -24v-72l12 -56l24 -48l12 -60l12 -8l-12 -40l16 -52l-4 -196l-16 -56l-32 -180l-152 -276
l-80 -60l-140 -72h-36l-72 -32l-116 -28h-52l-8 -12h-144l-56 -12h-72l-60 12h-140l-60 -12h-56l-4 12h-212l-236 48l-48 24h-60l-56 24l-108 108l-68 144l-4 68l-24 120v52h12v60l-12 4l-36 36l36 104l12 60q-3 27 -24 48h24v96l-12 8v60l12 4v48l12 8v52l12 8l24 116
l24 48l12 60l-12 56l24 48l108 108l24 44l32 40l4 36l-24 8l8 16l36 -12q24 5 40 28l40 32l48 24l36 36l44 24l36 36l48 24l36 32l280 148l176 36q23 9 48 24zM1188 1760l24 -12q-11 9 -24 12zM1152 1688l-144 -40q-24 -24 -60 -32l-60 -28l-72 -20l-56 -36l-64 -28l-48 -44
l-68 -24l-52 -36v-24l48 4l-68 -28l-16 -36l-28 12l-52 -36l-44 -48l-32 -56l-48 -44q-18 -25 -24 -64l-48 -80l12 -44l-48 -132v-72l-8 -12l-4 -84l-12 -36l12 -32v-72l12 -8q-18 -27 -24 -68l-12 -76v-252l12 -8v-72l12 -8l12 -80l24 -64l80 -100l24 -12l76 48l-12 -48
l40 12l56 -36l204 -72h360l76 -12h68l12 12h248l388 156q29 10 56 36l92 180l44 136l36 56l24 64v92l-16 96h-116l-8 -12l-12 12l-4 -172l-32 -152l-28 -64q-25 -19 -36 -52q-8 -36 -48 -44q-24 -23 -60 -32l-36 -52l-24 -8l-24 36l-60 124l-12 80q-20 27 -24 68l-48 132v88
l-32 60h-180l76 12h52l8 12l8 -12h32l-24 120l-24 68l-12 76l-48 136l-12 80l-24 68v88l-24 68l-12 124l-32 12q14 18 40 24l16 72l-12 80l12 28l172 -36l56 -36l48 -44l36 -56l68 -20h64l12 8l80 -8l40 12l-12 28l-84 92l-56 36l-324 132h-68l-8 12h-92q-37 2 -76 12z
M888 1544h24v-124l-12 -8l-12 -48l84 12l12 -36h-76l-20 -16l24 -8l-24 -24l-48 -112l-56 -188l-28 -48l-12 -68l-60 -100v-64l-12 -8l-12 -68l-36 -124h48l-12 -20l-36 8l-12 -16l-48 -112l-16 -64l-32 -48l-72 -168l-32 -48l-20 -60l-44 -36l-48 36v60l-8 12l8 64l-12 68
l-24 56v160l12 68l-12 40l36 24l-32 96l-4 76l120 284q9 27 32 48l20 60l32 48l44 36l32 48l44 36l20 36l40 36h-48l12 24l68 12l16 -12l28 24q26 8 44 36l56 24zM936 1484l12 -12q-8 3 -12 12zM1356 1472l12 -52l-12 -24l12 -32h72q-20 -22 -56 -24h-28v-68l12 -88l-12 -12
l12 -60l48 -148l12 -84l24 -76l12 -84l32 -64l52 -144h272l8 12l-4 76l-24 76l-12 84q-19 31 -24 76v96l12 88v56l-24 16l-36 60l-48 52q-16 27 -48 48q-1 42 -44 52q-15 29 -48 48l-40 60l-60 36q-28 17 -72 24zM732 1436l12 -12q-8 3 -12 12zM1476 1376h36l-24 -36
q-7 15 -12 36zM1080 1364h120l-12 -12l-60 -12h-48v24zM1716 1352l-60 -20q27 -12 36 -44l48 -32l60 -100l36 -44v-144l-12 -72l48 -204l24 -56l12 -64l24 -60h116l16 20l-12 68v56l-12 12v80l-12 52l12 4l-72 328l-24 56l-12 64l-28 52q-9 33 -44 36l-68 12h-76zM780 1340
l-60 -48l-36 -16l-48 -56l-60 -44l-72 -84l-16 -40l-20 -28l-28 -80l-44 -60l-60 -148v-104l36 -100l-12 -8l-36 -100l12 -8v-156l24 -28v-32h20l40 116v52l24 28l12 40l24 28l-12 40l48 8l32 72l4 44l48 108l12 44l24 28l144 376l-12 40v52l24 60zM684 1256l12 -12
q-8 3 -12 12zM1020 1232h60l48 -12v-60l12 -44v-60l36 -136v-60l20 -36l40 -120l-8 -12h-232l-48 -12h-56l-40 20v60l12 44l4 56l20 36l36 140l44 76l28 84q12 16 24 36zM696 1184l12 -12q-8 3 -12 12zM1044 1064l-12 -52l-24 -40l-48 -208l-12 -24l76 12h104v20l-36 28
l-24 104v40l-8 12l-4 60q0 24 -12 48zM1920 620l12 -12q-8 3 -12 12zM1536 512l24 -80v-52l24 -28l4 -44l32 -72l36 -116v-52l24 -28v-20l44 36l16 32l68 88l4 48l32 72l4 96l-12 36v52l-28 20h-36l-8 -8l-36 8h-152zM0 512l12 -12q-8 3 -12 12zM24 512l12 -12q-8 3 -12 12z
M192 512l12 -12q-8 3 -12 12zM228 512l24 -36q-15 14 -24 36zM396 512h36l-28 -12q-5 4 -8 12zM792 512h52l44 -12h-52q-21 0 -44 12zM984 512h188l-96 -24h-124zM1200 512h36l-28 -12q-5 4 -8 12zM2208 512l12 -12q-8 3 -12 12zM960 440l84 -12l36 12l32 -12h96l80 -12
l44 -144l24 -12v-60l16 -72q24 -23 32 -64q7 -35 36 -60l12 -60l-12 -8q-22 -24 -60 -36l-288 -84h-188l-84 -12l-76 16l-60 32l-48 48l-36 12l112 312l32 60l24 68l60 32q21 28 60 36q34 3 72 20zM1080 368q-20 -22 -52 -24h-56l-140 -24l-40 -32l-24 -120l-48 -100
l-12 -60l-36 -72l84 -28l36 -32h148l60 12h148l48 24l60 12l48 24q25 6 40 32l-12 60l-24 52l-12 60l-24 48v36l-12 24q-18 21 -48 24l-72 76zM2292 344h72v-24h-72v24zM2220 332l12 -12q-8 3 -12 12zM1980 224h36l-28 -12q-5 4 -8 12zM648 -64l12 -12q-3 9 -12 12z" />
    <glyph glyph-name="B" unicode="B" horiz-adv-x="1285" 
d="M473 1697l170 -11l237 -61l102 -75l45 -75l22 -4l4 11l8 -11h22l-11 -26l-19 26l-4 -56l23 -38l23 -94v-215l11 -11l-34 -64l-11 -49l-98 -139l-34 -23l-15 -22l11 -12l139 -34l76 -45l49 -11l11 -11l26 11l-18 -11l67 -76l23 -37l34 -27l15 -41l30 -147v-120l-34 -143
l-45 -71l-68 -49l-22 -38l-34 -26l-46 -15l-37 -23l-45 -11l-30 -27l-46 -19l-67 -48l-125 -53l-37 -23l-241 -56h-177l-45 -12l-38 23l-49 -11l-23 37v53l-22 45v117l-23 98v237l11 45v116l-11 49v238l11 49v60l12 105l-12 49v237l-11 45v121l-11 45v60l-11 49
q-2 23 -23 38l23 94l37 -23q6 21 27 34l26 30l56 4l38 23l94 22h60q17 9 34 23zM530 1641l-185 -46l-37 -22l-136 -34l-22 -23l18 -98v-113l12 -45v-56l11 -45v-61l11 -45l-11 -22l7 -12l4 -342l34 -23l-34 -4v-338l-11 -46v-173l11 -45v-225l12 -46v-56l22 -34l90 -22h113
l46 11h56l185 45l33 23l46 11l34 22l45 12l64 45l-23 23h68l211 135l56 56l61 109v170l-23 90l-23 34l-11 49l-45 68l-42 11l-71 45l-90 23l-12 11l-22 -11l-57 3l-22 19l60 -11l-15 23l-34 22l-23 -11l-11 11h-57l-11 -11l-26 11l-8 30l12 8l11 26l-11 8l11 45l41 19l27 30
l41 15l72 45v34h22l34 132l-11 11l11 23v173l-11 45l-113 169l-102 68l-181 45zM485 1505h82l72 -11h64l8 -12l67 -11l23 -11l41 11h27q-13 -14 -34 -19l-12 -26l57 -49l34 -184l-57 -53l-67 -94l-91 -72q-11 -27 -45 -37l-53 -31l-60 -22l-38 -45l-30 -12l-22 19
q-32 12 -34 49l-23 57v64l-11 7l-23 139l12 8l-12 53v60l12 7v166q9 32 45 38h64zM78 1471l11 -11q-7 3 -11 11zM349 1471l11 -22q-8 9 -11 22zM519 1437l-49 -11l-23 -34l-8 -45l23 -90v-57l11 -45v-147l23 -53l158 110l49 67l30 23l45 68l34 22l11 45l12 8l-30 60l-27 30
l-34 23l-37 15l-45 -11l-91 22h-52zM993 1019l11 -11q-7 3 -11 11zM982 669l11 -11q-3 8 -11 11zM711 669l45 -22h-68q11 8 23 22zM767 669l11 -11q-7 3 -11 11zM835 669h22v-22h-34zM1253 669h68q22 -1 22 -22h-53l-3 11l-34 -11v22zM-35 658h60l8 -11h-60q-5 3 -8 11z
M78 658l23 -11q-13 0 -23 11zM247 658l12 -11q-8 2 -12 11zM564 658h34l-27 -11q-5 3 -7 11zM620 590h147l45 -7l68 -30l158 -136l15 -30l38 -11l26 -61l-22 -41l22 -26l-90 -155l-113 -131l-68 -30l-56 -42l-64 -33l-42 -12h-49l-139 -52l-30 -4l-15 34l11 7l-23 102v49
l-11 37l-34 64v147l12 37v98l11 38l4 98l26 22h49l34 12q74 44 90 56zM1309 568l12 -12q-8 3 -12 12zM620 466l-64 -11h-37l-34 -68l22 -121l-11 -15l11 -34v-214l12 -41l-12 -8v-86l45 11l49 23l61 11l146 68l151 135l26 45l19 120l-34 38l-45 26l-34 38l-45 26l-34 38
l-135 8q-27 0 -57 11zM699 -132l12 -11q-3 8 -12 11zM112 -143l11 -12q-8 3 -11 12zM225 -143l11 -12q-8 3 -11 12zM247 -143l12 -12q-8 3 -12 12zM744 -143h34l-26 -12q-5 4 -8 12zM801 -143h49l41 -12h-49q-20 0 -41 12zM1185 -143h34l-27 -12q-5 4 -7 12zM1241 -143
l12 -12q-8 3 -12 12z" />
    <glyph glyph-name="C" unicode="C" horiz-adv-x="1270" 
d="M731 1552h160l164 -72l44 -36l136 -180l24 -56l12 -68v-80l12 -64v-140l12 -4l12 -48l-56 -44l-68 12l-32 -12l-24 12h-204l-36 72l-32 48l-40 120q-23 16 -36 44l-36 44l-24 52l-36 -32l-144 -172l-48 -108l-36 -44l-12 -68l-24 -52l-12 -48l12 -8l-24 -52l24 -12
l-12 -36l12 -64v-160l12 -64l40 -36l96 -144l84 -72l40 -12l76 84l32 48l16 60l24 56l12 64q-30 11 -36 44l24 28l24 -8l116 -4l20 12h64l4 -12h60l8 -12l68 -12l44 -36l12 -68l-24 -52v-48l-24 -12l-12 -64l-24 -56l-36 -40l-48 -112l-72 -84l-52 -28l-44 -36l-164 -72
l-136 -24h-76l-56 24l-64 12l-112 48q-10 26 -40 40l-32 44l-28 56q-8 28 -36 40l-96 220l-12 68l-28 48q-21 16 -28 52l8 284l12 12v80l24 56v76l108 288l36 40l24 56l36 44l24 56l32 48l40 36q5 29 32 48l40 36l56 24l40 36l-36 -12l12 24l68 12q133 56 160 72zM767 1504
l-48 -36l-60 -20l-56 -28l-48 -36l-56 -24l-44 -36l-36 -48l-44 -36l-36 -48l-136 -268l-16 -68l-32 -48l-24 -56v-64l-8 -12l-4 -40l16 -20l28 12l28 -12l-28 -12h-56v-84l-12 -8v-80l-12 -72v-56l12 -12v-44l36 -84v-64l12 -4v-44l12 -28l36 -44l60 -104l36 -44l24 -56
q31 -11 36 -48l44 -36l60 -24l68 -12l56 -24h84l60 20l112 52q31 8 44 36l-44 12h-148l4 12h164l32 12l12 -12h16l48 32l44 40l28 52l36 44l72 172l60 104v48l-20 12l-68 12h-84l-12 12l-44 -12q-35 -6 -36 -44l-24 -56l-16 -68l-32 -48l-24 -60q-24 -14 -36 -44l-44 -40
l-52 -28q-19 -22 -52 -32l-140 104l-84 80l-68 92l-16 152l12 28h-40l-8 36v120l-12 72l12 52l-8 8h-64l8 12l68 12l32 48v44l120 244q2 34 36 48l36 44q21 20 24 56l48 36l72 92q16 25 48 36q33 -2 60 -24l48 -32l28 -52q14 -25 44 -40l24 -8v-48l12 -68v-84l12 -68l12 -32
l80 36l72 -12h60l8 -12h20v224l-24 136l-24 60l-144 180l-48 36h-48l-12 20l-132 16h-12zM419 1480h56l4 -12h-56zM1151 1480l12 -12q-8 3 -12 12zM491 1096l12 -12q-8 3 -12 12zM479 628l12 -24h-24zM15 616l8 -12q-5 4 -8 12zM587 616h36l-28 -12q-5 4 -8 12zM1067 -224
l12 -24h-24zM359 -236l24 -12q-13 1 -24 12zM395 -236h184l8 -12h-184q-5 4 -8 12zM1115 -236l12 -12q-8 3 -12 12zM1151 -236h60l48 -12h-60q-24 1 -48 12zM1283 -236h52l4 -12h-52zM1319 -380h20v-56l-32 -4z" />
    <glyph glyph-name="D" unicode="D" horiz-adv-x="1420" 
d="M304 1627h364l48 -12h124l192 -48l40 -24l44 -12l12 -12l24 12l28 -36l36 -24l24 -36l36 -24l48 -76v-60l24 -96l24 -36l12 -48l36 -88l4 -52l32 -152v-100l36 -44q-26 -2 -36 -28l8 -48l16 12l12 -24v-60l-12 -108l-60 -184l-120 -180l-32 -32l-16 -44l-32 -28l-16 -44
l-72 -52l24 -16l56 4l16 -24l-48 12l-12 -12l-48 12l-36 -24l-28 -36l-44 -16l-28 -32l-112 -72l-96 -24h-120l-48 -12h-60l-48 -12h-184l-48 -12l-48 12l-48 -12l-48 12h-48v16l-36 24v44h20l16 40v60l12 32l-48 12h60v80l24 96l-20 40l8 28l-8 8l-12 108l8 48v180l12 48
l12 204l-12 12l12 28v180l8 44l-8 36l12 8v120l-12 28l8 12l4 156l-8 12l-4 120l12 24l-12 12v60l12 48l24 36q120 24 144 36zM412 1579l-52 -12h-116q-23 -6 -24 -32l12 -44l36 -20h60l28 12l8 -12l-36 -24h-60l-8 -12l-24 12l-4 -112l12 -44l-12 -48v-116l-20 -100
l-4 -168l-12 -48v-404l12 -24l-12 -8v-60l12 -48v-116l12 -44v-60l-12 -44l-24 -36v-56l-12 -48v-36h20l-20 -32l-24 -92v-32h24l44 12h60l28 -32l148 -4l8 12h60l44 12h176l92 24l132 96l-44 12l-32 -12l-8 12h-36l12 12l44 12l40 -8l76 20l32 24l48 68l36 20l168 240
l60 232v56l12 48v116q-6 23 -32 24l-48 -12l16 12l48 12l28 28v120l-24 92v56l-12 48q-3 23 -24 32l-12 48l-76 212l-68 108l-68 48l-160 48l-12 -12l-36 24l-12 20l-168 4l-96 24h-204zM772 1543l24 -12q-13 1 -24 12zM832 1543l12 -12q-8 3 -12 12zM88 1531l12 -12
q-8 3 -12 12zM292 1531h36l-28 -12q-5 4 -8 12zM556 1531h52l44 -12h-52q-21 0 -44 12zM1204 1531l48 -12q-24 0 -48 12zM256 1519l12 -12q-8 3 -12 12zM364 1507l12 -12q-8 3 -12 12zM436 1435h48l20 -24l76 12l64 -24l152 -28l56 -32l124 -52l72 -108l36 4v-32l24 -64
v-156l12 -12v-176l24 -64l84 -4l-84 -8q-35 -12 -36 -52v-40l24 -72l-20 -112l-28 -60l-24 -152q-19 -27 -24 -64l-44 -48l-28 -60l-36 -52l-48 -40l-36 -52l-60 -28v-20h-72l-140 -36h-72l-8 -12h-88l-52 36l12 28v160l-12 4q-20 27 -24 68v160l12 8v332l-12 8v88l-12 8
l-56 -12l-52 12l84 8q33 5 48 40l12 76v88l12 76q-20 27 -24 68v64l12 12v48l-12 8l12 8l12 80v88q3 33 32 56q20 20 40 48zM496 1363l-20 -48l-4 -60l-24 -128v-76l-12 -64v-76l-12 -64v-152l-12 -64v-204l12 -12q21 -20 24 -52v-64l-12 -4v-76l12 -44l-12 -8v-56l8 -8
l4 -76l12 -44l-12 -8l12 -32l-12 -20l12 -48h-12v-36h96l12 8l64 16h56l24 24l-12 32v112l32 -12l-8 -36l12 -12v-24h48l120 112l44 32l28 48l36 116l12 64v60l24 72v204l-84 12l44 12h40l12 20v64l-12 4v152q-5 27 -24 52v56l-12 8v52l-12 12v72l-72 84q-28 1 -48 24
l-52 24l-64 12l-52 24l-64 12h-56l-8 12h-76zM448 691l12 -24q-9 11 -12 24zM1504 691l40 -12h32l-12 -12l-48 -4zM88 679l12 -24q-9 11 -12 24zM652 679h184l8 -12h-184q-5 4 -8 12zM1420 7l12 -12q-8 3 -12 12zM208 -173l24 -24q-19 1 -24 24zM820 -173l12 -24h-24z
M1552 -185l12 -12q-8 3 -12 12zM844 -233l12 -12q-8 3 -12 12z" />
    <glyph glyph-name="E" unicode="E" horiz-adv-x="1455" 
d="M1569 1666h200v-20h-200v20zM813 1586l76 -12h152l12 -8q19 -25 56 -28h340l60 -24h56l4 -12h-20q-32 -2 -52 -32q21 -24 24 -60l-12 -72l-24 -60l-24 -148l-28 -60l-32 -24l-24 8l-44 40l-72 12l-60 24h-84l-76 -12h-64l-8 12l-148 -24h-44l-24 -16l-12 -68v-64
l-24 -148l-20 -64l136 -24h88l72 -12h64l8 -12l24 -12l-24 -88v-68l-8 -12l-16 -152l-24 -64l-60 -24q-26 18 -36 52l-36 8h-124l-60 24h-44l-24 -16l-48 -208q-19 -27 -24 -64v-24h56l52 12l12 -12h84l72 12l264 96h132l12 8l48 -12q21 28 60 28l44 12l16 -16v-56l-20 -12
l-40 -128l-24 -144v-40h44l-20 -12q-36 -7 -36 -48v-60l-16 -12l-220 -36h-84l-72 -12h-124l-12 36q-26 20 -64 24h-64l-8 -12l-60 -24h-84l-148 -24h-52l-12 -20v-16h-72l-48 12l-12 -8l-36 44h-48l-12 28l-12 12l48 268l24 64l24 144v36l24 -20l84 256l36 220l24 60l12 72
v88l16 68l28 60l4 80l24 64v80l24 64l24 128l-12 4l36 48q-10 23 -48 36h-36l32 24l120 48l8 -12l56 12l72 -12l60 24h68zM465 1574l12 -12q-8 3 -12 12zM1509 1550l12 -12q-8 3 -12 12zM369 1502l12 -12q-8 3 -12 12zM645 1490l12 -12q-3 9 -12 12zM897 1478l12 -36
l-28 -12l-320 -4q-25 -4 -28 -32l-20 -60l-12 -72l24 -40l-12 -8v-60l-12 -8v-80l-48 -280l-24 -60l-12 -72l-84 -244q-5 -30 -24 -60v-80l-12 -68v-44l-16 -24q-32 -11 -36 -48l-20 -60v-60l-12 -8v-64l-12 -8l12 -28l-40 -84l-32 -48l-12 -48h24l44 -12h64l8 12l68 12h44
l28 12h80l72 12h60l8 12h84l68 12h84l140 -24l68 12h164l8 36l-12 24l-68 -12l-28 12l-32 -12h-64l-8 12h-164l36 12h80l72 -12l80 4q14 16 36 20l24 140q11 32 12 112l-28 -12l-32 12l-12 -24h-44l-144 -60l-72 -12l-28 12l-28 -12l-48 -36l-68 -12h-36l16 36l36 24h-64
l-8 12q-32 0 -56 -24l-68 -12l-24 -12l-24 28v64l-12 4l-36 48v56l48 120l12 68l40 44l48 36l32 48l40 24l8 -12h228l12 -8l48 -4l-24 36l24 24l20 108h-64l-8 12h-164l-72 -12q-23 18 -36 48l-24 56v164l36 128v44l12 28q7 31 36 48q20 21 56 24l172 36h204l36 12l20 -12
l72 -12l64 -20l72 -4l24 140q-22 11 -24 40l12 -12h24l-12 44l12 44l-60 20l-140 24h-164l-72 12h-80zM1377 1382l12 -12q-8 3 -12 12zM1401 1322l12 -12q-3 9 -12 12zM1305 1202l24 -12q-13 1 -24 12zM273 878h36l-12 -36l-24 -12v48zM165 662l36 -12l-36 -24v36zM933 650
l12 -12q-3 9 -12 12zM213 650h72v-24q-32 8 -72 24zM429 650l24 -12q-13 1 -24 12zM573 650h36l-28 -12q-5 4 -8 12zM1101 650l24 -12q-13 1 -24 12zM1293 650h36l-28 -12q-5 4 -8 12zM561 446l12 -12q-8 3 -12 12zM849 110l12 -12q-8 3 -12 12zM81 -22l12 -12q-8 3 -12 12z
M1245 -142l-12 -44l16 -16l8 56zM261 -202h36l-36 -24v24zM213 -214l12 -12q-8 3 -12 12zM561 -214l24 -12q-13 1 -24 12zM25 -622l20 -8q-11 1 -20 8z" />
    <glyph glyph-name="F" unicode="F" horiz-adv-x="1265" 
d="M1296 1737h48l12 -20l68 -4l52 -24v-24h-48l-60 -16l-12 -60v-148l-16 -64l-48 -24h-56l-8 -12h-52l-8 -12h-52l-12 -12l-48 -24h-76l-124 -24h-76l-60 -12l-52 -24h-56l-4 -12l-56 -16l-12 -64v-148l-16 -60l4 -48l36 -40l36 -28l168 56l60 -12l-12 64l32 44l36 -36
q20 -17 28 -48h72l52 -24l8 -16l-12 -40l-12 -16l12 -36v-72l36 -236q-17 -22 -48 -24l-52 20l-188 -36h-36l-72 -32l-108 8l-12 -92v-496l-12 -8v-60l-12 -4q-11 -22 -40 -36h-76l-184 -36q-27 -4 -52 -24h-32v44l-8 40h-28v180h12v44l-16 16l16 120v148l12 64l-12 40l12 8
l-12 432l-12 64l24 124l-24 48v44h20l16 68v52l-12 12v224l-12 48l-12 -64l-12 8l-12 48h12l12 44l-12 8l12 20l-28 12l56 84l172 24q-12 20 -40 24l-60 -12l-4 36h188l64 -12l60 12h76l60 12h128l8 12l40 -12l40 24l20 -12h276l8 12l64 12h56zM40 1677h56l36 -24
q-69 12 -92 24zM1500 1677h36l-28 -12q-5 4 -8 12zM156 1665h36l-28 -12q-5 4 -8 12zM1188 1653l-56 -12h-124l-52 -12h-64l-48 -12h-64l-100 -24l-40 -24l-112 -12l-52 -12h-124l-104 -24l-20 -40v-64l-12 -52v-124l-12 -48v-188l12 -52l-12 -112l24 -40l-24 -36l24 -84
l-12 -8l-24 8v-20l12 -32l-12 -8l12 -52l-12 -32l12 -8v-60l-12 -52v-60l12 -52v-188l12 -52v-84l36 -44l-24 12l-12 -16l12 -48l-12 -52l-24 -40v-84h40l8 28l56 8l40 20l96 24v-20l28 12l8 36l-12 8l12 48v64l-12 24l12 12v64l12 52v252l12 28l-12 8l-12 52l36 28l12 48
l24 8l12 -24l36 -24l204 48h64l32 28l-4 56l-16 48l-4 60l-12 52l-52 8l-152 -36l-36 -24h-64l-44 -16l-32 16l-44 144l-8 56l12 52v60l-12 8l8 28l-20 44v64l24 100l32 32l28 12v-24h60l28 36l100 24h64l100 24h64l40 20l52 4l112 24l28 32l48 16h64l20 12l-12 16l12 48
l-12 32l12 8l-12 32l12 8l-24 36h-60zM564 897l12 -12q-8 3 -12 12zM588 849l12 -12q-8 3 -12 12zM1056 825l12 -24h-24zM264 813l12 -12q-8 3 -12 12zM300 813h60l48 -12h-60q-24 1 -48 12zM1284 813l12 -12q-8 3 -12 12zM1440 813l12 -12q-8 3 -12 12zM960 549v-48h36
q-14 25 -36 48zM1536 429l12 -12q-8 3 -12 12zM660 33h36l-12 -36l-24 -12v48zM276 -27l24 -12l-12 -12h-24zM588 -27l60 -12l36 12v-24l-8 -12l-40 12h-48v24zM708 -27l24 -12l-12 -12zM768 -27l108 -24h-64q-25 6 -44 24zM432 -39l12 -12q-8 3 -12 12zM564 -39l12 -12
q-8 3 -12 12zM972 -39h52l44 -12h-52q-21 0 -44 12zM1428 -39l24 -12q-13 1 -24 12zM204 -267l12 -12q-8 3 -12 12z" />
    <glyph glyph-name="G" unicode="G" horiz-adv-x="1250" 
d="M1702 1641h130l-6 -13h-73l-29 -6l-9 6h-13v13zM1137 1622l41 -3l25 -13l13 -16l-6 -9v-80l-16 -66v-35l22 6l-16 -6l-16 -26l-22 -98l6 -19l-16 -42v-123l-6 -35l-16 -23l7 -9l-7 -19v-70l16 -22v54l6 35q16 -9 16 -29l10 -28v-42l-10 -32l10 -31l-10 -29v-41l10 -16
l-10 -6l-6 -35l-10 -16l7 -7l3 -82l-10 -32v-25l13 -42l3 -38l16 -25v-25l7 -7l9 -35v-38l10 -32l15 -25v-38l16 -29l16 -63v-41l22 -102v-41l-6 -35l22 -19l-22 -16l-3 -41l-22 -57l-64 -57l-16 -26l-22 -19l-102 -63l-161 -42l-64 -6l-6 -6l-121 -4l-197 48l-130 73
l-19 22l-25 16l-16 26l-26 16l-41 38l-29 54l-9 31v42l9 31v41l7 35l31 89l32 51l26 16l47 -26h162l13 -31l-10 -16h13l29 -16l-64 -99l-16 -66l7 -32h16l-7 -19l7 -35l47 -34l64 -16h82l188 57l19 22l25 16l76 126l7 35v80l-16 66l-16 26l-22 89l15 35l-15 66l-58 105
l-3 38l-9 32q-17 3 -19 22v42l6 25l-16 -25l-22 -16l-32 -51l-22 -19l-10 -32l-47 -32l-19 -25l-22 -16l-61 -22l-51 -32l-31 -9h-121l-67 15l-47 32l-67 16l-25 16l-32 9l-51 32l-73 134l-6 31l73 296l44 79l10 29l35 50l82 80l48 32l19 22l66 57l58 22l16 26l25 16l181 22
l108 -16l28 6l16 -6v57l-9 32l-13 22l22 19l70 38l7 -9h66l7 6l98 25q15 1 29 10zM851 1581l9 -7q-5 2 -9 7zM1067 1558l16 -9q-6 7 -16 9zM1130 1549l-22 -22l-25 -16l-16 25l-19 7l-7 -7l-41 -3l-25 -16l-16 10l-29 -26l-22 -101l6 -23l-6 -47l-22 -19l-118 47h-41l-67 16
h-79l-121 -85l-12 -26h15l-12 -16l-77 -44l-19 -26l-25 -16l-16 -25l-41 -38l-89 -118l-6 -34l-16 -26l-48 -155v-42l6 -35l99 -146l51 -32l200 -47l63 16l26 16l66 15l51 32l35 48l22 16l38 44l26 19l32 48l22 19l47 76q-4 15 -22 16h-41l-22 6h16l15 10l7 -10l95 23
l16 -23l6 10l19 -10h42l-10 -6l-41 3l-22 -9l15 -67l7 -118l16 -25l25 -98v-42l6 -22l-6 -6l32 -89l6 -35l-6 -159l6 -35v-82l-16 -67l-16 -25l-28 -13l-16 -25l-25 -16l-19 -22l-73 -48l-166 -41h-123l-32 9h-41l-16 26l-48 35l-6 19l6 6l-6 10l6 22l-13 25l-3 42l32 133
l-64 15l-63 7v12l-22 4l-48 -89l-16 -63v-42l-9 -31l15 -67l16 -25l26 -16l41 -38l152 -96l32 -9l51 -32l102 -22h41l25 16l16 -10l-9 -6l28 -10l162 42l51 31l60 23l16 25l32 9l95 67l48 76v83l-22 19l-32 133v41l-32 134l-9 15h9l-25 61l-7 35l-22 57l-3 41l-16 64l-13 28
l-3 38l-22 102l-10 6l19 23l20 -10l9 -16v70q0 16 -19 19l-3 22l13 -6l9 32v41l10 32l6 114l-6 35l15 25l16 70l7 197l9 29l16 130h-16zM184 1406h25l-19 -6q-3 0 -6 6zM956 1406l22 -6q-11 0 -22 6zM1105 1406l9 -6q-5 1 -9 6zM1225 1406l7 -6q-4 0 -7 6zM1422 1406h162
l29 -6h-108l-10 -7l-9 7l-22 -7zM581 1168h44l10 -7l3 -15l70 6l25 -48l32 -28l38 -22l10 -39l-10 -6l-22 -35l-16 -44l-48 -73l7 -29h-26l-123 -114l-54 -7l-42 -19l-47 10l-32 25l-26 35l-15 45l-7 85l48 42l19 41l29 32q4 21 22 38l57 63l32 26zM622 1120l-25 -22
l-16 -29l-29 -19l-73 -63l-16 -32l-25 -19l-6 -38l-10 -22l10 -7l9 -35l32 -47l13 -32l38 10l57 63h-13l54 32l70 70l35 57l38 22l-3 25l-41 48l-54 38h-45zM914 876l10 -10q-7 3 -10 10zM1613 860l9 -10q-6 3 -9 10zM733 844l16 -16q-11 4 -16 16zM765 844l38 -16h-38v16z
M41 834l10 -6q-6 1 -10 6zM146 834l6 -6q-3 1 -6 6zM321 834l22 -6q-11 0 -22 6zM511 834l22 -6q-10 0 -22 6zM406 787l10 -7q-3 5 -10 7zM654 771l6 -6q-3 0 -6 6zM-105 637l4 -47v-10zM914 628l10 -38l16 -26l-10 39v25h-16zM209 580l7 -6q-4 1 -7 6zM940 558v-25l6 19
q-1 4 -6 6zM949 533l-3 -16h10q-1 8 -7 16zM1105 279l9 -7q-5 1 -9 7zM1422 279h42l22 -7h-57l-13 -9zM1581 279l10 -7q-6 1 -10 7zM1607 279l6 -7q-4 1 -6 7zM136 272l16 -9q-9 1 -16 9zM597 272h57l6 -9h-57q-4 3 -6 9zM340 193l-4 -10h7zM527 129l6 -9q-1 6 -6 9zM978 50
l9 -16q-7 6 -9 16zM914 2l10 -9q-7 3 -10 9zM908 -61l6 -9q-4 3 -6 9zM463 -283l7 -9q-5 3 -7 9z" />
    <glyph glyph-name="H" unicode="H" horiz-adv-x="1193" 
d="M965 1345q20 -16 28 -48l28 -72l92 28l144 4l48 -12l4 12l16 8l40 -8q26 -4 28 -32l20 -20l-28 -8l-40 8l-60 -460l-32 -40l-20 -56l-8 -64l-32 -116v-76l-20 -52l-8 -124h-12v-60l-8 -12v-148l-32 -40l-40 -240h20l-16 -40l-32 -40l-44 -32l-20 52l-128 20h-128l-12 12
l-8 64l40 108v56l8 12v72l20 56v72l20 128v76l-8 32l-24 -8l-8 -20l12 -12l-20 4l-40 36l-60 12l-52 20q-28 -2 -40 -32l-40 -108l-28 -192l-32 -120v-144l-36 -116l-52 -20l-68 -8h-148l-12 60l8 60l-92 28h32l40 12l8 -12q23 17 24 52l16 56v60l12 4l8 64v72l12 64v72
l20 128v76l8 44l-8 12l20 128v132l8 8v296l12 60l36 -8l40 60l52 -20l56 20l128 20l44 -28l12 -32l-16 -20l-24 -120l-8 -212l-12 -64l68 -4l176 -28l16 40v56l12 8v72l20 56l8 128l32 52q1 29 20 56v64l40 44v72zM25 1225l8 -8q-5 1 -8 8zM273 1225h204l36 -8h-136l-12 -8
l-12 8l-28 -8zM1205 1217l-112 -32l-16 12l-24 -20l-52 -20l-16 -52l-40 -244v-128l-40 -40l8 -48h-196l-60 12h-72l-52 -20h-20v108h12v64l20 128v140q-18 18 -44 28h-124l-8 -8q-15 -21 -16 -52l-8 -64l-20 -48v-56h-12l12 -64v-56h-12v-64l-20 -132l20 -48l-16 -56
l-4 -68l20 -48l-40 -100l-8 -116l-12 -8v-68l-20 -52v-56l-8 -8v-112l20 -36l-32 -8h20l-20 -32l-8 -36l12 -12l132 8q26 8 36 36l-12 32l12 12l-12 60l20 52l12 56l8 112l12 8v72l8 44l-20 52l20 124l40 100l32 12v-32l16 12l4 40l-84 8l48 12l36 20l-12 -32l24 20l28 12
l20 -12l120 -20l48 -24q-3 -29 -36 -36h-72l56 -8l52 -20h44l68 24v-68l-12 -60v-72l-40 -240v-56l-8 -8v-68l-20 -124l48 -20h72l60 12h48v144l32 4l8 112l52 232l8 116h12v76l48 356l12 4l36 36l44 236l20 52l8 112h-88zM293 1117v-52q1 -15 12 -20l8 72h-20zM285 1025
l8 -36l12 8zM1453 857l12 -52l-60 -20l-12 20q43 32 60 52zM565 697v-20l28 20h-28zM1453 585l12 -8q-7 2 -12 8zM1085 517l8 -12q-5 4 -8 12zM1225 517h28l-28 -20v20zM1393 517l20 -12q-12 1 -20 12zM493 417l12 -12q-3 9 -12 12zM745 365l8 -8q-1 5 -8 8zM685 -183
q19 -8 20 -32h-20v32zM273 -195h52l28 -8h-72l-16 -12zM473 -195l12 -8q-7 2 -12 8zM505 -195l8 -8q-5 1 -8 8zM805 -195l20 -20q-14 5 -20 20zM1105 -195l8 -8q-5 1 -8 8z" />
    <glyph glyph-name="I" unicode="I" horiz-adv-x="490" 
d="M588 1388l60 -40l84 -8l-32 -12h-32l32 -28l40 -52l40 -8l-12 -36l-60 -36l-68 -28l-84 -60l-36 8h-52l12 32l160 108h20l20 12l-88 68l-128 -60l-56 -40v-28h-40l-4 20q-23 24 -36 60l-8 20l-60 -32l24 -40l48 -48q24 -20 28 -52l-40 -56l-64 -52l-36 8l48 -76l120 56
l100 32l-8 36l4 12l36 12l24 -20l64 -32l72 -24q25 -13 40 -44h-16l-40 -52l-104 -48l-28 8l-52 48l-60 20l-80 -16l-112 -60h-20l-28 -20l-60 8l8 64l12 28l-32 -20l-60 -20l-8 12l48 44l164 124l-24 48l-48 48l-60 36l48 48l60 32l20 36l-28 12l120 28l20 -24l160 -4l16 8
q30 9 52 40zM360 1328l16 -40l24 -28l28 28l44 12l36 20l-40 8h-108zM684 1240l-28 -32l12 -8l36 20zM200 1228l8 -8q-1 5 -8 8zM240 1200l8 -12q-1 8 -8 12zM252 1188l8 -8q-1 5 -8 8zM268 1168l12 -8q-3 6 -12 8zM284 1160q2 -14 16 -20zM304 1140l16 -28l8 16zM564 1000
q2 -23 24 -40q21 -19 52 -20v40l-20 8zM500 988q11 -30 40 -48q13 -27 44 -32l-36 44q-19 22 -48 36zM188 980l-20 -68v-32l72 28l-12 28q-16 22 -40 44zM520 788l60 -4l60 -24l-16 -20l-44 -12l-40 -200v-56l-40 -200v-56l-20 -100l8 -288l12 -48l-20 -96l-40 -24l-28 -32
l-148 -28l-52 8q-22 8 -32 28v52l-32 156v56l-28 152l8 48v60l52 248v56l20 100v56h-20l20 24l8 24l-12 12l-56 -32l-40 52l40 20l100 20l8 -12l184 32h56q22 6 32 28zM468 720l-132 -60l-56 -12v-20h40l-60 -20l-20 -292l-12 -8l-20 -76l-8 -180l8 -36l-8 -44l8 -68l-8 -16
l28 -208l8 -12l72 -8l76 20l56 36l8 84l-8 88q-5 15 -20 20l8 44l-8 88l8 84l-8 36l8 44v76l12 8v92l8 64l-8 4l40 140v72l20 60h-32zM328 708l-8 -20h20q-1 12 -12 20zM360 708l8 -8q-1 5 -8 8zM400 640q18 -6 28 -20h-40zM448 640l12 -12q-8 3 -12 12zM40 628l20 -8
q-11 1 -20 8zM140 628l8 -8q-5 1 -8 8zM160 628l8 -8q-5 1 -8 8zM120 -72l8 -8q-5 1 -8 8zM388 -72q-1 -10 -8 -20zM508 -72l12 -20q-9 8 -12 20zM268 -80l12 -12q-8 3 -12 12z" />
    <glyph glyph-name="J" unicode="J" horiz-adv-x="950" 
d="M124 1549l48 -4l-32 -12q-5 8 -16 16zM744 1473l244 -48h60l28 -32l-20 -36v-60l-20 -36l-12 -48v-56l-8 -52v-624l-12 -44l-20 -328l12 -48v-60l-20 -36v-60l8 -32l-8 -8l8 -52l-8 -48v-60l-12 -44l-24 -36l-76 -40h-116l-96 20l-112 8l-44 12l-40 20l-48 8l-32 28
l-52 8l-80 36l-48 8l-72 44l-20 40l-28 144v120l20 96v116l-12 44l12 48l20 36l40 4v16l28 28l152 4l8 12l48 -12l24 -36l-52 -64l-8 -160l40 -220l52 40l8 20l20 -12l-20 -40l-32 -28l-8 -20l16 -8q12 -19 40 -20l52 4l80 36l60 56l40 76l20 96v292l20 76l-8 12v176l8 108
l-8 396l-12 48v56l-8 32l20 36l-12 8q6 20 20 40zM784 1433l12 -24l-12 -8v-16h36l12 8l24 -8h40v-16l-112 -16v-88l12 -44v-592l8 -32l-8 -112l-12 -44l-8 -260l-20 -88l-32 -76l-48 -60l-132 -84h-56l-24 -8l-56 20l-32 24l-20 32l-40 16l-20 32l-20 88v108l20 88v52l8 48
l-8 24l-44 -12h-36v-16l-20 -36v-52l-40 -388l28 -8l12 8l-12 -24l36 -36l32 -20l80 -28l92 -72l172 -40h216l44 12l28 24l20 32l12 44v52l8 28l-8 12l8 44v108l-8 48l8 28l-8 8v52l8 48l16 40l-16 80v108l12 44l-12 20l12 8v56l-8 24l16 88v216l-8 44l8 48v108l12 40l20 36
l8 44v52l20 88l12 20l-12 8zM0 1313l36 -20h-36v20zM44 1313l12 -8q-7 2 -12 8zM704 1313l12 -20q-9 8 -12 20zM1064 1313l12 -8q-7 2 -12 8zM36 1133l8 -8q-5 1 -8 8zM104 605l12 -20q-9 8 -12 20zM684 593l12 -8q-7 2 -12 8z" />
    <glyph glyph-name="K" unicode="K" horiz-adv-x="1315" 
d="M392 1640l60 -32l20 -68v-72l76 -8l12 8h68l12 -8h32l-100 -308v-32l20 32l40 136q6 31 28 60l20 68q2 32 20 68q20 23 52 24v-20l52 32h68l12 8l224 40h64l12 12l16 -60h-16l-4 -60l-220 -396l-20 -68l-120 -232l-44 -24l-24 -60l36 -52l60 -28l44 -44l68 -108l48 -40
l40 -48q11 -27 40 -32l-8 -40l84 -128q29 -18 36 -56l40 -48l20 -36l-8 -24l20 -68l20 -8v-108l20 -20l20 -68l48 -92l-12 -24l-60 -8l-12 8l-24 -8l-124 20h-72l-84 20l-52 -12l-16 12q-2 29 -24 48l-28 60l28 60l-40 48l-148 292l-48 40l-32 56l-120 144l-12 -28l12 -32
v-28h-32l-20 60l-28 -12l-20 -156l8 -256l12 -76v-88l20 -52l-20 -40l-8 20l-24 -20l-36 8h-68l-8 12h-52l-4 -12l-12 12l-144 8l-12 -8l-12 28l28 24l-8 12l16 56l4 168l-32 92l8 48q3 27 32 32v-24l12 56l-12 516l-8 40l8 16v284l-8 60l8 12l-4 80l-24 24l20 60v124
l-72 32l16 20l60 28l36 52l24 20l72 -20l144 32zM300 1600l12 -12q-8 3 -12 12zM1072 1500l-52 -28l72 -12l16 28zM872 1480q-5 -35 -44 -40l-64 -20q-31 -8 -44 -36l-148 -416l-32 -52l-40 -120q-18 -18 -24 -48l-4 -20l-32 24v76l-32 52l-48 32l-8 36v180l-12 8v304h-76
l-12 -8l-80 -12v-136q0 -25 -20 -44l-12 -72v-244l12 -40l-12 -16l28 -128l-16 -16l8 -40v-80l12 -68v-224l8 -12l12 -68q0 -31 -20 -64l-12 -68l12 -68l-20 -60l-12 -172l120 20l52 -8l-12 -44l52 -20l8 24v60l-8 12l-12 72l12 68l-12 52l8 12l12 108v264l12 8l28 52l20 60
l16 8l36 -8v-12l48 -40l52 -28l40 -40l48 -112l40 -44l32 -48l44 -36l24 -60l32 -48l92 -232q23 -18 28 -52l20 -60l52 -28h64l12 -8l40 8l12 -12l72 -8l56 -16l12 20l-20 32l-80 244l-28 48l-24 60l-60 100q-22 7 -28 32h16l12 28l-108 104l-52 108l-68 60l8 -24l-28 -16
l-12 28l12 40l-20 12l-120 120l-12 36l340 584l40 124l20 36l-200 8q0 16 -8 32zM1320 1468h40v-28q-21 11 -40 28zM472 1448v-140l8 -64l12 -36l-12 -8l12 -56v-72l24 36l16 48l8 64l24 48l68 180h-160zM552 1120l8 -12q-1 8 -8 12zM540 1080v-32l12 24q-3 6 -12 8z
M532 1048l-12 -48h12l8 36q-2 8 -8 12zM512 1000l8 -20q-1 11 -8 20zM500 968l12 -8q-3 6 -12 8zM200 760l20 -20q-14 5 -20 20zM640 760h40v-20h-40v20zM840 760h20q-6 -19 -28 -20zM72 748l8 -8q-5 1 -8 8zM420 748l12 -8q-7 2 -12 8zM432 400l8 -12q-1 8 -8 12zM1260 60
l12 -20q-9 8 -12 20zM192 48l8 -8q-5 1 -8 8zM220 48l12 -8q-7 2 -12 8zM440 48l12 -20q-9 8 -12 20zM720 48l12 -8q-7 2 -12 8zM272 -160l20 -12q-12 2 -20 12zM152 -172l8 -8q-5 1 -8 8zM280 -232l-20 -20h20l20 20h-20zM152 -240l28 -12q-11 9 -28 12zM304 -240l8 -12
q-2 8 -8 12zM1296 -332l24 -20q-9 13 -24 20z" />
    <glyph glyph-name="L" unicode="L" horiz-adv-x="1250" 
d="M300 1619l32 -8l12 8h48l-20 -20l120 -28h56l32 8l40 -40l-28 -32v-56l8 -32l-8 -12v-56l-12 -48l-8 -168l-12 -48v-116l12 -44l-12 -48v-40h16l4 -56l-28 -148v-56l68 -8l-24 -20l-44 -12l-12 -48v-56l-8 -52v-212l68 -12h56l48 12l48 -12l164 -8l100 -20h116l48 -12
l28 12l92 -40l32 -32v-20l-52 12v-148l-20 -96v-116l-8 -52l-52 -8h-56l-48 -12h-60l-44 16l-112 4l-28 -28l-48 -12h-56l-100 20h-116l-96 20h-60l-192 -40l-48 12l-20 40l-44 16l20 96l-12 48l12 24l-12 8l12 32v56l8 52v116l12 80l-20 40v176l8 48v60l12 28l-8 8l-4 40
l8 12l-8 40v232l-8 12l8 384l-8 12l8 28v60l12 44l-12 28l12 8l-12 28l12 8v116l32 8l12 -8l48 8h60q18 7 36 20zM200 1511l20 -12q-7 9 -20 12zM280 1479l-68 -36l-8 -44l-4 -96q0 -20 24 -24l12 -8l-36 -40v-52l12 -40v-204l-12 -40l-8 -384h-16l-4 -300l-12 -40v-100
l12 -40v-100l-12 -40v-52l-8 -20l12 -8l12 -40l4 -48l32 -4l52 12h204l40 -12h48l84 -20l32 -20h100l40 12h100l40 -12l196 -8l44 8l8 36v52l-8 28l8 8v48l-8 28l8 12v32l-8 8v100h-360l-80 20h-52l-44 8l-28 -20l-148 -8l-28 20l-40 16l40 32l-8 20l-72 32l20 28l8 44
l-8 144l-20 32v48l20 84l-20 32l24 28l4 44l12 40v52l28 224v100l12 40v52l-12 40v48l-8 32l8 8l60 8v32l12 36l-20 32l-12 40l12 60l-20 -8zM40 1279h40v-28q-21 11 -40 28zM592 1279l20 -20q-14 5 -20 20zM792 1271h72l8 -12h-72q-5 4 -8 12zM1272 1271h60l4 -12h-60z
M1032 579l236 -8l4 -12h-240v20zM792 571h72l8 -12h-72q-5 4 -8 12zM512 131l8 -12q-1 8 -8 12zM-20 -129l12 -20q-9 8 -12 20zM-60 -509l40 -16h-40v16z" />
    <glyph glyph-name="M" unicode="M" horiz-adv-x="1510" 
d="M1064 1490l48 -8l48 8h108l88 -20l44 12l40 -12h112l12 -20h-188l16 -8h56l96 -12l40 -16l-24 -32l-4 -36l28 -24l12 -24l-12 -8v-108l12 -44v-216l28 -24l20 -36l12 -44l-12 -40l76 -16l8 8l52 -4l-40 -16h-56l-40 -12l-48 -788l8 -8l20 20v-16l-20 -36l-8 -44l8 -48
l12 -20l-12 -8l32 -20l8 12l24 -12h28v-28l-44 -12l-68 -36l-44 8h-164l-40 16l-36 -8h-56l-20 12l-8 -12l8 -12l-8 -24l-20 28h-56l-40 -12q-22 -2 -24 -28v-40h-20l-40 100l8 32l-8 8l8 40v-40l12 20v164l8 48v108l12 40v164l8 48v108l12 44v108l-20 36l20 88l-20 12v-16
l-32 -24l-28 -80l8 -44l-28 -12l28 -28l-8 -44l-16 -40l24 -64l-8 -8l-28 -8l-8 8l4 32l-8 60l8 48l-8 44l-32 12l-20 -32l-40 -124l-28 -28l-32 -76l-88 -128l-28 -28l-24 -8v28l24 32l16 36l-8 44l-80 136l-12 44l-20 -20v16l12 24l-12 8l-20 36l-8 44l-12 -40v-272
l-28 -28v-52l8 -48l-8 -12l8 -24v-52l20 -20h-20l12 -24l-12 -8l12 -40l8 -156l-20 -32l-28 -28l8 -12l-8 -28v-32h-20l-36 -20l-44 -12h-52l-44 12l-40 -12h-56l-8 -44l-20 -36l-32 24v36h-16l-28 -28q-12 -18 -36 -20l-12 28l12 40v56l12 44l8 152l12 44v108l8 32l-8 8
l8 44l-8 396l-56 28l24 8l12 -8h28v228l12 8l-12 20l12 44v56l8 44v164l12 44l-12 40v200l64 -8l268 8l88 20l44 -8l28 8l28 -48l12 -40l148 -288l20 24l52 112l8 44l20 36l12 44l28 28l40 64v36h20v28h28q15 7 32 20zM1576 1470h40l-32 -8q-5 1 -8 8zM-20 1462h60l4 -12
h-60zM1044 1390q-32 -20 -40 -60l-28 -68l-40 -56l-32 -64l-44 -152l-32 -68l-12 -12l-32 12v28q-5 37 -44 52l-56 140l-40 56l-60 136q-21 27 -60 36l-160 -8l-12 -12h-96q-33 -13 -40 -56l-20 -232l8 -12l-8 -12l8 -88l-8 -88l24 -72l16 -28h52l48 -12l-96 -8l-12 8
l-32 -24v-192l-12 -84v-96l-8 -64l20 -4l8 -36l-8 -32l20 -92l-12 -64l12 -8l-20 -160l8 -52l-8 -12l8 -48l32 8l8 12l20 -12l-64 -80l12 -8h232v24l-20 16l12 48v152l8 36v192l12 60l-8 12l8 68l-12 8l12 84l-12 36l12 36v68l20 8v68l-12 8l12 96l-12 28h-56l-44 12l112 8
l-20 120l8 12h28l44 -56l32 -64l36 -12l-8 -24l40 -60l60 -132l40 -12v40l28 40v-36l32 -64l28 28l60 136l16 64l44 52q9 34 40 60l72 20l28 28l60 -20l-8 -12v-28l28 -80l76 -20h-76v-116l-28 -260l-12 -36l8 -36l-36 -352v-96l-12 -84l68 -8l168 8l8 12l8 -12h172l16 8v56
l-8 8l8 48l-8 32l20 80v72l8 16v168l-8 16v96l-20 152l8 16v96l12 84l-32 48l32 4v336l-40 44v96l-12 84h-72l-76 -20l-100 -60l-12 24l44 56q34 5 36 32zM1056 1370l8 -8q-5 1 -8 8zM1064 782l12 -12q-3 9 -12 12zM1384 770l44 -8h52l12 -20l-40 8h-104l-24 12h52q6 1 8 8z
M64 762h32l-32 -20v20zM444 730l12 -8q-7 2 -12 8zM444 650l12 -8q-7 2 -12 8zM1004 642l12 -12q-8 3 -12 12zM444 562l12 -12q-8 3 -12 12zM764 542l12 -52q0 26 -12 52zM724 510l-8 -40l16 -8l4 40q-3 6 -12 8zM784 502l-8 -36l8 -12l12 44zM564 502l12 -20q-9 8 -12 20z
M764 450l12 -28q-1 16 -12 28zM-20 290q33 -20 44 -60l-44 12v48zM156 -18v-32l8 24q-1 6 -8 8zM1604 -110q14 -5 20 -20zM956 -150l20 -8q-11 1 -20 8zM1316 -158l8 -12q-5 4 -8 12zM1624 -158l12 -12q-8 3 -12 12zM1776 -238v-132l-12 68zM1236 -298l8 -12q-5 4 -8 12z
" />
    <glyph glyph-name="N" unicode="N" horiz-adv-x="1320" 
d="M1491 1598l20 -12q-12 1 -20 12zM231 1438l60 -12h288l60 12h32l8 -24l-4 -8h-44l48 -408l20 -52v-48h76l56 -12l28 20l12 60l8 120h12l-12 32l12 20l-12 28l12 16v196l-12 8l-8 48l12 4q24 -10 36 -40v-32l16 20l4 20l40 -12l124 -16l136 4l-8 40l12 16l40 -32l52 -20
l44 -28l-8 -64l-12 -36l12 -28l-12 -44v-72l12 -32l-12 -12l-8 -208l-12 -60l-8 -208l-12 -56l-20 -52v-72q22 -11 24 -36q-26 -6 -32 -36l-40 -244l-136 -440l-32 -40q-14 -20 -40 -32l-60 12l-280 8l-52 -16l-72 48l-20 -12l4 40h48l8 12l-40 176l-8 64l-20 52v36l-12 24
v28l-20 -20v-212l-16 -48l16 -12l-8 -36l-120 -24q-25 11 -32 40l-120 -8l-4 -12h-36l-8 -8l-124 40l-8 64l20 76l-8 40v216l36 312l-8 32l12 20l-12 8l12 40l8 204l12 60l-20 52l20 -4v40l28 308l12 8v128l-12 4l24 52q24 4 48 20zM419 1378l-44 -12h-56l-40 -12l-8 -28
l8 -8l-16 -40l-12 -92l8 -288h72l44 -12h160l40 12q22 2 24 28l-8 152l-32 124v56l-20 84l-28 24l-40 12h-52zM1191 1326l-160 -16l-20 -20l-12 -48l-20 -44l-8 -48l-20 -376l-12 -48l-40 -20v-120l-8 -52l4 -36l36 -12l-40 -40l8 -32l-8 -48v-120q-10 -20 -32 -28l24 -20
l16 8l52 -8h116l44 -8l28 8l20 -32l-60 12h-60l-48 -12l-48 12l-32 -12l-12 8l-40 -8l-20 -40q-7 -22 -32 -28l-28 36l-12 44l-28 -12v24l24 -4l8 8l-20 36l4 48l-120 -40l-12 8l-4 20l-20 -12l20 -40v-28l20 12l92 -20h-68l-12 -8q-19 -13 -20 -40l40 -196l8 -96h16l44 -20
l-8 -28v16l-24 -20l-28 12v-80l12 -20l-12 -12h120l148 32h24l-12 -28l-96 -24l36 -8l36 8l56 -20l44 20l24 32l12 48l20 40l28 152l20 40l12 48v60l20 40v60l20 100v56l20 104l-12 104l12 28l-12 8l20 40l12 48l8 204l-260 8l48 12l48 -12h164l12 64l8 148h20l12 48v60
l-20 40l8 32l-32 48h-56zM1031 1298l8 -12q-5 4 -8 12zM859 1118l12 -12q-8 3 -12 12zM191 978v-40l8 -12v40q-1 8 -8 12zM203 926l-4 -20h12q0 11 -8 20zM-5 898l12 -12l32 12l60 -8l-56 -12h-48v20zM1359 898l20 -20q-14 5 -20 20zM1419 898h60v-20h-60v20zM259 878v-392
h-16l-12 -64v-68l-12 -60l-8 -120l-60 -364l-20 -12l12 -20l60 -12l56 12l40 28l56 12l52 20l12 32l-8 12v72l-12 12l12 32v112l-8 16l8 32l-112 8v20l120 20v16l20 48l12 56l-12 8l32 88l-12 36l56 20l36 -36l20 -48l8 -88l20 -8l32 -32l52 20l8 12l-12 8l72 -16l-32 36
q-6 26 -36 32l-24 -12v36l32 36l-12 56l-40 100l-8 184l-12 4v64q-4 30 -32 40l-56 12h-272zM711 878q1 -28 20 -52l8 -120l12 -4l8 -120l12 -4v-52l20 -52l48 312l16 60q-1 25 -28 32h-72l-32 -12zM1459 698l12 -12q-8 3 -12 12zM1499 698l12 -12q-8 3 -12 12zM1171 566
l8 -8q-5 1 -8 8zM1339 566l12 -48q-9 21 -12 48zM1139 546l20 -28l-20 8h-28zM1171 546l20 -40q-12 17 -20 40zM631 366l20 -8q-11 1 -20 8zM639 318l12 -12q-8 3 -12 12zM999 258l-20 -20l-40 -12l-20 20q41 0 80 12zM731 226l20 -20q-14 5 -20 20zM931 218l28 -12
q-16 1 -28 12zM979 218l20 -12q-12 1 -20 12zM1411 186l8 -8q-5 1 -8 8zM239 126l12 -8q-7 2 -12 8zM1259 58l12 -12q-8 3 -12 12zM691 -174l-12 -20h20l12 12zM1371 -382l8 -12q-5 4 -8 12zM1451 -454l8 -8q-5 1 -8 8zM1299 -502l12 -8q-7 2 -12 8z" />
    <glyph glyph-name="O" unicode="O" horiz-adv-x="2212" 
d="M2374 1573l37 -8l-30 -106l-76 -102q-8 -29 -38 -49l-102 -167q-23 -22 -30 -57l-8 -4l27 -26l-27 3l-30 -26l-38 -53l-8 -34l8 -38q-10 -31 -38 -53q-31 9 -45 45l-95 80l-103 -76l-41 -45l-8 -31l8 -11l-27 11l-11 -11l11 -53l19 -50l-19 8v-68l8 -12v-53l-8 -7l8 -12
l-8 -170l-15 -76l-140 -303l-262 -273l53 -11l12 -19h-61q-27 0 -57 -19l-110 -64l-72 -19l-72 19l-76 -12l-269 50q-16 17 -45 26l-57 19l-8 -8h-72l-49 8l-114 -15l-19 7l-7 -37l7 -38l-26 -19l-19 38l-57 -31l-12 23l12 15l-30 -7l11 19l-49 37l-38 -11h-69l-7 11h-19
q16 23 49 27h46l7 11l12 -11l11 19l-26 30q-16 25 -50 38l-30 -11l11 38l-11 41l11 27l65 26l38 50l87 90l26 4l-26 299l26 61l-19 68l19 72v69l12 7l7 68l31 129l-8 12l27 38l19 68l37 49l-18 46l15 -12l144 197l57 34l125 54l49 37l64 23q32 14 76 15l65 23l129 15l30 -7
l23 19l102 -34l49 -42l57 -30l84 -95l56 -34l38 -50q21 -21 50 -22l19 11l-12 -27l8 -11l106 57l38 49q30 12 34 46l-65 113l-7 38h87l38 12l64 7l4 12q34 1 72 19h50l18 19l84 7l148 30l125 8zM2267 1478l-37 -19l-27 8l-246 -76l-72 -15l-54 7v-37l-37 30h-38l94 -118
l12 -34l-27 -11l-38 19l-11 -15l-53 -31l-61 -87h15l12 -45h-19l-27 19l-19 -19l-19 38v-23q-31 -15 -72 -15l-22 7l15 31l-46 26l-227 190q-10 31 -46 38q-27 17 -64 19l-65 18l-155 -7l-68 -19l-57 -27q-33 0 -61 -22q-30 -5 -57 -27l-110 -57l-49 -38l-26 -30h19l30 30
l19 -11l-46 -38q-25 -12 -41 -42l-38 -45l-65 -102l-19 -65v-83l-19 -65v-64l-11 -8v-38l-38 -174l12 -61l-12 -68q24 -18 31 -53l-12 -46l12 -18l7 -76l11 -42l-18 -11l-50 11l-4 -19l-41 -42l-50 -33l-34 -50l-60 -56l11 -38l121 -95l31 38l26 57l50 34l83 83l30 72
l34 -19l31 -53l75 -91q16 -28 50 -34l45 -38l106 -64l38 -4l8 11l7 -11h251l19 -8l38 19l60 8l23 30h-19l76 27l11 38l65 19l246 337l68 265v45l-30 95l11 23v42l-11 56l19 4q-1 36 -38 42l-8 38l27 15l11 30l-11 12h19q4 30 26 57l50 37l38 42q19 22 49 34l-11 31l45 19
l30 -19l65 19l30 -19l8 26l49 -23l201 304l19 64l26 34h-19zM960 1414l19 -12q-7 9 -19 12zM524 1251l11 -8q-3 6 -11 8zM952 1205h129l4 -11l64 -8l38 -30l99 -45l34 -38l38 -31l30 -41l19 -53q0 -22 -19 -35l-30 8l-46 -53q-11 -22 -38 -34l-144 -140l-57 -84l-26 -11
l7 -27l-7 -49l-31 -11l-37 60l-38 34l-38 19l-31 38l-34 19v-15l-45 -30l-61 -76l-19 -12l12 -30l-76 -64l-125 -141l-42 8l-11 -8l-27 46l-4 49l8 12l7 53l-7 53l11 4v68l-11 60v35l-95 -8l38 34h68l-11 30l19 -11l15 57q20 17 23 45l57 88l18 49l38 34l57 83l38 34l12 19
l30 -11l45 23q25 7 38 34h53l12 -8q24 6 49 19zM888 1148l-107 -56l-26 -31l-30 -22l-19 -38l-88 -80l-38 -72l-18 -91v-53l-8 -49v-167l19 -15l95 140l38 23l19 34l34 23l11 18h-23l-22 -11l-8 11l49 8l23 -8l38 42l-19 4l15 19l23 15l45 -4l23 8l-4 -27l12 -30l22 -19
l35 -64l26 -31l49 57l19 38l152 182l45 8l23 30l30 26l8 19l-15 12l-23 34l-68 42l-27 26l-45 12l-72 37l-30 8l-8 -8l-49 8zM2419 1137l19 -8q-10 1 -19 8zM1331 1099l8 -7q-5 0 -8 7zM1881 1099l7 -7q-4 0 -7 7zM1350 1080l27 -7l-12 -19l-26 7zM903 1073l19 -19
q-13 4 -19 19zM1756 1073l19 -12q-11 1 -19 12zM2173 1073l19 -12q-11 1 -19 12zM2203 1073h61l3 -12h-60zM599 1061l19 -7q-10 0 -19 7zM1718 1061l19 -7q-11 0 -19 7zM1414 997l12 -12q-8 3 -12 12zM1426 940l7 -11q-5 3 -7 11zM1236 929l8 -8q-5 1 -8 8zM220 883l12 -11
q-8 3 -12 11zM592 807l7 -11q-5 3 -7 11zM448 796l11 -19q-8 7 -11 19zM1054 796l12 -8q-7 2 -12 8zM1092 796l12 -8q-7 2 -12 8zM1433 796l12 -8q-7 2 -12 8zM1718 796l11 -8q-7 2 -11 8zM899 788l-4 -15l8 -4v16zM751 788l19 -19q-13 5 -19 19zM933 777l8 -8q-5 1 -8 8z
M1464 777q-3 -11 -12 -19zM1502 777l45 -27q21 -13 30 -41l-30 -38l4 -65l15 -7l-26 -159l-126 -292l-83 -125l-42 -30l-15 -19l-53 -19l-38 -30l-170 -38h-69l-41 7l-141 65l-113 94l-12 34l-38 -30l-19 30l-7 27l7 30q29 6 31 38l38 30l26 42l106 102l31 42l91 45v42l19 4
l34 -34l23 -50l11 -56l19 -50q32 -1 38 -34l60 76l23 45l38 31l30 42l273 280zM296 769l-7 -49l19 -8l7 57h-19zM592 769l7 -11l-19 -64l-7 45zM781 758q0 -15 -11 -27zM1244 731l11 -11q-8 3 -11 11zM599 720h38l-7 -11l-31 -8v19zM960 720l11 -8q-7 2 -11 8zM1358 720
l11 -8q-7 2 -11 8zM289 712l7 -18q0 10 -7 18zM448 712l11 -18q-1 11 -11 18zM675 701l12 -7q-7 1 -12 7zM277 675l12 -19q-2 11 -12 19zM1433 644l12 -7q-3 5 -12 7zM1426 625l7 -7q0 5 -7 7zM1452 599l-56 -57l-38 -68l-38 -19l-19 -31l-19 -7l11 -19l-30 -8l-27 -30
l-30 -23l-46 -60l-18 -38l-19 7l-38 -41l-19 -35l7 -75h-30l-15 38l-49 60l-8 46l-57 106l-26 -12l-23 -30l-87 -76l-50 -7l-34 -19l-7 -46l7 -45l19 -38l30 -23l84 -23l30 -26l68 -38l84 -19l76 38l94 64l27 31l110 163l34 72l19 87l27 30l75 171h-19zM1377 580l11 -12
q-3 9 -11 12zM599 568l12 -7q-7 1 -12 7zM1350 549l8 -7q-1 5 -8 7zM1301 504l11 -11q-3 8 -11 11zM175 398l7 -8q-4 1 -7 8zM770 398l11 -8q-6 2 -11 8zM31 277l11 -12q-8 3 -11 12zM1035 265l12 -7q-4 5 -12 7zM1358 258l-23 -50l-53 -87l-8 -26l19 11l95 152h-30z
M251 114l7 -8q-1 5 -7 8zM232 106v-19l19 19h-19zM1244 76l11 -8q-3 6 -11 8zM573 49l7 -11q-5 3 -7 11zM1407 49l7 -11q-5 3 -7 11zM1130 -38l12 -7q-4 5 -12 7zM979 -38l11 -7q-7 1 -11 7zM440 -83l-30 -38l-38 -30l-57 -72l-15 -42l57 -8l57 8h132l8 34l15 4l42 -8z
M827 -102l11 -11q-8 2 -11 11zM1331 -113l8 -8q-5 1 -8 8zM137 -140l8 -11q-6 3 -8 11zM630 -140l19 -11q-11 1 -19 11zM364 -178l8 -11q-5 3 -8 11zM1198 -189l19 -8q-10 1 -19 8zM725 -197l18 -11q-10 1 -18 11zM364 -216l8 -11q-5 3 -8 11zM743 -216l8 -11q-5 3 -8 11z
M1130 -227l27 -8l-27 -11v19zM615 -235l15 -11q-5 8 -15 11zM524 -246l11 -8q-7 2 -11 8zM819 -273l8 -11q-1 8 -8 11zM831 -284l7 -8q-1 5 -7 8zM903 -284l-65 -19l57 -19l72 -7l46 18l60 16l-30 11l-34 -8l-30 8h-76zM971 -303l8 -8q-5 1 -8 8zM1066 -341l19 -7l7 7h-26z
M-45 -424l19 -68l12 -73h-31v141zM277 -549h19l-26 -16z" />
    <glyph glyph-name="P" unicode="P" horiz-adv-x="1325" 
d="M1539 1456h56v-16h-56v16zM659 1392l12 -12q-8 3 -12 12zM939 1392l48 -12h60l44 -20l28 -28l32 -16l40 4l48 -32l12 -48l28 -32l20 -40l40 -16l40 -80l24 -92l36 -84l32 -148v-60l-20 -100l-20 -36l-32 -32l-20 -36l-88 -92l-152 -84l-44 -16l-248 -52h-56l-152 -28
q-24 -1 -28 -28v-60l8 -12l-8 -32l8 -52v-116l20 -28l12 16l16 -20l292 -4l-48 -16l-48 12h-176l-40 -20l-16 20v-140l-12 -48l12 -84l-40 -20l-12 12l-28 -12l-8 12l-52 8l-36 -20l-40 20h-56l-20 -20v16l-120 4l-12 -8l-28 16l-8 32l8 12v40h-16q-21 5 -28 28l4 112l-8 12
l8 152l12 48v116l8 52v60l12 48v116l8 52v60l-28 32h28l20 188l-8 32l8 12l-8 24l8 8l-16 108l8 12l-12 28l12 24l20 96l-8 48l16 40h-28v28l32 32l48 12l20 40l128 28l12 -8l40 20h60l100 20h116l48 -12h120zM419 1360l20 -8q-11 1 -20 8zM899 1300l24 -8l8 8h-32z
M739 1292l-44 -12h-52l-32 -20l-212 -48l-32 -20l-76 -28l-12 -40l12 -40v-52l-12 -40l-8 -200l-12 -40v-104l-8 -44l8 -12l-8 -24l8 -28l-8 -8v-156l-12 -72l12 -8l-12 -40v-52l-8 -44l8 -32l-8 -8v-48l-12 -40l12 -24l-12 -8l8 -40l-8 -36l12 -40l-12 -40l12 -40l-12 -40
v-124l360 -8l-28 100v104l-36 36l-20 -12h-156l-72 20h52l20 12l8 -12h156l8 12l20 -12l8 44v260l20 32l8 44h52l52 20l-12 20q9 19 32 20l44 -8l44 8l44 -8l44 8l32 20h52l240 72l28 24l100 160l16 36l4 48l12 40v52l-20 32l-32 108l20 28l-32 72l-24 28l-12 44l-52 104
l-24 24l-96 60l-84 20l-84 -20l-44 8h-88zM111 1292h28v-20h-28v20zM159 1292l20 -12q-12 1 -20 12zM191 1292h64l4 -12h-64zM35 1140l4 -36l-4 -12v48zM579 1000h140l28 -20q36 -2 80 -20l52 -48l20 -32l12 -40l-12 -88l-100 -100l-64 -40q-27 -23 -68 -32l-92 -8
q-21 31 -24 76l20 264l-8 8zM811 992l8 -12q-5 4 -8 12zM871 960l8 -8q-5 1 -8 8zM631 940l-12 -56v-36l12 -20l8 -188l140 60l20 48l32 36l8 60l12 28l-52 40l-56 8l-52 16zM651 932l8 -12q-5 4 -8 12zM35 -120h84v-20zM239 -120l12 -20q-9 8 -12 20z" />
    <glyph glyph-name="Q" unicode="Q" horiz-adv-x="1575" 
d="M1040 1558h124l36 -8l12 8l52 -8h64l48 -12l84 -40l100 -88l36 -20q20 -8 32 -32l32 -32l24 -36l24 -80l-8 -12v-184l-20 -40l-32 -152l-28 -36l-100 -208l-32 -28l-24 -40l-36 -84l-28 -36q-8 -20 -32 -32l-20 -40l-36 -28l-28 -32l-36 -24l-60 -64l-40 -20l-28 -32
l60 -128l24 -32l36 -92l8 -52l52 -32l-32 -72l-40 -20l-104 -20l-156 -88l-32 -12l-12 8l-4 32l20 8l8 12l-80 208l-8 52l-32 -8l-24 36l-256 -48h-124l-32 -12l-8 12l-40 20l-24 -12l-112 100l-28 32l-60 124l-28 96l-12 172l8 56v60l20 40l12 52l68 120l12 48l40 84l12 48
l28 32l20 44l-20 40l52 72l128 120l20 40l40 20l52 72l36 28l40 20l28 32l44 20l32 28l48 12l44 20l156 28zM1128 1518l248 -80l12 8l64 -48l48 -20l20 20l-20 8l-36 32l-204 76zM1008 1510l-100 -20l-84 -40l-44 -12l-72 -48l-32 -32l-48 -32l12 -24l-40 -24l-60 -60
l-20 -36l-32 -28l-188 -292l-12 -48l-40 -80l-20 -100l-36 -84l-8 -52l-16 -40v-60l-8 -52l20 -76l-40 -44l12 -48l36 -84l32 -28l52 -68l40 -20l56 -4l44 -16l96 -20l-8 20l28 -8v-28l44 -12l52 8l84 32l-40 8h60l32 12l8 -12l64 52l36 8l12 -8l20 -40l8 -52l52 -124l8 -52
l12 -24v-40h20l160 80h40v16l-72 168l-28 8l20 8l-28 60l-28 32l-16 48l12 32l-12 28l12 8l24 -8l36 40l-12 52q10 20 32 28l28 68l32 28l68 112l32 28l100 136q5 23 28 32l20 40l32 28l24 40l32 28l24 32l60 120l20 100v60l-40 140l-32 28l-24 32l-44 20l-48 8l-120 60
l-268 92h-56zM1700 1378l8 -8q-5 1 -8 8zM340 1370l8 -12q-5 4 -8 12zM1040 1370l20 -12q-12 1 -20 12zM1388 1370l12 -12q-8 3 -12 12zM1048 1338h152l12 -20l68 -24l48 -44l80 -100l20 -72q8 -26 40 -32l-40 -144l-88 -184l8 -12l-8 -28h32l-12 -20l-16 12l-52 -40
l-68 -112l-44 -48l-52 -36l-36 -56l-44 -48l-40 -20l-40 80l-68 88l-4 -20l-48 -40l-40 -52l20 -72v-64l-16 -12q-10 -31 -44 -44l-128 -56l-76 12l-64 28q-33 1 -68 20l-48 -28l-36 8l-8 20l-48 40l8 32l-20 8l-8 -8l8 12l-12 56v68l-20 44l20 28l20 144l32 28l-12 -92h12
l36 60l20 72l32 60l20 68l32 56q11 32 40 56q27 14 40 48l60 120l100 80l40 52l64 28l36 -8l20 24l68 24q25 24 60 32q30 11 60 28zM1160 1278l-112 -36l-52 -24h-72l-56 -16l-40 -32l-52 -20l-88 -60l-208 -328l8 -36l-28 -44l-40 -104v-128l8 -12l20 -120l32 -44l36 -36
l52 -20h148l44 24v56l-12 4l-20 52l-40 36q12 19 40 32q4 30 28 48l44 24l56 4l4 12l108 80l16 -12l24 -52l32 -40l8 -36l20 8l140 200h-20l20 16l60 84l40 108l28 44l12 132l-8 64q-11 25 -40 32l8 20h-20l-48 32l-8 -32l-4 16l12 44l-32 40q-22 12 -48 20zM868 1190
l12 -20h-20zM580 1170l8 -12q-5 4 -8 12zM180 1158l8 -8q-5 1 -8 8zM1428 1158l12 -20q-9 8 -12 20zM748 1118q-1 -10 -8 -20zM720 1090l8 -12q-5 4 -8 12zM580 1078l8 -8q-5 1 -8 8zM1460 650l-88 -120l-12 -32h20l28 20l40 96l20 24q-1 8 -8 12zM168 598l12 -28
q-1 16 -12 28zM140 518l8 -8q-1 5 -8 8zM1348 498l12 -8q-4 6 -12 8zM128 490l12 -20q-1 12 -12 20zM1328 478l-8 -28l20 8q-1 12 -12 20zM1308 450l12 -12q-3 8 -12 12zM1300 438l-72 -100l12 -20l68 96q0 12 -8 24zM300 390v-64l20 -36q-12 76 -20 100zM1220 318l8 -20
q-1 11 -8 20zM328 290l-8 -32l12 -8l8 32q-3 6 -12 8zM1200 290l8 -12q-1 8 -8 12zM1888 278l40 -20h-40v20zM344 250l16 -32q-5 16 -16 32zM388 250l12 -20q-1 12 -12 20zM404 230l-4 -16l8 -4v16zM412 210l8 -12q-1 8 -8 12zM1128 210l20 -12q-7 9 -20 12zM1888 190
l12 -12q-8 3 -12 12zM620 170l20 -12q-7 9 -20 12zM568 -42h40l-32 -8q-5 1 -8 8zM920 -42l20 -8q-11 1 -20 8zM960 -42l8 -8q-5 1 -8 8zM1068 -42l12 -8q-7 2 -12 8zM1220 -42l8 -8q-5 1 -8 8z" />
    <glyph glyph-name="R" unicode="R" horiz-adv-x="1230" 
d="M635 1491h80l200 -28l32 8l8 -20h-40l172 -108h40l60 -52l8 -68l-8 -72l-60 -168v-60l-20 -52h20l44 32l24 -12l-16 -28l-40 -40l-44 -32q-16 -13 -20 -36l-104 -52l-84 -68l-52 -24q-29 -6 -48 -32l44 -76l76 -80l40 -72l20 12l-12 -20l12 -4l40 -36l88 -140l36 -40
l24 -52q24 -16 32 -48l120 -188l40 -36q-14 -24 -44 -36l-48 -24l-120 -36l-152 -80l-36 40l-120 188l-72 80l-52 100q-23 4 -36 20q20 4 28 24l-60 92l-40 40l-28 48l-80 72l-12 -52l12 -16l-12 -36l20 -136q5 -24 32 -32l20 8v-32l-12 12h-28l20 -100v-60l20 -140v-88
l52 -24l8 -20l-272 -8l-100 -28l-48 28l-12 64v56l-8 12l-12 64v156l-20 96l12 8v60l-12 4v136l-8 12v72l-12 44l-8 224l-12 64l-8 124l8 12l-8 224l-12 64l-20 12l40 80l-20 12l20 28l176 132l48 28l168 60l-12 20l36 -8l68 8zM127 1463h28l-20 -12q-5 4 -8 12zM315 1463
l12 -12q-8 3 -12 12zM355 1463l20 -20q-11 7 -20 20zM975 1463h56l4 -12h-56zM595 1443l60 -12q-29 9 -60 12zM535 1431v-20l44 12zM635 1411l-56 -20l-64 -8l-164 -60l-84 -60l-60 -88l-40 -32l-52 -60l20 -12l12 -64l8 -244l20 -4l-8 -128l20 -140v-56l8 -8v-72l12 -60
l8 -212l20 -36l-8 -12l8 -404h24l56 20l40 -8l72 24l40 4l-20 80v52l-12 8v148l-8 68l-12 16l12 32v196l-12 12v220q0 32 28 48h24v-124q4 -28 32 -36l28 12l60 -48l28 -44l36 -40l24 -48l132 -160l24 -12l24 12l64 -12l-36 -8l-44 -20l32 -40l24 -52l32 -44l8 -64l20 -52
l32 -44l16 -4l44 8l52 20h36l24 12l68 8q20 13 20 32l-160 208l-40 32l-168 180l28 40l-92 128l-20 52q-22 11 -32 40l-24 48l-44 32l-88 20l4 40l16 8l28 -20l60 12l52 20l-20 36l40 32l36 40l32 12l-4 -32l-44 -28l28 -8l52 20l28 44q26 8 44 32l88 132l60 160l-20 124
l-60 88l-36 36l-44 32l-48 20l-68 8l-52 20h-144zM1107 1303l48 -112v80q-20 21 -48 32zM595 1303h80l44 -32l32 -48l16 -60l-12 -68l-20 -56l-60 -96l-20 -56l-108 -124l-100 -60l-20 -20l-28 8l-44 112l-12 8l-28 -8l-20 156q-18 24 -20 60l32 4l8 -36l12 16v56l-32 12
l20 32l12 100h28v-20l20 -12l120 80l56 20q22 13 44 32zM587 1211l-72 -28l-124 -80l-16 -20h32l-12 -116l40 -196l40 16l60 44l92 104l40 60l32 68l16 80l-32 68h-96zM187 763l20 -12q-12 1 -20 12zM227 763l8 -12q-5 4 -8 12zM315 763l12 -12q-8 3 -12 12zM335 763l20 -12
q-12 1 -20 12zM715 763l12 -12q-8 3 -12 12zM787 763l20 -12q-12 1 -20 12zM895 763l12 -12q-8 3 -12 12zM875 751l12 -8q-7 2 -12 8zM847 523l8 -12q-5 4 -8 12zM87 51l8 -8q-5 1 -8 8zM115 51l12 -8q-7 2 -12 8zM335 51h60l12 -8h-60q-7 2 -12 8zM635 51l12 -8q-7 2 -12 8
zM955 51l12 -8q-7 2 -12 8zM1195 51l12 -8q-7 2 -12 8zM827 43l8 -12q-1 8 -8 12z" />
    <glyph glyph-name="S" unicode="S" horiz-adv-x="1280" 
d="M305 1343l20 -20l-20 -8v28zM505 1343h40v-20h-160l40 12h68q8 1 12 8zM1185 1335h72l8 -12h-72q-5 4 -8 12zM653 1295h84l164 -60q2 -31 28 -52l120 -120l36 -48l28 -52l-36 -48l-244 -240l-20 -40h160l-52 -12h-80l-52 12l-4 -12l-60 -8l40 16l-52 56l-8 56h-16
q-17 22 -48 32l-28 8l-16 -28l-4 -72l32 -48l60 -8l40 -32l420 -140l48 -32q24 -13 40 -40l52 -28q23 -18 28 -52l36 -48l16 -144v-80l-16 -68l-24 -56l-152 -172l-88 -72l-52 -28l-60 -20l-140 -20l-232 8l-192 52l-104 56l-136 104l-36 48l-48 32l-40 40l28 52l72 92
l56 104q1 31 32 32l32 20l20 -12q22 -13 40 -40l20 -60l60 -100l80 -84l60 -20l-20 -4l24 -32l72 -8l120 -40l72 8l52 24l48 32l52 88l8 72l-20 60q-12 25 -40 40l-28 52l-40 40l-48 32l-64 16l-48 36l-136 20l-124 40l-80 80q-23 12 -40 40q-22 19 -32 52l-20 60v80l-28 52
l8 60v92l20 60l32 48l48 36l32 48l120 120l48 32q30 2 60 20l56 8zM665 1255l-120 -40l-160 -144l-60 -96l-16 -52q15 -28 16 -64l-20 -56l-12 -64l12 -68l20 -56q0 -29 20 -56l32 -44l44 -32q21 -18 52 -28l284 -100l36 -4l40 -36l56 -20l96 -60l60 -96l20 -56l-52 -180
l-28 -52l-40 -36l-48 -32l-112 -16l-172 56h-56l-64 32l-68 48l-8 -28l-32 -12l-20 16l-60 96l-84 68l-32 12l-76 -80l8 -20q14 -22 44 -32l48 -8h-60v-12l52 -32l28 -48l52 -24q12 -23 40 -40l40 -36l56 -20l48 -28l348 -40l116 36q29 2 52 24l72 8l48 28l80 72l88 144
l32 200l-36 116l-36 44l-40 36l-92 60l-208 72l-20 -12l132 -48l-12 -40l-48 32l-68 8l-112 44l-40 36l-100 32l8 28l-60 60q-26 16 -28 52v64l20 72l40 36l8 16l44 -12l48 -28l36 -40q7 -26 32 -36l44 36l148 160l-60 92l-20 56l-36 40l-48 32l-56 24v16l48 -12h52l-60 40
l-56 20q-28 12 -64 12zM945 1095l20 -48q1 -21 24 -24l-12 40q-12 16 -32 32zM1025 1003l-12 -28l16 8l16 20h-20zM785 715l8 -12q-1 8 -8 12zM345 635l8 -12q-5 4 -8 12zM705 635l8 -12q-5 4 -8 12zM1025 635h72l8 -12h-72q-5 4 -8 12zM933 555l12 -12q-8 3 -12 12z
M1025 515l8 -12q-5 4 -8 12zM833 483l40 -20q-16 14 -40 20zM673 483l12 -8q-7 2 -12 8zM485 475l20 -12q-12 1 -20 12zM785 435l8 -12q-5 4 -8 12zM865 403l8 -8q-5 1 -8 8zM913 403l12 -8q-7 2 -12 8zM1045 403l8 -8q-5 1 -8 8zM733 395l12 -12q-8 3 -12 12zM1253 395
l12 -12q-8 3 -12 12zM465 363l8 -8q-5 1 -8 8zM225 115q3 -24 28 -32q-3 24 -28 32zM305 -65l20 -20q-14 5 -20 20zM865 -65l28 -20h-28v20zM1053 -77l12 -8q-7 2 -12 8zM1093 -77l12 -8q-7 2 -12 8zM1373 -77l12 -8q-7 2 -12 8zM1413 -77l12 -8q-7 2 -12 8zM885 -157l8 -8
q-1 6 -8 8zM865 -165l20 -12q-7 9 -20 12zM265 -165l8 -12q-5 4 -8 12z" />
    <glyph glyph-name="T" unicode="T" horiz-adv-x="1615" 
d="M646 1298h66l48 -13h61l27 13l8 -13l31 13l9 -13l240 -9l48 -13l302 -9l48 -13l44 -22l40 22l39 -22l17 -44h22l-35 -74l-8 -52l-9 -175l-13 -53l-22 -39l-44 -44l-26 13h-184l-105 22h-61l-105 22l-53 -5l-13 -48l13 -52l9 -613l22 -105v-61l13 -26l-13 -9l-22 -39
l-31 -96v-62l-13 -48q-18 -15 -48 -17l-26 39h-109l-49 -17l-214 -36h-44l44 224l9 179l-9 52l9 57l-9 53v61l9 52l-9 57l9 53l-9 52l9 53v127l13 48l-44 17l-13 31l22 61l-22 40v-22l-17 22l-307 -66l-26 -35l-74 -35l-22 39v66l-9 9l-26 -9l-44 17l18 22l39 22l9 35l-9 31
v241l-35 65l17 13l105 22l504 31q6 3 8 13zM1513 1263l21 -9q-12 1 -21 9zM1556 1263l9 -9q-5 1 -9 9zM1609 1263l13 -9q-8 2 -13 9zM856 1232l-127 -22l40 -26l-44 -9l-61 35l-61 9l-136 -9l-61 -13l-62 13h-122l-9 -13h-35v-35l-35 -39l13 -57v-48l31 -70l35 -35l276 13
l17 9l39 -9l40 9l52 -44l13 -22l-21 9q3 -24 21 -26v-27l31 13h144l31 -13l35 40l44 30v53h22l22 -53l56 -13h145l302 -65l-13 -14l43 -8l-4 30l17 57v70l22 53v70l9 65l-35 35l-122 22h-75l-57 13l-61 -13l-61 13l-57 -13h-149q6 25 40 27l-62 8h-70zM99 1210v-35h22v35
h-22zM887 913l13 -9q-8 2 -13 9zM1018 904l13 -13q-9 3 -13 13zM515 838l22 -13q-8 10 -22 13zM1141 838l22 -13l8 13h-30zM712 825l-44 -43l-9 -40l9 -13l-30 -674l8 -17l-8 -44l-14 -8v-202l-30 -118h52l79 18l136 48l39 -44l22 13l-13 66l13 9l9 91v464l13 26v302l-22 79
q-1 38 -35 65l-140 14zM1228 817l44 -14q-20 10 -44 14zM156 795l9 -13q-2 8 -9 13zM419 782l9 -9q-6 1 -9 9zM419 751l9 -13q-6 4 -9 13zM506 650l9 -8q-5 0 -9 8zM318 628l13 -30l-8 -13l-14 30zM99 51l14 -13q-9 3 -14 13zM143 51l13 -13q-9 3 -13 13zM659 51l9 -13
q-6 4 -9 13zM1469 51h79l8 -13h-78q-6 4 -9 13zM1644 51h74l9 -13h-74q-6 4 -9 13zM1018 -124l-9 -22h22q-1 14 -13 22z" />
    <glyph glyph-name="U" unicode="U" horiz-adv-x="1175" 
d="M1346 1141h104v-16h-104v16zM994 1077l20 -12q-12 1 -20 12zM1066 1065h68l48 -20l4 -128l20 -48l40 -24l-32 -20v-40l16 -8l16 -52v-68l8 -52l20 12l12 -28v-196l-12 -56v-52l12 -4l4 -124l56 -12l-52 -16l-8 -40l8 -208q-12 -19 -40 -28l-20 -44l-76 -124l-40 -28
l-52 -12l-40 -28l-52 -12l-48 -20l-380 20l-44 20h-48v20l-44 20l-36 32l-68 40l-12 -8v-24l-80 32l-28 40q-24 8 -32 36l-40 92l-8 56l8 60v96l-44 20h24l20 20l20 112v68l12 52v200l20 112v68l8 56l-28 20h20l8 56l20 48v48h40l-8 20h-16l12 28h64l36 12l12 -8l52 -12h136
q25 -6 28 -32l-24 -8l12 -20l8 -44v-196l8 -40l-8 -12v-68l-12 -52v-68l12 -12l-12 -28v-132l-8 -60l8 -92l12 -20l8 -60l20 -44l40 -24l60 -8l112 20l40 24l20 48q6 22 28 36l-24 40l-4 132l8 36l-8 12v52l-12 4l-8 124l8 32l20 -12l12 28l-8 12l16 44v132l-8 56l-20 -12
l-12 20l20 8v132l-8 60l12 12l32 -12h64l56 12h44q8 1 12 8zM234 1017l20 -12q-7 9 -20 12zM1034 1017l-56 -12h-64l-20 -8l12 -20h20l8 -288l12 -52l-12 -48l12 -32l-12 -12v-60l40 -148v-40l8 -12l-8 -32l8 -8l24 -108l-20 -40l8 -56q-2 -25 -28 -36l-60 -68
q-8 -19 -32 -32l-32 -8l-12 8l-52 12h-128l-52 8l-44 -12l20 24l-28 56l-52 12l-28 36l8 12l-8 36l-40 56l24 -8l4 496l12 52v152h-36l36 20v64l8 56l-28 8l-196 -80l-12 -40l16 -96l-12 -304l-28 -160v-128l28 -32l40 -20h-36l-4 -20l-28 20l12 -64l20 -44l108 -144l12 -48
l104 -88l24 20l-4 -20l156 -88l48 -12l108 20l48 -12l104 20l176 80l32 32l24 40l16 160l-8 56l12 52v40l-8 12l8 52v188l-32 156v64l-20 104l-28 36l-8 28l12 12l24 -12v60l-32 20l24 36l-16 44l-24 40l-12 52h-60zM326 857l8 -12q-5 4 -8 12zM674 845l60 -8q-28 0 -60 8z
M954 845l12 -8q-7 2 -12 8zM1054 845l12 -8q-7 2 -12 8zM554 297l12 -12q-8 3 -12 12zM826 157l20 -20l-20 8v-20l-12 20q9 3 12 12zM1086 157l48 -16l-4 -16l-28 12l-48 -8zM574 145h52l28 -8h-72l-16 -12zM674 145h40l-8 -12q-17 2 -32 12zM1014 145l20 -20q-14 5 -20 20z
M734 137l20 -20q-14 5 -20 20zM866 65l-12 -20l12 -8l8 20q-1 5 -8 8zM166 -115v-24l8 -4v24zM178 -143q0 -32 28 -52q-11 26 -28 52zM326 -195l8 -8q-1 6 -8 8zM354 -223l12 -12q-3 9 -12 12z" />
    <glyph glyph-name="V" unicode="V" horiz-adv-x="945" 
d="M1161 1255l16 -16q-10 3 -16 16zM881 1199l36 -20l88 -20l68 -40l28 -28l-36 -20l-16 -32l-8 -48l-20 -32l-12 -44l32 -20l28 4l-24 -20l-24 12l-20 -32l-20 -84l-20 -36l-52 -216l-20 -32l-8 -48v-52l-20 -36l-40 -156l8 -8l-28 -24l-52 -164l-20 -36l-20 -88l-20 -32
l-8 -44l-24 -32l-16 -40v-52l-20 -32l-40 -36l-28 8l-32 20h-52l-48 -8l-44 8h-56l-44 -8l-48 8l-20 -8v16l-28 36l20 32l-12 44v104l-20 144l-16 32l-12 100l-12 40l12 44l-12 40v56l12 40l8 528q-18 2 -20 20l20 -8l8 12l4 100l-12 44l20 32l24 84l32 8l8 -8l48 4l84 -16
h36l8 8l52 4l40 -12h28v-28l-20 -88l20 -32l12 -44v-52l8 -32l-8 -8v-160l8 -44l28 -20l24 -56l20 36l8 40l52 112l20 88l-32 20l32 8l48 164l20 32l12 44l36 20l40 12q12 12 24 28zM289 1119l-20 -36v-268l20 -76l-8 -8l8 -44l-8 -28l8 -8l-8 -372l-12 -40l4 -48l16 8
l-16 -20l-12 -40v-268l8 -12l-8 -28l8 -44v-56h32l-12 -12h-20l12 -20l68 28l24 -28h56l44 -8h108l16 40l28 188l16 36l48 220l20 36v40h16l4 48l12 40l40 72l8 44l20 36l32 128l20 32l8 48l52 160l-20 40h28l12 40l36 72l24 80h-92l-20 -32l-8 -48l-20 -32l-12 -44v-36
l40 -8h-60l-20 -104l-20 -36l-4 -52l-16 -36l-8 -44l-20 -36l-32 -4l-8 12l-20 -32l-12 -40l-20 -36l-48 -220v-52l-12 -44l-40 -16l-20 -32l-44 12l-36 20l-20 32l-8 156l-12 40v144l-8 8l-8 40l16 92v108l12 40v56l20 196l-20 8l-12 -12l-40 16v36l-8 8l-28 -8l-8 8
l-24 -8q-3 6 -12 8zM281 911l28 -20l-20 -12zM1161 911v-40l-60 28q21 0 60 12zM89 899h20l-24 -20zM329 899h68l12 -8h-68q-7 2 -12 8zM561 891l8 -12q-5 4 -8 12zM649 891l12 -12q-8 3 -12 12zM1141 859h20v-36l-12 -8l-20 16zM1149 739l12 -8q-7 2 -12 8zM541 551v-60
l-12 -44v-76l20 12l12 48l-4 48l-8 8l12 4q-10 39 -20 60zM241 511l8 -20q0 11 -8 20zM229 471l12 -12q-3 9 -12 12zM229 431l12 -40q0 21 -12 40zM89 199l12 -20q-9 8 -12 20zM649 199h32q-8 -19 -32 -20v20zM309 191l12 -12q-8 3 -12 12zM329 191h72l8 -12h-72q-5 4 -8 12
zM969 191h72l8 -12h-72q-5 4 -8 12zM85 -201l16 -72l-12 -8l-4 12v68zM1101 -509l60 -16h-60v16z" />
    <glyph glyph-name="W" unicode="W" horiz-adv-x="1245" 
d="M126 1415l20 -144l48 -48l88 -8l68 28l16 -28l40 12l40 60l28 16l12 -44l-12 -84l12 -84v-100l-12 -36v-32l20 -20l-20 -52l12 -60v-56l8 -12l-8 -16q9 -33 40 -56l20 -76v-72h20l40 60l64 132l48 48q42 -1 56 -44l40 -56l20 -64l32 164l8 164l12 8l28 288l64 12l76 -20
h192l80 20l28 -20l-8 -44v-176l-12 -68l12 -24l-12 -8l-20 -172l-20 -80v-72l-28 -92l28 -52l-20 -80l-8 -88l-12 -36l12 -36l-12 -84v-80l-8 -12l8 -68l-8 -12v-192l-20 -80l-40 -16l-12 12l-100 8l-84 -20l-88 -8l-76 -20v-20h-40l-12 28q-41 8 -48 48l-40 156l-20 16
l-12 -48q-1 -34 -20 -72q39 -3 40 -36l-88 -12l-8 -12h-76l-28 -8l-32 8l-12 -8l-88 -12h-72l-16 8l-44 52l-36 64l-20 172v68l-8 12l-12 80l12 4l-12 84q-28 0 -28 20l20 -4l8 60l-28 -8l20 8v200l-12 8l12 64l-32 256l-40 116l12 28l-12 12l20 52l32 -4l-16 228l24 68v144
h12zM286 1175l-20 -20l-32 8h-40l-8 -28l8 -60l-8 -160q12 -24 40 -32l-24 -8l-8 8l-20 -8l8 -32l-8 -16l12 -40v-56l8 -12v-80l12 -64v-52l16 -8l12 20l32 -16l-36 -44l-24 -52l20 -212q4 -22 28 -28h20l-40 -20v-120l12 -4l8 -36l-8 -12l28 -276l8 -12q14 -20 44 -24l56 4
l8 12l60 -20h56l12 8l28 48l28 128l20 56l32 48l28 72l36 -20l96 -296q2 -30 32 -44l60 -20h48l8 20l32 -12l20 12h60l12 8l8 16l-12 40l40 272l28 52l12 60l12 20l-12 36l20 56v80l12 64l-12 16l12 40l28 44q18 18 20 48l20 132v236l12 64v60l8 12v76l-8 28h-40l-60 -20
l-148 8q-28 -6 -44 -32v-56l20 -44l-8 -12v-16h-32l-8 -252l-12 -68l-8 -204l-12 -8l-20 -136l-20 -60l-28 -12l-12 28l-8 124l-12 12l-56 176l-24 52l-24 -52l-36 -40l-20 -60l-40 -40l-28 -88l8 -12l-12 12l-8 -68l-28 -84l28 12h80l64 -12l-44 -8h-76l-48 -12l-8 12
l-36 -12l-12 20l-28 -20l8 20l-24 52l16 56v52l-40 60l-20 128l8 80l-8 148l-28 124l8 64v124l-12 20l-8 72q-27 8 -60 12zM86 1023l8 -8q-5 1 -8 8zM1394 903q20 -2 28 -20v-820l-8 -28l-8 136l-12 24l12 12l-12 48v60l12 44v176l8 52v292q-19 3 -20 24zM26 895l20 -20
q-14 5 -20 20zM314 895h32l-32 -20v20zM526 895l8 -12q-5 4 -8 12zM1214 895l12 -12l-20 -8zM-26 883h32l-24 -8q-4 1 -8 8zM546 643l8 -8q-5 1 -8 8zM506 523l8 -40v32q-1 5 -8 8zM506 475l-12 -32l12 -8l8 32q-1 5 -8 8zM-6 403l12 -8q-7 2 -12 8zM394 363l12 -8
q-7 2 -12 8zM426 335l8 -12q-5 4 -8 12zM414 303l12 -8q-7 2 -12 8zM-6 195h68l24 -20h-116q12 6 24 20zM314 195l32 -20h-52q12 8 20 20zM374 195h52l-12 -28l-48 8zM1354 195l12 -20q-9 8 -12 20zM794 183h60l28 -8l-12 -12l-24 12q-24 0 -52 8zM934 183l20 -8
q-11 1 -20 8zM1114 175l12 -12q-8 3 -12 12zM1046 -137l8 -48q-6 22 -8 48zM1194 -177l12 -48q0 24 -12 48zM1314 -197l40 -8v-28l20 -12l-8 -32l-40 20zM1186 -237v-52l8 -16l12 40z" />
    <glyph glyph-name="X" unicode="X" horiz-adv-x="1560" 
d="M1871 1444l16 -16q-10 3 -16 16zM1239 1428l52 -4l32 -16l124 -28l32 -20l60 -12h52l44 -8l56 8l100 -20l76 -48h-48q-36 -3 -68 -32q-28 -19 -40 -60l-52 -48l-20 -32l-28 -20l-32 -68l-188 -268l-32 -16q-16 -30 -48 -56l-40 -60l-20 -12l8 -60l92 -208l40 -60l60 -140
l80 -124l28 -72l40 -60l28 -16l-12 -28l44 -56q-6 -22 -32 -24l-16 -12l-8 12h-100l-84 -20l-68 -32l-80 -20l-92 -8l-28 24l-36 -4l-36 8l52 60l-36 -8q-27 22 -44 60l-24 48l-16 -12l8 40l-68 232q-22 30 -32 72l-20 40l-20 -16l-252 -304l-16 -32l-52 -48l-80 -120
l-28 -24l-56 -96l-60 40q-35 20 -80 20l-32 20l-40 8h-84l-36 32l-20 28l28 20l-12 36l32 24l8 32h-40v20l40 -12q33 10 56 40q28 21 44 56l120 180l24 116l80 68l36 64l52 48l8 20l-12 8l-16 36l-44 56l-68 20l40 8l-136 212l-12 32l-20 16l-20 -20l-20 40l40 -12l-20 44
l-20 -12l-48 40l-52 200l28 24l-40 60l-8 28l36 20q-34 3 -60 28l40 12l144 8l60 12l-20 40l32 -12l12 12l80 -20h80l8 -12l44 -8l24 -52v20h80l-32 -12l-40 4l-8 -28l188 -284l28 -20l44 -56l8 -32l40 16l52 52l180 272l28 80l-16 -12l-4 12l-48 -12l-24 12h-64l-12 8
l180 -8l8 28l48 52q11 31 32 68zM1491 1408l20 -8q-11 1 -20 8zM15 1288l16 -8q-9 1 -16 8zM811 1288h68l12 -8h-68q-7 2 -12 8zM1271 1280l-68 -100l-44 -40l-32 -52l-76 -88l-60 -104l-40 -44l-32 -52l12 -72l-64 20h-36l8 40l-20 12l-8 -12l8 28l-28 12v-40q-32 3 -60 24
l-20 64l-112 136q-17 24 -48 36l-32 52l-40 44l-28 52l-52 32q-29 -2 -60 -20l-28 12l-32 -12h-20l20 -20l-20 8l60 -164l152 -260l40 -44l48 -120l60 -20l60 -48l-8 -92l28 12h32l-4 -52l-156 -172l-32 -52l-48 -36l-40 -44q-12 -23 -40 -40l-32 -52l-40 -44l-60 -88
l52 -12l24 12h64l12 8l24 -8l32 20l244 248l32 52l44 40l64 100q-20 16 -20 40l20 20l40 -8l28 -52q26 -11 44 -40l56 -112l40 -124l32 -52l8 -52q6 -26 28 -52l44 -124l56 -4l12 8l72 12l156 8l12 32l-16 20l-24 60l-80 88l-28 52l-80 88l-92 156l12 36l28 -12l96 -148
l24 -20l-8 32l-124 288l-36 48q-12 27 -40 44l-12 12l20 4l-8 28l16 44l404 508l80 84l-56 28l-24 -12l-36 12h-244zM1631 1280l8 -12q-1 8 -8 12zM131 1240h8l-4 8zM1831 1240h40v-112l-12 4l-40 80q8 11 12 28zM311 1200l8 -12q-5 4 -8 12zM971 1040l8 -12q-5 4 -8 12z
M199 928l20 -20q-6 13 -20 20zM331 800l8 -12q-1 8 -8 12zM431 668l8 -8q-1 5 -8 8zM439 648l12 -8q-3 6 -12 8zM463 628l16 -28q-4 15 -16 28zM651 588l20 -20q-14 5 -20 20zM1279 588l12 -20q-9 8 -12 20zM331 580l20 -12q-12 1 -20 12zM891 580h152l8 -12h-152
q-5 4 -8 12zM719 480l12 -12q-8 3 -12 12zM639 448v-20l20 20h-20zM619 428l12 -8q-3 6 -12 8zM639 388l12 -20q-1 12 -12 20zM619 368l12 -8q-3 6 -12 8zM611 360l8 -12q-2 8 -8 12zM559 300l12 -20q-1 12 -12 20zM1499 108l12 -8q-7 2 -12 8zM491 0l8 -12q-5 4 -8 12z
M619 -120l20 -12q-12 2 -20 12zM1171 -120h288v-20h-288v20zM271 -132q-26 -14 -40 -48l-12 -20l60 -40l24 8l24 -8l44 8q27 13 40 44l20 36l-20 8q-108 6 -140 12zM971 -132l8 -8q-5 1 -8 8zM1179 -160l20 -12q-12 2 -20 12zM1471 -160l8 -12q-5 4 -8 12z" />
    <glyph glyph-name="Y" unicode="Y" horiz-adv-x="1375" 
d="M1029 1594l36 -48l16 4l-12 16l24 -12h56l12 8l68 -8l16 12l40 -12l76 4l-32 16l12 20l96 -28h40l40 -40l4 -40l-60 -60l-60 -96l-40 -120l-80 -164l-20 -60l-120 -200l-84 -80l-60 -100l12 -532l-8 -60l8 -164l32 -124l28 -56l-8 -16l-52 8l-8 -88l-40 16v56l-12 12
q-27 16 -64 16h-160l-60 -20l-160 -80l-16 32l-20 -12l-48 -8l28 80v40h-36l-12 40l28 8q19 22 20 56l-8 60l8 28l-8 36v140h-32q28 13 32 48v80l-12 72v80l-8 12l20 40l20 -12l8 20l-8 12l8 72l-8 36l8 12l-8 88l-80 84l-28 48q-38 2 -44 40l-28 52l-40 40l-32 48l-28 20
l8 24l32 4l8 -20l44 -40l8 20l-28 20l-244 432l12 36l352 32l8 -8l40 20h-20l36 8h400l-68 -8h-280l4 -32q23 -12 40 -40l20 -60l32 -48l44 -12l32 -52l68 -172l52 -24l24 60l32 48l144 332l-32 -12l52 68zM1041 1486l20 -12q-7 9 -20 12zM1221 1486l-32 -32h-60l-56 -8
l-32 -24l-120 -248l-60 -184l-36 -24l-24 -36l-44 -36l-32 12l-44 80l-32 28l-40 20l-28 36l-52 128l-12 48l-28 36l-36 84l-12 48l-48 12l-24 -36l-144 -24h-60l-28 -12l44 -80l12 -48l152 -272l36 -28l20 -40l28 -36l64 -56l28 12l8 -12l48 -8l-48 -12l20 -20l16 -40
l16 -96v-184l8 -52l-8 -52l8 -236l92 -8l-12 -12h-60q-19 -9 -28 -32l20 -40l-32 -156v-56l24 -36h60l156 -28h60l48 -12l12 48v40l-8 12v60l-12 52l12 48v100h-20l20 44l8 52v304l12 88l-20 60l8 56v60l36 28l24 8h-40q6 19 28 20l44 16l28 36l20 40l32 28l152 332l28 32
l36 28l24 32l40 84l8 32l-8 12zM1389 1474l12 -8q-3 6 -12 8zM1161 906l8 -12q-1 8 -8 12zM1149 894l12 -8q-4 6 -12 8zM601 794h40l-32 -8q-5 1 -8 8zM1181 794l20 -8q-11 1 -20 8zM1481 794l28 -8q-13 0 -28 8zM509 454v-52l12 -36v52q0 18 -12 36zM501 326v-92h20
q-12 69 -20 92zM501 194l-12 -52l12 -48l8 52q0 24 -8 48zM229 94l32 -20h-40zM149 86l20 -20q-14 5 -20 20zM281 86h72l8 -12h-72q-5 4 -8 12zM709 -206l52 -4l20 -36l-44 12zM-55 -534l16 -16q-10 3 -16 16z" />
    <glyph glyph-name="Z" unicode="Z" horiz-adv-x="1490" 
d="M425 1333l20 -8q-11 1 -20 8zM1505 1313h40v-136l20 -64v-84l32 -104l24 8l36 -8l-12 -32l-48 -40v-48l-52 20l-28 -20q-5 -32 -36 -52l-56 -28l-136 -120l-52 -32l-120 -136l-56 -32l-136 -120l-28 -52l8 -20h20l-8 28l72 -8q29 -2 40 -28l8 20l48 -12h64l48 -28v28
q-17 23 -52 32l44 8l124 -68l8 -12l52 12h52l-8 -12l4 -8l36 20l60 -48l-20 -44h40l-20 -60l-32 20l12 -72l-12 -20l12 -40l-12 -48l12 -12l-20 -112l-4 -124l-56 -24q-31 -15 -72 -16h-68l-12 8h-84l-144 28l-132 -8l-8 16l-76 4l-28 12l-20 -12l-88 12h-256l-72 -12
q-28 -18 -68 -20l-64 20l-132 -40l-16 4l20 132l-12 72v84q-4 26 -36 28q30 10 32 40h-24v64q19 27 20 68l-12 40l12 20l-52 -32h-20l20 48l52 32l8 32l-8 36l36 52l32 -8l8 8l8 -8l4 8l252 172q22 17 40 48q30 5 52 32l48 36l-72 12l128 32l44 40l8 20h-52l-56 -12l-8 12
l-56 -12l-8 8l-68 -8l-16 -8l-40 8l-8 -8l-176 -12l20 48v364l-12 8l-32 -8l-36 20l8 28l32 48l44 44q18 -20 24 -48v-24l48 12l148 20l224 -32h152l8 12l228 28l268 72l148 20q28 10 56 28zM1477 1233l8 -20q0 11 -8 20zM1357 1213l-68 -20l-44 -40l-224 -28h-84l-44 -40
h-164l-76 8l-20 12l-40 -12l-36 -20l-20 12l-136 28l-144 -8l-12 -68v-252q1 -31 24 -60h84l136 28h64l8 12l76 8l64 20l216 36l96 36l24 -12l28 12v-32l-80 -20h-28l20 -32l-60 -28l-100 -28h36q-8 -29 -40 -40l-48 -32l-20 -40l-64 -20l-56 -28l-44 -40l-260 -160
l-176 -156v-84l12 -72v-84l20 -64l-12 -48l20 -112l-8 -12v-80l80 20l100 64l40 16l-8 -28l-32 -32l640 44l12 8l36 -8l140 -4l12 8l60 -16h84q27 12 36 44l8 136l-12 -12l-72 12h-104v20h132l36 -12l16 20q15 29 16 64l8 56l-72 12l-8 -8l-144 16l24 -8l-12 -32h-84l-72 16
l-392 24l-72 12q1 25 32 36l32 4v20l-16 -12h-36l8 40l64 20l52 32l44 40q10 28 36 48l108 60l228 188l40 44l104 68l36 44l48 36l32 52l52 32l20 32l-12 20v164l-8 36v124h-80zM165 1153l-8 -40h24l4 40h-20zM305 625l12 -12q-8 3 -12 12zM765 625h56l4 -12h-56zM1345 625
l12 -12q-8 3 -12 12zM1037 513l8 -8q-5 1 -8 8zM817 353l8 -8q-5 1 -8 8zM945 285l12 -12q-8 3 -12 12zM1025 285l12 -12q-8 3 -12 12zM717 273l20 -8q-11 1 -20 8zM957 265l20 -12q-12 1 -20 12zM705 245l12 -12q-8 3 -12 12zM957 225l8 -12q-1 8 -8 12zM1201 185l44 -12
q-21 8 -44 12zM1505 185l12 -20q-9 8 -12 20zM797 153l-32 -8l12 -20l28 8q0 11 -8 20zM817 145v-32h28l12 12l32 -12l-24 20q-22 8 -48 12zM1537 113l8 -8q-5 1 -8 8zM1097 85l68 -12q-29 11 -68 12zM1505 13l36 -20q21 -3 24 -28l-40 16q-12 14 -20 32zM1505 -75l20 -20
q-14 5 -20 20zM1585 -87l12 -8q-7 2 -12 8z" />
    <glyph glyph-name="bracketleft" unicode="[" horiz-adv-x="569" 
 />
    <glyph glyph-name="backslash" unicode="\" horiz-adv-x="569" 
 />
    <glyph glyph-name="bracketright" unicode="]" horiz-adv-x="569" 
 />
    <glyph glyph-name="asciicircum" unicode="^" horiz-adv-x="961" 
 />
    <glyph glyph-name="underscore" unicode="_" 
 />
    <glyph glyph-name="grave" unicode="`" horiz-adv-x="682" 
 />
    <glyph glyph-name="a" unicode="a" horiz-adv-x="2175" 
d="M1200 1808l36 -36l60 12l140 -72l108 -36l12 -12l32 12h56v-12h64l60 -24l80 -60q24 -10 36 -36l48 -24l-12 -60l68 -72l-8 -56l4 -16l36 12l44 -100v-144l24 -116l24 -48v-36l12 -24v-72l12 -56l24 -48l12 -60l12 -8l-12 -40l16 -52l-4 -196l-16 -56l-32 -180l-152 -276
l-80 -60l-140 -72h-36l-72 -32l-116 -28h-52l-8 -12h-144l-56 -12h-72l-60 12h-140l-60 -12h-56l-4 12h-212l-236 48l-48 24h-60l-56 24l-108 108l-68 144l-4 68l-24 120v52h12v60l-12 4l-36 36l36 104l12 60q-3 27 -24 48h24v96l-12 8v60l12 4v48l12 8v52l12 8l24 116
l24 48l12 60l-12 56l24 48l108 108l24 44l32 40l4 36l-24 8l8 16l36 -12q24 5 40 28l40 32l48 24l36 36l44 24l36 36l48 24l36 32l280 148l176 36q23 9 48 24zM1188 1760l24 -12q-11 9 -24 12zM1152 1688l-144 -40q-24 -24 -60 -32l-60 -28l-72 -20l-56 -36l-64 -28l-48 -44
l-68 -24l-52 -36v-24l48 4l-68 -28l-16 -36l-28 12l-52 -36l-44 -48l-32 -56l-48 -44q-18 -25 -24 -64l-48 -80l12 -44l-48 -132v-72l-8 -12l-4 -84l-12 -36l12 -32v-72l12 -8q-18 -27 -24 -68l-12 -76v-252l12 -8v-72l12 -8l12 -80l24 -64l80 -100l24 -12l76 48l-12 -48
l40 12l56 -36l204 -72h360l76 -12h68l12 12h248l388 156q29 10 56 36l92 180l44 136l36 56l24 64v92l-16 96h-116l-8 -12l-12 12l-4 -172l-32 -152l-28 -64q-25 -19 -36 -52q-8 -36 -48 -44q-24 -23 -60 -32l-36 -52l-24 -8l-24 36l-60 124l-12 80q-20 27 -24 68l-48 132v88
l-32 60h-180l76 12h52l8 12l8 -12h32l-24 120l-24 68l-12 76l-48 136l-12 80l-24 68v88l-24 68l-12 124l-32 12q14 18 40 24l16 72l-12 80l12 28l172 -36l56 -36l48 -44l36 -56l68 -20h64l12 8l80 -8l40 12l-12 28l-84 92l-56 36l-324 132h-68l-8 12h-92q-37 2 -76 12z
M888 1544h24v-124l-12 -8l-12 -48l84 12l12 -36h-76l-20 -16l24 -8l-24 -24l-48 -112l-56 -188l-28 -48l-12 -68l-60 -100v-64l-12 -8l-12 -68l-36 -124h48l-12 -20l-36 8l-12 -16l-48 -112l-16 -64l-32 -48l-72 -168l-32 -48l-20 -60l-44 -36l-48 36v60l-8 12l8 64l-12 68
l-24 56v160l12 68l-12 40l36 24l-32 96l-4 76l120 284q9 27 32 48l20 60l32 48l44 36l32 48l44 36l20 36l40 36h-48l12 24l68 12l16 -12l28 24q26 8 44 36l56 24zM936 1484l12 -12q-8 3 -12 12zM1356 1472l12 -52l-12 -24l12 -32h72q-20 -22 -56 -24h-28v-68l12 -88l-12 -12
l12 -60l48 -148l12 -84l24 -76l12 -84l32 -64l52 -144h272l8 12l-4 76l-24 76l-12 84q-19 31 -24 76v96l12 88v56l-24 16l-36 60l-48 52q-16 27 -48 48q-1 42 -44 52q-15 29 -48 48l-40 60l-60 36q-28 17 -72 24zM732 1436l12 -12q-8 3 -12 12zM1476 1376h36l-24 -36
q-7 15 -12 36zM1080 1364h120l-12 -12l-60 -12h-48v24zM1716 1352l-60 -20q27 -12 36 -44l48 -32l60 -100l36 -44v-144l-12 -72l48 -204l24 -56l12 -64l24 -60h116l16 20l-12 68v56l-12 12v80l-12 52l12 4l-72 328l-24 56l-12 64l-28 52q-9 33 -44 36l-68 12h-76zM780 1340
l-60 -48l-36 -16l-48 -56l-60 -44l-72 -84l-16 -40l-20 -28l-28 -80l-44 -60l-60 -148v-104l36 -100l-12 -8l-36 -100l12 -8v-156l24 -28v-32h20l40 116v52l24 28l12 40l24 28l-12 40l48 8l32 72l4 44l48 108l12 44l24 28l144 376l-12 40v52l24 60zM684 1256l12 -12
q-8 3 -12 12zM1020 1232h60l48 -12v-60l12 -44v-60l36 -136v-60l20 -36l40 -120l-8 -12h-232l-48 -12h-56l-40 20v60l12 44l4 56l20 36l36 140l44 76l28 84q12 16 24 36zM696 1184l12 -12q-8 3 -12 12zM1044 1064l-12 -52l-24 -40l-48 -208l-12 -24l76 12h104v20l-36 28
l-24 104v40l-8 12l-4 60q0 24 -12 48zM1920 620l12 -12q-8 3 -12 12zM1536 512l24 -80v-52l24 -28l4 -44l32 -72l36 -116v-52l24 -28v-20l44 36l16 32l68 88l4 48l32 72l4 96l-12 36v52l-28 20h-36l-8 -8l-36 8h-152zM0 512l12 -12q-8 3 -12 12zM24 512l12 -12q-8 3 -12 12z
M192 512l12 -12q-8 3 -12 12zM228 512l24 -36q-15 14 -24 36zM396 512h36l-28 -12q-5 4 -8 12zM792 512h52l44 -12h-52q-21 0 -44 12zM984 512h188l-96 -24h-124zM1200 512h36l-28 -12q-5 4 -8 12zM2208 512l12 -12q-8 3 -12 12zM960 440l84 -12l36 12l32 -12h96l80 -12
l44 -144l24 -12v-60l16 -72q24 -23 32 -64q7 -35 36 -60l12 -60l-12 -8q-22 -24 -60 -36l-288 -84h-188l-84 -12l-76 16l-60 32l-48 48l-36 12l112 312l32 60l24 68l60 32q21 28 60 36q34 3 72 20zM1080 368q-20 -22 -52 -24h-56l-140 -24l-40 -32l-24 -120l-48 -100
l-12 -60l-36 -72l84 -28l36 -32h148l60 12h148l48 24l60 12l48 24q25 6 40 32l-12 60l-24 52l-12 60l-24 48v36l-12 24q-18 21 -48 24l-72 76zM2292 344h72v-24h-72v24zM2220 332l12 -12q-8 3 -12 12zM1980 224h36l-28 -12q-5 4 -8 12zM648 -64l12 -12q-3 9 -12 12z" />
    <glyph glyph-name="b" unicode="b" horiz-adv-x="1285" 
d="M473 1697l170 -11l237 -61l102 -75l45 -75l22 -4l4 11l8 -11h22l-11 -26l-19 26l-4 -56l23 -38l23 -94v-215l11 -11l-34 -64l-11 -49l-98 -139l-34 -23l-15 -22l11 -12l139 -34l76 -45l49 -11l11 -11l26 11l-18 -11l67 -76l23 -37l34 -27l15 -41l30 -147v-120l-34 -143
l-45 -71l-68 -49l-22 -38l-34 -26l-46 -15l-37 -23l-45 -11l-30 -27l-46 -19l-67 -48l-125 -53l-37 -23l-241 -56h-177l-45 -12l-38 23l-49 -11l-23 37v53l-22 45v117l-23 98v237l11 45v116l-11 49v238l11 49v60l12 105l-12 49v237l-11 45v121l-11 45v60l-11 49
q-2 23 -23 38l23 94l37 -23q6 21 27 34l26 30l56 4l38 23l94 22h60q17 9 34 23zM530 1641l-185 -46l-37 -22l-136 -34l-22 -23l18 -98v-113l12 -45v-56l11 -45v-61l11 -45l-11 -22l7 -12l4 -342l34 -23l-34 -4v-338l-11 -46v-173l11 -45v-225l12 -46v-56l22 -34l90 -22h113
l46 11h56l185 45l33 23l46 11l34 22l45 12l64 45l-23 23h68l211 135l56 56l61 109v170l-23 90l-23 34l-11 49l-45 68l-42 11l-71 45l-90 23l-12 11l-22 -11l-57 3l-22 19l60 -11l-15 23l-34 22l-23 -11l-11 11h-57l-11 -11l-26 11l-8 30l12 8l11 26l-11 8l11 45l41 19l27 30
l41 15l72 45v34h22l34 132l-11 11l11 23v173l-11 45l-113 169l-102 68l-181 45zM485 1505h82l72 -11h64l8 -12l67 -11l23 -11l41 11h27q-13 -14 -34 -19l-12 -26l57 -49l34 -184l-57 -53l-67 -94l-91 -72q-11 -27 -45 -37l-53 -31l-60 -22l-38 -45l-30 -12l-22 19
q-32 12 -34 49l-23 57v64l-11 7l-23 139l12 8l-12 53v60l12 7v166q9 32 45 38h64zM78 1471l11 -11q-7 3 -11 11zM349 1471l11 -22q-8 9 -11 22zM519 1437l-49 -11l-23 -34l-8 -45l23 -90v-57l11 -45v-147l23 -53l158 110l49 67l30 23l45 68l34 22l11 45l12 8l-30 60l-27 30
l-34 23l-37 15l-45 -11l-91 22h-52zM993 1019l11 -11q-7 3 -11 11zM982 669l11 -11q-3 8 -11 11zM711 669l45 -22h-68q11 8 23 22zM767 669l11 -11q-7 3 -11 11zM835 669h22v-22h-34zM1253 669h68q22 -1 22 -22h-53l-3 11l-34 -11v22zM-35 658h60l8 -11h-60q-5 3 -8 11z
M78 658l23 -11q-13 0 -23 11zM247 658l12 -11q-8 2 -12 11zM564 658h34l-27 -11q-5 3 -7 11zM620 590h147l45 -7l68 -30l158 -136l15 -30l38 -11l26 -61l-22 -41l22 -26l-90 -155l-113 -131l-68 -30l-56 -42l-64 -33l-42 -12h-49l-139 -52l-30 -4l-15 34l11 7l-23 102v49
l-11 37l-34 64v147l12 37v98l11 38l4 98l26 22h49l34 12q74 44 90 56zM1309 568l12 -12q-8 3 -12 12zM620 466l-64 -11h-37l-34 -68l22 -121l-11 -15l11 -34v-214l12 -41l-12 -8v-86l45 11l49 23l61 11l146 68l151 135l26 45l19 120l-34 38l-45 26l-34 38l-45 26l-34 38
l-135 8q-27 0 -57 11zM699 -132l12 -11q-3 8 -12 11zM112 -143l11 -12q-8 3 -11 12zM225 -143l11 -12q-8 3 -11 12zM247 -143l12 -12q-8 3 -12 12zM744 -143h34l-26 -12q-5 4 -8 12zM801 -143h49l41 -12h-49q-20 0 -41 12zM1185 -143h34l-27 -12q-5 4 -7 12zM1241 -143
l12 -12q-8 3 -12 12z" />
    <glyph glyph-name="c" unicode="c" horiz-adv-x="1270" 
d="M731 1552h160l164 -72l44 -36l136 -180l24 -56l12 -68v-80l12 -64v-140l12 -4l12 -48l-56 -44l-68 12l-32 -12l-24 12h-204l-36 72l-32 48l-40 120q-23 16 -36 44l-36 44l-24 52l-36 -32l-144 -172l-48 -108l-36 -44l-12 -68l-24 -52l-12 -48l12 -8l-24 -52l24 -12
l-12 -36l12 -64v-160l12 -64l40 -36l96 -144l84 -72l40 -12l76 84l32 48l16 60l24 56l12 64q-30 11 -36 44l24 28l24 -8l116 -4l20 12h64l4 -12h60l8 -12l68 -12l44 -36l12 -68l-24 -52v-48l-24 -12l-12 -64l-24 -56l-36 -40l-48 -112l-72 -84l-52 -28l-44 -36l-164 -72
l-136 -24h-76l-56 24l-64 12l-112 48q-10 26 -40 40l-32 44l-28 56q-8 28 -36 40l-96 220l-12 68l-28 48q-21 16 -28 52l8 284l12 12v80l24 56v76l108 288l36 40l24 56l36 44l24 56l32 48l40 36q5 29 32 48l40 36l56 24l40 36l-36 -12l12 24l68 12q133 56 160 72zM767 1504
l-48 -36l-60 -20l-56 -28l-48 -36l-56 -24l-44 -36l-36 -48l-44 -36l-36 -48l-136 -268l-16 -68l-32 -48l-24 -56v-64l-8 -12l-4 -40l16 -20l28 12l28 -12l-28 -12h-56v-84l-12 -8v-80l-12 -72v-56l12 -12v-44l36 -84v-64l12 -4v-44l12 -28l36 -44l60 -104l36 -44l24 -56
q31 -11 36 -48l44 -36l60 -24l68 -12l56 -24h84l60 20l112 52q31 8 44 36l-44 12h-148l4 12h164l32 12l12 -12h16l48 32l44 40l28 52l36 44l72 172l60 104v48l-20 12l-68 12h-84l-12 12l-44 -12q-35 -6 -36 -44l-24 -56l-16 -68l-32 -48l-24 -60q-24 -14 -36 -44l-44 -40
l-52 -28q-19 -22 -52 -32l-140 104l-84 80l-68 92l-16 152l12 28h-40l-8 36v120l-12 72l12 52l-8 8h-64l8 12l68 12l32 48v44l120 244q2 34 36 48l36 44q21 20 24 56l48 36l72 92q16 25 48 36q33 -2 60 -24l48 -32l28 -52q14 -25 44 -40l24 -8v-48l12 -68v-84l12 -68l12 -32
l80 36l72 -12h60l8 -12h20v224l-24 136l-24 60l-144 180l-48 36h-48l-12 20l-132 16h-12zM419 1480h56l4 -12h-56zM1151 1480l12 -12q-8 3 -12 12zM491 1096l12 -12q-8 3 -12 12zM479 628l12 -24h-24zM15 616l8 -12q-5 4 -8 12zM587 616h36l-28 -12q-5 4 -8 12zM1067 -224
l12 -24h-24zM359 -236l24 -12q-13 1 -24 12zM395 -236h184l8 -12h-184q-5 4 -8 12zM1115 -236l12 -12q-8 3 -12 12zM1151 -236h60l48 -12h-60q-24 1 -48 12zM1283 -236h52l4 -12h-52zM1319 -380h20v-56l-32 -4z" />
    <glyph glyph-name="d" unicode="d" horiz-adv-x="1420" 
d="M304 1627h364l48 -12h124l192 -48l40 -24l44 -12l12 -12l24 12l28 -36l36 -24l24 -36l36 -24l48 -76v-60l24 -96l24 -36l12 -48l36 -88l4 -52l32 -152v-100l36 -44q-26 -2 -36 -28l8 -48l16 12l12 -24v-60l-12 -108l-60 -184l-120 -180l-32 -32l-16 -44l-32 -28l-16 -44
l-72 -52l24 -16l56 4l16 -24l-48 12l-12 -12l-48 12l-36 -24l-28 -36l-44 -16l-28 -32l-112 -72l-96 -24h-120l-48 -12h-60l-48 -12h-184l-48 -12l-48 12l-48 -12l-48 12h-48v16l-36 24v44h20l16 40v60l12 32l-48 12h60v80l24 96l-20 40l8 28l-8 8l-12 108l8 48v180l12 48
l12 204l-12 12l12 28v180l8 44l-8 36l12 8v120l-12 28l8 12l4 156l-8 12l-4 120l12 24l-12 12v60l12 48l24 36q120 24 144 36zM412 1579l-52 -12h-116q-23 -6 -24 -32l12 -44l36 -20h60l28 12l8 -12l-36 -24h-60l-8 -12l-24 12l-4 -112l12 -44l-12 -48v-116l-20 -100
l-4 -168l-12 -48v-404l12 -24l-12 -8v-60l12 -48v-116l12 -44v-60l-12 -44l-24 -36v-56l-12 -48v-36h20l-20 -32l-24 -92v-32h24l44 12h60l28 -32l148 -4l8 12h60l44 12h176l92 24l132 96l-44 12l-32 -12l-8 12h-36l12 12l44 12l40 -8l76 20l32 24l48 68l36 20l168 240
l60 232v56l12 48v116q-6 23 -32 24l-48 -12l16 12l48 12l28 28v120l-24 92v56l-12 48q-3 23 -24 32l-12 48l-76 212l-68 108l-68 48l-160 48l-12 -12l-36 24l-12 20l-168 4l-96 24h-204zM772 1543l24 -12q-13 1 -24 12zM832 1543l12 -12q-8 3 -12 12zM88 1531l12 -12
q-8 3 -12 12zM292 1531h36l-28 -12q-5 4 -8 12zM556 1531h52l44 -12h-52q-21 0 -44 12zM1204 1531l48 -12q-24 0 -48 12zM256 1519l12 -12q-8 3 -12 12zM364 1507l12 -12q-8 3 -12 12zM436 1435h48l20 -24l76 12l64 -24l152 -28l56 -32l124 -52l72 -108l36 4v-32l24 -64
v-156l12 -12v-176l24 -64l84 -4l-84 -8q-35 -12 -36 -52v-40l24 -72l-20 -112l-28 -60l-24 -152q-19 -27 -24 -64l-44 -48l-28 -60l-36 -52l-48 -40l-36 -52l-60 -28v-20h-72l-140 -36h-72l-8 -12h-88l-52 36l12 28v160l-12 4q-20 27 -24 68v160l12 8v332l-12 8v88l-12 8
l-56 -12l-52 12l84 8q33 5 48 40l12 76v88l12 76q-20 27 -24 68v64l12 12v48l-12 8l12 8l12 80v88q3 33 32 56q20 20 40 48zM496 1363l-20 -48l-4 -60l-24 -128v-76l-12 -64v-76l-12 -64v-152l-12 -64v-204l12 -12q21 -20 24 -52v-64l-12 -4v-76l12 -44l-12 -8v-56l8 -8
l4 -76l12 -44l-12 -8l12 -32l-12 -20l12 -48h-12v-36h96l12 8l64 16h56l24 24l-12 32v112l32 -12l-8 -36l12 -12v-24h48l120 112l44 32l28 48l36 116l12 64v60l24 72v204l-84 12l44 12h40l12 20v64l-12 4v152q-5 27 -24 52v56l-12 8v52l-12 12v72l-72 84q-28 1 -48 24
l-52 24l-64 12l-52 24l-64 12h-56l-8 12h-76zM448 691l12 -24q-9 11 -12 24zM1504 691l40 -12h32l-12 -12l-48 -4zM88 679l12 -24q-9 11 -12 24zM652 679h184l8 -12h-184q-5 4 -8 12zM1420 7l12 -12q-8 3 -12 12zM208 -173l24 -24q-19 1 -24 24zM820 -173l12 -24h-24z
M1552 -185l12 -12q-8 3 -12 12zM844 -233l12 -12q-8 3 -12 12z" />
    <glyph glyph-name="e" unicode="e" horiz-adv-x="1455" 
d="M1569 1666h200v-20h-200v20zM813 1586l76 -12h152l12 -8q19 -25 56 -28h340l60 -24h56l4 -12h-20q-32 -2 -52 -32q21 -24 24 -60l-12 -72l-24 -60l-24 -148l-28 -60l-32 -24l-24 8l-44 40l-72 12l-60 24h-84l-76 -12h-64l-8 12l-148 -24h-44l-24 -16l-12 -68v-64
l-24 -148l-20 -64l136 -24h88l72 -12h64l8 -12l24 -12l-24 -88v-68l-8 -12l-16 -152l-24 -64l-60 -24q-26 18 -36 52l-36 8h-124l-60 24h-44l-24 -16l-48 -208q-19 -27 -24 -64v-24h56l52 12l12 -12h84l72 12l264 96h132l12 8l48 -12q21 28 60 28l44 12l16 -16v-56l-20 -12
l-40 -128l-24 -144v-40h44l-20 -12q-36 -7 -36 -48v-60l-16 -12l-220 -36h-84l-72 -12h-124l-12 36q-26 20 -64 24h-64l-8 -12l-60 -24h-84l-148 -24h-52l-12 -20v-16h-72l-48 12l-12 -8l-36 44h-48l-12 28l-12 12l48 268l24 64l24 144v36l24 -20l84 256l36 220l24 60l12 72
v88l16 68l28 60l4 80l24 64v80l24 64l24 128l-12 4l36 48q-10 23 -48 36h-36l32 24l120 48l8 -12l56 12l72 -12l60 24h68zM465 1574l12 -12q-8 3 -12 12zM1509 1550l12 -12q-8 3 -12 12zM369 1502l12 -12q-8 3 -12 12zM645 1490l12 -12q-3 9 -12 12zM897 1478l12 -36
l-28 -12l-320 -4q-25 -4 -28 -32l-20 -60l-12 -72l24 -40l-12 -8v-60l-12 -8v-80l-48 -280l-24 -60l-12 -72l-84 -244q-5 -30 -24 -60v-80l-12 -68v-44l-16 -24q-32 -11 -36 -48l-20 -60v-60l-12 -8v-64l-12 -8l12 -28l-40 -84l-32 -48l-12 -48h24l44 -12h64l8 12l68 12h44
l28 12h80l72 12h60l8 12h84l68 12h84l140 -24l68 12h164l8 36l-12 24l-68 -12l-28 12l-32 -12h-64l-8 12h-164l36 12h80l72 -12l80 4q14 16 36 20l24 140q11 32 12 112l-28 -12l-32 12l-12 -24h-44l-144 -60l-72 -12l-28 12l-28 -12l-48 -36l-68 -12h-36l16 36l36 24h-64
l-8 12q-32 0 -56 -24l-68 -12l-24 -12l-24 28v64l-12 4l-36 48v56l48 120l12 68l40 44l48 36l32 48l40 24l8 -12h228l12 -8l48 -4l-24 36l24 24l20 108h-64l-8 12h-164l-72 -12q-23 18 -36 48l-24 56v164l36 128v44l12 28q7 31 36 48q20 21 56 24l172 36h204l36 12l20 -12
l72 -12l64 -20l72 -4l24 140q-22 11 -24 40l12 -12h24l-12 44l12 44l-60 20l-140 24h-164l-72 12h-80zM1377 1382l12 -12q-8 3 -12 12zM1401 1322l12 -12q-3 9 -12 12zM1305 1202l24 -12q-13 1 -24 12zM273 878h36l-12 -36l-24 -12v48zM165 662l36 -12l-36 -24v36zM933 650
l12 -12q-3 9 -12 12zM213 650h72v-24q-32 8 -72 24zM429 650l24 -12q-13 1 -24 12zM573 650h36l-28 -12q-5 4 -8 12zM1101 650l24 -12q-13 1 -24 12zM1293 650h36l-28 -12q-5 4 -8 12zM561 446l12 -12q-8 3 -12 12zM849 110l12 -12q-8 3 -12 12zM81 -22l12 -12q-8 3 -12 12z
M1245 -142l-12 -44l16 -16l8 56zM261 -202h36l-36 -24v24zM213 -214l12 -12q-8 3 -12 12zM561 -214l24 -12q-13 1 -24 12zM25 -622l20 -8q-11 1 -20 8z" />
    <glyph glyph-name="f" unicode="f" horiz-adv-x="1265" 
d="M1296 1737h48l12 -20l68 -4l52 -24v-24h-48l-60 -16l-12 -60v-148l-16 -64l-48 -24h-56l-8 -12h-52l-8 -12h-52l-12 -12l-48 -24h-76l-124 -24h-76l-60 -12l-52 -24h-56l-4 -12l-56 -16l-12 -64v-148l-16 -60l4 -48l36 -40l36 -28l168 56l60 -12l-12 64l32 44l36 -36
q20 -17 28 -48h72l52 -24l8 -16l-12 -40l-12 -16l12 -36v-72l36 -236q-17 -22 -48 -24l-52 20l-188 -36h-36l-72 -32l-108 8l-12 -92v-496l-12 -8v-60l-12 -4q-11 -22 -40 -36h-76l-184 -36q-27 -4 -52 -24h-32v44l-8 40h-28v180h12v44l-16 16l16 120v148l12 64l-12 40l12 8
l-12 432l-12 64l24 124l-24 48v44h20l16 68v52l-12 12v224l-12 48l-12 -64l-12 8l-12 48h12l12 44l-12 8l12 20l-28 12l56 84l172 24q-12 20 -40 24l-60 -12l-4 36h188l64 -12l60 12h76l60 12h128l8 12l40 -12l40 24l20 -12h276l8 12l64 12h56zM40 1677h56l36 -24
q-69 12 -92 24zM1500 1677h36l-28 -12q-5 4 -8 12zM156 1665h36l-28 -12q-5 4 -8 12zM1188 1653l-56 -12h-124l-52 -12h-64l-48 -12h-64l-100 -24l-40 -24l-112 -12l-52 -12h-124l-104 -24l-20 -40v-64l-12 -52v-124l-12 -48v-188l12 -52l-12 -112l24 -40l-24 -36l24 -84
l-12 -8l-24 8v-20l12 -32l-12 -8l12 -52l-12 -32l12 -8v-60l-12 -52v-60l12 -52v-188l12 -52v-84l36 -44l-24 12l-12 -16l12 -48l-12 -52l-24 -40v-84h40l8 28l56 8l40 20l96 24v-20l28 12l8 36l-12 8l12 48v64l-12 24l12 12v64l12 52v252l12 28l-12 8l-12 52l36 28l12 48
l24 8l12 -24l36 -24l204 48h64l32 28l-4 56l-16 48l-4 60l-12 52l-52 8l-152 -36l-36 -24h-64l-44 -16l-32 16l-44 144l-8 56l12 52v60l-12 8l8 28l-20 44v64l24 100l32 32l28 12v-24h60l28 36l100 24h64l100 24h64l40 20l52 4l112 24l28 32l48 16h64l20 12l-12 16l12 48
l-12 32l12 8l-12 32l12 8l-24 36h-60zM564 897l12 -12q-8 3 -12 12zM588 849l12 -12q-8 3 -12 12zM1056 825l12 -24h-24zM264 813l12 -12q-8 3 -12 12zM300 813h60l48 -12h-60q-24 1 -48 12zM1284 813l12 -12q-8 3 -12 12zM1440 813l12 -12q-8 3 -12 12zM960 549v-48h36
q-14 25 -36 48zM1536 429l12 -12q-8 3 -12 12zM660 33h36l-12 -36l-24 -12v48zM276 -27l24 -12l-12 -12h-24zM588 -27l60 -12l36 12v-24l-8 -12l-40 12h-48v24zM708 -27l24 -12l-12 -12zM768 -27l108 -24h-64q-25 6 -44 24zM432 -39l12 -12q-8 3 -12 12zM564 -39l12 -12
q-8 3 -12 12zM972 -39h52l44 -12h-52q-21 0 -44 12zM1428 -39l24 -12q-13 1 -24 12zM204 -267l12 -12q-8 3 -12 12z" />
    <glyph glyph-name="g" unicode="g" horiz-adv-x="1250" 
d="M1702 1641h130l-6 -13h-73l-29 -6l-9 6h-13v13zM1137 1622l41 -3l25 -13l13 -16l-6 -9v-80l-16 -66v-35l22 6l-16 -6l-16 -26l-22 -98l6 -19l-16 -42v-123l-6 -35l-16 -23l7 -9l-7 -19v-70l16 -22v54l6 35q16 -9 16 -29l10 -28v-42l-10 -32l10 -31l-10 -29v-41l10 -16
l-10 -6l-6 -35l-10 -16l7 -7l3 -82l-10 -32v-25l13 -42l3 -38l16 -25v-25l7 -7l9 -35v-38l10 -32l15 -25v-38l16 -29l16 -63v-41l22 -102v-41l-6 -35l22 -19l-22 -16l-3 -41l-22 -57l-64 -57l-16 -26l-22 -19l-102 -63l-161 -42l-64 -6l-6 -6l-121 -4l-197 48l-130 73
l-19 22l-25 16l-16 26l-26 16l-41 38l-29 54l-9 31v42l9 31v41l7 35l31 89l32 51l26 16l47 -26h162l13 -31l-10 -16h13l29 -16l-64 -99l-16 -66l7 -32h16l-7 -19l7 -35l47 -34l64 -16h82l188 57l19 22l25 16l76 126l7 35v80l-16 66l-16 26l-22 89l15 35l-15 66l-58 105
l-3 38l-9 32q-17 3 -19 22v42l6 25l-16 -25l-22 -16l-32 -51l-22 -19l-10 -32l-47 -32l-19 -25l-22 -16l-61 -22l-51 -32l-31 -9h-121l-67 15l-47 32l-67 16l-25 16l-32 9l-51 32l-73 134l-6 31l73 296l44 79l10 29l35 50l82 80l48 32l19 22l66 57l58 22l16 26l25 16l181 22
l108 -16l28 6l16 -6v57l-9 32l-13 22l22 19l70 38l7 -9h66l7 6l98 25q15 1 29 10zM851 1581l9 -7q-5 2 -9 7zM1067 1558l16 -9q-6 7 -16 9zM1130 1549l-22 -22l-25 -16l-16 25l-19 7l-7 -7l-41 -3l-25 -16l-16 10l-29 -26l-22 -101l6 -23l-6 -47l-22 -19l-118 47h-41l-67 16
h-79l-121 -85l-12 -26h15l-12 -16l-77 -44l-19 -26l-25 -16l-16 -25l-41 -38l-89 -118l-6 -34l-16 -26l-48 -155v-42l6 -35l99 -146l51 -32l200 -47l63 16l26 16l66 15l51 32l35 48l22 16l38 44l26 19l32 48l22 19l47 76q-4 15 -22 16h-41l-22 6h16l15 10l7 -10l95 23
l16 -23l6 10l19 -10h42l-10 -6l-41 3l-22 -9l15 -67l7 -118l16 -25l25 -98v-42l6 -22l-6 -6l32 -89l6 -35l-6 -159l6 -35v-82l-16 -67l-16 -25l-28 -13l-16 -25l-25 -16l-19 -22l-73 -48l-166 -41h-123l-32 9h-41l-16 26l-48 35l-6 19l6 6l-6 10l6 22l-13 25l-3 42l32 133
l-64 15l-63 7v12l-22 4l-48 -89l-16 -63v-42l-9 -31l15 -67l16 -25l26 -16l41 -38l152 -96l32 -9l51 -32l102 -22h41l25 16l16 -10l-9 -6l28 -10l162 42l51 31l60 23l16 25l32 9l95 67l48 76v83l-22 19l-32 133v41l-32 134l-9 15h9l-25 61l-7 35l-22 57l-3 41l-16 64l-13 28
l-3 38l-22 102l-10 6l19 23l20 -10l9 -16v70q0 16 -19 19l-3 22l13 -6l9 32v41l10 32l6 114l-6 35l15 25l16 70l7 197l9 29l16 130h-16zM184 1406h25l-19 -6q-3 0 -6 6zM956 1406l22 -6q-11 0 -22 6zM1105 1406l9 -6q-5 1 -9 6zM1225 1406l7 -6q-4 0 -7 6zM1422 1406h162
l29 -6h-108l-10 -7l-9 7l-22 -7zM581 1168h44l10 -7l3 -15l70 6l25 -48l32 -28l38 -22l10 -39l-10 -6l-22 -35l-16 -44l-48 -73l7 -29h-26l-123 -114l-54 -7l-42 -19l-47 10l-32 25l-26 35l-15 45l-7 85l48 42l19 41l29 32q4 21 22 38l57 63l32 26zM622 1120l-25 -22
l-16 -29l-29 -19l-73 -63l-16 -32l-25 -19l-6 -38l-10 -22l10 -7l9 -35l32 -47l13 -32l38 10l57 63h-13l54 32l70 70l35 57l38 22l-3 25l-41 48l-54 38h-45zM914 876l10 -10q-7 3 -10 10zM1613 860l9 -10q-6 3 -9 10zM733 844l16 -16q-11 4 -16 16zM765 844l38 -16h-38v16z
M41 834l10 -6q-6 1 -10 6zM146 834l6 -6q-3 1 -6 6zM321 834l22 -6q-11 0 -22 6zM511 834l22 -6q-10 0 -22 6zM406 787l10 -7q-3 5 -10 7zM654 771l6 -6q-3 0 -6 6zM-105 637l4 -47v-10zM914 628l10 -38l16 -26l-10 39v25h-16zM209 580l7 -6q-4 1 -7 6zM940 558v-25l6 19
q-1 4 -6 6zM949 533l-3 -16h10q-1 8 -7 16zM1105 279l9 -7q-5 1 -9 7zM1422 279h42l22 -7h-57l-13 -9zM1581 279l10 -7q-6 1 -10 7zM1607 279l6 -7q-4 1 -6 7zM136 272l16 -9q-9 1 -16 9zM597 272h57l6 -9h-57q-4 3 -6 9zM340 193l-4 -10h7zM527 129l6 -9q-1 6 -6 9zM978 50
l9 -16q-7 6 -9 16zM914 2l10 -9q-7 3 -10 9zM908 -61l6 -9q-4 3 -6 9zM463 -283l7 -9q-5 3 -7 9z" />
    <glyph glyph-name="h" unicode="h" horiz-adv-x="1193" 
d="M965 1345q20 -16 28 -48l28 -72l92 28l144 4l48 -12l4 12l16 8l40 -8q26 -4 28 -32l20 -20l-28 -8l-40 8l-60 -460l-32 -40l-20 -56l-8 -64l-32 -116v-76l-20 -52l-8 -124h-12v-60l-8 -12v-148l-32 -40l-40 -240h20l-16 -40l-32 -40l-44 -32l-20 52l-128 20h-128l-12 12
l-8 64l40 108v56l8 12v72l20 56v72l20 128v76l-8 32l-24 -8l-8 -20l12 -12l-20 4l-40 36l-60 12l-52 20q-28 -2 -40 -32l-40 -108l-28 -192l-32 -120v-144l-36 -116l-52 -20l-68 -8h-148l-12 60l8 60l-92 28h32l40 12l8 -12q23 17 24 52l16 56v60l12 4l8 64v72l12 64v72
l20 128v76l8 44l-8 12l20 128v132l8 8v296l12 60l36 -8l40 60l52 -20l56 20l128 20l44 -28l12 -32l-16 -20l-24 -120l-8 -212l-12 -64l68 -4l176 -28l16 40v56l12 8v72l20 56l8 128l32 52q1 29 20 56v64l40 44v72zM25 1225l8 -8q-5 1 -8 8zM273 1225h204l36 -8h-136l-12 -8
l-12 8l-28 -8zM1205 1217l-112 -32l-16 12l-24 -20l-52 -20l-16 -52l-40 -244v-128l-40 -40l8 -48h-196l-60 12h-72l-52 -20h-20v108h12v64l20 128v140q-18 18 -44 28h-124l-8 -8q-15 -21 -16 -52l-8 -64l-20 -48v-56h-12l12 -64v-56h-12v-64l-20 -132l20 -48l-16 -56
l-4 -68l20 -48l-40 -100l-8 -116l-12 -8v-68l-20 -52v-56l-8 -8v-112l20 -36l-32 -8h20l-20 -32l-8 -36l12 -12l132 8q26 8 36 36l-12 32l12 12l-12 60l20 52l12 56l8 112l12 8v72l8 44l-20 52l20 124l40 100l32 12v-32l16 12l4 40l-84 8l48 12l36 20l-12 -32l24 20l28 12
l20 -12l120 -20l48 -24q-3 -29 -36 -36h-72l56 -8l52 -20h44l68 24v-68l-12 -60v-72l-40 -240v-56l-8 -8v-68l-20 -124l48 -20h72l60 12h48v144l32 4l8 112l52 232l8 116h12v76l48 356l12 4l36 36l44 236l20 52l8 112h-88zM293 1117v-52q1 -15 12 -20l8 72h-20zM285 1025
l8 -36l12 8zM1453 857l12 -52l-60 -20l-12 20q43 32 60 52zM565 697v-20l28 20h-28zM1453 585l12 -8q-7 2 -12 8zM1085 517l8 -12q-5 4 -8 12zM1225 517h28l-28 -20v20zM1393 517l20 -12q-12 1 -20 12zM493 417l12 -12q-3 9 -12 12zM745 365l8 -8q-1 5 -8 8zM685 -183
q19 -8 20 -32h-20v32zM273 -195h52l28 -8h-72l-16 -12zM473 -195l12 -8q-7 2 -12 8zM505 -195l8 -8q-5 1 -8 8zM805 -195l20 -20q-14 5 -20 20zM1105 -195l8 -8q-5 1 -8 8z" />
    <glyph glyph-name="i" unicode="i" horiz-adv-x="490" 
d="M588 1388l60 -40l84 -8l-32 -12h-32l32 -28l40 -52l40 -8l-12 -36l-60 -36l-68 -28l-84 -60l-36 8h-52l12 32l160 108h20l20 12l-88 68l-128 -60l-56 -40v-28h-40l-4 20q-23 24 -36 60l-8 20l-60 -32l24 -40l48 -48q24 -20 28 -52l-40 -56l-64 -52l-36 8l48 -76l120 56
l100 32l-8 36l4 12l36 12l24 -20l64 -32l72 -24q25 -13 40 -44h-16l-40 -52l-104 -48l-28 8l-52 48l-60 20l-80 -16l-112 -60h-20l-28 -20l-60 8l8 64l12 28l-32 -20l-60 -20l-8 12l48 44l164 124l-24 48l-48 48l-60 36l48 48l60 32l20 36l-28 12l120 28l20 -24l160 -4l16 8
q30 9 52 40zM360 1328l16 -40l24 -28l28 28l44 12l36 20l-40 8h-108zM684 1240l-28 -32l12 -8l36 20zM200 1228l8 -8q-1 5 -8 8zM240 1200l8 -12q-1 8 -8 12zM252 1188l8 -8q-1 5 -8 8zM268 1168l12 -8q-3 6 -12 8zM284 1160q2 -14 16 -20zM304 1140l16 -28l8 16zM564 1000
q2 -23 24 -40q21 -19 52 -20v40l-20 8zM500 988q11 -30 40 -48q13 -27 44 -32l-36 44q-19 22 -48 36zM188 980l-20 -68v-32l72 28l-12 28q-16 22 -40 44zM520 788l60 -4l60 -24l-16 -20l-44 -12l-40 -200v-56l-40 -200v-56l-20 -100l8 -288l12 -48l-20 -96l-40 -24l-28 -32
l-148 -28l-52 8q-22 8 -32 28v52l-32 156v56l-28 152l8 48v60l52 248v56l20 100v56h-20l20 24l8 24l-12 12l-56 -32l-40 52l40 20l100 20l8 -12l184 32h56q22 6 32 28zM468 720l-132 -60l-56 -12v-20h40l-60 -20l-20 -292l-12 -8l-20 -76l-8 -180l8 -36l-8 -44l8 -68l-8 -16
l28 -208l8 -12l72 -8l76 20l56 36l8 84l-8 88q-5 15 -20 20l8 44l-8 88l8 84l-8 36l8 44v76l12 8v92l8 64l-8 4l40 140v72l20 60h-32zM328 708l-8 -20h20q-1 12 -12 20zM360 708l8 -8q-1 5 -8 8zM400 640q18 -6 28 -20h-40zM448 640l12 -12q-8 3 -12 12zM40 628l20 -8
q-11 1 -20 8zM140 628l8 -8q-5 1 -8 8zM160 628l8 -8q-5 1 -8 8zM120 -72l8 -8q-5 1 -8 8zM388 -72q-1 -10 -8 -20zM508 -72l12 -20q-9 8 -12 20zM268 -80l12 -12q-8 3 -12 12z" />
    <glyph glyph-name="j" unicode="j" horiz-adv-x="950" 
d="M124 1549l48 -4l-32 -12q-5 8 -16 16zM744 1473l244 -48h60l28 -32l-20 -36v-60l-20 -36l-12 -48v-56l-8 -52v-624l-12 -44l-20 -328l12 -48v-60l-20 -36v-60l8 -32l-8 -8l8 -52l-8 -48v-60l-12 -44l-24 -36l-76 -40h-116l-96 20l-112 8l-44 12l-40 20l-48 8l-32 28
l-52 8l-80 36l-48 8l-72 44l-20 40l-28 144v120l20 96v116l-12 44l12 48l20 36l40 4v16l28 28l152 4l8 12l48 -12l24 -36l-52 -64l-8 -160l40 -220l52 40l8 20l20 -12l-20 -40l-32 -28l-8 -20l16 -8q12 -19 40 -20l52 4l80 36l60 56l40 76l20 96v292l20 76l-8 12v176l8 108
l-8 396l-12 48v56l-8 32l20 36l-12 8q6 20 20 40zM784 1433l12 -24l-12 -8v-16h36l12 8l24 -8h40v-16l-112 -16v-88l12 -44v-592l8 -32l-8 -112l-12 -44l-8 -260l-20 -88l-32 -76l-48 -60l-132 -84h-56l-24 -8l-56 20l-32 24l-20 32l-40 16l-20 32l-20 88v108l20 88v52l8 48
l-8 24l-44 -12h-36v-16l-20 -36v-52l-40 -388l28 -8l12 8l-12 -24l36 -36l32 -20l80 -28l92 -72l172 -40h216l44 12l28 24l20 32l12 44v52l8 28l-8 12l8 44v108l-8 48l8 28l-8 8v52l8 48l16 40l-16 80v108l12 44l-12 20l12 8v56l-8 24l16 88v216l-8 44l8 48v108l12 40l20 36
l8 44v52l20 88l12 20l-12 8zM0 1313l36 -20h-36v20zM44 1313l12 -8q-7 2 -12 8zM704 1313l12 -20q-9 8 -12 20zM1064 1313l12 -8q-7 2 -12 8zM36 1133l8 -8q-5 1 -8 8zM104 605l12 -20q-9 8 -12 20zM684 593l12 -8q-7 2 -12 8z" />
    <glyph glyph-name="k" unicode="k" horiz-adv-x="1315" 
d="M392 1640l60 -32l20 -68v-72l76 -8l12 8h68l12 -8h32l-100 -308v-32l20 32l40 136q6 31 28 60l20 68q2 32 20 68q20 23 52 24v-20l52 32h68l12 8l224 40h64l12 12l16 -60h-16l-4 -60l-220 -396l-20 -68l-120 -232l-44 -24l-24 -60l36 -52l60 -28l44 -44l68 -108l48 -40
l40 -48q11 -27 40 -32l-8 -40l84 -128q29 -18 36 -56l40 -48l20 -36l-8 -24l20 -68l20 -8v-108l20 -20l20 -68l48 -92l-12 -24l-60 -8l-12 8l-24 -8l-124 20h-72l-84 20l-52 -12l-16 12q-2 29 -24 48l-28 60l28 60l-40 48l-148 292l-48 40l-32 56l-120 144l-12 -28l12 -32
v-28h-32l-20 60l-28 -12l-20 -156l8 -256l12 -76v-88l20 -52l-20 -40l-8 20l-24 -20l-36 8h-68l-8 12h-52l-4 -12l-12 12l-144 8l-12 -8l-12 28l28 24l-8 12l16 56l4 168l-32 92l8 48q3 27 32 32v-24l12 56l-12 516l-8 40l8 16v284l-8 60l8 12l-4 80l-24 24l20 60v124
l-72 32l16 20l60 28l36 52l24 20l72 -20l144 32zM300 1600l12 -12q-8 3 -12 12zM1072 1500l-52 -28l72 -12l16 28zM872 1480q-5 -35 -44 -40l-64 -20q-31 -8 -44 -36l-148 -416l-32 -52l-40 -120q-18 -18 -24 -48l-4 -20l-32 24v76l-32 52l-48 32l-8 36v180l-12 8v304h-76
l-12 -8l-80 -12v-136q0 -25 -20 -44l-12 -72v-244l12 -40l-12 -16l28 -128l-16 -16l8 -40v-80l12 -68v-224l8 -12l12 -68q0 -31 -20 -64l-12 -68l12 -68l-20 -60l-12 -172l120 20l52 -8l-12 -44l52 -20l8 24v60l-8 12l-12 72l12 68l-12 52l8 12l12 108v264l12 8l28 52l20 60
l16 8l36 -8v-12l48 -40l52 -28l40 -40l48 -112l40 -44l32 -48l44 -36l24 -60l32 -48l92 -232q23 -18 28 -52l20 -60l52 -28h64l12 -8l40 8l12 -12l72 -8l56 -16l12 20l-20 32l-80 244l-28 48l-24 60l-60 100q-22 7 -28 32h16l12 28l-108 104l-52 108l-68 60l8 -24l-28 -16
l-12 28l12 40l-20 12l-120 120l-12 36l340 584l40 124l20 36l-200 8q0 16 -8 32zM1320 1468h40v-28q-21 11 -40 28zM472 1448v-140l8 -64l12 -36l-12 -8l12 -56v-72l24 36l16 48l8 64l24 48l68 180h-160zM552 1120l8 -12q-1 8 -8 12zM540 1080v-32l12 24q-3 6 -12 8z
M532 1048l-12 -48h12l8 36q-2 8 -8 12zM512 1000l8 -20q-1 11 -8 20zM500 968l12 -8q-3 6 -12 8zM200 760l20 -20q-14 5 -20 20zM640 760h40v-20h-40v20zM840 760h20q-6 -19 -28 -20zM72 748l8 -8q-5 1 -8 8zM420 748l12 -8q-7 2 -12 8zM432 400l8 -12q-1 8 -8 12zM1260 60
l12 -20q-9 8 -12 20zM192 48l8 -8q-5 1 -8 8zM220 48l12 -8q-7 2 -12 8zM440 48l12 -20q-9 8 -12 20zM720 48l12 -8q-7 2 -12 8zM272 -160l20 -12q-12 2 -20 12zM152 -172l8 -8q-5 1 -8 8zM280 -232l-20 -20h20l20 20h-20zM152 -240l28 -12q-11 9 -28 12zM304 -240l8 -12
q-2 8 -8 12zM1296 -332l24 -20q-9 13 -24 20z" />
    <glyph glyph-name="l" unicode="l" horiz-adv-x="1250" 
d="M300 1619l32 -8l12 8h48l-20 -20l120 -28h56l32 8l40 -40l-28 -32v-56l8 -32l-8 -12v-56l-12 -48l-8 -168l-12 -48v-116l12 -44l-12 -48v-40h16l4 -56l-28 -148v-56l68 -8l-24 -20l-44 -12l-12 -48v-56l-8 -52v-212l68 -12h56l48 12l48 -12l164 -8l100 -20h116l48 -12
l28 12l92 -40l32 -32v-20l-52 12v-148l-20 -96v-116l-8 -52l-52 -8h-56l-48 -12h-60l-44 16l-112 4l-28 -28l-48 -12h-56l-100 20h-116l-96 20h-60l-192 -40l-48 12l-20 40l-44 16l20 96l-12 48l12 24l-12 8l12 32v56l8 52v116l12 80l-20 40v176l8 48v60l12 28l-8 8l-4 40
l8 12l-8 40v232l-8 12l8 384l-8 12l8 28v60l12 44l-12 28l12 8l-12 28l12 8v116l32 8l12 -8l48 8h60q18 7 36 20zM200 1511l20 -12q-7 9 -20 12zM280 1479l-68 -36l-8 -44l-4 -96q0 -20 24 -24l12 -8l-36 -40v-52l12 -40v-204l-12 -40l-8 -384h-16l-4 -300l-12 -40v-100
l12 -40v-100l-12 -40v-52l-8 -20l12 -8l12 -40l4 -48l32 -4l52 12h204l40 -12h48l84 -20l32 -20h100l40 12h100l40 -12l196 -8l44 8l8 36v52l-8 28l8 8v48l-8 28l8 12v32l-8 8v100h-360l-80 20h-52l-44 8l-28 -20l-148 -8l-28 20l-40 16l40 32l-8 20l-72 32l20 28l8 44
l-8 144l-20 32v48l20 84l-20 32l24 28l4 44l12 40v52l28 224v100l12 40v52l-12 40v48l-8 32l8 8l60 8v32l12 36l-20 32l-12 40l12 60l-20 -8zM40 1279h40v-28q-21 11 -40 28zM592 1279l20 -20q-14 5 -20 20zM792 1271h72l8 -12h-72q-5 4 -8 12zM1272 1271h60l4 -12h-60z
M1032 579l236 -8l4 -12h-240v20zM792 571h72l8 -12h-72q-5 4 -8 12zM512 131l8 -12q-1 8 -8 12zM-20 -129l12 -20q-9 8 -12 20zM-60 -509l40 -16h-40v16z" />
    <glyph glyph-name="m" unicode="m" horiz-adv-x="1510" 
d="M1064 1490l48 -8l48 8h108l88 -20l44 12l40 -12h112l12 -20h-188l16 -8h56l96 -12l40 -16l-24 -32l-4 -36l28 -24l12 -24l-12 -8v-108l12 -44v-216l28 -24l20 -36l12 -44l-12 -40l76 -16l8 8l52 -4l-40 -16h-56l-40 -12l-48 -788l8 -8l20 20v-16l-20 -36l-8 -44l8 -48
l12 -20l-12 -8l32 -20l8 12l24 -12h28v-28l-44 -12l-68 -36l-44 8h-164l-40 16l-36 -8h-56l-20 12l-8 -12l8 -12l-8 -24l-20 28h-56l-40 -12q-22 -2 -24 -28v-40h-20l-40 100l8 32l-8 8l8 40v-40l12 20v164l8 48v108l12 40v164l8 48v108l12 44v108l-20 36l20 88l-20 12v-16
l-32 -24l-28 -80l8 -44l-28 -12l28 -28l-8 -44l-16 -40l24 -64l-8 -8l-28 -8l-8 8l4 32l-8 60l8 48l-8 44l-32 12l-20 -32l-40 -124l-28 -28l-32 -76l-88 -128l-28 -28l-24 -8v28l24 32l16 36l-8 44l-80 136l-12 44l-20 -20v16l12 24l-12 8l-20 36l-8 44l-12 -40v-272
l-28 -28v-52l8 -48l-8 -12l8 -24v-52l20 -20h-20l12 -24l-12 -8l12 -40l8 -156l-20 -32l-28 -28l8 -12l-8 -28v-32h-20l-36 -20l-44 -12h-52l-44 12l-40 -12h-56l-8 -44l-20 -36l-32 24v36h-16l-28 -28q-12 -18 -36 -20l-12 28l12 40v56l12 44l8 152l12 44v108l8 32l-8 8
l8 44l-8 396l-56 28l24 8l12 -8h28v228l12 8l-12 20l12 44v56l8 44v164l12 44l-12 40v200l64 -8l268 8l88 20l44 -8l28 8l28 -48l12 -40l148 -288l20 24l52 112l8 44l20 36l12 44l28 28l40 64v36h20v28h28q15 7 32 20zM1576 1470h40l-32 -8q-5 1 -8 8zM-20 1462h60l4 -12
h-60zM1044 1390q-32 -20 -40 -60l-28 -68l-40 -56l-32 -64l-44 -152l-32 -68l-12 -12l-32 12v28q-5 37 -44 52l-56 140l-40 56l-60 136q-21 27 -60 36l-160 -8l-12 -12h-96q-33 -13 -40 -56l-20 -232l8 -12l-8 -12l8 -88l-8 -88l24 -72l16 -28h52l48 -12l-96 -8l-12 8
l-32 -24v-192l-12 -84v-96l-8 -64l20 -4l8 -36l-8 -32l20 -92l-12 -64l12 -8l-20 -160l8 -52l-8 -12l8 -48l32 8l8 12l20 -12l-64 -80l12 -8h232v24l-20 16l12 48v152l8 36v192l12 60l-8 12l8 68l-12 8l12 84l-12 36l12 36v68l20 8v68l-12 8l12 96l-12 28h-56l-44 12l112 8
l-20 120l8 12h28l44 -56l32 -64l36 -12l-8 -24l40 -60l60 -132l40 -12v40l28 40v-36l32 -64l28 28l60 136l16 64l44 52q9 34 40 60l72 20l28 28l60 -20l-8 -12v-28l28 -80l76 -20h-76v-116l-28 -260l-12 -36l8 -36l-36 -352v-96l-12 -84l68 -8l168 8l8 12l8 -12h172l16 8v56
l-8 8l8 48l-8 32l20 80v72l8 16v168l-8 16v96l-20 152l8 16v96l12 84l-32 48l32 4v336l-40 44v96l-12 84h-72l-76 -20l-100 -60l-12 24l44 56q34 5 36 32zM1056 1370l8 -8q-5 1 -8 8zM1064 782l12 -12q-3 9 -12 12zM1384 770l44 -8h52l12 -20l-40 8h-104l-24 12h52q6 1 8 8z
M64 762h32l-32 -20v20zM444 730l12 -8q-7 2 -12 8zM444 650l12 -8q-7 2 -12 8zM1004 642l12 -12q-8 3 -12 12zM444 562l12 -12q-8 3 -12 12zM764 542l12 -52q0 26 -12 52zM724 510l-8 -40l16 -8l4 40q-3 6 -12 8zM784 502l-8 -36l8 -12l12 44zM564 502l12 -20q-9 8 -12 20z
M764 450l12 -28q-1 16 -12 28zM-20 290q33 -20 44 -60l-44 12v48zM156 -18v-32l8 24q-1 6 -8 8zM1604 -110q14 -5 20 -20zM956 -150l20 -8q-11 1 -20 8zM1316 -158l8 -12q-5 4 -8 12zM1624 -158l12 -12q-8 3 -12 12zM1776 -238v-132l-12 68zM1236 -298l8 -12q-5 4 -8 12z
" />
    <glyph glyph-name="n" unicode="n" horiz-adv-x="1320" 
d="M1491 1598l20 -12q-12 1 -20 12zM231 1438l60 -12h288l60 12h32l8 -24l-4 -8h-44l48 -408l20 -52v-48h76l56 -12l28 20l12 60l8 120h12l-12 32l12 20l-12 28l12 16v196l-12 8l-8 48l12 4q24 -10 36 -40v-32l16 20l4 20l40 -12l124 -16l136 4l-8 40l12 16l40 -32l52 -20
l44 -28l-8 -64l-12 -36l12 -28l-12 -44v-72l12 -32l-12 -12l-8 -208l-12 -60l-8 -208l-12 -56l-20 -52v-72q22 -11 24 -36q-26 -6 -32 -36l-40 -244l-136 -440l-32 -40q-14 -20 -40 -32l-60 12l-280 8l-52 -16l-72 48l-20 -12l4 40h48l8 12l-40 176l-8 64l-20 52v36l-12 24
v28l-20 -20v-212l-16 -48l16 -12l-8 -36l-120 -24q-25 11 -32 40l-120 -8l-4 -12h-36l-8 -8l-124 40l-8 64l20 76l-8 40v216l36 312l-8 32l12 20l-12 8l12 40l8 204l12 60l-20 52l20 -4v40l28 308l12 8v128l-12 4l24 52q24 4 48 20zM419 1378l-44 -12h-56l-40 -12l-8 -28
l8 -8l-16 -40l-12 -92l8 -288h72l44 -12h160l40 12q22 2 24 28l-8 152l-32 124v56l-20 84l-28 24l-40 12h-52zM1191 1326l-160 -16l-20 -20l-12 -48l-20 -44l-8 -48l-20 -376l-12 -48l-40 -20v-120l-8 -52l4 -36l36 -12l-40 -40l8 -32l-8 -48v-120q-10 -20 -32 -28l24 -20
l16 8l52 -8h116l44 -8l28 8l20 -32l-60 12h-60l-48 -12l-48 12l-32 -12l-12 8l-40 -8l-20 -40q-7 -22 -32 -28l-28 36l-12 44l-28 -12v24l24 -4l8 8l-20 36l4 48l-120 -40l-12 8l-4 20l-20 -12l20 -40v-28l20 12l92 -20h-68l-12 -8q-19 -13 -20 -40l40 -196l8 -96h16l44 -20
l-8 -28v16l-24 -20l-28 12v-80l12 -20l-12 -12h120l148 32h24l-12 -28l-96 -24l36 -8l36 8l56 -20l44 20l24 32l12 48l20 40l28 152l20 40l12 48v60l20 40v60l20 100v56l20 104l-12 104l12 28l-12 8l20 40l12 48l8 204l-260 8l48 12l48 -12h164l12 64l8 148h20l12 48v60
l-20 40l8 32l-32 48h-56zM1031 1298l8 -12q-5 4 -8 12zM859 1118l12 -12q-8 3 -12 12zM191 978v-40l8 -12v40q-1 8 -8 12zM203 926l-4 -20h12q0 11 -8 20zM-5 898l12 -12l32 12l60 -8l-56 -12h-48v20zM1359 898l20 -20q-14 5 -20 20zM1419 898h60v-20h-60v20zM259 878v-392
h-16l-12 -64v-68l-12 -60l-8 -120l-60 -364l-20 -12l12 -20l60 -12l56 12l40 28l56 12l52 20l12 32l-8 12v72l-12 12l12 32v112l-8 16l8 32l-112 8v20l120 20v16l20 48l12 56l-12 8l32 88l-12 36l56 20l36 -36l20 -48l8 -88l20 -8l32 -32l52 20l8 12l-12 8l72 -16l-32 36
q-6 26 -36 32l-24 -12v36l32 36l-12 56l-40 100l-8 184l-12 4v64q-4 30 -32 40l-56 12h-272zM711 878q1 -28 20 -52l8 -120l12 -4l8 -120l12 -4v-52l20 -52l48 312l16 60q-1 25 -28 32h-72l-32 -12zM1459 698l12 -12q-8 3 -12 12zM1499 698l12 -12q-8 3 -12 12zM1171 566
l8 -8q-5 1 -8 8zM1339 566l12 -48q-9 21 -12 48zM1139 546l20 -28l-20 8h-28zM1171 546l20 -40q-12 17 -20 40zM631 366l20 -8q-11 1 -20 8zM639 318l12 -12q-8 3 -12 12zM999 258l-20 -20l-40 -12l-20 20q41 0 80 12zM731 226l20 -20q-14 5 -20 20zM931 218l28 -12
q-16 1 -28 12zM979 218l20 -12q-12 1 -20 12zM1411 186l8 -8q-5 1 -8 8zM239 126l12 -8q-7 2 -12 8zM1259 58l12 -12q-8 3 -12 12zM691 -174l-12 -20h20l12 12zM1371 -382l8 -12q-5 4 -8 12zM1451 -454l8 -8q-5 1 -8 8zM1299 -502l12 -8q-7 2 -12 8z" />
    <glyph glyph-name="o" unicode="o" horiz-adv-x="2212" 
d="M2374 1573l37 -8l-30 -106l-76 -102q-8 -29 -38 -49l-102 -167q-23 -22 -30 -57l-8 -4l27 -26l-27 3l-30 -26l-38 -53l-8 -34l8 -38q-10 -31 -38 -53q-31 9 -45 45l-95 80l-103 -76l-41 -45l-8 -31l8 -11l-27 11l-11 -11l11 -53l19 -50l-19 8v-68l8 -12v-53l-8 -7l8 -12
l-8 -170l-15 -76l-140 -303l-262 -273l53 -11l12 -19h-61q-27 0 -57 -19l-110 -64l-72 -19l-72 19l-76 -12l-269 50q-16 17 -45 26l-57 19l-8 -8h-72l-49 8l-114 -15l-19 7l-7 -37l7 -38l-26 -19l-19 38l-57 -31l-12 23l12 15l-30 -7l11 19l-49 37l-38 -11h-69l-7 11h-19
q16 23 49 27h46l7 11l12 -11l11 19l-26 30q-16 25 -50 38l-30 -11l11 38l-11 41l11 27l65 26l38 50l87 90l26 4l-26 299l26 61l-19 68l19 72v69l12 7l7 68l31 129l-8 12l27 38l19 68l37 49l-18 46l15 -12l144 197l57 34l125 54l49 37l64 23q32 14 76 15l65 23l129 15l30 -7
l23 19l102 -34l49 -42l57 -30l84 -95l56 -34l38 -50q21 -21 50 -22l19 11l-12 -27l8 -11l106 57l38 49q30 12 34 46l-65 113l-7 38h87l38 12l64 7l4 12q34 1 72 19h50l18 19l84 7l148 30l125 8zM2267 1478l-37 -19l-27 8l-246 -76l-72 -15l-54 7v-37l-37 30h-38l94 -118
l12 -34l-27 -11l-38 19l-11 -15l-53 -31l-61 -87h15l12 -45h-19l-27 19l-19 -19l-19 38v-23q-31 -15 -72 -15l-22 7l15 31l-46 26l-227 190q-10 31 -46 38q-27 17 -64 19l-65 18l-155 -7l-68 -19l-57 -27q-33 0 -61 -22q-30 -5 -57 -27l-110 -57l-49 -38l-26 -30h19l30 30
l19 -11l-46 -38q-25 -12 -41 -42l-38 -45l-65 -102l-19 -65v-83l-19 -65v-64l-11 -8v-38l-38 -174l12 -61l-12 -68q24 -18 31 -53l-12 -46l12 -18l7 -76l11 -42l-18 -11l-50 11l-4 -19l-41 -42l-50 -33l-34 -50l-60 -56l11 -38l121 -95l31 38l26 57l50 34l83 83l30 72
l34 -19l31 -53l75 -91q16 -28 50 -34l45 -38l106 -64l38 -4l8 11l7 -11h251l19 -8l38 19l60 8l23 30h-19l76 27l11 38l65 19l246 337l68 265v45l-30 95l11 23v42l-11 56l19 4q-1 36 -38 42l-8 38l27 15l11 30l-11 12h19q4 30 26 57l50 37l38 42q19 22 49 34l-11 31l45 19
l30 -19l65 19l30 -19l8 26l49 -23l201 304l19 64l26 34h-19zM960 1414l19 -12q-7 9 -19 12zM524 1251l11 -8q-3 6 -11 8zM952 1205h129l4 -11l64 -8l38 -30l99 -45l34 -38l38 -31l30 -41l19 -53q0 -22 -19 -35l-30 8l-46 -53q-11 -22 -38 -34l-144 -140l-57 -84l-26 -11
l7 -27l-7 -49l-31 -11l-37 60l-38 34l-38 19l-31 38l-34 19v-15l-45 -30l-61 -76l-19 -12l12 -30l-76 -64l-125 -141l-42 8l-11 -8l-27 46l-4 49l8 12l7 53l-7 53l11 4v68l-11 60v35l-95 -8l38 34h68l-11 30l19 -11l15 57q20 17 23 45l57 88l18 49l38 34l57 83l38 34l12 19
l30 -11l45 23q25 7 38 34h53l12 -8q24 6 49 19zM888 1148l-107 -56l-26 -31l-30 -22l-19 -38l-88 -80l-38 -72l-18 -91v-53l-8 -49v-167l19 -15l95 140l38 23l19 34l34 23l11 18h-23l-22 -11l-8 11l49 8l23 -8l38 42l-19 4l15 19l23 15l45 -4l23 8l-4 -27l12 -30l22 -19
l35 -64l26 -31l49 57l19 38l152 182l45 8l23 30l30 26l8 19l-15 12l-23 34l-68 42l-27 26l-45 12l-72 37l-30 8l-8 -8l-49 8zM2419 1137l19 -8q-10 1 -19 8zM1331 1099l8 -7q-5 0 -8 7zM1881 1099l7 -7q-4 0 -7 7zM1350 1080l27 -7l-12 -19l-26 7zM903 1073l19 -19
q-13 4 -19 19zM1756 1073l19 -12q-11 1 -19 12zM2173 1073l19 -12q-11 1 -19 12zM2203 1073h61l3 -12h-60zM599 1061l19 -7q-10 0 -19 7zM1718 1061l19 -7q-11 0 -19 7zM1414 997l12 -12q-8 3 -12 12zM1426 940l7 -11q-5 3 -7 11zM1236 929l8 -8q-5 1 -8 8zM220 883l12 -11
q-8 3 -12 11zM592 807l7 -11q-5 3 -7 11zM448 796l11 -19q-8 7 -11 19zM1054 796l12 -8q-7 2 -12 8zM1092 796l12 -8q-7 2 -12 8zM1433 796l12 -8q-7 2 -12 8zM1718 796l11 -8q-7 2 -11 8zM899 788l-4 -15l8 -4v16zM751 788l19 -19q-13 5 -19 19zM933 777l8 -8q-5 1 -8 8z
M1464 777q-3 -11 -12 -19zM1502 777l45 -27q21 -13 30 -41l-30 -38l4 -65l15 -7l-26 -159l-126 -292l-83 -125l-42 -30l-15 -19l-53 -19l-38 -30l-170 -38h-69l-41 7l-141 65l-113 94l-12 34l-38 -30l-19 30l-7 27l7 30q29 6 31 38l38 30l26 42l106 102l31 42l91 45v42l19 4
l34 -34l23 -50l11 -56l19 -50q32 -1 38 -34l60 76l23 45l38 31l30 42l273 280zM296 769l-7 -49l19 -8l7 57h-19zM592 769l7 -11l-19 -64l-7 45zM781 758q0 -15 -11 -27zM1244 731l11 -11q-8 3 -11 11zM599 720h38l-7 -11l-31 -8v19zM960 720l11 -8q-7 2 -11 8zM1358 720
l11 -8q-7 2 -11 8zM289 712l7 -18q0 10 -7 18zM448 712l11 -18q-1 11 -11 18zM675 701l12 -7q-7 1 -12 7zM277 675l12 -19q-2 11 -12 19zM1433 644l12 -7q-3 5 -12 7zM1426 625l7 -7q0 5 -7 7zM1452 599l-56 -57l-38 -68l-38 -19l-19 -31l-19 -7l11 -19l-30 -8l-27 -30
l-30 -23l-46 -60l-18 -38l-19 7l-38 -41l-19 -35l7 -75h-30l-15 38l-49 60l-8 46l-57 106l-26 -12l-23 -30l-87 -76l-50 -7l-34 -19l-7 -46l7 -45l19 -38l30 -23l84 -23l30 -26l68 -38l84 -19l76 38l94 64l27 31l110 163l34 72l19 87l27 30l75 171h-19zM1377 580l11 -12
q-3 9 -11 12zM599 568l12 -7q-7 1 -12 7zM1350 549l8 -7q-1 5 -8 7zM1301 504l11 -11q-3 8 -11 11zM175 398l7 -8q-4 1 -7 8zM770 398l11 -8q-6 2 -11 8zM31 277l11 -12q-8 3 -11 12zM1035 265l12 -7q-4 5 -12 7zM1358 258l-23 -50l-53 -87l-8 -26l19 11l95 152h-30z
M251 114l7 -8q-1 5 -7 8zM232 106v-19l19 19h-19zM1244 76l11 -8q-3 6 -11 8zM573 49l7 -11q-5 3 -7 11zM1407 49l7 -11q-5 3 -7 11zM1130 -38l12 -7q-4 5 -12 7zM979 -38l11 -7q-7 1 -11 7zM440 -83l-30 -38l-38 -30l-57 -72l-15 -42l57 -8l57 8h132l8 34l15 4l42 -8z
M827 -102l11 -11q-8 2 -11 11zM1331 -113l8 -8q-5 1 -8 8zM137 -140l8 -11q-6 3 -8 11zM630 -140l19 -11q-11 1 -19 11zM364 -178l8 -11q-5 3 -8 11zM1198 -189l19 -8q-10 1 -19 8zM725 -197l18 -11q-10 1 -18 11zM364 -216l8 -11q-5 3 -8 11zM743 -216l8 -11q-5 3 -8 11z
M1130 -227l27 -8l-27 -11v19zM615 -235l15 -11q-5 8 -15 11zM524 -246l11 -8q-7 2 -11 8zM819 -273l8 -11q-1 8 -8 11zM831 -284l7 -8q-1 5 -7 8zM903 -284l-65 -19l57 -19l72 -7l46 18l60 16l-30 11l-34 -8l-30 8h-76zM971 -303l8 -8q-5 1 -8 8zM1066 -341l19 -7l7 7h-26z
M-45 -424l19 -68l12 -73h-31v141zM277 -549h19l-26 -16z" />
    <glyph glyph-name="p" unicode="p" horiz-adv-x="1325" 
d="M1539 1456h56v-16h-56v16zM659 1392l12 -12q-8 3 -12 12zM939 1392l48 -12h60l44 -20l28 -28l32 -16l40 4l48 -32l12 -48l28 -32l20 -40l40 -16l40 -80l24 -92l36 -84l32 -148v-60l-20 -100l-20 -36l-32 -32l-20 -36l-88 -92l-152 -84l-44 -16l-248 -52h-56l-152 -28
q-24 -1 -28 -28v-60l8 -12l-8 -32l8 -52v-116l20 -28l12 16l16 -20l292 -4l-48 -16l-48 12h-176l-40 -20l-16 20v-140l-12 -48l12 -84l-40 -20l-12 12l-28 -12l-8 12l-52 8l-36 -20l-40 20h-56l-20 -20v16l-120 4l-12 -8l-28 16l-8 32l8 12v40h-16q-21 5 -28 28l4 112l-8 12
l8 152l12 48v116l8 52v60l12 48v116l8 52v60l-28 32h28l20 188l-8 32l8 12l-8 24l8 8l-16 108l8 12l-12 28l12 24l20 96l-8 48l16 40h-28v28l32 32l48 12l20 40l128 28l12 -8l40 20h60l100 20h116l48 -12h120zM419 1360l20 -8q-11 1 -20 8zM899 1300l24 -8l8 8h-32z
M739 1292l-44 -12h-52l-32 -20l-212 -48l-32 -20l-76 -28l-12 -40l12 -40v-52l-12 -40l-8 -200l-12 -40v-104l-8 -44l8 -12l-8 -24l8 -28l-8 -8v-156l-12 -72l12 -8l-12 -40v-52l-8 -44l8 -32l-8 -8v-48l-12 -40l12 -24l-12 -8l8 -40l-8 -36l12 -40l-12 -40l12 -40l-12 -40
v-124l360 -8l-28 100v104l-36 36l-20 -12h-156l-72 20h52l20 12l8 -12h156l8 12l20 -12l8 44v260l20 32l8 44h52l52 20l-12 20q9 19 32 20l44 -8l44 8l44 -8l44 8l32 20h52l240 72l28 24l100 160l16 36l4 48l12 40v52l-20 32l-32 108l20 28l-32 72l-24 28l-12 44l-52 104
l-24 24l-96 60l-84 20l-84 -20l-44 8h-88zM111 1292h28v-20h-28v20zM159 1292l20 -12q-12 1 -20 12zM191 1292h64l4 -12h-64zM35 1140l4 -36l-4 -12v48zM579 1000h140l28 -20q36 -2 80 -20l52 -48l20 -32l12 -40l-12 -88l-100 -100l-64 -40q-27 -23 -68 -32l-92 -8
q-21 31 -24 76l20 264l-8 8zM811 992l8 -12q-5 4 -8 12zM871 960l8 -8q-5 1 -8 8zM631 940l-12 -56v-36l12 -20l8 -188l140 60l20 48l32 36l8 60l12 28l-52 40l-56 8l-52 16zM651 932l8 -12q-5 4 -8 12zM35 -120h84v-20zM239 -120l12 -20q-9 8 -12 20z" />
    <glyph glyph-name="q" unicode="q" horiz-adv-x="1575" 
d="M1040 1558h124l36 -8l12 8l52 -8h64l48 -12l84 -40l100 -88l36 -20q20 -8 32 -32l32 -32l24 -36l24 -80l-8 -12v-184l-20 -40l-32 -152l-28 -36l-100 -208l-32 -28l-24 -40l-36 -84l-28 -36q-8 -20 -32 -32l-20 -40l-36 -28l-28 -32l-36 -24l-60 -64l-40 -20l-28 -32
l60 -128l24 -32l36 -92l8 -52l52 -32l-32 -72l-40 -20l-104 -20l-156 -88l-32 -12l-12 8l-4 32l20 8l8 12l-80 208l-8 52l-32 -8l-24 36l-256 -48h-124l-32 -12l-8 12l-40 20l-24 -12l-112 100l-28 32l-60 124l-28 96l-12 172l8 56v60l20 40l12 52l68 120l12 48l40 84l12 48
l28 32l20 44l-20 40l52 72l128 120l20 40l40 20l52 72l36 28l40 20l28 32l44 20l32 28l48 12l44 20l156 28zM1128 1518l248 -80l12 8l64 -48l48 -20l20 20l-20 8l-36 32l-204 76zM1008 1510l-100 -20l-84 -40l-44 -12l-72 -48l-32 -32l-48 -32l12 -24l-40 -24l-60 -60
l-20 -36l-32 -28l-188 -292l-12 -48l-40 -80l-20 -100l-36 -84l-8 -52l-16 -40v-60l-8 -52l20 -76l-40 -44l12 -48l36 -84l32 -28l52 -68l40 -20l56 -4l44 -16l96 -20l-8 20l28 -8v-28l44 -12l52 8l84 32l-40 8h60l32 12l8 -12l64 52l36 8l12 -8l20 -40l8 -52l52 -124l8 -52
l12 -24v-40h20l160 80h40v16l-72 168l-28 8l20 8l-28 60l-28 32l-16 48l12 32l-12 28l12 8l24 -8l36 40l-12 52q10 20 32 28l28 68l32 28l68 112l32 28l100 136q5 23 28 32l20 40l32 28l24 40l32 28l24 32l60 120l20 100v60l-40 140l-32 28l-24 32l-44 20l-48 8l-120 60
l-268 92h-56zM1700 1378l8 -8q-5 1 -8 8zM340 1370l8 -12q-5 4 -8 12zM1040 1370l20 -12q-12 1 -20 12zM1388 1370l12 -12q-8 3 -12 12zM1048 1338h152l12 -20l68 -24l48 -44l80 -100l20 -72q8 -26 40 -32l-40 -144l-88 -184l8 -12l-8 -28h32l-12 -20l-16 12l-52 -40
l-68 -112l-44 -48l-52 -36l-36 -56l-44 -48l-40 -20l-40 80l-68 88l-4 -20l-48 -40l-40 -52l20 -72v-64l-16 -12q-10 -31 -44 -44l-128 -56l-76 12l-64 28q-33 1 -68 20l-48 -28l-36 8l-8 20l-48 40l8 32l-20 8l-8 -8l8 12l-12 56v68l-20 44l20 28l20 144l32 28l-12 -92h12
l36 60l20 72l32 60l20 68l32 56q11 32 40 56q27 14 40 48l60 120l100 80l40 52l64 28l36 -8l20 24l68 24q25 24 60 32q30 11 60 28zM1160 1278l-112 -36l-52 -24h-72l-56 -16l-40 -32l-52 -20l-88 -60l-208 -328l8 -36l-28 -44l-40 -104v-128l8 -12l20 -120l32 -44l36 -36
l52 -20h148l44 24v56l-12 4l-20 52l-40 36q12 19 40 32q4 30 28 48l44 24l56 4l4 12l108 80l16 -12l24 -52l32 -40l8 -36l20 8l140 200h-20l20 16l60 84l40 108l28 44l12 132l-8 64q-11 25 -40 32l8 20h-20l-48 32l-8 -32l-4 16l12 44l-32 40q-22 12 -48 20zM868 1190
l12 -20h-20zM580 1170l8 -12q-5 4 -8 12zM180 1158l8 -8q-5 1 -8 8zM1428 1158l12 -20q-9 8 -12 20zM748 1118q-1 -10 -8 -20zM720 1090l8 -12q-5 4 -8 12zM580 1078l8 -8q-5 1 -8 8zM1460 650l-88 -120l-12 -32h20l28 20l40 96l20 24q-1 8 -8 12zM168 598l12 -28
q-1 16 -12 28zM140 518l8 -8q-1 5 -8 8zM1348 498l12 -8q-4 6 -12 8zM128 490l12 -20q-1 12 -12 20zM1328 478l-8 -28l20 8q-1 12 -12 20zM1308 450l12 -12q-3 8 -12 12zM1300 438l-72 -100l12 -20l68 96q0 12 -8 24zM300 390v-64l20 -36q-12 76 -20 100zM1220 318l8 -20
q-1 11 -8 20zM328 290l-8 -32l12 -8l8 32q-3 6 -12 8zM1200 290l8 -12q-1 8 -8 12zM1888 278l40 -20h-40v20zM344 250l16 -32q-5 16 -16 32zM388 250l12 -20q-1 12 -12 20zM404 230l-4 -16l8 -4v16zM412 210l8 -12q-1 8 -8 12zM1128 210l20 -12q-7 9 -20 12zM1888 190
l12 -12q-8 3 -12 12zM620 170l20 -12q-7 9 -20 12zM568 -42h40l-32 -8q-5 1 -8 8zM920 -42l20 -8q-11 1 -20 8zM960 -42l8 -8q-5 1 -8 8zM1068 -42l12 -8q-7 2 -12 8zM1220 -42l8 -8q-5 1 -8 8z" />
    <glyph glyph-name="r" unicode="r" horiz-adv-x="1230" 
d="M635 1491h80l200 -28l32 8l8 -20h-40l172 -108h40l60 -52l8 -68l-8 -72l-60 -168v-60l-20 -52h20l44 32l24 -12l-16 -28l-40 -40l-44 -32q-16 -13 -20 -36l-104 -52l-84 -68l-52 -24q-29 -6 -48 -32l44 -76l76 -80l40 -72l20 12l-12 -20l12 -4l40 -36l88 -140l36 -40
l24 -52q24 -16 32 -48l120 -188l40 -36q-14 -24 -44 -36l-48 -24l-120 -36l-152 -80l-36 40l-120 188l-72 80l-52 100q-23 4 -36 20q20 4 28 24l-60 92l-40 40l-28 48l-80 72l-12 -52l12 -16l-12 -36l20 -136q5 -24 32 -32l20 8v-32l-12 12h-28l20 -100v-60l20 -140v-88
l52 -24l8 -20l-272 -8l-100 -28l-48 28l-12 64v56l-8 12l-12 64v156l-20 96l12 8v60l-12 4v136l-8 12v72l-12 44l-8 224l-12 64l-8 124l8 12l-8 224l-12 64l-20 12l40 80l-20 12l20 28l176 132l48 28l168 60l-12 20l36 -8l68 8zM127 1463h28l-20 -12q-5 4 -8 12zM315 1463
l12 -12q-8 3 -12 12zM355 1463l20 -20q-11 7 -20 20zM975 1463h56l4 -12h-56zM595 1443l60 -12q-29 9 -60 12zM535 1431v-20l44 12zM635 1411l-56 -20l-64 -8l-164 -60l-84 -60l-60 -88l-40 -32l-52 -60l20 -12l12 -64l8 -244l20 -4l-8 -128l20 -140v-56l8 -8v-72l12 -60
l8 -212l20 -36l-8 -12l8 -404h24l56 20l40 -8l72 24l40 4l-20 80v52l-12 8v148l-8 68l-12 16l12 32v196l-12 12v220q0 32 28 48h24v-124q4 -28 32 -36l28 12l60 -48l28 -44l36 -40l24 -48l132 -160l24 -12l24 12l64 -12l-36 -8l-44 -20l32 -40l24 -52l32 -44l8 -64l20 -52
l32 -44l16 -4l44 8l52 20h36l24 12l68 8q20 13 20 32l-160 208l-40 32l-168 180l28 40l-92 128l-20 52q-22 11 -32 40l-24 48l-44 32l-88 20l4 40l16 8l28 -20l60 12l52 20l-20 36l40 32l36 40l32 12l-4 -32l-44 -28l28 -8l52 20l28 44q26 8 44 32l88 132l60 160l-20 124
l-60 88l-36 36l-44 32l-48 20l-68 8l-52 20h-144zM1107 1303l48 -112v80q-20 21 -48 32zM595 1303h80l44 -32l32 -48l16 -60l-12 -68l-20 -56l-60 -96l-20 -56l-108 -124l-100 -60l-20 -20l-28 8l-44 112l-12 8l-28 -8l-20 156q-18 24 -20 60l32 4l8 -36l12 16v56l-32 12
l20 32l12 100h28v-20l20 -12l120 80l56 20q22 13 44 32zM587 1211l-72 -28l-124 -80l-16 -20h32l-12 -116l40 -196l40 16l60 44l92 104l40 60l32 68l16 80l-32 68h-96zM187 763l20 -12q-12 1 -20 12zM227 763l8 -12q-5 4 -8 12zM315 763l12 -12q-8 3 -12 12zM335 763l20 -12
q-12 1 -20 12zM715 763l12 -12q-8 3 -12 12zM787 763l20 -12q-12 1 -20 12zM895 763l12 -12q-8 3 -12 12zM875 751l12 -8q-7 2 -12 8zM847 523l8 -12q-5 4 -8 12zM87 51l8 -8q-5 1 -8 8zM115 51l12 -8q-7 2 -12 8zM335 51h60l12 -8h-60q-7 2 -12 8zM635 51l12 -8q-7 2 -12 8
zM955 51l12 -8q-7 2 -12 8zM1195 51l12 -8q-7 2 -12 8zM827 43l8 -12q-1 8 -8 12z" />
    <glyph glyph-name="s" unicode="s" horiz-adv-x="1280" 
d="M305 1343l20 -20l-20 -8v28zM505 1343h40v-20h-160l40 12h68q8 1 12 8zM1185 1335h72l8 -12h-72q-5 4 -8 12zM653 1295h84l164 -60q2 -31 28 -52l120 -120l36 -48l28 -52l-36 -48l-244 -240l-20 -40h160l-52 -12h-80l-52 12l-4 -12l-60 -8l40 16l-52 56l-8 56h-16
q-17 22 -48 32l-28 8l-16 -28l-4 -72l32 -48l60 -8l40 -32l420 -140l48 -32q24 -13 40 -40l52 -28q23 -18 28 -52l36 -48l16 -144v-80l-16 -68l-24 -56l-152 -172l-88 -72l-52 -28l-60 -20l-140 -20l-232 8l-192 52l-104 56l-136 104l-36 48l-48 32l-40 40l28 52l72 92
l56 104q1 31 32 32l32 20l20 -12q22 -13 40 -40l20 -60l60 -100l80 -84l60 -20l-20 -4l24 -32l72 -8l120 -40l72 8l52 24l48 32l52 88l8 72l-20 60q-12 25 -40 40l-28 52l-40 40l-48 32l-64 16l-48 36l-136 20l-124 40l-80 80q-23 12 -40 40q-22 19 -32 52l-20 60v80l-28 52
l8 60v92l20 60l32 48l48 36l32 48l120 120l48 32q30 2 60 20l56 8zM665 1255l-120 -40l-160 -144l-60 -96l-16 -52q15 -28 16 -64l-20 -56l-12 -64l12 -68l20 -56q0 -29 20 -56l32 -44l44 -32q21 -18 52 -28l284 -100l36 -4l40 -36l56 -20l96 -60l60 -96l20 -56l-52 -180
l-28 -52l-40 -36l-48 -32l-112 -16l-172 56h-56l-64 32l-68 48l-8 -28l-32 -12l-20 16l-60 96l-84 68l-32 12l-76 -80l8 -20q14 -22 44 -32l48 -8h-60v-12l52 -32l28 -48l52 -24q12 -23 40 -40l40 -36l56 -20l48 -28l348 -40l116 36q29 2 52 24l72 8l48 28l80 72l88 144
l32 200l-36 116l-36 44l-40 36l-92 60l-208 72l-20 -12l132 -48l-12 -40l-48 32l-68 8l-112 44l-40 36l-100 32l8 28l-60 60q-26 16 -28 52v64l20 72l40 36l8 16l44 -12l48 -28l36 -40q7 -26 32 -36l44 36l148 160l-60 92l-20 56l-36 40l-48 32l-56 24v16l48 -12h52l-60 40
l-56 20q-28 12 -64 12zM945 1095l20 -48q1 -21 24 -24l-12 40q-12 16 -32 32zM1025 1003l-12 -28l16 8l16 20h-20zM785 715l8 -12q-1 8 -8 12zM345 635l8 -12q-5 4 -8 12zM705 635l8 -12q-5 4 -8 12zM1025 635h72l8 -12h-72q-5 4 -8 12zM933 555l12 -12q-8 3 -12 12z
M1025 515l8 -12q-5 4 -8 12zM833 483l40 -20q-16 14 -40 20zM673 483l12 -8q-7 2 -12 8zM485 475l20 -12q-12 1 -20 12zM785 435l8 -12q-5 4 -8 12zM865 403l8 -8q-5 1 -8 8zM913 403l12 -8q-7 2 -12 8zM1045 403l8 -8q-5 1 -8 8zM733 395l12 -12q-8 3 -12 12zM1253 395
l12 -12q-8 3 -12 12zM465 363l8 -8q-5 1 -8 8zM225 115q3 -24 28 -32q-3 24 -28 32zM305 -65l20 -20q-14 5 -20 20zM865 -65l28 -20h-28v20zM1053 -77l12 -8q-7 2 -12 8zM1093 -77l12 -8q-7 2 -12 8zM1373 -77l12 -8q-7 2 -12 8zM1413 -77l12 -8q-7 2 -12 8zM885 -157l8 -8
q-1 6 -8 8zM865 -165l20 -12q-7 9 -20 12zM265 -165l8 -12q-5 4 -8 12z" />
    <glyph glyph-name="t" unicode="t" horiz-adv-x="1615" 
d="M646 1298h66l48 -13h61l27 13l8 -13l31 13l9 -13l240 -9l48 -13l302 -9l48 -13l44 -22l40 22l39 -22l17 -44h22l-35 -74l-8 -52l-9 -175l-13 -53l-22 -39l-44 -44l-26 13h-184l-105 22h-61l-105 22l-53 -5l-13 -48l13 -52l9 -613l22 -105v-61l13 -26l-13 -9l-22 -39
l-31 -96v-62l-13 -48q-18 -15 -48 -17l-26 39h-109l-49 -17l-214 -36h-44l44 224l9 179l-9 52l9 57l-9 53v61l9 52l-9 57l9 53l-9 52l9 53v127l13 48l-44 17l-13 31l22 61l-22 40v-22l-17 22l-307 -66l-26 -35l-74 -35l-22 39v66l-9 9l-26 -9l-44 17l18 22l39 22l9 35l-9 31
v241l-35 65l17 13l105 22l504 31q6 3 8 13zM1513 1263l21 -9q-12 1 -21 9zM1556 1263l9 -9q-5 1 -9 9zM1609 1263l13 -9q-8 2 -13 9zM856 1232l-127 -22l40 -26l-44 -9l-61 35l-61 9l-136 -9l-61 -13l-62 13h-122l-9 -13h-35v-35l-35 -39l13 -57v-48l31 -70l35 -35l276 13
l17 9l39 -9l40 9l52 -44l13 -22l-21 9q3 -24 21 -26v-27l31 13h144l31 -13l35 40l44 30v53h22l22 -53l56 -13h145l302 -65l-13 -14l43 -8l-4 30l17 57v70l22 53v70l9 65l-35 35l-122 22h-75l-57 13l-61 -13l-61 13l-57 -13h-149q6 25 40 27l-62 8h-70zM99 1210v-35h22v35
h-22zM887 913l13 -9q-8 2 -13 9zM1018 904l13 -13q-9 3 -13 13zM515 838l22 -13q-8 10 -22 13zM1141 838l22 -13l8 13h-30zM712 825l-44 -43l-9 -40l9 -13l-30 -674l8 -17l-8 -44l-14 -8v-202l-30 -118h52l79 18l136 48l39 -44l22 13l-13 66l13 9l9 91v464l13 26v302l-22 79
q-1 38 -35 65l-140 14zM1228 817l44 -14q-20 10 -44 14zM156 795l9 -13q-2 8 -9 13zM419 782l9 -9q-6 1 -9 9zM419 751l9 -13q-6 4 -9 13zM506 650l9 -8q-5 0 -9 8zM318 628l13 -30l-8 -13l-14 30zM99 51l14 -13q-9 3 -14 13zM143 51l13 -13q-9 3 -13 13zM659 51l9 -13
q-6 4 -9 13zM1469 51h79l8 -13h-78q-6 4 -9 13zM1644 51h74l9 -13h-74q-6 4 -9 13zM1018 -124l-9 -22h22q-1 14 -13 22z" />
    <glyph glyph-name="u" unicode="u" horiz-adv-x="1175" 
d="M1346 1141h104v-16h-104v16zM994 1077l20 -12q-12 1 -20 12zM1066 1065h68l48 -20l4 -128l20 -48l40 -24l-32 -20v-40l16 -8l16 -52v-68l8 -52l20 12l12 -28v-196l-12 -56v-52l12 -4l4 -124l56 -12l-52 -16l-8 -40l8 -208q-12 -19 -40 -28l-20 -44l-76 -124l-40 -28
l-52 -12l-40 -28l-52 -12l-48 -20l-380 20l-44 20h-48v20l-44 20l-36 32l-68 40l-12 -8v-24l-80 32l-28 40q-24 8 -32 36l-40 92l-8 56l8 60v96l-44 20h24l20 20l20 112v68l12 52v200l20 112v68l8 56l-28 20h20l8 56l20 48v48h40l-8 20h-16l12 28h64l36 12l12 -8l52 -12h136
q25 -6 28 -32l-24 -8l12 -20l8 -44v-196l8 -40l-8 -12v-68l-12 -52v-68l12 -12l-12 -28v-132l-8 -60l8 -92l12 -20l8 -60l20 -44l40 -24l60 -8l112 20l40 24l20 48q6 22 28 36l-24 40l-4 132l8 36l-8 12v52l-12 4l-8 124l8 32l20 -12l12 28l-8 12l16 44v132l-8 56l-20 -12
l-12 20l20 8v132l-8 60l12 12l32 -12h64l56 12h44q8 1 12 8zM234 1017l20 -12q-7 9 -20 12zM1034 1017l-56 -12h-64l-20 -8l12 -20h20l8 -288l12 -52l-12 -48l12 -32l-12 -12v-60l40 -148v-40l8 -12l-8 -32l8 -8l24 -108l-20 -40l8 -56q-2 -25 -28 -36l-60 -68
q-8 -19 -32 -32l-32 -8l-12 8l-52 12h-128l-52 8l-44 -12l20 24l-28 56l-52 12l-28 36l8 12l-8 36l-40 56l24 -8l4 496l12 52v152h-36l36 20v64l8 56l-28 8l-196 -80l-12 -40l16 -96l-12 -304l-28 -160v-128l28 -32l40 -20h-36l-4 -20l-28 20l12 -64l20 -44l108 -144l12 -48
l104 -88l24 20l-4 -20l156 -88l48 -12l108 20l48 -12l104 20l176 80l32 32l24 40l16 160l-8 56l12 52v40l-8 12l8 52v188l-32 156v64l-20 104l-28 36l-8 28l12 12l24 -12v60l-32 20l24 36l-16 44l-24 40l-12 52h-60zM326 857l8 -12q-5 4 -8 12zM674 845l60 -8q-28 0 -60 8z
M954 845l12 -8q-7 2 -12 8zM1054 845l12 -8q-7 2 -12 8zM554 297l12 -12q-8 3 -12 12zM826 157l20 -20l-20 8v-20l-12 20q9 3 12 12zM1086 157l48 -16l-4 -16l-28 12l-48 -8zM574 145h52l28 -8h-72l-16 -12zM674 145h40l-8 -12q-17 2 -32 12zM1014 145l20 -20q-14 5 -20 20z
M734 137l20 -20q-14 5 -20 20zM866 65l-12 -20l12 -8l8 20q-1 5 -8 8zM166 -115v-24l8 -4v24zM178 -143q0 -32 28 -52q-11 26 -28 52zM326 -195l8 -8q-1 6 -8 8zM354 -223l12 -12q-3 9 -12 12z" />
    <glyph glyph-name="v" unicode="v" horiz-adv-x="945" 
d="M1161 1255l16 -16q-10 3 -16 16zM881 1199l36 -20l88 -20l68 -40l28 -28l-36 -20l-16 -32l-8 -48l-20 -32l-12 -44l32 -20l28 4l-24 -20l-24 12l-20 -32l-20 -84l-20 -36l-52 -216l-20 -32l-8 -48v-52l-20 -36l-40 -156l8 -8l-28 -24l-52 -164l-20 -36l-20 -88l-20 -32
l-8 -44l-24 -32l-16 -40v-52l-20 -32l-40 -36l-28 8l-32 20h-52l-48 -8l-44 8h-56l-44 -8l-48 8l-20 -8v16l-28 36l20 32l-12 44v104l-20 144l-16 32l-12 100l-12 40l12 44l-12 40v56l12 40l8 528q-18 2 -20 20l20 -8l8 12l4 100l-12 44l20 32l24 84l32 8l8 -8l48 4l84 -16
h36l8 8l52 4l40 -12h28v-28l-20 -88l20 -32l12 -44v-52l8 -32l-8 -8v-160l8 -44l28 -20l24 -56l20 36l8 40l52 112l20 88l-32 20l32 8l48 164l20 32l12 44l36 20l40 12q12 12 24 28zM289 1119l-20 -36v-268l20 -76l-8 -8l8 -44l-8 -28l8 -8l-8 -372l-12 -40l4 -48l16 8
l-16 -20l-12 -40v-268l8 -12l-8 -28l8 -44v-56h32l-12 -12h-20l12 -20l68 28l24 -28h56l44 -8h108l16 40l28 188l16 36l48 220l20 36v40h16l4 48l12 40l40 72l8 44l20 36l32 128l20 32l8 48l52 160l-20 40h28l12 40l36 72l24 80h-92l-20 -32l-8 -48l-20 -32l-12 -44v-36
l40 -8h-60l-20 -104l-20 -36l-4 -52l-16 -36l-8 -44l-20 -36l-32 -4l-8 12l-20 -32l-12 -40l-20 -36l-48 -220v-52l-12 -44l-40 -16l-20 -32l-44 12l-36 20l-20 32l-8 156l-12 40v144l-8 8l-8 40l16 92v108l12 40v56l20 196l-20 8l-12 -12l-40 16v36l-8 8l-28 -8l-8 8
l-24 -8q-3 6 -12 8zM281 911l28 -20l-20 -12zM1161 911v-40l-60 28q21 0 60 12zM89 899h20l-24 -20zM329 899h68l12 -8h-68q-7 2 -12 8zM561 891l8 -12q-5 4 -8 12zM649 891l12 -12q-8 3 -12 12zM1141 859h20v-36l-12 -8l-20 16zM1149 739l12 -8q-7 2 -12 8zM541 551v-60
l-12 -44v-76l20 12l12 48l-4 48l-8 8l12 4q-10 39 -20 60zM241 511l8 -20q0 11 -8 20zM229 471l12 -12q-3 9 -12 12zM229 431l12 -40q0 21 -12 40zM89 199l12 -20q-9 8 -12 20zM649 199h32q-8 -19 -32 -20v20zM309 191l12 -12q-8 3 -12 12zM329 191h72l8 -12h-72q-5 4 -8 12
zM969 191h72l8 -12h-72q-5 4 -8 12zM85 -201l16 -72l-12 -8l-4 12v68zM1101 -509l60 -16h-60v16z" />
    <glyph glyph-name="w" unicode="w" horiz-adv-x="1245" 
d="M126 1415l20 -144l48 -48l88 -8l68 28l16 -28l40 12l40 60l28 16l12 -44l-12 -84l12 -84v-100l-12 -36v-32l20 -20l-20 -52l12 -60v-56l8 -12l-8 -16q9 -33 40 -56l20 -76v-72h20l40 60l64 132l48 48q42 -1 56 -44l40 -56l20 -64l32 164l8 164l12 8l28 288l64 12l76 -20
h192l80 20l28 -20l-8 -44v-176l-12 -68l12 -24l-12 -8l-20 -172l-20 -80v-72l-28 -92l28 -52l-20 -80l-8 -88l-12 -36l12 -36l-12 -84v-80l-8 -12l8 -68l-8 -12v-192l-20 -80l-40 -16l-12 12l-100 8l-84 -20l-88 -8l-76 -20v-20h-40l-12 28q-41 8 -48 48l-40 156l-20 16
l-12 -48q-1 -34 -20 -72q39 -3 40 -36l-88 -12l-8 -12h-76l-28 -8l-32 8l-12 -8l-88 -12h-72l-16 8l-44 52l-36 64l-20 172v68l-8 12l-12 80l12 4l-12 84q-28 0 -28 20l20 -4l8 60l-28 -8l20 8v200l-12 8l12 64l-32 256l-40 116l12 28l-12 12l20 52l32 -4l-16 228l24 68v144
h12zM286 1175l-20 -20l-32 8h-40l-8 -28l8 -60l-8 -160q12 -24 40 -32l-24 -8l-8 8l-20 -8l8 -32l-8 -16l12 -40v-56l8 -12v-80l12 -64v-52l16 -8l12 20l32 -16l-36 -44l-24 -52l20 -212q4 -22 28 -28h20l-40 -20v-120l12 -4l8 -36l-8 -12l28 -276l8 -12q14 -20 44 -24l56 4
l8 12l60 -20h56l12 8l28 48l28 128l20 56l32 48l28 72l36 -20l96 -296q2 -30 32 -44l60 -20h48l8 20l32 -12l20 12h60l12 8l8 16l-12 40l40 272l28 52l12 60l12 20l-12 36l20 56v80l12 64l-12 16l12 40l28 44q18 18 20 48l20 132v236l12 64v60l8 12v76l-8 28h-40l-60 -20
l-148 8q-28 -6 -44 -32v-56l20 -44l-8 -12v-16h-32l-8 -252l-12 -68l-8 -204l-12 -8l-20 -136l-20 -60l-28 -12l-12 28l-8 124l-12 12l-56 176l-24 52l-24 -52l-36 -40l-20 -60l-40 -40l-28 -88l8 -12l-12 12l-8 -68l-28 -84l28 12h80l64 -12l-44 -8h-76l-48 -12l-8 12
l-36 -12l-12 20l-28 -20l8 20l-24 52l16 56v52l-40 60l-20 128l8 80l-8 148l-28 124l8 64v124l-12 20l-8 72q-27 8 -60 12zM86 1023l8 -8q-5 1 -8 8zM1394 903q20 -2 28 -20v-820l-8 -28l-8 136l-12 24l12 12l-12 48v60l12 44v176l8 52v292q-19 3 -20 24zM26 895l20 -20
q-14 5 -20 20zM314 895h32l-32 -20v20zM526 895l8 -12q-5 4 -8 12zM1214 895l12 -12l-20 -8zM-26 883h32l-24 -8q-4 1 -8 8zM546 643l8 -8q-5 1 -8 8zM506 523l8 -40v32q-1 5 -8 8zM506 475l-12 -32l12 -8l8 32q-1 5 -8 8zM-6 403l12 -8q-7 2 -12 8zM394 363l12 -8
q-7 2 -12 8zM426 335l8 -12q-5 4 -8 12zM414 303l12 -8q-7 2 -12 8zM-6 195h68l24 -20h-116q12 6 24 20zM314 195l32 -20h-52q12 8 20 20zM374 195h52l-12 -28l-48 8zM1354 195l12 -20q-9 8 -12 20zM794 183h60l28 -8l-12 -12l-24 12q-24 0 -52 8zM934 183l20 -8
q-11 1 -20 8zM1114 175l12 -12q-8 3 -12 12zM1046 -137l8 -48q-6 22 -8 48zM1194 -177l12 -48q0 24 -12 48zM1314 -197l40 -8v-28l20 -12l-8 -32l-40 20zM1186 -237v-52l8 -16l12 40z" />
    <glyph glyph-name="x" unicode="x" horiz-adv-x="1560" 
d="M1871 1444l16 -16q-10 3 -16 16zM1239 1428l52 -4l32 -16l124 -28l32 -20l60 -12h52l44 -8l56 8l100 -20l76 -48h-48q-36 -3 -68 -32q-28 -19 -40 -60l-52 -48l-20 -32l-28 -20l-32 -68l-188 -268l-32 -16q-16 -30 -48 -56l-40 -60l-20 -12l8 -60l92 -208l40 -60l60 -140
l80 -124l28 -72l40 -60l28 -16l-12 -28l44 -56q-6 -22 -32 -24l-16 -12l-8 12h-100l-84 -20l-68 -32l-80 -20l-92 -8l-28 24l-36 -4l-36 8l52 60l-36 -8q-27 22 -44 60l-24 48l-16 -12l8 40l-68 232q-22 30 -32 72l-20 40l-20 -16l-252 -304l-16 -32l-52 -48l-80 -120
l-28 -24l-56 -96l-60 40q-35 20 -80 20l-32 20l-40 8h-84l-36 32l-20 28l28 20l-12 36l32 24l8 32h-40v20l40 -12q33 10 56 40q28 21 44 56l120 180l24 116l80 68l36 64l52 48l8 20l-12 8l-16 36l-44 56l-68 20l40 8l-136 212l-12 32l-20 16l-20 -20l-20 40l40 -12l-20 44
l-20 -12l-48 40l-52 200l28 24l-40 60l-8 28l36 20q-34 3 -60 28l40 12l144 8l60 12l-20 40l32 -12l12 12l80 -20h80l8 -12l44 -8l24 -52v20h80l-32 -12l-40 4l-8 -28l188 -284l28 -20l44 -56l8 -32l40 16l52 52l180 272l28 80l-16 -12l-4 12l-48 -12l-24 12h-64l-12 8
l180 -8l8 28l48 52q11 31 32 68zM1491 1408l20 -8q-11 1 -20 8zM15 1288l16 -8q-9 1 -16 8zM811 1288h68l12 -8h-68q-7 2 -12 8zM1271 1280l-68 -100l-44 -40l-32 -52l-76 -88l-60 -104l-40 -44l-32 -52l12 -72l-64 20h-36l8 40l-20 12l-8 -12l8 28l-28 12v-40q-32 3 -60 24
l-20 64l-112 136q-17 24 -48 36l-32 52l-40 44l-28 52l-52 32q-29 -2 -60 -20l-28 12l-32 -12h-20l20 -20l-20 8l60 -164l152 -260l40 -44l48 -120l60 -20l60 -48l-8 -92l28 12h32l-4 -52l-156 -172l-32 -52l-48 -36l-40 -44q-12 -23 -40 -40l-32 -52l-40 -44l-60 -88
l52 -12l24 12h64l12 8l24 -8l32 20l244 248l32 52l44 40l64 100q-20 16 -20 40l20 20l40 -8l28 -52q26 -11 44 -40l56 -112l40 -124l32 -52l8 -52q6 -26 28 -52l44 -124l56 -4l12 8l72 12l156 8l12 32l-16 20l-24 60l-80 88l-28 52l-80 88l-92 156l12 36l28 -12l96 -148
l24 -20l-8 32l-124 288l-36 48q-12 27 -40 44l-12 12l20 4l-8 28l16 44l404 508l80 84l-56 28l-24 -12l-36 12h-244zM1631 1280l8 -12q-1 8 -8 12zM131 1240h8l-4 8zM1831 1240h40v-112l-12 4l-40 80q8 11 12 28zM311 1200l8 -12q-5 4 -8 12zM971 1040l8 -12q-5 4 -8 12z
M199 928l20 -20q-6 13 -20 20zM331 800l8 -12q-1 8 -8 12zM431 668l8 -8q-1 5 -8 8zM439 648l12 -8q-3 6 -12 8zM463 628l16 -28q-4 15 -16 28zM651 588l20 -20q-14 5 -20 20zM1279 588l12 -20q-9 8 -12 20zM331 580l20 -12q-12 1 -20 12zM891 580h152l8 -12h-152
q-5 4 -8 12zM719 480l12 -12q-8 3 -12 12zM639 448v-20l20 20h-20zM619 428l12 -8q-3 6 -12 8zM639 388l12 -20q-1 12 -12 20zM619 368l12 -8q-3 6 -12 8zM611 360l8 -12q-2 8 -8 12zM559 300l12 -20q-1 12 -12 20zM1499 108l12 -8q-7 2 -12 8zM491 0l8 -12q-5 4 -8 12z
M619 -120l20 -12q-12 2 -20 12zM1171 -120h288v-20h-288v20zM271 -132q-26 -14 -40 -48l-12 -20l60 -40l24 8l24 -8l44 8q27 13 40 44l20 36l-20 8q-108 6 -140 12zM971 -132l8 -8q-5 1 -8 8zM1179 -160l20 -12q-12 2 -20 12zM1471 -160l8 -12q-5 4 -8 12z" />
    <glyph glyph-name="y" unicode="y" horiz-adv-x="1375" 
d="M1029 1594l36 -48l16 4l-12 16l24 -12h56l12 8l68 -8l16 12l40 -12l76 4l-32 16l12 20l96 -28h40l40 -40l4 -40l-60 -60l-60 -96l-40 -120l-80 -164l-20 -60l-120 -200l-84 -80l-60 -100l12 -532l-8 -60l8 -164l32 -124l28 -56l-8 -16l-52 8l-8 -88l-40 16v56l-12 12
q-27 16 -64 16h-160l-60 -20l-160 -80l-16 32l-20 -12l-48 -8l28 80v40h-36l-12 40l28 8q19 22 20 56l-8 60l8 28l-8 36v140h-32q28 13 32 48v80l-12 72v80l-8 12l20 40l20 -12l8 20l-8 12l8 72l-8 36l8 12l-8 88l-80 84l-28 48q-38 2 -44 40l-28 52l-40 40l-32 48l-28 20
l8 24l32 4l8 -20l44 -40l8 20l-28 20l-244 432l12 36l352 32l8 -8l40 20h-20l36 8h400l-68 -8h-280l4 -32q23 -12 40 -40l20 -60l32 -48l44 -12l32 -52l68 -172l52 -24l24 60l32 48l144 332l-32 -12l52 68zM1041 1486l20 -12q-7 9 -20 12zM1221 1486l-32 -32h-60l-56 -8
l-32 -24l-120 -248l-60 -184l-36 -24l-24 -36l-44 -36l-32 12l-44 80l-32 28l-40 20l-28 36l-52 128l-12 48l-28 36l-36 84l-12 48l-48 12l-24 -36l-144 -24h-60l-28 -12l44 -80l12 -48l152 -272l36 -28l20 -40l28 -36l64 -56l28 12l8 -12l48 -8l-48 -12l20 -20l16 -40
l16 -96v-184l8 -52l-8 -52l8 -236l92 -8l-12 -12h-60q-19 -9 -28 -32l20 -40l-32 -156v-56l24 -36h60l156 -28h60l48 -12l12 48v40l-8 12v60l-12 52l12 48v100h-20l20 44l8 52v304l12 88l-20 60l8 56v60l36 28l24 8h-40q6 19 28 20l44 16l28 36l20 40l32 28l152 332l28 32
l36 28l24 32l40 84l8 32l-8 12zM1389 1474l12 -8q-3 6 -12 8zM1161 906l8 -12q-1 8 -8 12zM1149 894l12 -8q-4 6 -12 8zM601 794h40l-32 -8q-5 1 -8 8zM1181 794l20 -8q-11 1 -20 8zM1481 794l28 -8q-13 0 -28 8zM509 454v-52l12 -36v52q0 18 -12 36zM501 326v-92h20
q-12 69 -20 92zM501 194l-12 -52l12 -48l8 52q0 24 -8 48zM229 94l32 -20h-40zM149 86l20 -20q-14 5 -20 20zM281 86h72l8 -12h-72q-5 4 -8 12zM709 -206l52 -4l20 -36l-44 12zM-55 -534l16 -16q-10 3 -16 16z" />
    <glyph glyph-name="z" unicode="z" horiz-adv-x="1490" 
d="M425 1333l20 -8q-11 1 -20 8zM1505 1313h40v-136l20 -64v-84l32 -104l24 8l36 -8l-12 -32l-48 -40v-48l-52 20l-28 -20q-5 -32 -36 -52l-56 -28l-136 -120l-52 -32l-120 -136l-56 -32l-136 -120l-28 -52l8 -20h20l-8 28l72 -8q29 -2 40 -28l8 20l48 -12h64l48 -28v28
q-17 23 -52 32l44 8l124 -68l8 -12l52 12h52l-8 -12l4 -8l36 20l60 -48l-20 -44h40l-20 -60l-32 20l12 -72l-12 -20l12 -40l-12 -48l12 -12l-20 -112l-4 -124l-56 -24q-31 -15 -72 -16h-68l-12 8h-84l-144 28l-132 -8l-8 16l-76 4l-28 12l-20 -12l-88 12h-256l-72 -12
q-28 -18 -68 -20l-64 20l-132 -40l-16 4l20 132l-12 72v84q-4 26 -36 28q30 10 32 40h-24v64q19 27 20 68l-12 40l12 20l-52 -32h-20l20 48l52 32l8 32l-8 36l36 52l32 -8l8 8l8 -8l4 8l252 172q22 17 40 48q30 5 52 32l48 36l-72 12l128 32l44 40l8 20h-52l-56 -12l-8 12
l-56 -12l-8 8l-68 -8l-16 -8l-40 8l-8 -8l-176 -12l20 48v364l-12 8l-32 -8l-36 20l8 28l32 48l44 44q18 -20 24 -48v-24l48 12l148 20l224 -32h152l8 12l228 28l268 72l148 20q28 10 56 28zM1477 1233l8 -20q0 11 -8 20zM1357 1213l-68 -20l-44 -40l-224 -28h-84l-44 -40
h-164l-76 8l-20 12l-40 -12l-36 -20l-20 12l-136 28l-144 -8l-12 -68v-252q1 -31 24 -60h84l136 28h64l8 12l76 8l64 20l216 36l96 36l24 -12l28 12v-32l-80 -20h-28l20 -32l-60 -28l-100 -28h36q-8 -29 -40 -40l-48 -32l-20 -40l-64 -20l-56 -28l-44 -40l-260 -160
l-176 -156v-84l12 -72v-84l20 -64l-12 -48l20 -112l-8 -12v-80l80 20l100 64l40 16l-8 -28l-32 -32l640 44l12 8l36 -8l140 -4l12 8l60 -16h84q27 12 36 44l8 136l-12 -12l-72 12h-104v20h132l36 -12l16 20q15 29 16 64l8 56l-72 12l-8 -8l-144 16l24 -8l-12 -32h-84l-72 16
l-392 24l-72 12q1 25 32 36l32 4v20l-16 -12h-36l8 40l64 20l52 32l44 40q10 28 36 48l108 60l228 188l40 44l104 68l36 44l48 36l32 52l52 32l20 32l-12 20v164l-8 36v124h-80zM165 1153l-8 -40h24l4 40h-20zM305 625l12 -12q-8 3 -12 12zM765 625h56l4 -12h-56zM1345 625
l12 -12q-8 3 -12 12zM1037 513l8 -8q-5 1 -8 8zM817 353l8 -8q-5 1 -8 8zM945 285l12 -12q-8 3 -12 12zM1025 285l12 -12q-8 3 -12 12zM717 273l20 -8q-11 1 -20 8zM957 265l20 -12q-12 1 -20 12zM705 245l12 -12q-8 3 -12 12zM957 225l8 -12q-1 8 -8 12zM1201 185l44 -12
q-21 8 -44 12zM1505 185l12 -20q-9 8 -12 20zM797 153l-32 -8l12 -20l28 8q0 11 -8 20zM817 145v-32h28l12 12l32 -12l-24 20q-22 8 -48 12zM1537 113l8 -8q-5 1 -8 8zM1097 85l68 -12q-29 11 -68 12zM1505 13l36 -20q21 -3 24 -28l-40 16q-12 14 -20 32zM1505 -75l20 -20
q-14 5 -20 20zM1585 -87l12 -8q-7 2 -12 8z" />
    <glyph glyph-name="braceleft" unicode="{" horiz-adv-x="684" 
 />
    <glyph glyph-name="bar" unicode="|" horiz-adv-x="532" 
 />
    <glyph glyph-name="braceright" unicode="}" horiz-adv-x="684" 
 />
    <glyph glyph-name="asciitilde" unicode="~" horiz-adv-x="1196" 
 />
    <glyph glyph-name="Adieresis" unicode="&#xc4;" horiz-adv-x="1366" 
 />
    <glyph glyph-name="Aring" unicode="&#xc5;" horiz-adv-x="1366" 
 />
    <glyph glyph-name="Ccedilla" unicode="&#xc7;" horiz-adv-x="1479" 
 />
    <glyph glyph-name="Eacute" unicode="&#xc9;" horiz-adv-x="1366" 
 />
    <glyph glyph-name="Ntilde" unicode="&#xd1;" horiz-adv-x="1479" 
 />
    <glyph glyph-name="Odieresis" unicode="&#xd6;" horiz-adv-x="1593" 
 />
    <glyph glyph-name="Udieresis" unicode="&#xdc;" horiz-adv-x="1479" 
 />
    <glyph glyph-name="aacute" unicode="&#xe1;" 
 />
    <glyph glyph-name="agrave" unicode="&#xe0;" 
 />
    <glyph glyph-name="acircumflex" unicode="&#xe2;" 
 />
    <glyph glyph-name="adieresis" unicode="&#xe4;" 
 />
    <glyph glyph-name="atilde" unicode="&#xe3;" 
 />
    <glyph glyph-name="aring" unicode="&#xe5;" 
 />
    <glyph glyph-name="ccedilla" unicode="&#xe7;" horiz-adv-x="1024" 
 />
    <glyph glyph-name="eacute" unicode="&#xe9;" 
 />
    <glyph glyph-name="egrave" unicode="&#xe8;" 
 />
    <glyph glyph-name="ecircumflex" unicode="&#xea;" 
 />
    <glyph glyph-name="edieresis" unicode="&#xeb;" 
 />
    <glyph glyph-name="iacute" unicode="&#xed;" horiz-adv-x="569" 
 />
    <glyph glyph-name="igrave" unicode="&#xec;" horiz-adv-x="569" 
 />
    <glyph glyph-name="icircumflex" unicode="&#xee;" horiz-adv-x="569" 
 />
    <glyph glyph-name="idieresis" unicode="&#xef;" horiz-adv-x="569" 
 />
    <glyph glyph-name="ntilde" unicode="&#xf1;" 
 />
    <glyph glyph-name="oacute" unicode="&#xf3;" 
 />
    <glyph glyph-name="ograve" unicode="&#xf2;" 
 />
    <glyph glyph-name="ocircumflex" unicode="&#xf4;" 
 />
    <glyph glyph-name="odieresis" unicode="&#xf6;" 
 />
    <glyph glyph-name="otilde" unicode="&#xf5;" 
 />
    <glyph glyph-name="uacute" unicode="&#xfa;" 
 />
    <glyph glyph-name="ugrave" unicode="&#xf9;" 
 />
    <glyph glyph-name="ucircumflex" unicode="&#xfb;" 
 />
    <glyph glyph-name="udieresis" unicode="&#xfc;" 
 />
    <glyph glyph-name="dagger" unicode="&#x2020;" 
 />
    <glyph glyph-name="degree" unicode="&#xb0;" horiz-adv-x="819" 
 />
    <glyph glyph-name="cent" unicode="&#xa2;" 
 />
    <glyph glyph-name="sterling" unicode="&#xa3;" 
 />
    <glyph glyph-name="section" unicode="&#xa7;" 
 />
    <glyph glyph-name="bullet" unicode="&#x2022;" horiz-adv-x="717" 
 />
    <glyph glyph-name="paragraph" unicode="&#xb6;" horiz-adv-x="1100" 
 />
    <glyph glyph-name="germandbls" unicode="&#xdf;" horiz-adv-x="1251" 
 />
    <glyph glyph-name="registered" unicode="&#xae;" horiz-adv-x="1509" 
 />
    <glyph glyph-name="copyright" unicode="&#xa9;" horiz-adv-x="1509" 
 />
    <glyph glyph-name="trademark" unicode="&#x2122;" horiz-adv-x="2048" 
 />
    <glyph glyph-name="acute" unicode="&#xb4;" horiz-adv-x="682" 
 />
    <glyph glyph-name="dieresis" unicode="&#xa8;" horiz-adv-x="682" 
 />
    <glyph glyph-name="notequal" unicode="&#x2260;" horiz-adv-x="1124" 
 />
    <glyph glyph-name="AE" unicode="&#xc6;" horiz-adv-x="2048" 
 />
    <glyph glyph-name="Oslash" unicode="&#xd8;" horiz-adv-x="1593" 
 />
    <glyph glyph-name="infinity" unicode="&#x221e;" horiz-adv-x="1460" 
 />
    <glyph glyph-name="plusminus" unicode="&#xb1;" horiz-adv-x="1124" 
 />
    <glyph glyph-name="lessequal" unicode="&#x2264;" horiz-adv-x="1124" 
 />
    <glyph glyph-name="greaterequal" unicode="&#x2265;" horiz-adv-x="1124" 
 />
    <glyph glyph-name="yen" unicode="&#xa5;" 
 />
    <glyph glyph-name="mu1" unicode="&#xb5;" horiz-adv-x="1180" 
 />
    <glyph glyph-name="partialdiff" unicode="&#x2202;" horiz-adv-x="1012" 
 />
    <glyph glyph-name="summation" unicode="&#x2211;" horiz-adv-x="1460" 
 />
    <glyph glyph-name="product" unicode="&#x220f;" horiz-adv-x="1686" 
 />
    <glyph glyph-name="pi1" horiz-adv-x="1124" 
 />
    <glyph glyph-name="integral" unicode="&#x222b;" horiz-adv-x="561" 
 />
    <glyph glyph-name="ordfeminine" unicode="&#xaa;" horiz-adv-x="758" 
 />
    <glyph glyph-name="ordmasculine" unicode="&#xba;" horiz-adv-x="748" 
 />
    <glyph glyph-name="Ohm" unicode="&#x2126;" horiz-adv-x="1573" 
 />
    <glyph glyph-name="ae" unicode="&#xe6;" horiz-adv-x="1821" 
 />
    <glyph glyph-name="oslash" unicode="&#xf8;" horiz-adv-x="1251" 
 />
    <glyph glyph-name="questiondown" unicode="&#xbf;" horiz-adv-x="1251" 
 />
    <glyph glyph-name="exclamdown" unicode="&#xa1;" horiz-adv-x="682" 
 />
    <glyph glyph-name="logicalnot" unicode="&#xac;" horiz-adv-x="1196" 
 />
    <glyph glyph-name="radical" unicode="&#x221a;" horiz-adv-x="1124" 
 />
    <glyph glyph-name="florin" unicode="&#x192;" 
 />
    <glyph glyph-name="approxequal" unicode="&#x2248;" horiz-adv-x="1124" 
 />
    <glyph glyph-name="uni2206" unicode="&#x2206;" horiz-adv-x="1253" 
 />
    <glyph glyph-name="guillemotleft" unicode="&#xab;" 
 />
    <glyph glyph-name="guillemotright" unicode="&#xbb;" 
 />
    <glyph glyph-name="ellipsis" unicode="&#x2026;" horiz-adv-x="2048" 
 />
    <glyph glyph-name="Agrave" unicode="&#xc0;" horiz-adv-x="1366" 
 />
    <glyph glyph-name="Atilde" unicode="&#xc3;" horiz-adv-x="1366" 
 />
    <glyph glyph-name="Otilde" unicode="&#xd5;" horiz-adv-x="1593" 
 />
    <glyph glyph-name="OE" unicode="&#x152;" horiz-adv-x="2048" 
 />
    <glyph glyph-name="oe" unicode="&#x153;" horiz-adv-x="1933" 
 />
    <glyph glyph-name="endash" unicode="&#x2013;" 
 />
    <glyph glyph-name="emdash" unicode="&#x2014;" horiz-adv-x="2048" 
 />
    <glyph glyph-name="quotedblleft" unicode="&#x201c;" horiz-adv-x="682" 
 />
    <glyph glyph-name="quotedblright" unicode="&#x201d;" horiz-adv-x="682" 
 />
    <glyph glyph-name="quoteleft" unicode="&#x2018;" horiz-adv-x="455" 
 />
    <glyph glyph-name="quoteright" unicode="&#x2019;" horiz-adv-x="455" 
 />
    <glyph glyph-name="divide" unicode="&#xf7;" horiz-adv-x="1124" 
 />
    <glyph glyph-name="lozenge" unicode="&#x25ca;" horiz-adv-x="1012" 
 />
    <glyph glyph-name="ydieresis" unicode="&#xff;" horiz-adv-x="1024" 
 />
    <glyph glyph-name="Ydieresis" unicode="&#x178;" horiz-adv-x="1366" 
 />
    <glyph glyph-name="fraction" unicode="&#x2044;" horiz-adv-x="342" 
 />
    <glyph glyph-name="fraction" unicode="&#x2215;" horiz-adv-x="342" 
 />
    <glyph glyph-name="Euro" unicode="&#x20ac;" 
 />
    <glyph glyph-name="guilsinglleft" unicode="&#x2039;" horiz-adv-x="682" 
 />
    <glyph glyph-name="guilsinglright" unicode="&#x203a;" horiz-adv-x="682" 
 />
    <glyph glyph-name="fi" unicode="&#xf001;" horiz-adv-x="1024" 
 />
    <glyph glyph-name="fi" unicode="&#xfb01;" horiz-adv-x="1024" 
 />
    <glyph glyph-name="fl" unicode="&#xf002;" horiz-adv-x="1024" 
 />
    <glyph glyph-name="fl" unicode="&#xfb02;" horiz-adv-x="1024" 
 />
    <glyph glyph-name="daggerdbl" unicode="&#x2021;" 
 />
    <glyph glyph-name="periodcentered" unicode="&#xb7;" horiz-adv-x="569" 
 />
    <glyph glyph-name="periodcentered" unicode="&#x2219;" horiz-adv-x="569" 
 />
    <glyph glyph-name="quotesinglbase" unicode="&#x201a;" horiz-adv-x="455" 
 />
    <glyph glyph-name="quotedblbase" unicode="&#x201e;" horiz-adv-x="682" 
 />
    <glyph glyph-name="perthousand" unicode="&#x2030;" horiz-adv-x="2048" 
 />
    <glyph glyph-name="Acircumflex" unicode="&#xc2;" horiz-adv-x="1366" 
 />
    <glyph glyph-name="Ecircumflex" unicode="&#xca;" horiz-adv-x="1366" 
 />
    <glyph glyph-name="Aacute" unicode="&#xc1;" horiz-adv-x="1366" 
 />
    <glyph glyph-name="Edieresis" unicode="&#xcb;" horiz-adv-x="1366" 
 />
    <glyph glyph-name="Egrave" unicode="&#xc8;" horiz-adv-x="1366" 
 />
    <glyph glyph-name="Iacute" unicode="&#xcd;" horiz-adv-x="569" 
 />
    <glyph glyph-name="Icircumflex" unicode="&#xce;" horiz-adv-x="569" 
 />
    <glyph glyph-name="Idieresis" unicode="&#xcf;" horiz-adv-x="569" 
 />
    <glyph glyph-name="Igrave" unicode="&#xcc;" horiz-adv-x="569" 
 />
    <glyph glyph-name="Oacute" unicode="&#xd3;" horiz-adv-x="1593" 
 />
    <glyph glyph-name="Ocircumflex" unicode="&#xd4;" horiz-adv-x="1593" 
 />
    <glyph glyph-name="Ograve" unicode="&#xd2;" horiz-adv-x="1593" 
 />
    <glyph glyph-name="Uacute" unicode="&#xda;" horiz-adv-x="1479" 
 />
    <glyph glyph-name="Ucircumflex" unicode="&#xdb;" horiz-adv-x="1479" 
 />
    <glyph glyph-name="Ugrave" unicode="&#xd9;" horiz-adv-x="1479" 
 />
    <glyph glyph-name="dotlessi" unicode="&#x131;" horiz-adv-x="569" 
 />
    <glyph glyph-name="circumflex" unicode="&#x2c6;" horiz-adv-x="682" 
 />
    <glyph glyph-name="tilde" unicode="&#x2dc;" horiz-adv-x="682" 
 />
    <glyph glyph-name="macron" unicode="&#x2c9;" horiz-adv-x="682" 
 />
    <glyph glyph-name="breve" unicode="&#x2d8;" horiz-adv-x="682" 
 />
    <glyph glyph-name="dotaccent" unicode="&#x2d9;" horiz-adv-x="682" 
 />
    <glyph glyph-name="ring" unicode="&#x2da;" horiz-adv-x="682" 
 />
    <glyph glyph-name="cedilla" unicode="&#xb8;" horiz-adv-x="682" 
 />
    <glyph glyph-name="hungarumlaut" unicode="&#x2dd;" horiz-adv-x="682" 
 />
    <glyph glyph-name="ogonek" unicode="&#x2db;" horiz-adv-x="682" 
 />
    <glyph glyph-name="caron" unicode="&#x2c7;" horiz-adv-x="682" 
 />
    <glyph glyph-name="Lslash" unicode="&#x141;" 
 />
    <glyph glyph-name="lslash" unicode="&#x142;" horiz-adv-x="455" 
 />
    <glyph glyph-name="Scaron" unicode="&#x160;" horiz-adv-x="1366" 
 />
    <glyph glyph-name="scaron" unicode="&#x161;" horiz-adv-x="1024" 
 />
    <glyph glyph-name="Zcaron" unicode="&#x17d;" horiz-adv-x="1251" 
 />
    <glyph glyph-name="zcaron" unicode="&#x17e;" horiz-adv-x="1024" 
 />
    <glyph glyph-name="brokenbar" unicode="&#xa6;" horiz-adv-x="532" 
 />
    <glyph glyph-name="Eth" unicode="&#xd0;" horiz-adv-x="1479" 
 />
    <glyph glyph-name="eth" unicode="&#xf0;" 
 />
    <glyph glyph-name="Yacute" unicode="&#xdd;" horiz-adv-x="1366" 
 />
    <glyph glyph-name="yacute" unicode="&#xfd;" horiz-adv-x="1024" 
 />
    <glyph glyph-name="Thorn" unicode="&#xde;" horiz-adv-x="1366" 
 />
    <glyph glyph-name="thorn" unicode="&#xfe;" 
 />
    <glyph glyph-name="minus" unicode="&#x2212;" horiz-adv-x="1196" 
 />
    <glyph glyph-name="multiply" unicode="&#xd7;" horiz-adv-x="1196" 
 />
    <glyph glyph-name="onesuperior" unicode="&#xb9;" horiz-adv-x="682" 
 />
    <glyph glyph-name="twosuperior" unicode="&#xb2;" horiz-adv-x="682" 
 />
    <glyph glyph-name="threesuperior" unicode="&#xb3;" horiz-adv-x="682" 
 />
    <glyph glyph-name="onehalf" unicode="&#xbd;" horiz-adv-x="1708" 
 />
    <glyph glyph-name="onequarter" unicode="&#xbc;" horiz-adv-x="1708" 
 />
    <glyph glyph-name="threequarters" unicode="&#xbe;" horiz-adv-x="1708" 
 />
    <glyph glyph-name="franc" unicode="&#x20a3;" 
 />
    <glyph glyph-name="Gbreve" unicode="&#x11e;" horiz-adv-x="1593" 
 />
    <glyph glyph-name="gbreve" unicode="&#x11f;" 
 />
    <glyph glyph-name="Idotaccent" unicode="&#x130;" horiz-adv-x="569" 
 />
    <glyph glyph-name="Scedilla" unicode="&#x15e;" horiz-adv-x="1366" 
 />
    <glyph glyph-name="scedilla" unicode="&#x15f;" horiz-adv-x="1024" 
 />
    <glyph glyph-name="Cacute" unicode="&#x106;" horiz-adv-x="1479" 
 />
    <glyph glyph-name="cacute" unicode="&#x107;" horiz-adv-x="1024" 
 />
    <glyph glyph-name="Ccaron" unicode="&#x10c;" horiz-adv-x="1479" 
 />
    <glyph glyph-name="ccaron" unicode="&#x10d;" horiz-adv-x="1024" 
 />
    <glyph glyph-name="dmacron" unicode="&#x111;" 
 />
    <glyph glyph-name="overscore" unicode="&#xaf;" horiz-adv-x="1131" 
 />
    <glyph glyph-name="middot" horiz-adv-x="682" 
 />
    <glyph glyph-name="Abreve" unicode="&#x102;" horiz-adv-x="1366" 
 />
    <glyph glyph-name="abreve" unicode="&#x103;" 
 />
    <glyph glyph-name="Aogonek" unicode="&#x104;" horiz-adv-x="1366" 
 />
    <glyph glyph-name="aogonek" unicode="&#x105;" 
 />
    <glyph glyph-name="Dcaron" unicode="&#x10e;" horiz-adv-x="1479" 
 />
    <glyph glyph-name="dcaron" unicode="&#x10f;" horiz-adv-x="1259" 
 />
    <glyph glyph-name="Dslash" unicode="&#x110;" horiz-adv-x="1479" 
 />
    <glyph glyph-name="Eogonek" unicode="&#x118;" horiz-adv-x="1366" 
 />
    <glyph glyph-name="eogonek" unicode="&#x119;" 
 />
    <glyph glyph-name="Ecaron" unicode="&#x11a;" horiz-adv-x="1366" 
 />
    <glyph glyph-name="ecaron" unicode="&#x11b;" 
 />
    <glyph glyph-name="Lacute" unicode="&#x139;" 
 />
    <glyph glyph-name="lacute" unicode="&#x13a;" horiz-adv-x="455" 
 />
    <glyph glyph-name="Lcaron" unicode="&#x13d;" 
 />
    <glyph glyph-name="lcaron" unicode="&#x13e;" horiz-adv-x="597" 
 />
    <glyph glyph-name="Ldot" unicode="&#x13f;" 
 />
    <glyph glyph-name="ldot" unicode="&#x140;" horiz-adv-x="684" 
 />
    <glyph glyph-name="Nacute" unicode="&#x143;" horiz-adv-x="1479" 
 />
    <glyph glyph-name="nacute" unicode="&#x144;" 
 />
    <glyph glyph-name="Ncaron" unicode="&#x147;" horiz-adv-x="1479" 
 />
    <glyph glyph-name="ncaron" unicode="&#x148;" 
 />
    <glyph glyph-name="Odblacute" unicode="&#x150;" horiz-adv-x="1593" 
 />
    <glyph glyph-name="odblacute" unicode="&#x151;" 
 />
    <glyph glyph-name="Racute" unicode="&#x154;" horiz-adv-x="1479" 
 />
    <glyph glyph-name="racute" unicode="&#x155;" horiz-adv-x="682" 
 />
    <glyph glyph-name="Rcaron" unicode="&#x158;" horiz-adv-x="1479" 
 />
    <glyph glyph-name="rcaron" unicode="&#x159;" horiz-adv-x="682" 
 />
    <glyph glyph-name="Sacute" unicode="&#x15a;" horiz-adv-x="1366" 
 />
    <glyph glyph-name="sacute" unicode="&#x15b;" horiz-adv-x="1024" 
 />
    <glyph glyph-name="Tcedilla" unicode="&#x162;" horiz-adv-x="1251" 
 />
    <glyph glyph-name="tcedilla" unicode="&#x163;" horiz-adv-x="569" 
 />
    <glyph glyph-name="Tcaron" unicode="&#x164;" horiz-adv-x="1251" 
 />
    <glyph glyph-name="tcaron" unicode="&#x165;" horiz-adv-x="768" 
 />
    <glyph glyph-name="Uring" unicode="&#x16e;" horiz-adv-x="1479" 
 />
    <glyph glyph-name="uring" unicode="&#x16f;" 
 />
    <glyph glyph-name="Udblacute" unicode="&#x170;" horiz-adv-x="1479" 
 />
    <glyph glyph-name="udblacute" unicode="&#x171;" 
 />
    <glyph glyph-name="Zacute" unicode="&#x179;" horiz-adv-x="1251" 
 />
    <glyph glyph-name="zacute" unicode="&#x17a;" horiz-adv-x="1024" 
 />
    <glyph glyph-name="Zdot" unicode="&#x17b;" horiz-adv-x="1251" 
 />
    <glyph glyph-name="zdot" unicode="&#x17c;" horiz-adv-x="1024" 
 />
    <glyph glyph-name="Gamma" unicode="&#x393;" horiz-adv-x="1128" 
 />
    <glyph glyph-name="Theta" unicode="&#x398;" horiz-adv-x="1593" 
 />
    <glyph glyph-name="Phi" unicode="&#x3a6;" horiz-adv-x="1634" 
 />
    <glyph glyph-name="alpha" unicode="&#x3b1;" horiz-adv-x="1184" 
 />
    <glyph glyph-name="delta" unicode="&#x3b4;" horiz-adv-x="1140" 
 />
    <glyph glyph-name="epsilon" unicode="&#x3b5;" horiz-adv-x="913" 
 />
    <glyph glyph-name="sigma" unicode="&#x3c3;" horiz-adv-x="1264" 
 />
    <glyph glyph-name="tau" unicode="&#x3c4;" horiz-adv-x="809" 
 />
    <glyph glyph-name="phi" unicode="&#x3c6;" horiz-adv-x="1328" 
 />
    <glyph glyph-name="underscoredbl" unicode="&#x2017;" horiz-adv-x="1131" 
 />
    <glyph glyph-name="exclamdbl" unicode="&#x203c;" horiz-adv-x="1024" 
 />
    <glyph glyph-name="nsuperior" unicode="&#x207f;" horiz-adv-x="747" 
 />
    <glyph glyph-name="peseta" unicode="&#x20a7;" horiz-adv-x="2240" 
 />
    <glyph glyph-name="arrowleft" unicode="&#x2190;" horiz-adv-x="2048" 
 />
    <glyph glyph-name="arrowup" unicode="&#x2191;" horiz-adv-x="1024" 
 />
    <glyph glyph-name="arrowright" unicode="&#x2192;" horiz-adv-x="2048" 
 />
    <glyph glyph-name="arrowdown" unicode="&#x2193;" horiz-adv-x="1024" 
 />
    <glyph glyph-name="arrowboth" unicode="&#x2194;" horiz-adv-x="2048" 
 />
    <glyph glyph-name="arrowupdn" unicode="&#x2195;" horiz-adv-x="1024" 
 />
    <glyph glyph-name="arrowupdnbse" unicode="&#x21a8;" horiz-adv-x="1024" 
 />
    <glyph glyph-name="orthogonal" unicode="&#x221f;" horiz-adv-x="2005" 
 />
    <glyph glyph-name="intersection" unicode="&#x2229;" horiz-adv-x="1472" 
 />
    <glyph glyph-name="equivalence" unicode="&#x2261;" horiz-adv-x="1195" 
 />
    <glyph glyph-name="house" unicode="&#x2302;" horiz-adv-x="1237" 
 />
    <glyph glyph-name="revlogicalnot" unicode="&#x2310;" horiz-adv-x="1196" 
 />
    <glyph glyph-name="integraltp" unicode="&#x2320;" horiz-adv-x="1237" 
 />
    <glyph glyph-name="integralbt" unicode="&#x2321;" horiz-adv-x="1237" 
 />
    <glyph glyph-name="SF100000" unicode="&#x2500;" horiz-adv-x="1451" 
 />
    <glyph glyph-name="SF110000" unicode="&#x2502;" horiz-adv-x="1280" 
 />
    <glyph glyph-name="SF010000" unicode="&#x250c;" horiz-adv-x="1451" 
 />
    <glyph glyph-name="SF030000" unicode="&#x2510;" horiz-adv-x="1451" 
 />
    <glyph glyph-name="SF020000" unicode="&#x2514;" horiz-adv-x="1451" 
 />
    <glyph glyph-name="SF040000" unicode="&#x2518;" horiz-adv-x="1451" 
 />
    <glyph glyph-name="SF080000" unicode="&#x251c;" horiz-adv-x="1451" 
 />
    <glyph glyph-name="SF090000" unicode="&#x2524;" horiz-adv-x="1451" 
 />
    <glyph glyph-name="SF060000" unicode="&#x252c;" horiz-adv-x="1451" 
 />
    <glyph glyph-name="SF070000" unicode="&#x2534;" horiz-adv-x="1451" 
 />
    <glyph glyph-name="SF050000" unicode="&#x253c;" horiz-adv-x="1451" 
 />
    <glyph glyph-name="SF430000" unicode="&#x2550;" horiz-adv-x="1451" 
 />
    <glyph glyph-name="SF240000" unicode="&#x2551;" horiz-adv-x="1451" 
 />
    <glyph glyph-name="SF510000" unicode="&#x2552;" horiz-adv-x="1451" 
 />
    <glyph glyph-name="SF520000" unicode="&#x2553;" horiz-adv-x="1451" 
 />
    <glyph glyph-name="SF390000" unicode="&#x2554;" horiz-adv-x="1451" 
 />
    <glyph glyph-name="SF220000" unicode="&#x2555;" horiz-adv-x="1451" 
 />
    <glyph glyph-name="SF210000" unicode="&#x2556;" horiz-adv-x="1451" 
 />
    <glyph glyph-name="SF250000" unicode="&#x2557;" horiz-adv-x="1451" 
 />
    <glyph glyph-name="SF500000" unicode="&#x2558;" horiz-adv-x="1451" 
 />
    <glyph glyph-name="SF490000" unicode="&#x2559;" horiz-adv-x="1451" 
 />
    <glyph glyph-name="SF380000" unicode="&#x255a;" horiz-adv-x="1451" 
 />
    <glyph glyph-name="SF280000" unicode="&#x255b;" horiz-adv-x="1451" 
 />
    <glyph glyph-name="SF270000" unicode="&#x255c;" horiz-adv-x="1451" 
 />
    <glyph glyph-name="SF260000" unicode="&#x255d;" horiz-adv-x="1451" 
 />
    <glyph glyph-name="SF360000" unicode="&#x255e;" horiz-adv-x="1451" 
 />
    <glyph glyph-name="SF370000" unicode="&#x255f;" horiz-adv-x="1451" 
 />
    <glyph glyph-name="SF420000" unicode="&#x2560;" horiz-adv-x="1451" 
 />
    <glyph glyph-name="SF190000" unicode="&#x2561;" horiz-adv-x="1451" 
 />
    <glyph glyph-name="SF200000" unicode="&#x2562;" horiz-adv-x="1451" 
 />
    <glyph glyph-name="SF230000" unicode="&#x2563;" horiz-adv-x="1451" 
 />
    <glyph glyph-name="SF470000" unicode="&#x2564;" horiz-adv-x="1451" 
 />
    <glyph glyph-name="SF480000" unicode="&#x2565;" horiz-adv-x="1451" 
 />
    <glyph glyph-name="SF410000" unicode="&#x2566;" horiz-adv-x="1451" 
 />
    <glyph glyph-name="SF450000" unicode="&#x2567;" horiz-adv-x="1451" 
 />
    <glyph glyph-name="SF460000" unicode="&#x2568;" horiz-adv-x="1451" 
 />
    <glyph glyph-name="SF400000" unicode="&#x2569;" horiz-adv-x="1451" 
 />
    <glyph glyph-name="SF540000" unicode="&#x256a;" horiz-adv-x="1451" 
 />
    <glyph glyph-name="SF530000" unicode="&#x256b;" horiz-adv-x="1451" 
 />
    <glyph glyph-name="SF440000" unicode="&#x256c;" horiz-adv-x="1451" 
 />
    <glyph glyph-name="upblock" unicode="&#x2580;" horiz-adv-x="1451" 
 />
    <glyph glyph-name="dnblock" unicode="&#x2584;" horiz-adv-x="1451" 
 />
    <glyph glyph-name="block" unicode="&#x2588;" horiz-adv-x="1451" 
 />
    <glyph glyph-name="lfblock" unicode="&#x258c;" horiz-adv-x="1451" 
 />
    <glyph glyph-name="rtblock" unicode="&#x2590;" horiz-adv-x="1451" 
 />
    <glyph glyph-name="ltshade" unicode="&#x2591;" horiz-adv-x="1451" 
 />
    <glyph glyph-name="shade" unicode="&#x2592;" horiz-adv-x="1451" 
 />
    <glyph glyph-name="dkshade" unicode="&#x2593;" horiz-adv-x="1493" 
 />
    <glyph glyph-name="filledbox" unicode="&#x25a0;" horiz-adv-x="1237" 
 />
    <glyph glyph-name="filledrect" unicode="&#x25ac;" horiz-adv-x="2048" 
 />
    <glyph glyph-name="triagup" unicode="&#x25b2;" horiz-adv-x="2027" 
 />
    <glyph glyph-name="triagrt" unicode="&#x25ba;" horiz-adv-x="2027" 
 />
    <glyph glyph-name="triagdn" unicode="&#x25bc;" horiz-adv-x="2027" 
 />
    <glyph glyph-name="triaglf" unicode="&#x25c4;" horiz-adv-x="2027" 
 />
    <glyph glyph-name="circle" unicode="&#x25cb;" horiz-adv-x="1237" 
 />
    <glyph glyph-name="invbullet" unicode="&#x25d8;" horiz-adv-x="1237" 
 />
    <glyph glyph-name="invcircle" unicode="&#x25d9;" horiz-adv-x="1237" 
 />
    <glyph glyph-name="smileface" unicode="&#x263a;" horiz-adv-x="2091" 
 />
    <glyph glyph-name="invsmileface" unicode="&#x263b;" horiz-adv-x="2155" 
 />
    <glyph glyph-name="sun" unicode="&#x263c;" horiz-adv-x="1877" 
 />
    <glyph glyph-name="female" unicode="&#x2640;" horiz-adv-x="1536" 
 />
    <glyph glyph-name="male" unicode="&#x2642;" horiz-adv-x="1536" 
 />
    <glyph glyph-name="spade" unicode="&#x2660;" horiz-adv-x="1088" 
 />
    <glyph glyph-name="club" unicode="&#x2663;" horiz-adv-x="1344" 
 />
    <glyph glyph-name="heart" unicode="&#x2665;" horiz-adv-x="1216" 
 />
    <glyph glyph-name="diamond" unicode="&#x2666;" horiz-adv-x="1045" 
 />
    <glyph glyph-name="musicalnote" unicode="&#x266a;" horiz-adv-x="1024" 
 />
    <glyph glyph-name="musicalnotedbl" unicode="&#x266b;" horiz-adv-x="1536" 
 />
    <glyph glyph-name="IJ" unicode="&#x132;" horiz-adv-x="1505" 
 />
    <glyph glyph-name="ij" unicode="&#x133;" horiz-adv-x="909" 
 />
    <glyph glyph-name="napostrophe" unicode="&#x149;" horiz-adv-x="1237" 
 />
    <glyph glyph-name="minute" unicode="&#x2032;" horiz-adv-x="384" 
 />
    <glyph glyph-name="second" unicode="&#x2033;" horiz-adv-x="725" 
 />
    <glyph glyph-name="afii61248" unicode="&#x2105;" horiz-adv-x="1813" 
 />
    <glyph glyph-name="afii61289" unicode="&#x2113;" horiz-adv-x="662" 
 />
    <glyph glyph-name="H22073" unicode="&#x25a1;" horiz-adv-x="1237" 
 />
    <glyph glyph-name="H18543" unicode="&#x25aa;" horiz-adv-x="726" 
 />
    <glyph glyph-name="H18551" unicode="&#x25ab;" horiz-adv-x="726" 
 />
    <glyph glyph-name="H18533" unicode="&#x25cf;" horiz-adv-x="1237" 
 />
    <glyph glyph-name="openbullet" unicode="&#x25e6;" horiz-adv-x="726" 
 />
    <glyph glyph-name="Amacron" unicode="&#x100;" horiz-adv-x="1366" 
 />
    <glyph glyph-name="amacron" unicode="&#x101;" 
 />
    <glyph glyph-name="Ccircumflex" unicode="&#x108;" horiz-adv-x="1479" 
 />
    <glyph glyph-name="ccircumflex" unicode="&#x109;" horiz-adv-x="1024" 
 />
    <glyph glyph-name="Cdot" unicode="&#x10a;" horiz-adv-x="1479" 
 />
    <glyph glyph-name="cdot" unicode="&#x10b;" horiz-adv-x="1024" 
 />
    <glyph glyph-name="Emacron" unicode="&#x112;" horiz-adv-x="1366" 
 />
    <glyph glyph-name="emacron" unicode="&#x113;" 
 />
    <glyph glyph-name="Ebreve" unicode="&#x114;" horiz-adv-x="1366" 
 />
    <glyph glyph-name="ebreve" unicode="&#x115;" 
 />
    <glyph glyph-name="Edot" unicode="&#x116;" horiz-adv-x="1366" 
 />
    <glyph glyph-name="edot" unicode="&#x117;" 
 />
    <glyph glyph-name="Gcircumflex" unicode="&#x11c;" horiz-adv-x="1593" 
 />
    <glyph glyph-name="gcircumflex" unicode="&#x11d;" 
 />
    <glyph glyph-name="Gdot" unicode="&#x120;" horiz-adv-x="1593" 
 />
    <glyph glyph-name="gdot" unicode="&#x121;" 
 />
    <glyph glyph-name="Gcedilla" unicode="&#x122;" horiz-adv-x="1593" 
 />
    <glyph glyph-name="gcedilla" unicode="&#x123;" 
 />
    <glyph glyph-name="Hcircumflex" unicode="&#x124;" horiz-adv-x="1479" 
 />
    <glyph glyph-name="hcircumflex" unicode="&#x125;" 
 />
    <glyph glyph-name="Hbar" unicode="&#x126;" horiz-adv-x="1479" 
 />
    <glyph glyph-name="hbar" unicode="&#x127;" 
 />
    <glyph glyph-name="Itilde" unicode="&#x128;" horiz-adv-x="569" 
 />
    <glyph glyph-name="itilde" unicode="&#x129;" horiz-adv-x="569" 
 />
    <glyph glyph-name="Imacron" unicode="&#x12a;" horiz-adv-x="569" 
 />
    <glyph glyph-name="imacron" unicode="&#x12b;" horiz-adv-x="569" 
 />
    <glyph glyph-name="Ibreve" unicode="&#x12c;" horiz-adv-x="569" 
 />
    <glyph glyph-name="ibreve" unicode="&#x12d;" horiz-adv-x="569" 
 />
    <glyph glyph-name="Iogonek" unicode="&#x12e;" horiz-adv-x="569" 
 />
    <glyph glyph-name="iogonek" unicode="&#x12f;" horiz-adv-x="455" 
 />
    <glyph glyph-name="Jcircumflex" unicode="&#x134;" horiz-adv-x="1024" 
 />
    <glyph glyph-name="jcircumflex" unicode="&#x135;" horiz-adv-x="455" 
 />
    <glyph glyph-name="Kcedilla" unicode="&#x136;" horiz-adv-x="1366" 
 />
    <glyph glyph-name="kcedilla" unicode="&#x137;" horiz-adv-x="1024" 
 />
    <glyph glyph-name="kgreenlandic" unicode="&#x138;" horiz-adv-x="1024" 
 />
    <glyph glyph-name="Lcedilla" unicode="&#x13b;" 
 />
    <glyph glyph-name="lcedilla" unicode="&#x13c;" horiz-adv-x="455" 
 />
    <glyph glyph-name="Ncedilla" unicode="&#x145;" horiz-adv-x="1479" 
 />
    <glyph glyph-name="ncedilla" unicode="&#x146;" 
 />
    <glyph glyph-name="Eng" unicode="&#x14a;" horiz-adv-x="1481" 
 />
    <glyph glyph-name="eng" unicode="&#x14b;" 
 />
    <glyph glyph-name="Omacron" unicode="&#x14c;" horiz-adv-x="1593" 
 />
    <glyph glyph-name="omacron" unicode="&#x14d;" 
 />
    <glyph glyph-name="Obreve" unicode="&#x14e;" horiz-adv-x="1593" 
 />
    <glyph glyph-name="obreve" unicode="&#x14f;" 
 />
    <glyph glyph-name="Rcedilla" unicode="&#x156;" horiz-adv-x="1479" 
 />
    <glyph glyph-name="rcedilla" unicode="&#x157;" horiz-adv-x="682" 
 />
    <glyph glyph-name="Scircumflex" unicode="&#x15c;" horiz-adv-x="1366" 
 />
    <glyph glyph-name="scircumflex" unicode="&#x15d;" horiz-adv-x="1024" 
 />
    <glyph glyph-name="Tbar" unicode="&#x166;" horiz-adv-x="1251" 
 />
    <glyph glyph-name="tbar" unicode="&#x167;" horiz-adv-x="569" 
 />
    <glyph glyph-name="Utilde" unicode="&#x168;" horiz-adv-x="1479" 
 />
    <glyph glyph-name="utilde" unicode="&#x169;" 
 />
    <glyph glyph-name="Umacron" unicode="&#x16a;" horiz-adv-x="1479" 
 />
    <glyph glyph-name="umacron" unicode="&#x16b;" 
 />
    <glyph glyph-name="Ubreve" unicode="&#x16c;" horiz-adv-x="1479" 
 />
    <glyph glyph-name="ubreve" unicode="&#x16d;" 
 />
    <glyph glyph-name="Uogonek" unicode="&#x172;" horiz-adv-x="1479" 
 />
    <glyph glyph-name="uogonek" unicode="&#x173;" 
 />
    <glyph glyph-name="Wcircumflex" unicode="&#x174;" horiz-adv-x="1933" 
 />
    <glyph glyph-name="wcircumflex" unicode="&#x175;" horiz-adv-x="1479" 
 />
    <glyph glyph-name="Ycircumflex" unicode="&#x176;" horiz-adv-x="1366" 
 />
    <glyph glyph-name="ycircumflex" unicode="&#x177;" horiz-adv-x="1024" 
 />
    <glyph glyph-name="longs" unicode="&#x17f;" horiz-adv-x="455" 
 />
    <glyph glyph-name="Aringacute" unicode="&#x1fa;" horiz-adv-x="1366" 
 />
    <glyph glyph-name="aringacute" unicode="&#x1fb;" 
 />
    <glyph glyph-name="AEacute" unicode="&#x1fc;" horiz-adv-x="2048" 
 />
    <glyph glyph-name="aeacute" unicode="&#x1fd;" horiz-adv-x="1821" 
 />
    <glyph glyph-name="Oslashacute" unicode="&#x1fe;" horiz-adv-x="1593" 
 />
    <glyph glyph-name="oslashacute" unicode="&#x1ff;" horiz-adv-x="1251" 
 />
    <glyph glyph-name="anoteleia" unicode="&#x387;" horiz-adv-x="569" 
 />
    <glyph glyph-name="Wgrave" unicode="&#x1e80;" horiz-adv-x="1933" 
 />
    <glyph glyph-name="wgrave" unicode="&#x1e81;" horiz-adv-x="1479" 
 />
    <glyph glyph-name="Wacute" unicode="&#x1e82;" horiz-adv-x="1933" 
 />
    <glyph glyph-name="wacute" unicode="&#x1e83;" horiz-adv-x="1479" 
 />
    <glyph glyph-name="Wdieresis" unicode="&#x1e84;" horiz-adv-x="1933" 
 />
    <glyph glyph-name="wdieresis" unicode="&#x1e85;" horiz-adv-x="1479" 
 />
    <glyph glyph-name="Ygrave" unicode="&#x1ef2;" horiz-adv-x="1366" 
 />
    <glyph glyph-name="ygrave" unicode="&#x1ef3;" horiz-adv-x="1024" 
 />
    <glyph glyph-name="quotereversed" unicode="&#x201b;" horiz-adv-x="455" 
 />
    <glyph glyph-name="radicalex" unicode="&#x203e;" horiz-adv-x="682" 
 />
    <glyph glyph-name="afii08941" unicode="&#x20a4;" 
 />
    <glyph glyph-name="estimated" unicode="&#x212e;" horiz-adv-x="1229" 
 />
    <glyph glyph-name="oneeighth" unicode="&#x215b;" horiz-adv-x="1708" 
 />
    <glyph glyph-name="threeeighths" unicode="&#x215c;" horiz-adv-x="1708" 
 />
    <glyph glyph-name="fiveeighths" unicode="&#x215d;" horiz-adv-x="1708" 
 />
    <glyph glyph-name="seveneighths" unicode="&#x215e;" horiz-adv-x="1708" 
 />
    <glyph glyph-name="commaaccent" unicode="&#xf004;" horiz-adv-x="682" 
 />
    <glyph glyph-name="undercommaaccent" unicode="&#xf005;" horiz-adv-x="682" 
 />
    <glyph glyph-name="tonos" unicode="&#x384;" horiz-adv-x="682" 
 />
    <glyph glyph-name="dieresistonos" unicode="&#x385;" horiz-adv-x="682" 
 />
    <glyph glyph-name="Alphatonos" unicode="&#x386;" horiz-adv-x="1367" 
 />
    <glyph glyph-name="Epsilontonos" unicode="&#x388;" horiz-adv-x="1606" 
 />
    <glyph glyph-name="Etatonos" unicode="&#x389;" horiz-adv-x="1716" 
 />
    <glyph glyph-name="Iotatonos" unicode="&#x38a;" horiz-adv-x="786" 
 />
    <glyph glyph-name="Omicrontonos" unicode="&#x38c;" horiz-adv-x="1586" 
 />
    <glyph glyph-name="Upsilontonos" unicode="&#x38e;" horiz-adv-x="1752" 
 />
    <glyph glyph-name="Omegatonos" unicode="&#x38f;" horiz-adv-x="1541" 
 />
    <glyph glyph-name="iotadieresistonos" unicode="&#x390;" horiz-adv-x="455" 
 />
    <glyph glyph-name="Alpha" unicode="&#x391;" horiz-adv-x="1366" 
 />
    <glyph glyph-name="Beta" unicode="&#x392;" horiz-adv-x="1366" 
 />
    <glyph glyph-name="Delta" unicode="&#x394;" horiz-adv-x="1368" 
 />
    <glyph glyph-name="Epsilon" unicode="&#x395;" horiz-adv-x="1366" 
 />
    <glyph glyph-name="Zeta" unicode="&#x396;" horiz-adv-x="1251" 
 />
    <glyph glyph-name="Eta" unicode="&#x397;" horiz-adv-x="1479" 
 />
    <glyph glyph-name="Iota" unicode="&#x399;" horiz-adv-x="569" 
 />
    <glyph glyph-name="Kappa" unicode="&#x39a;" horiz-adv-x="1366" 
 />
    <glyph glyph-name="Lambda" unicode="&#x39b;" horiz-adv-x="1368" 
 />
    <glyph glyph-name="Mu" unicode="&#x39c;" horiz-adv-x="1706" 
 />
    <glyph glyph-name="Nu" unicode="&#x39d;" horiz-adv-x="1479" 
 />
    <glyph glyph-name="Xi" unicode="&#x39e;" horiz-adv-x="1331" 
 />
    <glyph glyph-name="Omicron" unicode="&#x39f;" horiz-adv-x="1593" 
 />
    <glyph glyph-name="Pi" unicode="&#x3a0;" horiz-adv-x="1479" 
 />
    <glyph glyph-name="Rho" unicode="&#x3a1;" horiz-adv-x="1366" 
 />
    <glyph glyph-name="Sigma" unicode="&#x3a3;" horiz-adv-x="1266" 
 />
    <glyph glyph-name="Tau" unicode="&#x3a4;" horiz-adv-x="1251" 
 />
    <glyph glyph-name="Upsilon" unicode="&#x3a5;" horiz-adv-x="1366" 
 />
    <glyph glyph-name="Chi" unicode="&#x3a7;" horiz-adv-x="1366" 
 />
    <glyph glyph-name="Psi" unicode="&#x3a8;" horiz-adv-x="1711" 
 />
    <glyph glyph-name="Omega" unicode="&#x3a9;" horiz-adv-x="1531" 
 />
    <glyph glyph-name="Iotadieresis" unicode="&#x3aa;" horiz-adv-x="569" 
 />
    <glyph glyph-name="Upsilondieresis" unicode="&#x3ab;" horiz-adv-x="1366" 
 />
    <glyph glyph-name="alphatonos" unicode="&#x3ac;" horiz-adv-x="1184" 
 />
    <glyph glyph-name="epsilontonos" unicode="&#x3ad;" horiz-adv-x="913" 
 />
    <glyph glyph-name="etatonos" unicode="&#x3ae;" 
 />
    <glyph glyph-name="iotatonos" unicode="&#x3af;" horiz-adv-x="455" 
 />
    <glyph glyph-name="upsilondieresistonos" unicode="&#x3b0;" horiz-adv-x="1120" 
 />
    <glyph glyph-name="beta" unicode="&#x3b2;" horiz-adv-x="1178" 
 />
    <glyph glyph-name="gamma" unicode="&#x3b3;" horiz-adv-x="1024" 
 />
    <glyph glyph-name="zeta" unicode="&#x3b6;" horiz-adv-x="903" 
 />
    <glyph glyph-name="eta" unicode="&#x3b7;" 
 />
    <glyph glyph-name="theta" unicode="&#x3b8;" 
 />
    <glyph glyph-name="iota" unicode="&#x3b9;" horiz-adv-x="455" 
 />
    <glyph glyph-name="kappa" unicode="&#x3ba;" horiz-adv-x="1024" 
 />
    <glyph glyph-name="lambda" unicode="&#x3bb;" horiz-adv-x="1024" 
 />
    <glyph glyph-name="mu" unicode="&#x3bc;" horiz-adv-x="1180" 
 />
    <glyph glyph-name="nu" unicode="&#x3bd;" horiz-adv-x="1024" 
 />
    <glyph glyph-name="xi" unicode="&#x3be;" horiz-adv-x="917" 
 />
    <glyph glyph-name="omicron" unicode="&#x3bf;" 
 />
    <glyph glyph-name="rho" unicode="&#x3c1;" horiz-adv-x="1165" 
 />
    <glyph glyph-name="sigma1" unicode="&#x3c2;" horiz-adv-x="987" 
 />
    <glyph glyph-name="upsilon" unicode="&#x3c5;" horiz-adv-x="1120" 
 />
    <glyph glyph-name="chi" unicode="&#x3c7;" horiz-adv-x="1075" 
 />
    <glyph glyph-name="psi" unicode="&#x3c8;" horiz-adv-x="1460" 
 />
    <glyph glyph-name="omega" unicode="&#x3c9;" horiz-adv-x="1599" 
 />
    <glyph glyph-name="iotadieresis" unicode="&#x3ca;" horiz-adv-x="455" 
 />
    <glyph glyph-name="upsilondieresis" unicode="&#x3cb;" horiz-adv-x="1120" 
 />
    <glyph glyph-name="omicrontonos" unicode="&#x3cc;" 
 />
    <glyph glyph-name="upsilontonos" unicode="&#x3cd;" horiz-adv-x="1120" 
 />
    <glyph glyph-name="omegatonos" unicode="&#x3ce;" horiz-adv-x="1599" 
 />
    <glyph glyph-name="afii10023" unicode="&#x401;" horiz-adv-x="1367" 
 />
    <glyph glyph-name="afii10051" unicode="&#x402;" horiz-adv-x="1771" 
 />
    <glyph glyph-name="afii10052" unicode="&#x403;" horiz-adv-x="1109" 
 />
    <glyph glyph-name="afii10053" unicode="&#x404;" horiz-adv-x="1472" 
 />
    <glyph glyph-name="afii10054" unicode="&#x405;" horiz-adv-x="1366" 
 />
    <glyph glyph-name="afii10055" unicode="&#x406;" horiz-adv-x="569" 
 />
    <glyph glyph-name="afii10056" unicode="&#x407;" horiz-adv-x="569" 
 />
    <glyph glyph-name="afii10057" unicode="&#x408;" horiz-adv-x="1024" 
 />
    <glyph glyph-name="afii10058" unicode="&#x409;" horiz-adv-x="2165" 
 />
    <glyph glyph-name="afii10059" unicode="&#x40a;" horiz-adv-x="2069" 
 />
    <glyph glyph-name="afii10060" unicode="&#x40b;" horiz-adv-x="1749" 
 />
    <glyph glyph-name="afii10061" unicode="&#x40c;" horiz-adv-x="1193" 
 />
    <glyph glyph-name="afii10062" unicode="&#x40e;" horiz-adv-x="1301" 
 />
    <glyph glyph-name="afii10145" unicode="&#x40f;" horiz-adv-x="1472" 
 />
    <glyph glyph-name="afii10017" unicode="&#x410;" horiz-adv-x="1366" 
 />
    <glyph glyph-name="afii10018" unicode="&#x411;" horiz-adv-x="1344" 
 />
    <glyph glyph-name="afii10019" unicode="&#x412;" horiz-adv-x="1366" 
 />
    <glyph glyph-name="afii10020" unicode="&#x413;" horiz-adv-x="1109" 
 />
    <glyph glyph-name="afii10021" unicode="&#x414;" horiz-adv-x="1387" 
 />
    <glyph glyph-name="afii10022" unicode="&#x415;" horiz-adv-x="1366" 
 />
    <glyph glyph-name="afii10024" unicode="&#x416;" horiz-adv-x="1891" 
 />
    <glyph glyph-name="afii10025" unicode="&#x417;" horiz-adv-x="1237" 
 />
    <glyph glyph-name="afii10026" unicode="&#x418;" horiz-adv-x="1472" 
 />
    <glyph glyph-name="afii10027" unicode="&#x419;" horiz-adv-x="1472" 
 />
    <glyph glyph-name="afii10028" unicode="&#x41a;" horiz-adv-x="1193" 
 />
    <glyph glyph-name="afii10029" unicode="&#x41b;" horiz-adv-x="1344" 
 />
    <glyph glyph-name="afii10030" unicode="&#x41c;" horiz-adv-x="1706" 
 />
    <glyph glyph-name="afii10031" unicode="&#x41d;" horiz-adv-x="1479" 
 />
    <glyph glyph-name="afii10032" unicode="&#x41e;" horiz-adv-x="1593" 
 />
    <glyph glyph-name="afii10033" unicode="&#x41f;" horiz-adv-x="1472" 
 />
    <glyph glyph-name="afii10034" unicode="&#x420;" horiz-adv-x="1366" 
 />
    <glyph glyph-name="afii10035" unicode="&#x421;" horiz-adv-x="1479" 
 />
    <glyph glyph-name="afii10036" unicode="&#x422;" horiz-adv-x="1251" 
 />
    <glyph glyph-name="afii10037" unicode="&#x423;" horiz-adv-x="1301" 
 />
    <glyph glyph-name="afii10038" unicode="&#x424;" horiz-adv-x="1557" 
 />
    <glyph glyph-name="afii10039" unicode="&#x425;" horiz-adv-x="1366" 
 />
    <glyph glyph-name="afii10040" unicode="&#x426;" horiz-adv-x="1515" 
 />
    <glyph glyph-name="afii10041" unicode="&#x427;" horiz-adv-x="1365" 
 />
    <glyph glyph-name="afii10042" unicode="&#x428;" horiz-adv-x="1877" 
 />
    <glyph glyph-name="afii10043" unicode="&#x429;" horiz-adv-x="1920" 
 />
    <glyph glyph-name="afii10044" unicode="&#x42a;" horiz-adv-x="1621" 
 />
    <glyph glyph-name="afii10045" unicode="&#x42b;" horiz-adv-x="1813" 
 />
    <glyph glyph-name="afii10046" unicode="&#x42c;" horiz-adv-x="1344" 
 />
    <glyph glyph-name="afii10047" unicode="&#x42d;" horiz-adv-x="1472" 
 />
    <glyph glyph-name="afii10048" unicode="&#x42e;" horiz-adv-x="2069" 
 />
    <glyph glyph-name="afii10049" unicode="&#x42f;" horiz-adv-x="1479" 
 />
    <glyph glyph-name="afii10065" unicode="&#x430;" 
 />
    <glyph glyph-name="afii10066" unicode="&#x431;" horiz-adv-x="1173" 
 />
    <glyph glyph-name="afii10067" unicode="&#x432;" horiz-adv-x="1088" 
 />
    <glyph glyph-name="afii10068" unicode="&#x433;" horiz-adv-x="747" 
 />
    <glyph glyph-name="afii10069" unicode="&#x434;" horiz-adv-x="1195" 
 />
    <glyph glyph-name="afii10070" unicode="&#x435;" 
 />
    <glyph glyph-name="afii10072" unicode="&#x436;" horiz-adv-x="1370" 
 />
    <glyph glyph-name="afii10073" unicode="&#x437;" horiz-adv-x="939" 
 />
    <glyph glyph-name="afii10074" unicode="&#x438;" horiz-adv-x="1144" 
 />
    <glyph glyph-name="afii10075" unicode="&#x439;" horiz-adv-x="1144" 
 />
    <glyph glyph-name="afii10076" unicode="&#x43a;" horiz-adv-x="896" 
 />
    <glyph glyph-name="afii10077" unicode="&#x43b;" horiz-adv-x="1195" 
 />
    <glyph glyph-name="afii10078" unicode="&#x43c;" horiz-adv-x="1408" 
 />
    <glyph glyph-name="afii10079" unicode="&#x43d;" horiz-adv-x="1131" 
 />
    <glyph glyph-name="afii10080" unicode="&#x43e;" 
 />
    <glyph glyph-name="afii10081" unicode="&#x43f;" horiz-adv-x="1109" 
 />
    <glyph glyph-name="afii10082" unicode="&#x440;" 
 />
    <glyph glyph-name="afii10083" unicode="&#x441;" horiz-adv-x="1024" 
 />
    <glyph glyph-name="afii10084" unicode="&#x442;" horiz-adv-x="938" 
 />
    <glyph glyph-name="afii10085" unicode="&#x443;" horiz-adv-x="1024" 
 />
    <glyph glyph-name="afii10086" unicode="&#x444;" horiz-adv-x="1685" 
 />
    <glyph glyph-name="afii10087" unicode="&#x445;" horiz-adv-x="1024" 
 />
    <glyph glyph-name="afii10088" unicode="&#x446;" horiz-adv-x="1173" 
 />
    <glyph glyph-name="afii10089" unicode="&#x447;" horiz-adv-x="1067" 
 />
    <glyph glyph-name="afii10090" unicode="&#x448;" horiz-adv-x="1643" 
 />
    <glyph glyph-name="afii10091" unicode="&#x449;" horiz-adv-x="1685" 
 />
    <glyph glyph-name="afii10092" unicode="&#x44a;" horiz-adv-x="1280" 
 />
    <glyph glyph-name="afii10093" unicode="&#x44b;" horiz-adv-x="1472" 
 />
    <glyph glyph-name="afii10094" unicode="&#x44c;" horiz-adv-x="1067" 
 />
    <glyph glyph-name="afii10095" unicode="&#x44d;" horiz-adv-x="1045" 
 />
    <glyph glyph-name="afii10096" unicode="&#x44e;" horiz-adv-x="1536" 
 />
    <glyph glyph-name="afii10097" unicode="&#x44f;" horiz-adv-x="1109" 
 />
    <glyph glyph-name="afii10071" unicode="&#x451;" 
 />
    <glyph glyph-name="afii10099" unicode="&#x452;" 
 />
    <glyph glyph-name="afii10100" unicode="&#x453;" horiz-adv-x="747" 
 />
    <glyph glyph-name="afii10101" unicode="&#x454;" horiz-adv-x="1045" 
 />
    <glyph glyph-name="afii10102" unicode="&#x455;" horiz-adv-x="1024" 
 />
    <glyph glyph-name="afii10103" unicode="&#x456;" horiz-adv-x="455" 
 />
    <glyph glyph-name="afii10104" unicode="&#x457;" horiz-adv-x="569" 
 />
    <glyph glyph-name="afii10105" unicode="&#x458;" horiz-adv-x="455" 
 />
    <glyph glyph-name="afii10106" unicode="&#x459;" horiz-adv-x="1856" 
 />
    <glyph glyph-name="afii10107" unicode="&#x45a;" horiz-adv-x="1664" 
 />
    <glyph glyph-name="afii10108" unicode="&#x45b;" 
 />
    <glyph glyph-name="afii10109" unicode="&#x45c;" horiz-adv-x="896" 
 />
    <glyph glyph-name="afii10110" unicode="&#x45e;" horiz-adv-x="1024" 
 />
    <glyph glyph-name="afii10193" unicode="&#x45f;" horiz-adv-x="1131" 
 />
    <glyph glyph-name="afii10050" unicode="&#x490;" horiz-adv-x="1001" 
 />
    <glyph glyph-name="afii10098" unicode="&#x491;" horiz-adv-x="842" 
 />
    <glyph glyph-name="afii00208" unicode="&#x2015;" horiz-adv-x="2048" 
 />
    <glyph glyph-name="afii61352" unicode="&#x2116;" horiz-adv-x="2197" 
 />
    <glyph glyph-name="pi" unicode="&#x3c0;" horiz-adv-x="1413" 
 />
  </font>
</defs>
</svg>
