<?xml version="1.0" standalone="no"?>
<!DOCTYPE svg PUBLIC "-//W3C//DTD SVG 1.1//EN" "http://www.w3.org/Graphics/SVG/1.1/DTD/svg11.dtd" >
<svg>
<metadata>
Created by FontForge 20090622 at Fri May 13 02:52:15 2016
 By deploy user
</metadata>
<defs>
<font id="Grunge" horiz-adv-x="1217" >
  <font-face 
    font-family="Grunge"
    font-weight="400"
    font-stretch="normal"
    units-per-em="2048"
    panose-1="2 11 5 0 0 0 0 0 0 0"
    ascent="1638"
    descent="-410"
    x-height="1272"
    cap-height="3348"
    bbox="0 -995 3840 4239"
    underline-thickness="50"
    underline-position="-75"
    unicode-range="U+0020-U+201D"
  />
<missing-glyph horiz-adv-x="1536" 
d="M256 0v1280h1024v-1280h-1024zM1247 33v1214h-958v-1214h958z" />
    <glyph glyph-name=".notdef" horiz-adv-x="1536" 
d="M256 0v1280h1024v-1280h-1024zM1247 33v1214h-958v-1214h958z" />
    <glyph glyph-name=".null" horiz-adv-x="0" 
 />
    <glyph glyph-name="nonmarkingreturn" horiz-adv-x="0" 
 />
    <glyph glyph-name="space" unicode=" " horiz-adv-x="424" 
 />
    <glyph glyph-name="a" unicode="a" horiz-adv-x="1106" 
d="M1032 1567v-1567q-17 61 -22 127.5t-5 168t-5 168t-23 126.5q-17 -66 -22 -127.5t-5 -149t-5 -148.5t-23 -128q-30 19 -38.5 43.5t-21 86t-34.5 92.5t-72 36q-35 25 -43.5 53t-14.5 89t-22.5 91.5t-67.5 42.5q-84 -55 -184 -55q-42 0 -92 14t-92 41q-17 6 -35.5 27.5
t-32 40.5t-28 31t-33.5 12t-56 -37q0 181 87.5 310t226.5 206q288 -35 442 -74q15 24 19 44t8 71.5t10 69.5q-12 25 -27 31t-47 6q-22 0 -105 -28t-134 -28q-55 0 -111 56l-111 -56q-37 39 -37 56q0 41 35.5 75.5t75.5 34.5h37q0 122 78.5 153.5t216.5 31.5
q80 -16 150.5 -75t70.5 -147q15 32 26 72t11 76q0 151 -129 203q-72 0 -134 -8.5t-117.5 -29t-98.5 -55.5q0 42 32.5 68t83 43.5l105.5 36.5q103 0 177.5 -57t135.5 -164zM811 1456l-18 37h-111zM756 958q-56 56 -129 56q-54 0 -106.5 -26t-93 -70t-58.5 -89
q39 -76 119 -112.5t194 -52.5q51 63 62.5 126t11.5 168zM940 1014l-18 -406h18l37 406h-37z" />
    <glyph glyph-name="b" unicode="b" horiz-adv-x="1143" 
d="M129 1935q23 -39 25.5 -97.5t4.5 -117.5t25 -98q17 17 21 42t6.5 73t9.5 69h55q0 -124 18 -219t55 -222t56 -211.5t19 -176.5q76 100 204.5 133t311.5 33q56 -29 92.5 -76.5t55 -104.5t18.5 -114q0 -154 -55 -240q-12 -12 -42 -23.5t-40.5 -18.5t-10.5 -31l129 -37
q-94 -5 -153.5 -64.5t-129.5 -184t-109.5 -178t-104.5 -71.5q7 21 46.5 68.5t61 84.5t21.5 87q-29 0 -59.5 -12.5t-89.5 -42.5t-93.5 -43t-70.5 -13v-74l-185 129q8 8 20 29.5t17 26.5q0 97 -37 239v424q0 92 -6 160t-29 139.5t-68.5 131t-117.5 104.5q46 0 75 -31t54 -61
l17.5 51t13.5 44.5t6 51.5q0 53 -10 104t-27.5 116.5t-27 116.5t-9.5 105h37zM719 479q34 47 56.5 91t38 93.5t15.5 92.5q0 55 -28 108.5t-82 93.5l-129 -92q-5 -38 -18 -74.5t-41 -103t-40 -106.5t-12 -84q0 -53 37 -129z" />
    <glyph glyph-name="c" unicode="c" horiz-adv-x="1438" 
d="M1124 1143v-240q-24 81 -69 126t-125.5 97.5t-118.5 90.5q-57 0 -128.5 -39t-134 -104t-87.5 -134q0 -84 5.5 -133.5t29.5 -93t75 -68.5q67 -34 83.5 -54.5t37.5 -74.5t64 -110q75 0 120 41.5t86 120.5t68.5 115t75.5 36q0 -12 18.5 -15.5t55.5 -3.5l-424 -294l166 -74
q-99 0 -188 13t-180 37.5l-168.5 46.5t-127.5 32q0 62 -13.5 146l-27.5 169t-14 146q0 68 16 128t57 130q62 7 110 38.5t122.5 95t133 94t132.5 30.5q-140 0 -233 -10.5t-146 -24t-119 -39.5q-61 -47 -98 -116t-55.5 -167t-24.5 -219t-6 -327q12 -18 77 -126.5t115 -170.5
t119 -109t168 -74q206 18 384 110.5t302.5 244.5t180.5 346q-40 -261 -224 -445t-440 -274q-144 0 -261.5 36.5t-236.5 110.5q-202 203 -202 609q0 302 73 497q68 108 181.5 164.5t242.5 56.5q121 0 230 -42.5t192.5 -124.5t130.5 -201zM406 719v239q-56 -36 -56 -92
q11 -39 33.5 -88.5t22.5 -58.5z" />
    <glyph glyph-name="d" unicode="d" 
d="M885 1898q0 -37 12 -66t32 -46t48 -17q0 -141 2.5 -221.5t15 -147.5t37.5 -110q19 19 19 129h55q-26 -65 -31.5 -131.5t-5.5 -163.5q0 -106 15.5 -217.5t52.5 -280l53.5 -248t26.5 -157.5l-158.5 -78.5t-124 -49t-123.5 -19.5q-55 0 -93 5.5t-91 31.5q-72 -37 -129 -37
q-60 0 -111 32t-101 83l-102 106q-37 55 -37 147q0 69 26.5 128t84.5 154t84.5 152t26.5 119q0 27 -6 52t-15.5 51t-15.5 45q87 0 155 -29.5t157 -98t125 -93t97 -37.5l-73 848h-129q37 7 57 27.5t45 59t50.5 58.5t68.5 20zM682 922q-56 56 -132.5 94.5t-162.5 52.5
q0 -70 8.5 -115t27.5 -71t56 -35q15 32 39.5 40t80 14.5t83.5 19.5zM885 406l-37 313h-55v-19l-240 -36q0 -67 26.5 -126.5t85.5 -149t72 -112.5q44 0 57 17.5t15 54t11.5 59.5t45.5 35q11 0 15 -13.5t4 -22.5zM627 221l-129 350q-41 -41 -76 -104t-35 -135q13 -73 76 -92
t164 -19z" />
    <glyph glyph-name="e" unicode="e" horiz-adv-x="1364" 
d="M1198 848q0 -92 -9.5 -144t-45.5 -77l-37 55q0 -166 -166 -166q-41 0 -89 7t-87.5 14t-70.5 11.5t-66 4.5q-57 0 -101 -14t-84 -41q0 -43 15 -78t31 -52t51.5 -46t50.5 -46q88 0 155 20t152 59t145.5 60.5t137.5 26.5q-33 -52 -79 -87t-100.5 -60.5t-131 -51.5
t-113.5 -40q72 -37 110 -37q35 0 64.5 9t85 33t99 37t83.5 13v-55h166q-148 -59 -297.5 -94t-292.5 -35q-326 0 -590 184q-55 37 -82 89.5t-37 137.5t-10 234q65 72 110 160.5l84 166.5t99.5 139t167.5 105q117 -25 207.5 -68t155.5 -93t171 -147.5zM645 1198l-203 -37
q23 9 76.5 23t126.5 14zM829 1087q-55 0 -73 19v-55h73v36zM166 627q57 128 131.5 226.5t181.5 178.5q-31 -36 -88.5 -89.5t-100 -97.5t-76.5 -99t-48 -119zM848 793q-29 0 -51.5 23t-52.5 69t-55 69t-62 23q-98 -66 -159.5 -145.5t-61.5 -167.5q201 0 291 9t120.5 35.5
t30.5 84.5zM221 424h74l-74 74v-74z" />
    <glyph glyph-name="f" unicode="f" horiz-adv-x="2212" 
d="M1382 2470q4 -27 22 -104.5t26 -123.5t8 -104l-129 295q-25 -52 -31 -97.5t-6 -105.5q0 -83 22.5 -159.5t46 -127t81.5 -164.5t89 -194l74 -74l-74 -55q94 -26 175 -41.5t163 -26t180 -20.5t183 -22q-18 -4 -183.5 -48t-314 -74.5t-302 -46.5t-343.5 -16q10 -14 39 -88
t75 -112.5t144 -38.5h74q-117 0 -183.5 -35t-98 -107t-41 -176.5t-9.5 -290.5q0 -124 -8.5 -181t-46.5 -132l-111 147l-55 -73q-15 79 -26 239.5t-21.5 253.5t-42 186.5t-94.5 149.5q-44 -30 -125 -48l-147 -34t-97 -47q0 46 40 76.5t93.5 46.5t152.5 36t119 25
q-19 88 -51.5 134.5t-101.5 67t-197 20.5q-12 26 -26.5 31.5t-47.5 5.5q-15 0 -75 -28t-90 -28q-64 0 -111 92q73 13 206 49t209 54t175 26q-38 24 -97.5 26t-124 4.5t-110.5 25.5l332 37q0 173 -9.5 402.5t-9.5 279.5q0 245 61 421t216 279q110 -18 213 -68t184 -129
t137 -190zM1124 2710q-32 0 -60 8.5t-65.5 26.5t-71 28t-79.5 10q-86 -112 -130.5 -250.5t-58.5 -288t-14 -346.5v-423h55q0 108 -7 184t-22.5 204.5t-20.5 187t-5 142.5q35 92 83 178t105.5 153.5t130.5 116t160 69.5zM1217 2415q-28 165 -111 165q-44 0 -100.5 -34
t-102.5 -82t-55 -86q60 0 194.5 18.5t174.5 18.5zM1180 1954q-28 72 -42.5 104t-43.5 56t-80 24q-26 -39 -31.5 -77t-5.5 -107q0 -19 9 -145t9 -242q192 0 291 -8t147.5 -27t77.5 -57q0 42 -33.5 85t-39.5 62q-80 0 -110.5 47.5t-67.5 151.5t-80 133zM1843 1327
q-54 22 -132.5 25t-152.5 5t-120 25q-35 -30 -87 -38t-126.5 -10t-111.5 -13t-44 -49l88.5 -18.5t82.5 -14t69 -4.5q49 0 119.5 9t139.5 23.5l137.5 30t137.5 29.5zM774 977v184h-55zM885 442l73 -258h19l-74 277z" />
    <glyph glyph-name="g" unicode="g" horiz-adv-x="1419" 
d="M1106 221q-70 -56 -165 -95t-204 -52q-102 0 -184 55q-103 49 -173.5 101t-126.5 111t-146 171l-107 133q0 17 15 21t48.5 6.5t47.5 9.5q50 -148 141.5 -275t229 -212.5t311.5 -102.5q69 0 124.5 33.5t94 84t83.5 127t66 105.5q0 72 37 148q0 18 -5.5 30.5t-31.5 24.5
q-65 -45 -152.5 -67t-205.5 -31t-213.5 -15t-147.5 -16q-6 12 -28.5 34t-33.5 37t-11 40l37 18q-91 92 -156.5 212.5t-65.5 211.5q-26 66 -31.5 116t-5.5 124q0 148 49 278t146 315.5t137 290.5q56 56 148 56q51 0 140.5 -18.5t135.5 -18.5q31 0 64.5 15t46.5 40
q17 -132 56 -324l77.5 -373.5t63 -357.5t24.5 -346q0 -115 -13.5 -223.5t-43 -218t-72.5 -203.5zM608 2138q-81 -27 -166 -110q74 110 166 110zM903 2064q-72 37 -129 37q-62 0 -127.5 -35.5t-120 -90.5t-84.5 -113q53 25 146.5 49t222.5 24v74q0 25 29.5 40t62.5 15z
M627 1825h258v18h-258v-18zM295 1309q-37 72 -37 129q0 45 14 105.5l27.5 120.5t13.5 105q-12 -32 -24 -110.5t-23.5 -119.5t-44.5 -64q0 -141 0.5 -194.5t4 -99t11 -60.5t21.5 -15l37 18q39 -25 56.5 -56.5t17.5 -72.5q171 0 221 74zM553 1714l-74 -74l19 -36l73 92z
M903 1640q-72 37 -92 37q-53 0 -104 -24.5t-92.5 -64.5t-71.5 -89t-45 -98q55 -92 295 -92q110 220 110 331zM977 1346q0 129 -19 129l-73 -166q9 18 25.5 45.5t29.5 27.5q14 0 25.5 -11.5t11.5 -24.5zM793 756q77 25 129 73t83 105t64 135q-152 -11 -249.5 -26
t-189.5 -51.5t-188 -106.5q42 -58 98 -87.5t111.5 -35.5t141.5 -6zM295 940l74 -129l18 18l-74 129z" />
    <glyph glyph-name="h" unicode="h" horiz-adv-x="1382" 
d="M276 2175q0 -332 19 -479l55 110l92 -479q42 47 104.5 155.5t110 169.5t135 107.5t222.5 46.5q74 -121 107.5 -282t57 -408.5t46.5 -386.5t84 -268l73 -221q-41 0 -79.5 24.5t-67.5 67.5l-24.5 -46.5t-12.5 -45.5q0 -30 14 -65.5l27.5 -71t13.5 -66.5q-18 -37 -73 -37
q-11 44 -15.5 123t-7.5 155.5t-14.5 146t-36.5 110.5l-37 -314h-37q-25 90 -37.5 191t-22 277.5t-16 279.5t-16.5 174q-137 92 -313 92l-37 -37l129 -129q-76 37 -92 37q-55 0 -97 -27.5t-65 -73.5t-23 -102l129 -424h-202l-37 -313h-56q-6 242 -35 503.5t-66 487.5
t-95.5 548t-79.5 452q8 -73 24.5 -143.5t48.5 -182t38 -135.5h73l37 479h55zM1069 1604q-15 17 -39.5 53t-42.5 57.5t-53 38t-86 16.5q-50 -24 -91.5 -75t-98 -145t-68.5 -111q56 0 98 6t112.5 20.5t111.5 21.5t102 7q50 -12 71 -83t21 -157q0 57 -9 116.5l-18.5 118.5
t-9.5 116z" />
    <glyph glyph-name="i" unicode="i" horiz-adv-x="756" 
d="M627 1640q0 -170 -75 -262.5t-239 -105.5q-48 23 -86.5 75t-77.5 129.5t-57 108.5q22 12 52 56.5l69.5 105.5t81.5 97t92 36q56 0 129 -74zM442 1401h56l18 295q0 -37 -9.5 -67t-27 -67t-27.5 -75t-10 -86zM313 811q10 46 10 147.5t9 147.5h74q0 -185 27 -335t69 -285.5
l88 -282.5q-60 0 -131.5 -23.5t-71.5 -105.5l19 -37l-56 -37q-21 116 -50.5 222t-80 197t-127.5 152q0 180 8.5 270.5t32 131.5t70.5 59l-37 74q56 -8 77 -48.5t37 -125.5t33 -121zM166 793l37 -222l18 19l-18 203h-37zM682 295h18l56 -111h-37z" />
    <glyph glyph-name="j" unicode="j" 
d="M1143 1548q0 -179 -3 -234t-16 -79q-135 -135 -298 -215t-347 -80q-73 122 -73 277q7 63 40 230.5t33 248.5q-84 0 -151 -52.5t-122.5 -127l-113.5 -152.5q0 -200 51.5 -317.5t151.5 -161.5q-76 48 -117.5 85.5t-68.5 80t-72 129.5q0 188 80.5 311.5t203.5 196t324 155.5
q148 -29 289.5 -108.5t208.5 -186.5zM664 1640l-19 93l-129 -258l37 73q98 74 258 74t258 -74q-6 12 -23.5 29t-24.5 28.5t-7 34.5q-24 0 -61.5 20.5t-71 41.5t-64.5 35t-61 14q-29 0 -54 -28.5t-38 -82.5zM1124 1419q0 -40 -11.5 -53t-43 -34.5t-37.5 -41.5
q0 42 -6.5 114.5t-30.5 106.5l-55 19zM756 1051q-76 0 -107.5 1t-45 4.5t-13.5 12.5q0 172 2.5 242t14.5 108.5t38 55.5q0 -16 -13.5 -79.5t-18.5 -91t-5 -69.5q0 -79 36 -131.5t112 -52.5zM516 1032q-26 9 -38 37t-14.5 87t-2.5 208q0 -94 2.5 -148t15 -101.5t37.5 -82.5z
M848 1235l55 74h-55v-74zM848 571l55 56q44 -86 73 -188.5t42.5 -213.5t13.5 -243q0 -209 -13 -333.5t-57.5 -200.5t-132.5 -93q-54 27 -196.5 51t-225 51.5t-131.5 100.5h277q-74 0 -138.5 65.5t-82.5 118.5v37q31 0 54.5 -17.5t49 -48.5t47.5 -47t52 -16q167 0 228 3.5
t87 18t35 52.5q-8 159 -31 340.5t-56.5 347t-78.5 325.5q56 0 68 -23t22 -76t39 -67zM940 276l55 -165l19 18l-56 166z" />
    <glyph glyph-name="k" unicode="k" horiz-adv-x="1530" 
d="M276 1419q56 112 56 240q0 62 -14 146l-28 169t-14 146q93 0 111 -37l55 184q58 -66 87 -162.5t35.5 -192.5t6.5 -235q86 25 154.5 85t197.5 191t222.5 198t200.5 79q-14 -29 -85.5 -83.5t-104 -85t-32.5 -70.5q0 -27 16.5 -57t57.5 -72h74l-516 -590
q71 -70 216.5 -182.5t211 -168.5t132.5 -149t85 -201q56 -27 83 -79t27 -123q0 -74 -36 -148q-48 23 -87.5 65t-131.5 147.5t-150 156.5q-73 12 -256.5 53.5t-267 58.5t-140.5 17q-12 26 -24 78t-29 86t-57 57q0 -55 8.5 -128t21 -132t31 -136.5t31.5 -137.5q18 55 18 202
v-276q-58 27 -85 82t-37.5 144.5t-18.5 170.5t-25 137q0 -221 6.5 -353.5t23 -227.5t48.5 -161t88 -124q-108 90 -154 224t-55.5 333t-15 359t-33.5 282l-129 37l92 92l-147 866l55 37q0 -55 19 -73l18 110q49 -79 72 -179.5t36.5 -252.5t26.5 -241t49 -175zM608 1456
l129 111l203 239zM332 1382l-19 -73h19l37 73h-37zM1161 829q-63 15 -97 44.5t-135 127.5t-173 142q81 -25 120 -59.5t129 -126t156 -128.5zM995 700q-147 26 -227 50t-138.5 94t-58.5 207q137 -55 239 -140.5t185 -210.5zM1290 608q-46 9 -115 47t-69 119z" />
    <glyph glyph-name="l" unicode="l" horiz-adv-x="479" 
d="M203 2267q0 -96 19.5 -153.5t64.5 -160.5t45 -147q0 -79 -74 -129q0 -180 12 -350t42 -493t43.5 -501.5t13.5 -332.5l-185 461l-37 -37q-43 218 -74.5 441.5t-52 465.5t-20.5 457q41 33 73.5 106.5t76.5 211.5t53 161zM184 1935v-663h19v663h-19zM369 1733h37v-885h-37
v885z" />
    <glyph glyph-name="m" unicode="m" horiz-adv-x="1530" 
d="M313 885q52 77 124.5 127.5t156.5 82.5t199 66q45 -92 110 -92q36 0 123.5 29.5t149 46t151.5 16.5q12 -20 38.5 -81.5t53 -93t74.5 -46.5l18 -922h-18q-7 0 -11 40t-13 72t-31 54q-37 -35 -37 -55h-55q0 99 5.5 166t18 184t12.5 166q0 291 -239 387
q-74 -102 -121.5 -213t-78.5 -225.5t-67.5 -294.5t-46.5 -225q0 113 -19.5 207t-55 216t-54 214.5t-18.5 210.5q-48 -12 -83.5 -52t-89.5 -119t-97.5 -123t-98.5 -57l-18 -479q-93 57 -127.5 152.5t-45.5 261.5t-27 261t-77 173v111h56q0 -19 37 -56l18 406
q82 -74 102.5 -131.5t34 -174t47.5 -210.5zM793 977v74q-37 0 -95.5 -9.5t-89.5 -9.5q33 0 58 -7t68.5 -25t58.5 -23zM866 866h37l74 111zM350 700l129 148q-20 -13 -39 -59.5t-34.5 -67.5t-55.5 -21z" />
    <glyph glyph-name="n" unicode="n" horiz-adv-x="1124" 
d="M1124 700v-700q-58 59 -85 144.5t-37.5 209t-18.5 233.5t-25 187q-23 0 -33.5 8.5t-21 27t-26 28.5t-48.5 10q0 -29 7.5 -57t21.5 -60.5l20.5 -48.5t6.5 -37q-38 14 -58.5 47.5t-34 83.5t-26 102.5t-29.5 79.5q-78 -58 -132.5 -144.5t-91 -191t-56.5 -197.5t-51 -259h-74
q0 46 -23 69t-88 23q-51 104 -82 219.5t-53 254.5l-42 277.5t-44 243.5q50 0 64 21t17 64.5t13 62t53 18.5l19 -276l55 110q54 -15 59 -73l11 -124.5t59 -97.5q26 57 62.5 161t70.5 177.5t87 131.5t130 83q70 -81 120 -174t94.5 -197.5l100 -229t109.5 -210.5zM774 1253
q-12 25 -20.5 80t-24.5 80t-65 25q-69 -57 -124.5 -164.5t-78.5 -167.5l48 44.5t37 38.5t25 46q15 13 49.5 15.5t153.5 2.5zM885 940q-13 35 -83 75.5t-104 70t-34 94.5q38 -19 88.5 -60.5t87.5 -90.5t45 -89zM276 995v-221h19v221h-19zM627 995q-141 -141 -166 -295
q14 98 56.5 177t109.5 118z" />
    <glyph glyph-name="o" unicode="o" horiz-adv-x="1511" 
d="M793 1493v-55q-32 45 -78.5 68t-82 28.5t-114 14.5t-112.5 18q-73 -60 -128 -143.5t-87 -179t-47 -199.5t-15 -216q0 -213 55 -405q39 -86 109 -156.5t161.5 -113.5t190.5 -43q112 0 221 55l56 55q-65 0 -109.5 8.5t-107.5 27t-121 28.5t-142 10l-100 133t-86 127
t-65 135t-25 139q0 33 9.5 80.5t27.5 104.5q29 77 65.5 128t77 85.5t98.5 72.5l127 82q184 0 330.5 -22.5t265.5 -92t179 -198.5q0 -95 -21.5 -173.5t-53.5 -151.5l-61.5 -146.5t-29.5 -118.5q0 -38 37 -110v-37q-72 0 -121 -29t-167.5 -114.5t-191.5 -114.5
q-111 0 -192.5 23t-144.5 63t-115.5 91l-100.5 99q-50 103 -71 223t-21 256q0 214 73.5 413t221.5 362q74 0 140.5 -17t161 -54t104.5 -40zM1124 995q-37 57 -107.5 113t-154 91.5t-162.5 35.5q-92 0 -159 -53t-80 -168q-4 -18 -14 -51.5t-20.5 -74t-15.5 -69t-5 -63.5
q0 -67 27.5 -126t82.5 -114v221q7 90 69 142t156.5 74.5t198 29t184.5 12.5zM1032 1217l185 -203l18 18l-184 221zM258 885v-185h18v185h-18zM1161 848q-76 37 -129 37q-41 0 -77.5 -7t-96 -21.5t-95.5 -21t-63 -6.5q0 -18 -10.5 -77t-18 -122.5t-7.5 -150.5q33 27 71.5 45
t77.5 30.5t97 28.5t85 25q67 26 90.5 61t40.5 94t35 85zM1401 774l55 55l55 -92zM737 295h129l203 221z" />
    <glyph glyph-name="p" unicode="p" horiz-adv-x="1733" 
d="M1530 1143q31 -38 36 -91.5t11 -89.5t45 -59l55 55q0 -35 -13 -62t-42.5 -67.5t-42 -66.5t-12.5 -62q-13 -174 -101.5 -299.5t-209 -207t-320 -186.5t-272.5 -154q-1 1 -11 25t-30.5 36t-69.5 12l-18 19q0 -58 18 -164t18 -150q0 -50 -6 -76.5t-30 -52.5l-56 56
q-13 -13 -23.5 -32l-23.5 -42.5t-26 -36.5q-23 11 -33.5 30t-16.5 80t-6 185q-102 103 -143 241.5t-41 311.5q0 97 3.5 152.5t14 203.5t15 217t4.5 146l73 55q-7 -30 -9.5 -75.5t-6.5 -69t-20 -39.5l36 -37q104 114 243.5 211.5t296 159.5t308.5 71q117 0 215.5 -34
t190.5 -113zM1530 1014q-64 116 -166 168.5t-221 52.5q-146 -8 -312 -88t-304 -197.5t-214 -230.5h56q308 184 497 350q50 38 104 56t99 18q91 0 156 -62t110 -153.5t89.5 -211t68.5 -163.5zM1217 940q-50 74 -111 74q-31 0 -64 -12.5t-76.5 -37t-74.5 -39.5t-62 -22z
M1087 719l-18 92q-47 -13 -145 -28t-158 -30t-108 -53t-68 -110l129 -55q0 -37 -6.5 -99t-30.5 -86l-92 56l-19 -37l424 -203l19 18q15 39 46.5 45t74 12t63.5 35q-33 0 -53 12t-42 34t-34 28q0 117 2.5 162t14 66t38.5 30q38 0 52.5 -17.5t18 -61.5t3.5 -160q29 21 44 45.5
t21 61t7.5 91t1.5 170.5q-11 6 -41 10t-42.5 8t-27.5 19q0 -74 -18 -74q-37 0 -56 19zM295 37q-45 76 -68.5 189t-23.5 309zM645 147l-55 37l-92 37zM866 55q-19 0 -36.5 -4l-62.5 -14.5t-66 -14.5t-56 -4q-55 0 -87.5 5.5t-59.5 31.5l55 -73q104 0 189 17t124 56z" />
    <glyph glyph-name="q" unicode="q" horiz-adv-x="1327" 
d="M1087 1309q-154 0 -277.5 -43t-188.5 -84l-223 -148t-251 -149q-55 -86 -55 -185q0 -133 71.5 -265.5t186.5 -287.5q21 -41 55 -63t91.5 -32t144 -12.5t262.5 -2.5l55 -682h56q32 -25 55 -66.5t32 -71.5t29.5 -105t30.5 -107q92 0 92 18q-60 52 -97.5 143t-56.5 192.5
t-30 217.5q74 74 74 221q0 54 -14 133l-28 158t-14 133q203 254 203 645q0 -142 -44.5 -269t-121.5 -247v516q0 48 10 100t27 121h-74q0 -36 -6 -57.5t-30 -34.5q-7 38 -20.5 53.5t-45.5 41.5t-45 53q25 61 77 76.5t144 15.5q63 -79 96 -154.5t33 -177.5q0 50 -7.5 90
t-25 109t-22.5 96q-125 50 -240 74q19 37 92 37zM903 1253q-31 0 -61.5 -18l-61 -36.5t-61.5 -18.5q19 -9 56.5 -23t72.5 -14q29 0 42 21.5t13 88.5zM682 1051q-100 -64 -181 -152.5t-145 -192.5t-116 -227q25 78 86 194.5t154.5 226t201.5 151.5zM203 608q0 92 27.5 200.5
t119.5 131.5zM719 350q67 67 98 128t31 130q0 62 -18 133t-56 199l-147 -111q-89 -89 -127.5 -195t-38.5 -302q39 -37 53.5 -46.5t38.5 -9.5q25 0 75 37t91 37zM958 608v-129h37v129h-37zM866 111q-7 21 -9.5 59t-6.5 54t-21 16q-32 -6 -103.5 -43.5t-107.5 -52.5t-83 -15
q-39 0 -111 37q37 -27 82 -38.5t117 -14t243 -2.5z" />
    <glyph glyph-name="r" unicode="r" horiz-adv-x="1382" 
d="M885 1217q25 -37 58.5 -46.5t88.5 -9.5q20 0 79.5 9.5t86.5 9.5q111 0 111 -111h-19q0 -47 12 -66t46 -63t34 -74l-18 -18q-46 64 -119 104.5t-164.5 60t-195.5 19.5q-69 -12 -105 -51.5t-54 -101.5l-35 -121t-46 -94q0 -131 3.5 -207.5t19.5 -143.5t51 -110
q-13 -39 -30 -56.5t-44 -17.5q-13 0 -65 27.5t-82 27.5q-11 0 -19.5 -13.5t-17.5 -23.5q-68 101 -129 223.5t-111.5 249l-111.5 293t-109 285.5q43 -30 64 -63.5t70 -118t91.5 -131.5t106.5 -74q0 75 -7.5 132.5t-22 132.5t-20.5 117t-6 79q26 -20 73.5 -43.5t72 -41t41 -54
t16.5 -101.5q70 19 133.5 60.5t120.5 91l139 117.5t142 100l37 -19zM406 442q-17 45 -29.5 143.5t-20 137.5t-39.5 79.5t-96 45.5l185 -479v73z" />
    <glyph glyph-name="s" unicode="s" horiz-adv-x="958" 
d="M627 1364h-314q-28 0 -64 -46t-65 -46q-20 0 -55 37q40 65 91.5 87.5t129.5 22.5q140 0 277 -55zM903 774l-74 -55q40 -33 57.5 -74t27 -100.5l18.5 -114.5t26 -98q-36 -74 -102 -107.5t-170 -59t-152 -49.5t-55 -79q-144 0 -237 62.5t-139 142t-103 219.5q18 18 74 18
q0 -41 21.5 -62t71.5 -44.5t73 -40.5l89 -18.5t82 -14t68 -4.5q105 0 187.5 36.5t162.5 129.5q-33 73 -100.5 123.5t-159 85.5t-174.5 55.5t-211 48.5q-31 0 -43 -5.5t-32.5 -18.5t-34.5 -13q-19 0 -30.5 5.5t-25.5 31.5q72 43 91.5 107t28.5 166t42 151.5t133 54.5
q70 -51 219.5 -98.5t205.5 -70t110.5 -96t54.5 -214.5zM240 1069l147 55l-74 19zM553 995q-64 0 -139.5 -22t-100.5 -70h240v92zM829 756q-52 0 -86 14.5t-51 45.5t-22.5 76t-5.5 122q7 -43 25 -62t59.5 -49t61 -60.5t19.5 -86.5zM498 829h110l-37 37zM737 276l92 56v55z
" />
    <glyph glyph-name="t" unicode="t" horiz-adv-x="1253" 
d="M590 1714q0 -60 10 -109t27 -104t27 -98t10 -94q107 -37 184 -37q45 0 87 6t122.5 21l117.5 21.5t78 6.5q-26 -10 -94.5 -20.5t-102.5 -31t-42 -77.5q22 -10 61.5 -14t85.5 -4q-18 -38 -64.5 -53.5t-151.5 -23.5l-154.5 -12t-108.5 -22q0 -189 5.5 -295t20.5 -170
t42.5 -95.5t78.5 -47.5h258q0 -55 -6 -89t-30 -59q-33 33 -81 45.5t-128.5 18.5t-104.5 10q-32 -57 -44.5 -117.5t-18.5 -151.5t-10 -118q-56 56 -82.5 173.5l-54.5 247.5t-100 204.5t-224 74.5q0 19 -7.5 29t-25 19.5t-26.5 18.5t-15 26q26 44 60.5 67.5t95 52.5t103 58.5
t73.5 79.5q-88 0 -186.5 -18.5t-127.5 -18.5q-92 0 -147 55q7 69 56 88t143.5 28t141 35.5t46.5 106.5h74q19 58 29 153t26.5 144t73.5 90zM793 1235h110v18h-110v-18zM498 645l-37 258q-30 -22 -109 -54t-112 -75q35 -36 75.5 -66.5t84.5 -46.5t98 -16z" />
    <glyph glyph-name="u" unicode="u" horiz-adv-x="1401" 
d="M1161 700q5 -72 24 -219.5t25.5 -220.5t6.5 -186l-93 184l-37 -37l-92 148q-330 -185 -571 -185q-128 0 -240 56q-92 139 -92 442q0 72 5.5 141.5t21 207.5t22 201t6.5 132q28 0 36 3t20 15l37 -239l36 110q79 -36 103.5 -148.5t37 -318t40.5 -302.5t114 -97
q57 0 120.5 34t156.5 114q50 50 62 124t12 189q0 124 1 211t5 172.5t12 150.5h55q5 -16 9 -54.5t8.5 -52.5t19.5 -22l129 148q-37 -76 -37 -111q0 -40 21 -104t40 -114.5t34.5 -104t15.5 -101.5q0 -92 -74 -166zM424 258q-139 63 -189.5 193t-50.5 323q0 54 9.5 191t9.5 178
l-56 -737q42 -148 277 -148zM313 1032l19 -332h37l-37 332h-19z" />
    <glyph glyph-name="v" unicode="v" horiz-adv-x="1696" 
d="M1696 1290q-66 -133 -153 -271t-242 -365l-228.5 -337t-150.5 -243q-66 0 -127 25t-121.5 70t-103.5 80t-72 46q-56 94 -183.5 269.5t-200 296.5t-114.5 263q26 6 90 10.5t99 12.5t51 33q48 0 95 -19t77 -57t30 -90q71 0 109 -39.5t60.5 -101.5l47.5 -130t60 -98
l129 -166q86 62 144.5 145.5t131 216t132 211t145.5 128.5l-55 -222q56 0 93 38t82.5 116t82 122t92.5 56zM313 995v74l-18 37zM387 553q-13 27 -54 92.5t-85.5 144.5t-74.5 147t-44 132q71 -18 106.5 -76.5t54 -137.5l40 -165.5t57.5 -136.5zM369 811l110 -240l19 19
l-111 221h-18zM1235 700l-74 -110h19l92 92z" />
    <glyph glyph-name="w" unicode="w" horiz-adv-x="2009" 
d="M1862 1640q-26 -46 -41.5 -97t-23 -91.5l-20.5 -116t-26 -118.5l111 55l55 -111q37 49 56.5 104t35.5 136q-25 -126 -79 -260.5t-121.5 -271l-142.5 -288.5t-118 -268q-95 0 -202 -37q-58 318 -185 572q-30 -46 -65 -107.5t-72 -136l-63.5 -127l-57.5 -108.5
q-16 -25 -47 -33t-90 -12.5t-84 -10.5v-258l147 37q0 -26 -6 -41.5t-15 -23.5t-23 -14l-29 -13q-199 130 -345.5 332.5t-242 441t-168.5 516.5q40 -67 73.5 -143.5t81.5 -198.5t83.5 -199.5t74.5 -140.5q17 70 25.5 149.5t10 182.5t1.5 332q54 -26 91.5 -57t37.5 -91
q0 -55 19 -73h37l18 239q11 -34 62.5 -120.5t77.5 -143.5t26 -123q67 16 142 53t145.5 92.5t127.5 127t83 151.5q63 -44 87 -102.5t38 -155t30.5 -153t65.5 -105.5q69 62 119 161t106.5 251.5t98.5 247t100 169.5zM1880 1161l-55 -129l37 -18l55 147h-37zM608 940l56 -203
h18l-37 221zM1788 940l-148 -258h37l129 258h-18zM774 737h55l111 185zM461 332l-92 221l-19 18zM498 553l110 -350h37l-110 350h-37z" />
    <glyph glyph-name="x" unicode="x" horiz-adv-x="1309" 
d="M1235 1272q0 -57 -17 -96t-46 -89t-29 -73q0 -28 55 -56q-29 -46 -80.5 -169.5t-95.5 -195.5t-119 -114l203 -239l-22.5 -22.5l-14.5 -14.5q0 -24 23 -44.5l46 -41t23 -43.5q-55 0 -82.5 -17t-27.5 -57l-222 313q-54 -39 -125 -127t-108 -126t-98 -60q0 26 8 41t23 28.5
t24 22.5l-111 148q-27 -29 -59 -55.5t-66 -41t-77 -14.5l-74 74q80 31 133 87t119 146.5t117 134.5q-51 58 -120 186.5t-107.5 191t-115 122t-192.5 72.5v55q33 -8 110.5 -24t117.5 -28.5t83 -39.5t76 -74l37 129l295 -424q54 73 117.5 132t152 134t146.5 136t100 133z
M387 903l148 -166l18 19l-129 166zM866 535q0 56 25 82.5t81.5 64.5t78.5 74zM645 479l-203 -184l19 -19l184 185v18z" />
    <glyph glyph-name="y" unicode="y" horiz-adv-x="1438" 
d="M1198 1659q0 7 9.5 27t9.5 28q68 0 131 -37t90 -92q-59 -146 -139 -271.5t-175 -207.5h-110q-47 -100 -88.5 -170l-149 -250.5t-158.5 -279.5t-83 -203q-61 0 -107.5 -4.5t-94.5 -12l-90.5 -14t-76.5 -6.5q-55 0 -91.5 15t-74.5 77q122 0 217.5 46t163 113t146 173
l81.5 110l-442 848q42 0 78.5 -14.5t67 -35t65.5 -40.5t65 -20q21 0 93 37q42 -35 61 -84t28.5 -122.5t19 -115.5t38.5 -84q55 49 99.5 113t78 131.5l74.5 154.5t80 154q22 30 54 36t49.5 11.5t25.5 44.5zM1217 1475l92 73l-37 37zM553 1180q-23 37 -57.5 109t-34.5 130z
" />
    <glyph glyph-name="z" unicode="z" horiz-adv-x="1475" 
d="M1475 1327l-775 166q65 -57 167.5 -85t228 -38l229.5 -18t150 -25zM793 1161h479q0 -32 -19 -48.5t-46 -27t-27 -16.5q0 -20 37 -55q-177 0 -318.5 -111.5t-232.5 -254.5t-187 -335q100 14 243 39.5l220.5 38.5t178.5 23t225 10q-112 -111 -295 -111q-36 0 -139 9.5
t-138 9.5q-64 0 -112.5 -12.5t-108.5 -43.5q74 -21 146.5 -37.5t139.5 -26t138 -9.5q101 0 205.5 20.5t218.5 52.5q-42 -42 -79.5 -57.5t-108.5 -29t-107 -23.5l166 -55l-461 -19l37 -37q-172 0 -303 -3t-271.5 -15.5t-236.5 -36.5q0 31 21.5 46.5t60 26.5t59 21t25.5 35
q-24 15 -44.5 19t-71 8t-69.5 10q0 11 -9 30.5t-9 24.5h37q49 105 119.5 184t195 189.5t191 179.5t121.5 166q-59 7 -157 8t-182 2t-122 8q10 10 38.5 32t41 37.5t12.5 41.5q0 9 -16.5 37.5t-20.5 36.5q-27 19 -82 33t-78.5 30.5t-23.5 65.5q98 -74 184 -74q47 0 102 18.5
l110 37t101 18.5q62 0 116 -23.5t106 -87.5z" />
    <glyph glyph-name="one" unicode="1" horiz-adv-x="958" 
d="M829 1898q-12 -73 -22.5 -196l-19 -215.5t-19 -173.5t-31.5 -170q38 31 51 84.5l26.5 108t51.5 83.5q0 -175 1 -236t4 -82t14 -32q-65 -85 -112.5 -198t-79 -234.5t-53.5 -237.5l-50 -270h55q0 -21 -24 -40t-31 -34q-21 0 -39 24t-35 32l-55 -111q0 76 -23.5 100
t-87.5 38t-92 28q12 37 24.5 122.5t29.5 130.5t57 60l18 -239q6 36 26 63.5t54.5 62t51 59.5t16.5 54q0 18 -37 92q8 97 22.5 249l28.5 294t22 250l-110 -129q-28 55 -92 55q-23 0 -52.5 -13.5t-75 -41.5t-83.5 -48t-66 -26l-18 -18q0 71 39.5 123.5t80.5 79.5t135 80
t132 85q98 148 176 235.5t192 151.5z" />
    <glyph glyph-name="two" unicode="2" horiz-adv-x="1309" 
d="M1106 1438q-82 -131 -181.5 -263l-232 -294.5l-237.5 -296.5t-197 -271l940 -18l111 -111q-38 0 -83.5 14l-91 28t-83.5 14q-55 0 -111 -56q23 -23 60 -32t95.5 -13t84.5 -10q-106 -33 -221.5 -50t-228 -24.5l-269.5 -17.5q-96 0 -160 1t-131.5 5t-132.5 12
q0 41 16.5 57.5t48 28t45.5 25.5q-50 26 -61.5 70.5t-11.5 132.5l682 718q0 117 -4 162t-23.5 66.5t-64.5 30.5q-112 0 -205.5 -41t-166.5 -103t-181 -170q0 -60 -3.5 -94.5t-15.5 -34.5h-92q27 106 87.5 193.5t142 165.5t189.5 169.5t152 135.5q110 25 235 31t300 6v-166z
M866 1438q-55 55 -110 55q-43 0 -72 -13.5t-57 -41.5h239zM995 1438l19 73h-74zM811 240q-61 -12 -129.5 -15.5t-165.5 -3.5q44 0 142 9.5t153 9.5z" />
    <glyph glyph-name="three" unicode="3" horiz-adv-x="1475" 
d="M1235 1346h-37q51 -51 71.5 -80.5t20.5 -67.5q0 -46 -22.5 -94t-74 -143t-79 -177t-27.5 -176q-22 -44 -78 -94l-112 -101t-89.5 -113.5t-33.5 -152.5q-79 -15 -152.5 -43.5l-155 -59t-153.5 -44.5q13 49 45.5 89.5t102.5 113.5h295q18 18 18 92q-110 0 -170.5 -7.5
t-186.5 -27.5t-177 -20q-172 0 -240 92q40 0 64.5 -10t55.5 -28t46 -18q35 0 74 37q-14 19 -47 55.5t-52.5 64.5t-34 73.5t-14.5 101.5q29 0 47.5 -13.5t42.5 -41.5t47.5 -41.5t65.5 -13.5l221 55q0 -6 -10 -14.5l-19.5 -16.5t-17.5 -19.5t-8 -23.5q0 -10 17.5 -18.5
l37.5 -18.5q186 53 318.5 185.5t216.5 330.5q-13 27 -55 32t-203 5q0 -25 -19.5 -30.5t-63 -5.5t-73 -6t-47.5 -31q0 71 35.5 127.5t84.5 98t131 102.5t117 96q-58 42 -149.5 62.5t-183 25t-219.5 4.5q-39 -7 -51 -27.5t-26 -69.5t-34 -69l-74 74q-15 -24 -19 -49t-8 -93
t-10 -98h-18q-37 72 -37 111q0 55 23 119.5l46 129t23 119.5q23 0 48 26t44 48v92q52 -52 120.5 -72t156.5 -20q56 0 88 3t132.5 14t146 15.5t94.5 4.5q221 0 221 -166q0 -111 -37 -184zM1198 1143v74q-74 0 -116.5 -9t-67.5 -47zM940 1087l184 -55v19l-184 55v-19zM940 553
l111 166q-7 0 -18.5 -40.5t-32 -75.5t-60.5 -50zM535 369l184 37h-129z" />
    <glyph glyph-name="four" unicode="4" horiz-adv-x="1659" 
d="M1290 2378q-148 -102 -300 -249.5t-286.5 -302l-316.5 -377l-221 -269.5q107 -37 166 -37q35 0 85 10.5t81 26.5q-9 13 -38 52t-41.5 58t-12.5 37q0 20 12 44.5l24 47.5l195 219t211 209.5t218 167t224 105.5q8 -18 27 -72t40.5 -85t61.5 -46q6 26 11 113.5t12.5 135.5
t32.5 64q0 -93 9 -396t9 -507q37 -18 166 -18q0 -41 -25 -57.5t-73 -28.5t-68 -25l129 -111q-62 -12 -77 -52t-15 -113q0 -97 -6 -162.5t-31 -114.5h-55q0 235 -3 302.5t-16 103.5l-129 -56q-37 -150 -37 -202q0 -65 9.5 -143l18.5 -156.5t9 -143.5q0 -109 -22.5 -190
t-87.5 -160l-111 55l-18 940l-480 19q-72 48 -185.5 60.5t-274.5 12.5q-25 0 -40.5 11.5t-15.5 25.5q0 19 28 65t28 64q150 108 308 306l278.5 352.5t262.5 279t330 187.5zM1290 2028v-369h19v369h-19zM1419 1382v480l-73 -480h73zM774 1677l166 129q0 -43 -17.5 -56
t-55 -15t-59 -11.5t-34.5 -46.5zM756 1327l276 55v295zM1124 1659v-221h37v221h-37zM756 1622l-185 -184l19 -19l184 185zM627 1382l-111 -129l19 -18l110 129zM774 1180l-184 -37q14 14 67.5 25.5t116.5 11.5zM1309 1143l110 -19v19l-92 37zM1180 111q0 34 6.5 74l14 83.5
t12 87.5t4.5 105l-93 -111q7 -28 11.5 -117t25.5 -122h19z" />
    <glyph glyph-name="five" unicode="5" horiz-adv-x="2064" 
d="M719 2157q0 -49 -12 -77t-46 -99t-34 -101q0 -32 5.5 -45.5t31.5 -28.5q276 0 569.5 -9t351.5 -9q152 0 267.5 4t211.5 14q-49 0 -94 -17.5t-123 -54t-141 -56t-139 -19.5q-70 -104 -158 -181t-174 -77q-20 0 -92 37q-55 55 -92 55q-34 0 -64.5 -5.5t-68.5 -16.5
l-60.5 -17.5t-64.5 -15.5q-24 -24 -26 -68t-4.5 -92.5t-25.5 -79.5q55 -55 148 -55q36 0 117 18.5t122 18.5q98 0 148 -74l645 18q-116 -293 -328.5 -500t-495 -322.5t-614.5 -154.5q-85 15 -174 85t-102 137q53 -105 109 -145t130 -40q46 0 88 9t127.5 33t149 37t115.5 13
l36 19q-54 55 -110 55q-34 0 -55 -5l-87 -21t-110.5 -22.5t-97.5 -6.5q0 43 -16 59t-48 27t-48.5 30t-16.5 68v92q100 -41 216.5 -66.5t225.5 -25.5q136 0 250.5 35.5t191.5 112.5l129 258q-45 45 -102 73.5t-118.5 42t-129.5 13.5q-69 0 -134.5 -10.5t-126 -26t-123 -34.5
l-132.5 -40l-37 -129q0 68 -15.5 92.5t-65.5 30.5t-195 6q-15 61 -18 205t-9.5 233t-46.5 178t-129 140q62 15 133 27t143 25.5t133.5 34t143.5 60.5l74 351h92zM903 1733q-36 -17 -66.5 -20.5t-87 -6.5t-85.5 -10q38 25 92.5 31t146.5 6zM516 1677q-57 0 -99.5 -6.5
t-133 -24.5t-136.5 -24l148 -627h147l37 480h-92q-9 17 -23 40.5t-14 32.5q0 17 31.5 30.5t61.5 23.5t51.5 26.5t21.5 48.5zM1567 664l82.5 111.5t76 112t58 117t22.5 119.5l-331 -55q45 -17 64.5 -55t23.5 -108.5t4 -241.5zM1475 811l-74 -184l37 -19l73 185z" />
    <glyph glyph-name="six" unicode="6" horiz-adv-x="1364" 
d="M1124 1788q0 -139 -5.5 -234t-29.5 -191.5t-75 -164.5l22 115.5t15.5 83t11.5 83t6 105.5q0 79 -6 138t-31 120q-111 111 -258 111q-79 0 -150 -23.5t-145 -68.5q-75 -66 -149 -155t-129 -181.5t-72 -161.5l645 516q129 -52 129 -221h-55q0 64 -9.5 105.5t-45.5 41.5
q-74 0 -93 -18q6 -46 31 -82.5t88 -109t92 -118.5t29 -96q0 -36 -6 -60.5t-31 -49.5l-110 37h36q0 85 -49.5 141t-115.5 98q-179 -76 -275 -260.5t-113 -402.5l19 -37l111 110v-18q52 52 117.5 72t158.5 20q66 0 136.5 -10.5t158.5 -29t134.5 -26.5t86.5 -8q74 -24 74 -92
q0 -40 -18.5 -130.5t-18.5 -127.5q-114 -157 -234.5 -274t-280.5 -188.5t-370 -71.5q-167 168 -231 376t-64 472q0 94 9.5 196.5t27.5 245.5q50 148 130 272t199.5 217t278.5 138q169 0 274 -56t150 -147zM92 1143v-148h19v148h-19zM1235 811q-51 70 -89 102.5t-114 44.5
v-479q57 25 86 74t61 135.5t56 122.5zM940 885l-55 55h-56zM940 737q-40 55 -103 83t-137 28q-66 0 -130.5 -29.5t-109.5 -85t-54 -125.5l18 -18q222 0 324 10t142.5 40.5t49.5 96.5zM479 184q14 -26 35 -31.5t57 -5.5q63 0 139.5 43.5t137.5 104.5q-14 0 -160.5 -9.5
t-281.5 -9.5l18 -36h-129q17 -36 39 -56.5t55 -28.5t90 -8v37z" />
    <glyph glyph-name="seven" unicode="7" horiz-adv-x="1585" 
d="M1143 2378q253 0 328.5 -5t113.5 -32q-48 -113 -101.5 -220t-101.5 -167q-51 -126 -167.5 -285.5l-229.5 -311.5t-180.5 -297t-67.5 -304q-31 0 -47.5 16t-35.5 51t-27 43q-40 -34 -58 -112t-30.5 -144t-44.5 -107.5t-107 -41.5l-276 -461l-37 37q70 109 119 228
t113 319.5t90.5 277t82.5 189.5q87 93 153 198.5t157 284t131.5 252t111.5 168.5q-181 0 -318.5 -6.5t-227 -17.5t-173.5 -32q8 -16 19 -20t29.5 -6.5t25.5 -9.5q-15 -20 -48.5 -50t-52 -50t-32.5 -54.5t-14 -85.5q-61 0 -89.5 -27.5t-46 -77t-36.5 -74t-68 -24.5
q27 106 102.5 309t115.5 349t40 301q113 37 184 37q70 0 159.5 -18.5l179 -37t159.5 -18.5q69 0 109 5.5t94 31.5zM387 2249v37h-55v-74q37 37 55 37zM479 2249l74 37h-74v-37zM1161 1898l314 388q-29 -14 -82 -26t-83 -33t-38 -70l18 -19q-27 -55 -110 -55q37 -19 37 -55
q0 -33 -28 -79t-28 -51zM1051 2157q30 0 61 15t31 40l-166 -55h74zM1032 1585l-74 -110l19 -19l74 111z" />
    <glyph glyph-name="eight" unicode="8" horiz-adv-x="1530" 
d="M1401 1567q5 -15 18 -48.5t19 -50.5t12 -41t6 -45q0 -15 -4.5 -29t-12.5 -27.5l-20 -35.5l-239 -239l98.5 -79t97.5 -92t71 -110.5t28 -142.5q-89 -48 -224 -193.5t-224.5 -217t-233.5 -87.5q-110 -55 -258 -55q-122 0 -243 44.5t-274 121.5q0 68 27.5 122.5t86 130.5
t83.5 117.5t25 89.5q0 45 -93 166q9 167 78 298t182.5 231t274.5 190q69 42 173.5 67t213.5 25q102 0 190.5 -28.5t141.5 -81.5zM829 1511l277 56h-184zM1364 1456q-20 43 -49.5 77t-79.5 34l37 -111q-36 -97 -101.5 -181t-134.5 -143t-114 -81h73q31 27 115 80.5t132.5 92
t85 97.5t36.5 135zM1106 1401q-19 18 -92 18q26 -12 31.5 -24.5t5.5 -30.5q0 -17 -18.5 -40.5l-37 -47.5t-18.5 -41q11 16 50 38t59 47t20 81zM461 1346l-111 -129l37 -19l111 129zM922 1346h-111q-20 -13 -105.5 -47.5t-133.5 -76.5t-56 -116q7 3 127.5 37.5t182.5 76.5
t96 126zM442 940q-7 14 -49.5 52.5t-42.5 58.5q-8 -15 -35 -42t-42 -50t-15 -56q67 0 125.5 12t58.5 25zM553 866l-111 -73l19 -19l110 74zM1290 811q-37 37 -129 37q-62 0 -113.5 -30t-154 -103t-178 -108.5t-162.5 -35.5l-53.5 -34.5t-54 -39.5t-41 -48.5t-17.5 -61.5
q0 -13 12 -36.5t25 -37.5q162 9 334 76t312.5 179t219.5 243zM1346 627l73 18v92zM258 516l-37 -92l37 -18l18 110h-18zM1180 424q-128 -103 -273 -155t-336 -85l128.5 58l145.5 64.5t173 68t162 49.5zM203 203q-18 14 -46 49t-28 80z" />
    <glyph glyph-name="nine" unicode="9" horiz-adv-x="1124" 
d="M1124 1456q-96 -386 -214.5 -702.5t-282.5 -569.5q-50 0 -68.5 -21t-27.5 -64.5t-21 -67.5t-49 -31q0 106 -5.5 138.5t-31.5 45.5l258 682q-70 0 -127.5 20t-146 66.5t-141 70t-120.5 28.5l-17.5 50.5t-14.5 46t-4 32.5q0 82 47 153t115.5 125t170 117.5t127.5 83.5
q104 0 183.5 -22t136 -52t126 -72t107.5 -57zM461 1456q-65 -48 -124 -106t-97 -133q0 38 37 95.5t89 100.5t95 43zM866 1364q-12 36 -34 55t-39 19q-32 0 -85.5 -18.5t-80.5 -18.5q-88 -37 -127 -125.5t-39 -188.5q70 0 126.5 25t101.5 64.5t101 103.5t76 84zM977 1290
q0 -40 -30 -61.5t-100.5 -58.5t-90.5 -64q63 105 221 184zM811 922l-74 -240h19l73 240h-18z" />
    <glyph glyph-name="zero" unicode="0" horiz-adv-x="1161" 
d="M1051 1382q18 -92 27 -151t9 -125q0 -160 -50 -313t-142 -293.5t-213 -259.5q-56 -12 -90.5 -36t-81.5 -67t-83.5 -62.5t-94.5 -19.5q-276 0 -314 74q0 214 57 419.5t158 395.5t231.5 358t272.5 302q57 0 105.5 -20.5t81.5 -50.5t63.5 -68.5zM995 1327q-35 0 -54 18
t-47.5 61t-57 65t-80.5 22q102 0 148 -36.5t91 -129.5zM645 645q26 50 80.5 138l83 136.5t52.5 110t24 113.5q0 60 -23 103t-88 81q0 -24 -17 -32.5t-56 -12.5t-56 -10q-21 -50 -91 -190t-115.5 -241.5t-76 -214.5t-30.5 -220q86 0 141 30.5t86 72t86 136.5zM774 590
l63 110.5t55.5 104t45.5 123t20 141.5l-221 -461q37 0 37 -18zM221 295v55l-55 129zM258 111q-57 0 -88.5 8.5t-48 30t-23 58t-6.5 105.5zM369 129q26 27 74.5 53t71.5 46t38 67q-36 -7 -86.5 -23t-96.5 -24t-112 -8z" />
    <glyph glyph-name="hyphen" unicode="-" horiz-adv-x="1032" 
d="M866 737l56 -73q-121 0 -206.5 -7t-205.5 -21t-205.5 -21t-175.5 -7q0 39 -10.5 50t-36 13t-45 10t-37.5 38q0 44 15.5 72.5t40.5 42.5t55 14q43 0 85 -7.5t97 -18.5t108 -20t78 -9q170 55 553 55z" />
    <glyph glyph-name="equal" unicode="=" horiz-adv-x="1456" 
d="M1235 1327l-74 -110l111 -93q-209 -92 -424 -92q-71 0 -166.5 4.5l-211 9.5t-230.5 5q-5 36 -34.5 64.5t-82.5 67.5t-79 70.5t-26 73.5q84 0 211.5 10.5t228 20.5t184 17t187.5 7q214 0 406 -55zM1180 1327q-24 -15 -49 -19t-93 -8t-98 -10q36 17 66.5 20.5t87 6.5
t86.5 10zM866 1198q-313 0 -407 -5t-146 -32q115 -37 148 -37q66 0 119.5 10.5t143.5 33.5t142 30zM848 1087h147v19h-147v-19zM1382 793q7 -7 19.5 -22.5t25.5 -24.5t29 -9q-130 -58 -282.5 -82t-347 -33l-383 -18t-314.5 -33q-14 30 -16 61.5t-4.5 62.5t-16.5 61
q44 6 158 10t190.5 13t130.5 32q-63 32 -140 48t-190 33.5t-149 29.5q140 0 263 -16t305.5 -47.5t346.5 -48.5t375 -17z" />
    <glyph glyph-name="bracketleft" unicode="[" horiz-adv-x="1327" 
d="M977 1972q-57 7 -124 19.5l-141.5 26.5t-125.5 21t-107 7q-111 0 -174 -28.5t-102 -119.5q0 -92 55 -147q51 59 127 92.5t161.5 44t190.5 10.5h590q-37 -88 -89.5 -117.5t-131.5 -29.5q-166 0 -240 -37l-424 -37v-1401q231 0 373.5 9t290.5 47l111 -56
q-45 -83 -131.5 -134t-190.5 -72.5t-211.5 -27t-259.5 -5.5q-29 37 -120 93t-124 81t-33 65q0 55 56 111l-56 1641q123 73 314 73q89 0 261.5 -36.5t254.5 -36.5v-56zM313 1677v-129h19v129h-19zM295 295l-37 1124q0 -114 -4.5 -255l-9 -282t-4.5 -255q0 -167 55 -332z
M1143 240q-37 -12 -90 -15.5t-131 -3.5q0 -32 5 -48.5t31 -43.5q16 10 64 31.5t77 38.5t44 41zM442 92l332 19l-221 18z" />
    <glyph glyph-name="bracketright" unicode="]" 
d="M977 2175q35 -164 60.5 -353t37.5 -374t12 -361q0 -110 -1 -185.5t-5 -151.5t-12 -142q-50 -50 -73 -88.5t-66.5 -120t-79.5 -129t-94 -86.5q-24 25 -49 31t-62 6q-152 -37 -239 -37q-50 0 -83 27t-47 102q-129 0 -165 19l129 110l-56 56q115 37 148 37q67 0 124 -11.5
t139.5 -33.5t123.5 -29q0 210 -15 332.5t-46 331.5t-31 313q0 148 55 313q-19 0 -69 50t-92 111.5t-42 96.5q0 16 2.5 23.5t8.5 19t19 30.5l26 38q-44 38 -101 52t-116 17t-137 10.5t-126 30.5v74q32 -15 64 -19t113 -8t118 -10q-13 65 -91 106.5t-167 41.5h-92
q31 50 113 75t211 33.5l240.5 15.5t191.5 23q78 0 120 -39t56.5 -91.5t27 -144.5t17.5 -112zM829 2415v92l-110 -19q15 -44 37 -58.5t73 -14.5zM608 2064l148 56h-92zM719 1843v111h-55zM903 553q62 71 94 147t43 156t11 176q0 113 -12 203.5t-43.5 304t-37.5 303.5
q-17 -142 -22 -303.5t-5 -412.5t-5 -410.5t-23 -292.5h37v129h-37zM793 1401q0 143 5 195.5t31 172.5zM829 756q-15 47 -16.5 124t-3 140t-16.5 86q26 -26 31 -80t5 -270zM590 313q-55 0 -101.5 6.5t-82 17t-93.5 32.5q48 0 86 -6t59.5 -11.5t67.5 -19.5t64 -19z" />
    <glyph glyph-name="backslash" unicode="\" horiz-adv-x="958" 
d="M166 1825l18 110q61 -165 169 -413l202 -460t175.5 -416.5t135.5 -387.5l-147 277q-55 -55 -55 -129q0 -61 34 -120t95 -139q15 -7 59.5 -55t62 -65.5t43.5 -26.5l-129 55q-133 200 -248.5 429t-211.5 463t-151 386l-218 621q14 -30 42.5 -46l65.5 -35.5t58 -47.5z
M424 1198q-109 135 -167 289t-73 338z" />
    <glyph glyph-name="slash" unicode="/" horiz-adv-x="1161" 
d="M977 1733l110 36q-43 -93 -83 -196t-68 -191.5t-49 -168.5t-58 -236q-90 -110 -144 -220t-98 -246l-86 -268.5t-95 -242.5h-93q112 207 188.5 396t88.5 341q-100 -121 -172 -224.5t-126.5 -222t-70.5 -235.5h-92l-18 203h-111q63 195 146 368t181.5 338.5t189.5 301
l257 374.5q82 7 129.5 53t96 147t75.5 145.5t86 78.5q-17 -35 -73 -103t-83.5 -115t-27.5 -113zM903 1456q0 30 9.5 54.5t27 57t27.5 61.5t10 67q0 -97 -12 -156t-62 -84zM885 1382h-92l-240 -571q7 76 46 137.5t120 155t121 153t45 125.5zM295 535q28 116 61 224.5
t92 221.5t142 180zM111 313q0 84 26 155t61 133l78 136q0 -73 -22.5 -123.5t-75.5 -147t-67 -153.5z" />
    <glyph glyph-name="period" unicode="." horiz-adv-x="719" 
d="M553 295q-37 -24 -46 -58t-9 -90q0 -28 5 -51.5t20 -73.5t22.5 -77.5t7.5 -55.5q0 -43 -28 -81t-83 -66q-80 0 -113.5 19t-112.5 73.5t-124 54.5q-23 15 -32 60t-13 124t-10 111q75 23 152 25.5l144 4.5t128 26v55q-76 37 -111 37q-32 0 -58.5 -8.5t-94.5 -33.5t-105 -32
q-11 11 -14.5 33t-3.5 59q75 0 115.5 6t113.5 18.5t103 12.5q55 0 89 -15.5t58 -76.5zM276 0h19l37 111z" />
    <glyph glyph-name="comma" unicode="," horiz-adv-x="608" 
d="M479 369q7 -14 14.5 -36t17.5 -36t24 -21l73 56q0 -155 -29 -254t-81.5 -164t-131 -126.5l-200.5 -156.5q0 80 23.5 115t88.5 109.5t72 126.5q-25 18 -56 96.5t-66.5 120t-116.5 41.5q-37 35 -37 55q0 25 21 39.5t66.5 36t59.5 35.5q15 -41 31 -57.5t43 -16.5
q28 0 90.5 18.5t93.5 18.5z" />
    <glyph glyph-name="A" unicode="A" horiz-adv-x="2918" 
d="M2304 1567l399 -62v-153q-31 -15 -95.5 -38.5t-119.5 -23.5q0 -60 23.5 -115t69 -121.5t69 -108.5t23.5 -85q0 -153 29.5 -302.5t85 -278t130.5 -218.5q-61 0 -98.5 34t-88.5 108t-95.5 115.5t-116.5 50.5q-135 147 -312.5 251.5t-301 151l-431.5 155t-460 179.5
q-70 -50 -95 -133t-44.5 -235t-52.5 -240t-115 -129q0 132 -23 235t-70 195q-41 -62 -62.5 -131.5t-29.5 -120t-25.5 -177t-35.5 -186.5q-41 61 -51.5 111.5t-10.5 134.5q0 82 29.5 169t75.5 179l99.5 202t72.5 187l-676 93l707 122l768 2335q115 -249 225 -518.5
t197.5 -504.5l202 -555zM1106 2365q21 103 73 192t155 239.5t152.5 254t49.5 205.5q0 42 -19.5 106t-41.5 109zM1874 1567q-19 107 -42 272t-41 260.5t-57 207.5t-106 212q-96 -85 -159 -204t-117.5 -291.5l-97.5 -312.5t-87 -236zM1198 2089l-215 -399l31 -31l215 399z
M1874 1290h-461h461zM1935 1167l-553 -92q-61 31 -215 31q77 -23 239 -67t260.5 -75.5t211 -80.5t211.5 -115zM2580 553q-92 59 -139 93t-92 97.5t-45 147.5v-215q121 -123 276 -123z" />
    <glyph glyph-name="B" unicode="B" horiz-adv-x="2734" 
d="M2642 1966q0 -95 -31.5 -140.5t-97 -100t-86.5 -97.5q20 -19 25.5 -55.5t5.5 -97.5l-123 -62q21 -70 93 -148l131 -137.5t101.5 -131.5t42.5 -167l-487 -232.5l-471 -204.5l-457.5 -183.5l-550.5 -208.5q-50 0 -62.5 17.5t-20.5 57t-33 59.5t-99 20v1628
q-13 6 -48.5 26.5t-55.5 27.5t-49 7q-42 0 -79.5 -18t-101 -56t-96.5 -49q-14 0 -45 15.5t-47 15.5l522 369v92q21 -21 34 -32.5t28 -20.5t30 -9q37 0 103 32t102 46.5t103 14.5q112 0 214.5 6.5t281 23.5t272 24t184.5 7q150 0 284 -28.5t259 -104.5t225 -205zM2212 1843
q-71 19 -258.5 90l-260.5 97t-213 58t-282 32q212 0 377 -17.5t278.5 -51t201.5 -85.5t157 -123zM2396 2028v30l-184 92zM1905 1782q-118 74 -243 114t-254.5 55t-301.5 15q-56 0 -83 -53.5t-33.5 -123t-6.5 -161.5q140 0 244 20t227.5 57.5t218 57t232.5 19.5zM2335 1751
h92l92 215zM1137 1444h368v31h-368v-31zM1137 1260h-215v-93q60 0 121.5 30.5t93.5 62.5zM2212 1137q-192 0 -615 61q-206 0 -356 -38t-258 -146l369 30q0 -38 -16 -66t-46 -56q-172 0 -252 -83.5t-98 -205.5t-18 -326q205 69 374 151.5t313 180t287.5 218t315.5 280.5z
M2304 737l276 123l-122 246q0 -148 -33 -236.5t-121 -132.5zM2304 952l-369 -276h31l369 246z" />
    <glyph glyph-name="C" unicode="C" horiz-adv-x="3226" 
d="M2888 2765l-185 -62q0 -53 46.5 -118.5l92.5 -131t46 -118.5q0 -47 -92 -92q-24 24 -67 95t-72 109t-85.5 70.5t-144.5 32.5q52 -65 64 -104.5t32.5 -147t56.5 -178.5q-61 0 -90.5 44.5t-60.5 136.5t-63 139.5t-93 47.5q-92 0 -153 -61l-203 -177.5t-238.5 -247.5
t-167.5 -290.5t-67 -359.5q112 -67 248.5 -95t304.5 -28l184 307q0 -144 -66.5 -226.5t-198 -167.5t-194.5 -153.5t-63 -189.5q67 -45 156.5 -68.5t181.5 -23.5q83 12 230.5 52t209.5 55t143 15q19 37 65.5 103t76 114t52 117.5t22.5 157.5q120 61 153 61q53 0 78 -37.5
t52.5 -119.5t56.5 -131t90 -80q-177 -122 -346 -222t-352 -181t-381 -131t-396 -50q-104 0 -173 45.5t-149 141.5t-130 144t-132 68q0 -209 88.5 -325.5t249.5 -196.5h584q-66 -66 -134.5 -94.5t-142.5 -28.5q-59 0 -120.5 18t-165 56.5t-178 59t-150.5 20.5
q-61 166 -110 363.5t-77 404t-28 399.5q0 226 52.5 436t162.5 363q71 62 160.5 172.5l184.5 226t196 201t227 137.5q124 0 237.5 -24t215 -60t212 -83zM61 2765l-61 153h61v-153zM2396 2888q-207 0 -375.5 -61.5t-299 -162.5t-222.5 -211.5t-178 -240.5q138 205 210 299
t187.5 184.5t280.5 141.5t397 51zM1505 2089q98 24 182 125.5l163.5 190.5t207.5 114zM1198 1290v-307h62v307h-62zM1690 1137q-27 26 -53.5 32t-81.5 11.5t-80 17.5v-92zM3103 1106q0 -75 -26.5 -107.5t-67.5 -43.5l-86 -22.5t-66 -41.5l123.5 128.5t122.5 86.5z" />
    <glyph glyph-name="D" unicode="D" horiz-adv-x="2550" 
d="M2181 2089q109 -93 168.5 -215t84 -304t24.5 -464q-151 -195 -302.5 -342.5t-289.5 -252t-295 -207.5l-373 -243q28 0 110 55t219.5 156t223.5 158q-204 0 -370.5 -26t-314.5 -66l-280.5 -76.5t-232.5 -46.5l92 -92l-184 -123q-16 24 -37 88t-39.5 98t-66 62t-134.5 28
q0 39 15.5 73.5l31 69t15.5 73.5q0 136 -15.5 329l-31 385.5t-15.5 329.5q0 130 14.5 249t45 221t84.5 200.5t133 189.5q169 149 374 197.5t517 48.5q116 -10 226 -71.5t230.5 -168.5l210 -186.5t162.5 -126.5zM1290 2396q-148 0 -236.5 20t-125.5 60.5t-37 103.5l-119 -103
t-90 -115.5t-37 -180.5l92 123q121 0 186.5 14t185 46t181.5 32zM1382 2519l400 -184l30 61l-399 184zM1690 2120l-492 61q215 0 302.5 -3t131 -15t58.5 -43zM1997 1597q-21 138 -105.5 215t-196.5 106.5t-287 47.5t-241 31l-101.5 -40t-65 -34.5t-35.5 -51t-13 -89.5
q-42 43 -103.5 67.5t-111.5 24.5q-10 -50 -15 -153t-12.5 -154.5t-33.5 -91.5q0 -40 -7.5 -92t-25 -157t-23.5 -148t-6 -95q0 -103 39 -159t146 -56l-31 -61q124 71 401.5 152t433.5 144.5t275 205.5t119 388zM276 1874l-30 -492h30l31 461zM2458 1290q0 108 -4 179.5
t-20 135t-56 119.5t-105 88q0 -103 46.5 -181.5l92.5 -157.5t46 -183zM2273 1475l-61 -461h61l31 461h-31z" />
    <glyph glyph-name="E" unicode="E" horiz-adv-x="2918" 
d="M1106 3594q-52 -20 -90.5 -70.5t-74.5 -131l-70.5 -157.5t-71.5 -132l92 -215l463 71.5l478 72l423.5 65l417.5 67.5q-20 -41 -64 -51t-126.5 -14t-125 -19.5t-53.5 -68.5q-84 -23 -272.5 -64t-289 -66t-224.5 -70t-228 -108q124 0 267.5 18.5t282.5 46.5l326.5 66
t291.5 54l-402.5 -130t-282 -80.5t-355 -82t-343.5 -45.5q-75 -43 -120.5 -107t-69 -133t-49.5 -187.5t-37 -156.5q123 0 215 6.5t278.5 23.5t287.5 24.5t202 7.5q316 0 522 -123q-64 -39 -123.5 -51.5t-193.5 -30.5t-205 -41q-103 -84 -302.5 -119.5l-413.5 -74t-333 -144
t-119 -338.5q100 0 207.5 20.5t248 57t239.5 56.5t196 20q184 0 369 -93l-184 -153q22 -24 70 -42.5t67.5 -29t46.5 -51.5q120 12 337 79t361 101.5t346 34.5q-252 -120 -501 -200.5t-555.5 -152l-583.5 -134t-510 -127.5q0 80 -35 132t-119 52q-41 0 -83 -47.5t-100 -136.5
t-100.5 -137t-84.5 -48q-21 0 -42.5 34.5t-80.5 150.5q0 69 -5.5 117t-25.5 67h-92v123q104 0 145.5 60.5t65.5 191t50.5 206t107.5 125.5q-24 16 -99 47t-111 65t-36 103q125 0 214 33.5t155 120.5q0 77 30.5 177l61 199.5t30.5 176.5q0 64 -61 184h-154q112 101 173 235
t121 342t118.5 343t171.5 248zM1505 1905h154l61 61zM1198 1874h184v31h-184v-31zM1659 952q-45 -35 -99.5 -53t-147 -26.5t-223.5 -10.5t-421 -2q59 0 223 28t313.5 46t354.5 18zM399 645h-123v-184q25 48 62.5 104.5t60.5 79.5z" />
    <glyph glyph-name="F" unicode="F" horiz-adv-x="3195" 
d="M768 3348q-161 -74 -246 -206t-114.5 -271.5t-52.5 -371.5t-48 -349q133 0 159.5 54t50.5 200t97 207q-30 31 -30 215q113 21 175 74.5t130 145.5t131.5 136t177.5 44v30h92l31 -338q152 0 287 -16.5t308.5 -49t253 -44.5t165.5 -12q177 0 284 20.5t207 101.5h277
l-92 -92q27 -27 55 -41t68 -27.5t61 -23.5q-82 -25 -262 -93t-304 -109.5t-275.5 -73t-295.5 -31.5q-81 -30 -187.5 -46t-242.5 -22.5t-247.5 -11t-182.5 -12.5q9 -8 35.5 -26.5t26.5 -35.5q0 -23 -49 -84.5t-77 -109t-28 -113.5q167 0 349.5 16t416 45t403 45.5t305.5 16.5
q-25 -12 -75 -17t-73 -11.5t-36 -32.5q26 -26 67 -36.5l82.5 -21t65.5 -35.5l-215 -184l92 -123q-67 -44 -156.5 -68t-181.5 -24q-63 0 -166.5 10.5t-196.5 23t-177 20t-166 7.5q-186 0 -369 -92q-39 -94 -103.5 -339.5t-108 -376t-128 -239.5t-213.5 -120q42 42 52 94
t10 121q0 92 -10 143t-52 72q-68 -78 -104 -232t-63 -281t-91.5 -221t-202.5 -126q46 299 83 977t58 951t111 681t271 739h184zM2089 2734q-136 0 -238 17.5t-230.5 46t-176.5 28.5q-113 0 -154 -123q139 0 224.5 0.5t187 3.5t200 10t187.5 17zM492 1413q0 61 16.5 157.5
t44.5 211.5q0 105 -59 175.5t-187 70.5q-32 -194 -55.5 -427.5t-38.5 -496.5t-22 -497t-7 -423q96 116 138.5 260.5t58.5 300.5t38.5 346.5t72.5 321.5zM2181 1966h184v62h-184v-62zM1782 1905l307 30h-184zM676 1843v-215h31v215h-31zM1690 1843q-85 -28 -167.5 -41
t-217 -27.5t-199.5 -23.5q278 92 584 92zM1905 1751h184v61h-184v-61z" />
    <glyph glyph-name="G" unicode="G" horiz-adv-x="2734" 
d="M2396 2826q-64 -42 -94 -129t-42 -213.5t-21 -234.5t-27 -160q128 0 206 -35.5t119.5 -107.5t57.5 -185.5t16 -285.5q-103 -125 -148 -277t-58.5 -315.5t-32.5 -368t-68 -330.5q6 -6 21.5 -26t28.5 -27.5t42 -7.5q13 27 14 67.5t2.5 89t14.5 89.5l-31 -369h-184
q0 108 -13 209.5t-37 227.5t-33 195.5t-9 166.5q-115 -91 -245 -138t-247 -47q-120 0 -249.5 23.5t-310 68.5t-305 69t-241.5 24q-68 98 -104 273l-67 338.5t-101.5 307.5t-218.5 248q56 243 191.5 470.5t320.5 418.5t395 340.5t414 245.5q202 0 356.5 -64t251 -147
t229 -218t207.5 -186zM1905 3195q-186 92 -369 92q-189 0 -375.5 -87.5t-346.5 -232.5t-292 -325q-24 -48 -90.5 -159t-109.5 -190t-75 -166.5t-32 -160.5t28.5 -141.5t94.5 -134.5q23 83 129 240t142 219t36 155q0 153 -123 276q122 133 294 244.5t361.5 189.5t380 124.5
t347.5 56.5zM2028 3011q-197 0 -359.5 -27t-310 -77t-297 -122.5t-324.5 -173.5q0 -185 62 -307q44 141 135.5 240t199 163t282.5 148t243 125q73 0 136.5 -33.5t116.5 -78.5t111.5 -89.5t96.5 -44.5q44 0 72 23t51 69q-19 39 -36.5 62t-25.5 30q-14 0 -22 -9t-17.5 -33
t-21.5 -50q-8 18 -36 53t-42 63t-14 69zM1597 2703l215 62h-215v-62zM1905 2488h-492q-54 -65 -201 -166t-218.5 -174.5t-71.5 -181.5q0 -64 61 -184q180 0 361.5 33t320.5 75.5t424 137.5l-154 92q21 41 57 51t97 10v123h-154q-39 -25 -42.5 -81.5l-7 -113t-42.5 -81.5
l-123 153q20 29 50 104t56 119t79 84zM1628 1720l799 246h-277zM1444 1659q-63 -12 -179.5 -17t-173 -11.5t-108.5 -33.5q0 -40 13.5 -76t28.5 -56.5t58 -73.5t54 -70q163 0 287 17.5t204 43.5h-31q-66 35 -109.5 95.5t-43.5 181.5zM2028 1475q-160 0 -223.5 1t-96.5 7
t-49 22l184 -184l-430 -215q-111 18 -227 59.5t-215 119t-142 190.5l-92 -93q83 -94 151 -157t147 -110.5t175 -74t203 -26.5q35 26 94.5 49.5l134 53.5t117.5 70t53 103q20 20 79.5 25.5t136.5 5.5v154z" />
    <glyph glyph-name="H" unicode="H" horiz-adv-x="2304" 
d="M2273 3256q0 -312 -20.5 -581t-59 -600t-56 -532t-17.5 -406q0 -168 12 -329t39 -326t72 -328q-85 0 -141.5 40t-85.5 86t-72.5 131t-69.5 111q48 71 70 145t22 162q0 69 -17 153.5t-45.5 199t-44.5 206t-16 179.5q-89 -89 -319 -152l-412.5 -109t-309 -126.5
t-126.5 -227.5q0 -92 9.5 -152t51.5 -124l-276 184q-19 -19 -41 -68t-34.5 -74.5t-40 -49t-69.5 -23.5q-43 23 -67.5 64.5t-24.5 89.5q0 53 23 126.5l46 146.5t23 126q0 123 -153 123q0 53 22 77.5t62 33l76.5 17t54.5 26.5q52 164 73 319t35.5 363t35.5 358t71 311l-31 31
l-399 -338q30 108 107 209t185 176.5t230 106.5l62 -338q29 0 49.5 12.5t41 36.5t32.5 33.5t30 9.5v61h92q-6 -84 -31 -315.5l-35 -318t-29.5 -275.5t-27.5 -289q111 0 235.5 11.5t254 32t258 49t235.5 61.5q14 98 21 205.5t8.5 195t1.5 213.5q0 143 -4.5 237t-25 195
t-62.5 183h123q0 -42 22 -70t66.5 -61t65.5 -54l30 553q42 0 76 -10.5t52.5 -24.5t41.5 -39zM1935 2243l93 430l-93 92v-522zM553 1567h92v553zM522 1044l31 62l31 307zM2150 246l-30 307q0 -30 -62 -154q0 -47 24.5 -89t67.5 -64z" />
    <glyph glyph-name="I" unicode="I" horiz-adv-x="707" 
d="M645 3256q0 -377 -7.5 -643t-40.5 -550t-105 -527q0 -159 -17.5 -319t-50 -355t-44 -281t-11.5 -182q0 -98 3 -159t16 -120.5t42 -119.5h-92v737l-154 -215q-46 234 -69 447t-23 413q10 176 25 342t46 452.5t53 521t30 405.5l123 245zM492 3256l-31 -215h31l61 215h-61z
M246 1905q0 128 16 263.5t45 306.5t45.5 300t16.5 236zM338 1444l31 399l-31 -276v-123zM184 1812v-184h62v184h-62z" />
    <glyph glyph-name="J" unicode="J" horiz-adv-x="3011" 
d="M2365 1905q78 126 117.5 341l67.5 378.5t94 304t213 235.5q0 -137 -34 -264.5t-90.5 -257l-109 -249t-73.5 -212.5q-8 -128 -48.5 -317.5l-78 -358t-63 -362t-25.5 -406.5q-109 -109 -217 -138t-368.5 -74.5t-390 -119.5t-192.5 -251q-82 0 -140 31.5t-107 88l-93.5 109
t-89.5 78.5q0 156 -46.5 280.5t-126.5 216t-196 168t-245 134.5q-41 41 -62.5 93.5t-39 139t-21.5 104.5q58 0 99.5 -7t72 -15t43.5 -8q127 -88 251.5 -273l231.5 -346.5t240 -262.5t322 -101q-96 95 -144 373.5t-60 524.5t-12 361q130 -99 174 -225.5t101 -372t145.5 -356
t286.5 -121.5q136 241 196.5 501t80.5 553.5l42 605t80 552.5v92h-122q0 91 49.5 133.5t150.5 82.5t150 81.5t49 132.5q0 -131 -7 -295t-25.5 -509t-24 -481t-5.5 -312zM2335 3195l-62 -184h62l30 184h-30zM2212 2703l-62 -553h62l31 553h-31zM2335 1905l-62 -215h62l30 215
h-30zM1260 369l-400 215q21 -21 66.5 -121t85 -158.5t94.5 -58.5q31 0 53.5 11.5t44 36t56.5 75.5z" />
    <glyph glyph-name="K" unicode="K" horiz-adv-x="3318" 
d="M2089 3840q-55 -100 -183.5 -279.5t-205 -303t-136 -299t-59.5 -378.5q125 102 378.5 339t436.5 387t417.5 275.5t488.5 166.5l-369 -307q26 -24 64 -43t59 -19q37 0 116 32.5t117.5 46t104.5 13.5v-123q-123 0 -223.5 -30t-181 -76.5t-171.5 -115.5l-192 -146
q12 -12 28 -37t33 -25q13 0 46.5 29.5t57 46.5t50.5 17q14 0 21.5 -7.5t17.5 -25t22 -29.5q-40 -93 -124 -159.5t-244 -154.5t-253.5 -147.5t-176.5 -152.5q31 -165 127 -290t267 -276t268 -259.5t136 -249.5l-92 -93q53 -53 144 -173.5t157 -192t160 -125.5l123 61
l-31 -123q-52 0 -125.5 38.5l-147.5 77t-126 38.5q-42 0 -71 -19t-83 -73q88 -75 135.5 -146.5t67 -133t40.5 -171t34 -164.5l92 -61q-188 94 -333.5 229t-279.5 310l-278.5 367t-276.5 323q-92 -46 -154.5 -74.5t-137.5 -55t-155.5 -41t-166.5 -14.5l-246 277
q-62 -20 -77 -56t-15 -98q0 -31 5.5 -69t12 -75t10 -58.5t3.5 -42.5q0 -113 -123 -154q-5 -36 -12.5 -120.5t-15 -127.5t-29.5 -94.5t-66 -118.5q0 142 4.5 328t11.5 445.5t11 469.5t4 416h92q62 398 92.5 651.5t30.5 546.5q-58 0 -118.5 -13t-107 -28.5t-106 -33
t-98.5 -17.5q-24 0 -67.5 25t-86.5 67l338 307q-86 0 -171 -36.5t-181 -104l-165 -117t-128 -80.5l-123 31l532.5 321t510.5 282t522.5 210.5t554.5 108.5zM1720 3625q42 42 85 109t71.5 132t28.5 97q-116 -32 -242 -80t-273 -114l-252.5 -113.5t-215.5 -91.5l60.5 -54
t31.5 -69q73 0 132 34.5t142 102.5t145.5 103.5t133.5 35.5q92 0 153 -61v-31zM768 3256l154 123h-93zM1751 2642q28 20 179.5 142.5t261.5 201.5t253 154t289 116q-147 -167 -286.5 -297t-320 -223.5t-376.5 -93.5zM1198 2365q7 33 26 108l30 115.5l35.5 135.5t31.5 133
q-9 -50 -35.5 -95.5t-67.5 -101t-61 -94t-20 -78.5q0 -14 8 -29.5t25 -43t28 -50.5zM2703 2857l-522 -307v-31l553 307zM1935 2427l-61 -154h31l92 123zM1812 1475l-307 491q-104 0 -148.5 -52t-58.5 -134.5l-32.5 -184.5t-67.5 -151q31 -74 60.5 -122t78 -91.5t122.5 -68.5
t169 -25q0 21 19 64.5t31 88t12 123.5q11 0 39 22t43 31t40 9zM1874 1874l307 -430l31 31l-307 430zM2304 1536l307 -399l31 30l-307 400zM2335 860l153 -123l31 31l-154 123z" />
    <glyph glyph-name="L" unicode="L" horiz-adv-x="2673" 
d="M860 3103q0 -284 -28 -584.5t-78 -597t-127 -608t-166 -576.5q150 14 524.5 42t525.5 38.5l397 28.5t580 45h185q-67 -16 -202 -45.5t-220 -53.5t-179.5 -69.5t-166.5 -108.5l61 -122q-135 -33 -410 -124l-402 -131.5t-301 -77t-331 -36.5q-79 0 -162.5 15.5t-205.5 45.5
q176 28 322.5 55l294.5 57l297.5 63l313.5 71q-80 28 -148.5 45t-127.5 17q-91 0 -184 -11.5t-248.5 -37.5t-233 -35t-164.5 -9q-42 43 -67 86.5t-25 67.5q0 53 23 119l46 131.5t23 118.5q0 92 -92 184l215 1720q59 0 108.5 -26t78 -69t28.5 -89q28 45 43.5 117l35 156
t56.5 131t111 57zM1044 1290q-10 -19 -15 -60t-12.5 -60.5t-33.5 -32.5q-20 0 -36 11.5t-56 49.5q0 15 22.5 29t70 35t60.5 28z" />
    <glyph glyph-name="M" unicode="M" horiz-adv-x="2980" 
d="M2642 3011q-44 -66 -68 -132.5t-24 -113.5q0 -79 23 -158.5t68.5 -193t69 -192t23.5 -163.5q0 -221 5.5 -372.5t28.5 -317.5t74 -313t138 -256q-26 -51 -54 -139.5l-65 -201t-80.5 -187t-107.5 -117.5v245q-27 0 -50 16.5t-67.5 56t-67.5 50.5q0 -19 -30.5 -24.5
t-92.5 -5.5q0 229 -6.5 445t-19.5 391.5t-38 373.5t-58 387q-95 -136 -165.5 -273.5t-161.5 -344l-149 -328t-139 -252.5v-215q-21 43 -58.5 67.5t-64.5 24.5q-42 0 -85.5 -32t-71 -76.5t-27.5 -75.5l-61 -215q-71 111 -117.5 235.5t-111.5 335.5t-122 357t-141 270
q0 -129 -21.5 -266t-65.5 -337.5t-65.5 -317.5t-31.5 -247h-123q0 148 -48.5 267.5t-136.5 162.5q0 242 7 437t25 390t47.5 379.5t74.5 391.5q0 65 -21 99.5t-62.5 68.5t-56 52t-14.5 56q-16 -75 -49 -207t-54.5 -251t-35.5 -274t-14 -343q18 -135 27 -338.5t25 -464.5
t52 -456t111 -369q-79 173 -127 354.5t-73.5 374.5t-35.5 400.5t-10 437.5q14 155 21 333t8.5 330.5t1.5 380.5q0 185 31 215q153 0 399 -246l123 154q78 -134 159 -318t186.5 -452l162.5 -405.5t137 -298.5h61q128 197 244 512.5l216.5 595.5t237 515t347.5 404
q75 0 100 -22.5t32.5 -81.5t19.5 -94.5t63 -77.5zM2427 3103q-30 -80 -115.5 -183l-156 -184t-124.5 -173.5t-65 -197.5q12 103 53.5 207.5t105.5 203.5t142.5 184t159.5 143zM1751 1475l144 303l161.5 330.5l168.5 333l202 384.5q-131 -108 -236.5 -262.5t-189 -330
t-160 -370.5l-151.5 -388h61zM1475 1260v-277h61v277h-61zM2488 707l62 -123h30l-30 153z" />
    <glyph glyph-name="N" unicode="N" horiz-adv-x="2642" 
d="M2519 3379q0 31 -61 92q-23 -107 -35.5 -224t-18 -262t-7 -327.5t-1.5 -537.5l246 1044q-19 -210 -94.5 -524.5l-154.5 -634t-130 -655t-51 -705.5l-277 31q-10 22 -12.5 45t-2.5 57.5t-3 54t-12 27.5q-39 0 -61.5 22.5t-60.5 79.5t-69.5 85t-85.5 28l-768 983
q-62 -280 -105 -513.5t-74 -456t-67 -535.5h-92l-30 307q-113 -31 -153 -122t-62.5 -265.5t-62.5 -287.5t-153 -185h-61l184 215q32 172 57.5 383.5t38 388t20 389t7.5 375.5l-276 -430q109 153 179.5 352t106 364.5t100.5 496.5t105 477h92v-123l246 92q58 -263 148 -488.5
t212.5 -428.5t273 -388t349.5 -385q0 363 4 595.5t21.5 504t55 550t104.5 593.5q61 -126 61 -246q0 -57 -12.5 -130.5t-36 -181t-33.5 -171t-10 -131.5q0 -45 7.5 -79t30 -99l23.5 -68q123 102 170 254t74 390.5t66.5 371t150.5 213.5v-277zM1106 2089q-63 22 -102.5 57.5
t-59 75t-45.5 110.5t-39 95z" />
    <glyph glyph-name="O" unicode="O" horiz-adv-x="3441" 
d="M2703 3041q123 -70 210.5 -174t189 -263t170.5 -246t168 -146q-83 11 -146.5 62.5t-150.5 164t-126.5 158.5t-99.5 76q0 -57 25.5 -127t68 -146l91.5 -157q0 -274 -14.5 -514t-62.5 -484.5t-150 -459.5t-265 -355q-63 -24 -195 -82t-233 -98.5t-214.5 -68t-217.5 -27.5
q-70 0 -158 23t-180 69q-113 123 -302 242l-418 269.5t-358 317.5t-151 400q0 354 130 625.5t317.5 462t489 431.5t415.5 354q131 -28 306.5 -89.5l311.5 -109.5t271 -78t278 -30zM1505 3133l215 93h-184zM1935 3072q-84 0 -159.5 -21.5t-177 -65t-165.5 -65.5t-143 -32
q-102 -204 -163.5 -346.5t-102.5 -304t-41 -332.5l123 460q66 133 155 248t191 199.5t225.5 150t257.5 109.5zM2028 2857h184v31h-184v-31zM1044 614q-59 196 -98.5 345t-72.5 308t-53.5 333.5t-20.5 334.5q0 153 22.5 309t70 301.5t122.5 280.5l-584 -461
q-17 -70 -48.5 -166l-64.5 -198.5t-52 -196.5t-19 -176q33 -177 104.5 -320t171.5 -258t217.5 -209.5t304.5 -226.5zM2703 1905q0 71 -3.5 225t-17 320.5t-40.5 222.5q-43 -21 -67.5 -77t-24.5 -108q0 -78 20.5 -149t70 -214t62.5 -220zM2519 2243q0 102 -49 186.5
t-122.5 133t-135.5 48.5q-50 0 -75.5 -17.5t-36.5 -69t-11 -159.5q-31 0 -50 7t-50.5 24t-47.5 24t-36 7q-62 -40 -107.5 -102t-73 -126t-64.5 -176.5t-63 -179.5q-26 13 -32.5 36t-11 73t-17.5 76q-45 -23 -71 -59t-36.5 -99t-13 -156t-2.5 -301q51 -114 111.5 -211.5
t140 -174t185.5 -122t239 -45.5q111 90 195 198t140.5 229.5t94 259.5t61.5 296q-62 126 -164 190t-266 117l-61 -307q-154 78 -154 400q23 66 80 94t135 28q9 -9 27.5 -22.5t26.5 -27t8 -42.5q76 0 121.5 -22t64 -44.5t57 -76.5t64.5 -72v185zM1198 2120l-61 -277h61
l31 246zM3041 2058v-215h62v215h-62zM2949 1782v-215h62v215h-62zM1106 1751v-123h31v123h-31zM2427 922q18 56 99 223t129 312t48 294q0 -159 -5.5 -268.5t-31 -224t-83.5 -203.5t-156 -133zM1505 952l92 -123l31 31l-92 123zM1413 737l123 -123l31 31l-123 123zM2120 430
h184v31h-184v-31z" />
    <glyph glyph-name="P" unicode="P" horiz-adv-x="2642" 
d="M2580 3441q0 -81 -17.5 -119t-55.5 -90.5t-49 -98.5q-14 -83 -56.5 -418.5t-87 -552t-137 -418.5t-242.5 -331q-65 23 -117.5 54.5t-100 73t-98.5 95l-83 84.5l338 -276q132 65 213.5 181t126.5 258t74 330l47 306q-100 -19 -271.5 -90t-343.5 -156l-891 -123
q0 -296 6.5 -502.5t33 -402t83.5 -323.5l-30 -62l-185 184v-1044q-113 58 -185.5 132t-111.5 160.5t-55 189.5t-16 225q0 82 11 224t23 262.5t19.5 226.5t7.5 208q0 131 -10 225.5t-51 174.5q-8 102 -25 246.5t-33.5 314.5t-25.5 306t-9 269q0 140 12.5 279t35.5 267.5
t58 247.5t79 220q115 30 203.5 45.5t195.5 15.5q226 0 452 -83t404.5 -187.5t449.5 -279.5t414 -248zM1843 3840q-87 23 -203.5 77l-232.5 107.5t-221.5 88t-202.5 34.5q-230 0 -369 -184q515 0 804 -27.5t425 -95.5zM1382 3441q-50 41 -107 60t-146 38t-148 42.5t-121 74.5
v-123q69 0 142 -13t132.5 -29.5t130.5 -33t117 -16.5zM1352 3656l215 -31l30 31l-245 30v-30zM1935 3533q-31 15 -82.5 49t-70.5 74zM2273 3256q-7 23 -30 63.5t-62 59.5zM2150 2980q-129 33 -325.5 92l-381 115t-360.5 98t-346 63q110 -43 162.5 -107t52.5 -138
q0 -31 -7 -63t-25 -101.5t-23.5 -102.5t-5.5 -71q0 -69 10 -121t51 -94q182 0 345.5 21t317.5 70t290 134t245 205zM1659 3318l369 -154v31l-369 153v-30zM1843 2519q-93 -45 -190.5 -68.5t-208.5 -23.5q59 0 105 11.5t102 33.5t100.5 34.5t91.5 12.5zM553 1106l61 31
l-122 583zM1260 1720q-89 -89 -137 -215.5t-48 -244.5q0 -169 92 -308l31 31l92 -92l-30 -31q-96 28 -144 197.5t-60 331t-12 239.5q0 41 28 54.5t95.5 21.5t92.5 16zM614 645q-10 31 -15.5 96.5t-12.5 103t-33 77.5q-42 -69 -62.5 -160.5t-25 -179t-4.5 -213.5
q0 82 7.5 132t41 90t104.5 54z" />
    <glyph glyph-name="Q" unicode="Q" horiz-adv-x="3594" 
d="M1812 3471q0 -47 -12 -95t-35.5 -110t-34 -104t-10.5 -90l389 -262.5t308 -238.5t270 -276t201 -329q48 -71 70 -145t22 -162q0 -103 -35 -206.5t-107 -259.5t-103.5 -244.5t-31.5 -180.5q0 -68 27 -122.5t96 -123.5q0 -75 52.5 -138.5t137 -113t168.5 -82t195 -65.5v31
h215v-31q-108 0 -169.5 12.5t-206 46t-207.5 33.5q-93 0 -123 -61q-93 0 -166 39.5t-165.5 116t-152 114t-131.5 37.5q-92 0 -184 -92q67 0 118 22t97 70q-70 95 -160 155t-178 60q-53 0 -81.5 -9t-72.5 -53q-252 13 -481 51.5t-440.5 116t-390.5 203.5t-316 305
q0 197 50 344.5t154.5 315.5t145.5 248.5t50 197.5l303.5 407.5t233 260t311.5 246.5t380 161zM1321 3133h307l62 215zM983 2765q0 -81 -32.5 -105t-111 -59t-102.5 -82q34 22 74 90.5t72.5 105.5t99.5 50zM1690 2765h-277v-246l-246 -61q0 -101 18 -182t51.5 -154
t84.5 -156q119 0 161 -46t128 -180.5t172 -172.5q-36 34 -54.5 57.5t-28 52.5t-9.5 74q59 61 92 61q43 0 77 -20t78.5 -57.5t78.5 -56.5t73 -19q51 75 71.5 128t20.5 118q0 108 -50.5 204.5t-151 242t-136.5 228.5q-19 30 -51 41.5l-53.5 19.5t-35 35t-13.5 89zM1905 2673
l215 -308l30 31l-215 307zM2488 1567l-92 -123q43 86 52.5 170t9.5 229q0 104 -25.5 209.5t-72.5 257.5t-56 209q66 -76 105 -191.5t55 -235t20 -241.5t4 -284zM2796 1290l-308 -307q-43 23 -67.5 64.5t-24.5 89.5q0 61 34 124t123.5 208.5t135 253.5t45.5 212
q0 48 -23.5 113.5t-68.5 132.5l-123 184q93 -93 154 -232t92 -345.5t31 -497.5zM1690 1167q-60 106 -164 252.5l-207 294.5t-177 280t-128 279q-78 -68 -121.5 -163t-63.5 -208.5t-25 -222t-5 -266.5q14 -131 73 -221.5t145.5 -134t180.5 -43.5q88 0 179.5 19t171.5 53.5
t141 80.5zM2304 2243v-615h31v615h-31zM584 1966h-92v-215q0 85 14.5 129.5t77.5 85.5zM584 1044q0 96 -28 182t-84 211.5t-79.5 195t-23.5 149.5q-41 -60 -51.5 -122.5t-10.5 -154.5q0 -95 31.5 -190t93.5 -167.5t152 -103.5zM1536 737h461l-154 123zM2488 461l154 -123
l31 31l-154 123z" />
    <glyph glyph-name="R" unicode="R" horiz-adv-x="3656" 
d="M2519 2949q143 -89 254.5 -169.5t199.5 -168t154 -202.5t99 -259q0 -132 -65.5 -219.5t-196 -195t-196 -194.5t-65.5 -220q89 -88 240 -165.5l305.5 -157t260.5 -184t147 -261.5q-31 127 -111 197t-187.5 115l-238 102.5t-201.5 138.5q0 -144 35.5 -267.5t71.5 -193
t119.5 -212.5t111.5 -218q-157 0 -256.5 88t-171.5 232.5l-146.5 293.5t-162.5 215q-82 -31 -116 -79t-80.5 -142t-93.5 -136t-140 -42q86 52 170.5 135t141.5 185t57 202q0 32 -62 154q-45 60 -115 85.5t-174 31.5t-325 6l-67 -560.5t-39.5 -420t-16.5 -432.5
q-62 187 -92 401t-62 582q-41 31 -67.5 86.5t-41.5 118.5t-37 167t-38 150q-16 -50 -30 -102t-22.5 -104.5t-8.5 -100.5q0 -76 8 -136.5t33 -201t38 -242t13 -188.5q-135 0 -175.5 62.5t-73.5 202.5t-89 196l92 92q-63 53 -92.5 142t-61.5 262.5t-62 284.5t-91 202l-92 -123
q28 -152 59 -380l60 -441t66 -397t91 -349q-75 32 -115 102.5t-66.5 167.5l-56.5 207t-69 168q-35 145 -112.5 354.5l-153 415t-120 385.5t-44.5 350q0 117 13 213.5t47.5 190.5t92.5 180q99 45 214 117.5l240 152t227.5 120t209.5 40.5q76 0 164 -29t174 -94
q63 -27 210.5 -100t242.5 -112t208.5 -67t229.5 -28zM1413 3133v31q-42 -21 -191.5 -57t-255 -83.5t-182.5 -155t-77 -288.5h-93q0 104 32 193t75.5 151t112.5 138.5t88 101.5q246 0 398.5 -10t258 -30t203.5 -52zM2519 2642l-215 92l-768 31zM737 860q-25 125 -94.5 383
t-109.5 428.5t-71.5 400.5t-31.5 478q0 -172 33.5 -314t112 -408.5t120 -487t41.5 -480.5zM1198 2550l31 -215h61l-61 215h-31zM2519 2458q-211 0 -341.5 2t-279.5 11t-282.5 28t-263.5 51q0 -100 19.5 -174.5t57 -155t57 -140.5t19.5 -145l-61 31l61 -184q0 69 5.5 116.5
t25.5 67.5q23 -43 64.5 -67.5t89.5 -24.5q39 0 86.5 22t130.5 69t136.5 70t106.5 23q46 0 77.5 -26t76.5 -97q115 46 165 168t50 355zM1106 2335v123h-62v-123h62zM2826 2058q0 159 -21.5 239.5t-70.5 129.5v-215q-30 -38 -85 -131t-91 -147t-92.5 -97.5t-130.5 -54.5z
M737 1905l62 153l-92 215zM1106 1782v153l-62 277zM1290 2028l31 -123h31l-31 123h-31zM2611 1536l31 -92l61 123zM3011 369v61l-123 215z" />
    <glyph glyph-name="S" unicode="S" horiz-adv-x="2857" 
d="M2673 3041q41 0 51 31t10 92q62 -62 62 -92q0 -28 -19 -53t-55.5 -65.5t-48.5 -65.5q-55 37 -118.5 115l-143.5 178t-164 159.5t-189 69.5q-267 -12 -525 -48.5t-511.5 -113.5t-479 -212.5t-388.5 -332.5q0 -116 60.5 -212.5t139.5 -160.5t207.5 -148t175.5 -124
q52 0 84.5 -19.5t85 -61.5t76.5 -42q1 0 61 62q-160 96 -252 196t-135 237.5t-43 334.5q37 29 163 134.5t204 158t186 90t246 47.5q189 0 336 -69.5t334 -211t307.5 -212t282.5 -91.5q41 -40 51 -96.5t10 -149.5l-276 -122l23.5 -69t30 -99t7.5 -78q-19 -39 -51.5 -50.5
t-71.5 -11.5t-82.5 24t-97 68t-90 68.5t-68.5 24.5q-25 0 -62.5 -44t-60.5 -110q178 -76 326.5 -163t264.5 -200.5t188 -267t82 -352.5q-10 -117 -55.5 -217.5t-113 -182.5t-165 -168.5l-158.5 -138.5q-232 -92 -430 -92q-194 0 -372.5 62t-330.5 158.5t-303 220.5l-284 235
q-40 40 -51 66t-11 57q0 30 20 58t62 70t68 76t35 73q-24 13 -36 33t-17.5 54.5t-7 86.5t-1.5 163q131 -10 240.5 -51t192 -96t210.5 -158l156 -125q532 0 676 215q-213 108 -625.5 261.5t-617 241t-439.5 253t-407 412.5q0 119 55.5 209t130.5 150.5t210.5 150.5t186.5 135
q98 18 348 87.5l353.5 97t279.5 59.5t340 32q110 0 211 -20t194 -67.5t180 -134t153 -208.5zM891 2580l61 93v123zM1935 2365q-38 24 -111 96t-119.5 109.5t-134.5 70t-218 32.5q-35 -16 -54.5 -24t-28.5 -16t-9 -22q0 -24 29 -83.5t46 -108t17 -115.5q-13 0 -29.5 -11
t-25.5 -15.5t-37 -4.5q95 0 171 -33t177.5 -101.5t158 -99.5t138.5 -42zM2365 2089q-168 0 -215 92q27 -51 68.5 -71.5t146.5 -20.5zM1044 1966l277 -154v62l-246 123zM1444 1812l461 -122v61l-430 123zM2335 1475v30l-215 154zM2335 1198l-123 154l-369 -308q77 0 143 11
t121.5 30.5t113 48.5t114.5 64zM1321 983l-123 154l-307 153zM2458 1137l-154 -154v-31l184 123zM2335 492q-142 -35 -210.5 -48.5t-127.5 -13.5q-163 0 -318 43t-287 110t-277.5 161.5l-223.5 146.5l338 -399q130 -49 234.5 -83t199.5 -52.5t180 -18.5q110 0 223 38
t269 116zM1567 891l184 -31l31 31l-185 61zM2212 676v92q-101 -34 -215 -92h215zM1444 707h123v61h-123v-61z" />
    <glyph glyph-name="T" unicode="T" horiz-adv-x="3133" 
d="M1751 2611l92 -92q242 61 369 61q82 0 185 -15t174.5 -31l222 -51.5t247.5 -55.5l-307 -154q51 -25 127.5 -51.5l148.5 -51.5t123 -50l-184 -123v92q-261 0 -424 -10t-307 -55.5t-228.5 -148.5t-84.5 -278q0 -76 10.5 -130t50.5 -54h92q0 -120 32 -226t97.5 -249.5
t102 -242t45.5 -203.5l30 30l-30 -522q0 584 -185 799q-25 -25 -41.5 -60t-27.5 -108.5t-17 -208t-6 -361.5q-234 106 -356 306.5t-190 518.5t-118.5 576.5t-133.5 442.5q-47 -11 -207.5 -17.5t-253 -20.5t-92.5 -55l-277 93q21 81 114.5 102t254.5 21q207 0 303 9.5
t96 51.5q0 57 -36 110.5t-118 73.5q-59 -38 -127 -71t-149 -57.5t-154 -24.5q-98 0 -164.5 32.5t-111.5 120.5h-338v62l1167 184q0 214 4.5 365.5t24.5 303.5t64 253v61h153v-61q-64 0 -89.5 -34t-34.5 -91.5l-19.5 -120t-40.5 -92.5q0 -143 4.5 -237t25 -195t62.5 -183
q112 33 170 124.5t82 297t24 592.5q71 -99 105 -237.5t41.5 -284t7.5 -369.5zM1659 3072l-31 -492h31l61 461zM1720 614q-61 133 -106.5 291t-68.5 278t-66 367.5t-66 354.5l105.5 -302t98.5 -310t73.5 -327.5t29.5 -351.5z" />
    <glyph glyph-name="U" unicode="U" horiz-adv-x="1720" 
d="M1413 2642q20 -75 25.5 -172t5.5 -227q-8 46 -30.5 115t-61.5 69q0 -101 19.5 -174.5t58 -153t57 -131.5t18.5 -125v-921h62q21 149 29.5 335.5t11.5 397t7 419.5t13 353h31l61 -1905l-184 92q-70 -51 -88.5 -124.5t-18.5 -192.5t-18 -187.5t-90 -109.5q-68 0 -133.5 17
t-181.5 56t-205.5 60t-186.5 21q-40 112 -116.5 184t-205.5 154t-195 143t-97 164v1474h246l22 -109t20 -105.5t12.5 -99.5t6.5 -116q0 -71 -4 -144.5t-10.5 -163.5t-11.5 -167.5t-5 -138.5q0 -122 16 -231t52.5 -204.5t104.5 -181.5t165 -151l400 645l92 -92
q29 105 50 222.5t31.5 236t10.5 247.5q-61 545 -61 830q28 0 66.5 17.5t68 33.5t66.5 28.5t75 12.5zM922 553l92 276l-62 -215zM1014 461l123 61l61 154zM1229 61q41 28 54.5 74.5t19.5 122t18 111.5l-307 -154z" />
    <glyph glyph-name="V" unicode="V" horiz-adv-x="2765" 
d="M2519 2796q-19 -87 -59 -161.5t-110.5 -183.5t-104 -189t-33.5 -173q39 13 78.5 37t74.5 24q8 0 25.5 -11t36.5 -50l184 399q0 -126 -37.5 -238t-120 -273t-111 -225t-38.5 -155q-10 -190 -58.5 -374.5t-96 -305.5l-154 -375t-152.5 -388q-82 -62 -244.5 -77.5
t-400.5 -15.5l-225.5 445.5t-208 375t-242.5 378.5q-27 248 -104 462.5t-216 513.5t-202 467q113 0 185.5 -64t150.5 -188.5t132.5 -181.5t145.5 -57l93 -123q23 12 40.5 52t29 55.5t52.5 15.5q0 -141 34 -295.5t93.5 -311.5t129 -297.5t143.5 -263.5q240 146 397.5 351
t335.5 549t278.5 514t278.5 338zM2150 2089q-99 -140 -144 -271.5t-127.5 -426t-160 -453t-213.5 -262.5q0 187 72.5 357.5t241.5 429t231 364.5t100 262zM1751 553q0 81 23.5 138t69.5 126t68.5 122t22.5 136zM1229 246v61l-123 92z" />
    <glyph glyph-name="W" unicode="W" horiz-adv-x="3871" 
d="M3809 3011q0 -239 -48.5 -455.5t-125.5 -403t-174.5 -376.5l-234.5 -455l61 -31q41 41 119.5 148.5t120 157t114.5 97.5t168 58q0 -52 -11 -93t-30.5 -100.5t-19.5 -82.5q0 -25 25.5 -43.5t66.5 -18.5l-430 -799q30 -9 52 -28t32 -39.5t20.5 -55l18.5 -61.5h-92
q0 54 -5 73t-26 19q-51 -9 -64 -37t-16 -78t-23 -75t-81 -25q0 82 16 132.5t46 125t30 111.5q0 44 -22 72t-70 51q-51 -62 -87 -148.5t-84.5 -247t-72.5 -231.5t-64 -141l-92 184q-20 -20 -25 -44.5t-5 -78.5h-93q-88 99 -178 279l-155 317.5t-145.5 257t-196.5 191.5
q-28 -84 -86.5 -180l-109 -179.5t-81.5 -174t-31 -204.5q-90 -39 -127 -131.5t-72 -167.5t-139 -100q-23 0 -71 46.5t-94.5 119.5t-78.5 167t-32 189q0 176 -69 299t-221.5 266.5t-217.5 215t-106 202.5q-105 137 -177.5 288t-112.5 281t-101.5 364.5t-100.5 357.5
q52 -9 69 -58t24 -143.5t23.5 -156t67.5 -103.5q62 -182 134.5 -346.5t168 -328t204.5 -303t231 -251.5q-15 193 -75.5 416t-152.5 446t-202 428l30 31l154 -123l246 246q0 -22 19 -42t42 -20q31 0 43 19.5t22.5 57t28.5 57.5t60 20q16 -78 37.5 -251t37.5 -287.5t42 -222
t67 -191.5q31 148 91.5 310.5t134 316.5t136.5 266.5l191 334.5l-31 -211.5t-30 -239.5t-22.5 -277.5t-8.5 -315.5q123 246 123 676q24 -49 52 -70.5t71 -21.5q63 0 125.5 81t89.5 164q0 -349 64.5 -692.5t211.5 -597.5q239 42 353.5 206.5t199.5 491t146.5 487t222.5 259.5
l92 -61q65 96 130 155.5t146 59.5zM3594 2396l123 338h-92zM1075 1290l-61 400l-307 614zM3226 2243l-123 -431h30l154 431h-61zM1413 1290q30 92 40.5 203.5l19.5 214t34.5 193.5t89.5 188q0 -236 -7.5 -381.5t-26.5 -226t-54.5 -123.5t-95.5 -68zM2181 1690l123 -369
l31 31l-123 338h-31zM3717 1597q-22 -102 -56.5 -200t-79.5 -191t-105 -190t-128 -187q0 129 57 276.5t142 277t170 214.5zM2796 891q51 41 81.5 101t47.5 131l38 153t48 137q-9 -61 -51.5 -108t-118.5 -103t-107 -86t-31 -72q0 -41 19.5 -70t73.5 -83zM1597 829
q0 65 20.5 101.5t77 118t56.5 118.5q0 40 -15.5 66.5t-45.5 56.5q0 -41 -23 -74.5t-68.5 -82t-69.5 -90t-24 -91.5q0 -19 17 -41t75 -82zM2673 522l-246 676h-92zM1382 707q-67 0 -79 15t-24.5 55t-49.5 52q55 0 76 -15t39.5 -51.5t37.5 -55.5zM2980 707l-62 -277h62l31 277
h-31z" />
    <glyph glyph-name="X" unicode="X" horiz-adv-x="2396" 
d="M2396 2980q-41 -147 -121.5 -284.5t-185.5 -268.5q-36 0 -60 46t-32 77q-27 -27 -42 -56t-26.5 -94t-17.5 -174.5t-6 -290.5q-179 -154 -289.5 -333t-110.5 -373q0 -245 215 -461q59 -14 108.5 -65.5t78 -124t28.5 -148.5l-98 102.5t-103.5 92.5t-105.5 51
q0 -99 56.5 -218.5t139 -227.5t173.5 -199q-157 0 -253.5 6t-202 32.5t-220.5 84.5l-399 460q-33 -41 -124.5 -178.5t-175 -229t-192.5 -145.5l-31 246q-45 -92 -92 -92q-41 0 -73.5 19t-77.5 57t-64 47l615 829q-74 122 -156 280l-172 332.5t-183.5 314.5t-195.5 241l31 30
q52 0 81 -19.5t63 -57.5t69 -57t94 -19v246l92 -93q27 13 33.5 36t11 73t17.5 76h184l461 -830q126 126 268.5 286l326.5 364t336.5 346.5t327.5 263.5zM2212 2826l-92 -246h30l93 216zM707 2273l276 -522l31 31l-277 522zM829 1352q-29 52 -99.5 195.5t-111.5 214.5
t-111.5 151t-168.5 145l399 -737q20 20 41 25.5t51 5.5zM1628 154l-491 675q-56 0 -76.5 -22t-30.5 -70.5t-16 -60.5q130 -156 221 -255.5t200 -183t193 -83.5z" />
    <glyph glyph-name="Y" unicode="Y" horiz-adv-x="2396" 
d="M2273 2365q-42 -128 -125.5 -260t-168 -235l-217 -254.5t-195.5 -233.5l-62 -1321q-56 0 -76 21t-28.5 56.5t-18.5 45.5q-49 0 -79 -11.5t-63.5 -34.5t-69 -34.5t-95.5 -11.5q0 527 -25 800t-136.5 501.5t-360.5 418.5q-21 138 -89 245t-191 241.5t-183 214t-90 190.5
q177 0 247 -6t103.5 -30.5t48.5 -86.5q0 41 32 67t61 26q51 -25 107 -43.5t77 -18.5q122 -81 167.5 -208.5t85.5 -353.5t97.5 -358t202.5 -216q23 23 70 39.5t65 29t18 53.5l-30 62q147 125 265 258t216.5 280.5t182 308.5t165.5 351q9 -35 24 -65t55 -98t57.5 -106
t17.5 -69q0 -29 -8 -50t-30 -60.5t-24 -43.5zM891 1997q-12 18 -93.5 151l-123.5 196.5t-100 133t-113 102.5q115 -9 171.5 -69.5t84.5 -148.5t67 -197t107 -168zM983 1444q-86 44 -133.5 106.5t-96.5 174t-78 166.5t-91 106zM1352 983l-62 -491h62l30 491h-30z" />
    <glyph glyph-name="Z" unicode="Z" horiz-adv-x="3564" 
d="M2550 2980l28 -107.5t26.5 -108t6.5 -61.5q0 -247 -153 -420t-461 -385t-471.5 -369.5t-204.5 -391.5q248 0 451.5 -25.5t394.5 -65.5l372.5 -77t317.5 -47l-307 -400q98 -87 223 -162.5t251.5 -134.5t254 -110.5l285.5 -114.5q-170 30 -311 96.5t-405 210.5
t-439.5 210.5t-350.5 66.5q-115 0 -183 -9.5t-155 -52.5q-112 -90 -293.5 -152.5t-320.5 -62.5l-645 277q0 50 22 88.5t68.5 97t70 104.5t23.5 109q154 88 317 232.5t317.5 316t295 351.5l268.5 360q-132 0 -246.5 6.5t-290.5 23.5t-265 24t-181 7q-119 0 -192.5 -4.5
t-151 -25t-147.5 -62.5q-28 13 -59.5 14.5t-56.5 2.5t-38 14v122q88 0 150.5 8t109.5 41.5t47 104.5q-13 26 -38 33.5t-75.5 12.5t-70.5 15l-92 -92l-92 92q156 56 355.5 99t425.5 68t532.5 37t682.5 12q0 8 -16.5 19t-75.5 11q-30 -30 -30 -123q40 0 78 -7.5t77 -19.5
t81.5 -23t70.5 -11q26 0 64.5 26t58.5 66q0 97 -44.5 143t-124 63.5l-142 30.5t-89.5 40q-428 0 -674.5 2.5t-491.5 13.5t-465.5 36.5t-426.5 69.5l31 62q303 -9 610.5 -34t613 -57l658 -67.5t637.5 -56.5zM1720 2703q-99 0 -195 -7.5l-192.5 -15t-195.5 -7.5q46 9 111.5 12
t169.5 3t171 2.5t131 12.5zM1352 983l491 31h-430zM1536 799h369l-246 30zM2243 768l337 61h-245v-122q0 15 -9.5 22t-38 19t-44.5 20zM1106 768v31h-154zM1536 522q-81 0 -153 7t-206.5 25.5l-263 35t-237.5 24.5q58 -11 185 -58t208.5 -71t159.5 -24t125 3t91.5 15.5
t90.5 42.5z" />
    <glyph glyph-name="exclam" unicode="!" horiz-adv-x="627" 
d="M276 1714q11 32 15 87.5t4 133.5h55q-22 -136 -29.5 -189.5t-7.5 -123.5q0 -102 6.5 -217l14 -238.5t12 -245.5t4.5 -294q-33 8 -50 38t-33 86.5t-27 77.5l-74 -92q0 82 -14.5 149.5t-37 128.5l-46.5 130.5t-31 126.5q0 108 3.5 175l9 167t5.5 155q0 149 -55 259
q56 0 82 -39.5t50.5 -117.5t53 -117.5t90.5 -39.5zM608 203q-88 -56 -151.5 -90.5t-134 -55t-156.5 -20.5q-55 55 -55 129q0 38 14 88l27.5 100t13.5 88q152 0 251 -27t154 -83q26 -24 31.5 -51t5.5 -78zM184 203l37 -111h19l-19 111h-37z" />
    <glyph glyph-name="at" unicode="@" horiz-adv-x="1806" 
d="M1585 1217q0 -131 5.5 -205t30 -129.5t75.5 -71.5q2 -6 11.5 -31.5t14.5 -41.5t8 -34.5t3 -39.5q0 -52 -21 -101.5t-57 -93.5t-80.5 -85.5l-99.5 -88.5q-76 -15 -122 -58t-110 -112.5t-137 -106.5q-298 0 -558.5 98.5t-418.5 307.5q0 199 47.5 364t120 289t185 273
t145.5 198q110 56 276 56q56 0 118.5 -6.5t115 -17.5t116.5 -32q32 -48 90.5 -85l106 -64.5t85.5 -70t50 -111.5zM590 1346l258 202h-74zM1161 1475q-208 -15 -368.5 -95t-239.5 -237l37 -37l-166 -148q0 -208 2.5 -305.5t14 -167t37.5 -112.5t75 -78q110 -55 276 -55
q149 0 258 55l-55 55q0 23 14 44l27.5 42t13.5 43q-43 0 -75.5 -19.5t-72.5 -59.5t-66 -60.5t-62 -26.5q-197 0 -313 93q0 172 44.5 310t113 239t155.5 188q143 0 218.5 -9t113 -32.5t55.5 -69.5q-4 -33 -10.5 -135t-23.5 -172.5t-58 -134.5h55q74 170 74 442q0 273 -74 443
zM1475 922q36 110 36 147q0 101 -61 175t-160 138q0 -82 9.5 -179t27.5 -245q0 -228 -74 -350zM811 682q0 41 7.5 74.5t25 89t22.5 76.5l-202 -258q0 -74 3.5 -126.5t14.5 -95.5q59 0 98 24.5t94.5 75t83.5 66.5q-33 0 -49.5 9.5t-45.5 33t-52 31.5zM1585 608v74
q-25 0 -32.5 -11t-11 -42.5t-8 -47t-22.5 -28.5q10 10 22 24.5t24 22.5t28 8zM295 590l37 -184h37l-56 184h-18zM1456 406l19 -37l-56 -37l-18 18l239 240q0 -48 -50.5 -89.5t-133.5 -94.5zM258 369q0 5 -16.5 30.5t-27.5 55.5t-11 80zM1161 350q0 40 21 59t76.5 58.5
t68.5 67.5q0 -51 -26 -84t-64.5 -56zM719 111h313v18h-313v-18z" />
    <glyph glyph-name="numbersign" unicode="#" horiz-adv-x="1751" 
d="M1511 1382q-40 -141 -56.5 -217.5t-16.5 -187.5l313 -19v-36q-60 0 -154.5 -15t-158.5 -41q67 -5 106.5 -44.5t80 -123.5t59.5 -114t67 -49q-41 -47 -132.5 -70.5l-182.5 -46.5t-146 -74t-55 -160q-86 0 -118 -31t-48 -98q0 -15 -4.5 -24.5t-12.5 -15t-20 -15.5h-18
q-37 72 -37 111q0 47 15 85t51.5 115.5t43.5 112.5q-55 18 -239 18q-31 -36 -42.5 -78t-22.5 -111.5t-27.5 -110.5t-55.5 -68q-37 29 -93.5 38t-75 17t-33.5 55q55 113 55 185q0 37 -9 55t-46 18l-461 56q0 18 -37 55h350q-40 29 -81.5 51.5t-86.5 44l-71 33.5q49 0 147 -9
t111 -9l-148 110q25 9 162.5 49.5t226 82.5t151 119.5t68.5 191.5q18 9 40.5 22.5t33.5 13.5q18 0 30.5 -15t26.5 -48t25 -52t29 -32q0 -184 110 -184q55 25 79 77.5t53 153.5t62 156t101 73q0 -27 2 -32.5t17 -22.5l18 74q19 -19 55 -19zM1419 1327l-92 -184l19 -19l92 185
zM1309 1069v-92h18v92h-18zM1143 793q0 -49 -39 -61.5t-127 -12.5q0 50 39.5 62t126.5 12zM1604 682q-185 0 -185 92zM608 737q0 -66 -44 -88t-158 -22q8 32 37 48.5t90 35.5t75 26zM1087 608q-12 -36 -58.5 -45.5t-125.5 -9.5q22 22 61 25t73.5 5t49.5 25zM1604 553
q-2 0 -72 -19.5t-112 -27.5t-93 -8q2 0 72 19.5t112 27.5t93 8zM1124 424l-37 -129l37 -19l19 130z" />
    <glyph glyph-name="dollar" unicode="$" horiz-adv-x="1253" 
d="M829 2267q-20 -20 -31 -55t-16.5 -95t-6.5 -138t-1 -246l55 -56q46 68 51 175t9.5 190.5t50.5 114.5q53 0 82 -43.5t29 -104.5q0 -60 -28 -180t-28 -152q-21 -11 -25.5 -53.5t-11.5 -56.5q10 -4 73.5 -34.5t109 -44t112.5 -13.5l-18 -203q-43 29 -80 37t-49.5 16
t-36.5 57q-8 0 -12 -4.5t-5 -12t-1 -19.5h-56q-7 7 -12 45t-25 47q-91 -92 -129 -314l112 -58t99.5 -61t74.5 -81t28 -113q0 -105 -46.5 -169.5t-143 -125.5t-128.5 -86t-32 -80q0 -62 92 -184q-67 7 -86 49.5t-28.5 128t-37 129t-106.5 43.5q-26 -43 -38.5 -102t-15 -115
t-2.5 -133l56 -19q-37 0 -57.5 -16.5t-41 -48.5t-38 -48t-48.5 -16q-37 26 -46 71t-9 132v203q0 63 -14 96.5t-61.5 51.5t-145.5 18q0 68 -16.5 116t-49 110.5t-48 111.5t-15.5 123q99 -37 180 -81t170 -104q23 24 25 67.5t5 87.5t25 66q-39 33 -118.5 84t-118.5 92.5
t-39 100.5q-12 6 -33.5 28.5t-37 34t-40.5 11.5q79 36 155 151t132 166t193 51q14 129 23.5 185t38 123t84.5 110t148 43zM958 2046l-18 -387h18l37 387h-37zM645 1806h55v166zM590 1475l37 -203l18 18l-18 185h-37zM756 1475v-277h18v277h-18zM295 1364l55 -92l19 18
l-37 92zM479 1051v-222h37v222h-37zM590 1051v-111h37v111h-37zM719 700q0 97 -4 169.5t-15 125.5q-28 -28 -50.5 -79.5t-22.5 -104.5q0 -43 26.5 -77t65.5 -34zM442 240l19 276h-19v-276z" />
    <glyph glyph-name="percent" unicode="%" horiz-adv-x="1843" 
d="M995 1253q-50 -110 -137 -343t-156.5 -385t-179.5 -293.5t-264 -231.5q0 125 44.5 228.5t137.5 253.5t137.5 240.5t49.5 199.5q-18 -18 -45 -26t-79.5 -9.5t-189.5 -1.5q-93 41 -129.5 104t-36.5 154q0 59 17.5 126.5t43.5 140l50 138.5q55 58 55 92q-62 0 -113 -40
t-83.5 -99.5t-42.5 -118.5q18 -55 18 -239q-37 152 -37 276q0 51 5.5 79t31.5 69q37 46 90.5 69.5t139 32t231.5 8.5q28 -28 105 -83t115 -100t38 -112q0 -31 -13.5 -66l-27.5 -70t-14 -66q0 -11 11 -35t26 -39q57 128 119.5 235.5t138.5 214.5t165 216l185 219
q0 -110 -44 -204t-119 -190.5l-144.5 -185t-98.5 -158.5zM627 1309v-92q-21 27 -29.5 93t-21.5 98.5t-60 47.5q-37 -76 -37 -110q0 -25 9.5 -78t9.5 -70q0 -60 -25.5 -85.5t-103.5 -25.5h-56q0 277 185 369q61 -15 95 -49t34 -98zM1714 1069q26 -36 31.5 -66t5.5 -81
q0 -74 -32.5 -143t-96.5 -172.5t-92 -164.5l129 -73q-11 -22 -38 -40l-52.5 -34t-41.5 -41t-16 -70q-61 0 -111.5 -7t-109.5 -18l-115 -20.5t-88 -9.5q-142 0 -221 129q0 107 17 194t49 193t47.5 173t15.5 140q86 114 194.5 177t229.5 63q76 0 153 -32t142 -97zM1511 1106
q-39 -6 -113 -31.5t-103.5 -34t-77.5 -8.5q50 50 117 62t177 12zM590 1069l-37 -92l18 -19l56 93zM1659 848l-19 -74l19 -18l37 92h-37zM1401 829q-85 0 -138 -25t-84 -61t-73 -103.5t-74 -104.5q28 -42 67 -67.5t81 -25.5q102 0 150.5 57.5t59.5 135.5t11 194zM1511 719
v-184h19v184h-19zM1327 369q-37 6 -119 10t-131.5 13t-81.5 32l37 -74q22 -22 34.5 -32.5t26.5 -16.5t31 -6q15 0 51 22.5t70 37t82 14.5z" />
    <glyph glyph-name="asciicircum" unicode="^" horiz-adv-x="1180" 
d="M1180 350l-37 -37l-166 166q0 -68 4 -108.5t14.5 -115t14.5 -107.5t4 -74l-424 553q-29 -40 -80 -137.5l-74.5 -140t-65 -96.5t-94.5 -87l-55 92l-184 -258q0 56 20.5 130t53.5 151t83 161.5t101 147.5q52 132 106 225.5t127 174.5t172 153q7 -116 54 -226.5
t114.5 -204.5t156 -191.5zM774 700l166 -258l18 19l-165 239h-19z" />
    <glyph glyph-name="ampersand" unicode="&#x26;" horiz-adv-x="1604" 
d="M903 1880q-37 -76 -37 -92q0 -48 28 -97.5l55.5 -99.5t27.5 -98q0 -37 -5.5 -61t-31.5 -50q-17 -29 -105.5 -90t-139 -121t-50.5 -157q30 0 87 -26.5t85.5 -37t85.5 -10.5q34 23 68.5 65l83.5 98t104.5 85t130.5 29q-37 -38 -46 -84t-9 -119q29 -28 42 -47t13 -45
q0 -37 -19.5 -72.5t-62.5 -98.5t-63.5 -106t-20.5 -92q35 -45 96 -85l136 -88.5t115 -101.5t40 -131q0 -37 -36 -147q-76 20 -219 112.5t-233.5 137.5t-211.5 45q-82 55 -129 55q-36 0 -114.5 -20.5t-112.5 -27.5t-105 -7l-239 166q-37 107 -37 166q0 58 17 113t44 112.5
l61 128.5t44 106q-23 35 -39 99.5t-17 66.5q0 40 6.5 78.5t21 97t21.5 98.5t7 95q30 36 43.5 93.5l25.5 109t41 90.5t92 57q112 56 203 56q79 0 139 -37t119 -111zM535 1917l-83.5 -83.5t-82 -92.5t-49 -87t-25.5 -106q11 25 32.5 102.5t42.5 127.5t60 88t105 51zM756 1843
q0 -62 -30 -99.5t-88 -61.5t-104.5 -40t-72.5 -38q0 22 25.5 55.5t67 70.5t95.5 68.5t107 44.5zM829 1382q0 157 56 240zM719 1567q-22 -14 -74.5 -35.5t-91 -42t-68 -50t-43.5 -75.5l37 -55q89 0 126 40t63 116.5t51 101.5zM1198 958q0 -56 -13 -84t-42.5 -73t-36.5 -82
q13 66 38 130.5t54 108.5zM350 535q27 147 41.5 239t14.5 166l-74 -55q-74 -112 -74 -221q0 -56 26 -92.5t66 -36.5zM700 737l-165 74q0 -39 -10 -71t-27 -75.5t-27 -87t-10 -98.5q239 192 239 258zM774 645l-129 -129l19 -37l129 148zM1419 147v74l-276 203z" />
    <glyph glyph-name="asterisk" unicode="*" horiz-adv-x="1733" 
d="M885 903v-74q51 20 148 76t189 133.5t142 159.5v-258q-44 -18 -85 -43.5t-90.5 -62.5l-79 -60t-77.5 -55q66 12 146.5 17.5t183 7.5t187 3.5t184.5 8.5l-93 -92q38 -24 47 -60.5t9 -105.5l-535 -19l37 -129l-37 19q0 -61 24.5 -100.5t67.5 -84.5l37 -55q-10 0 -65.5 34.5
t-101 75t-54.5 74.5q-18 12 -46 40t-47.5 40.5t-53.5 12.5l-19 -37l111 -129q-16 0 -35.5 14l-39.5 27.5t-36 13.5l-18 -295q-50 38 -71.5 94.5t-30.5 147.5t-15.5 137.5t-30.5 81.5q-15 -15 -71.5 -81t-97.5 -107t-94 -74t-105 -33q0 66 25 111.5t73.5 99t67.5 84.5
q-47 10 -117.5 16t-156 15t-147 31t-114.5 67q91 9 160 20.5t125 25t116 32t152 51.5l-240 239q23 7 52 8.5l49.5 2.5t27.5 8q0 23 -33 64t-46 60.5t-13 59.5q173 -21 369 -258q55 55 55 111q0 28 -4.5 52l-15 78.5l-14 73.5t-3.5 54q71 0 99 -20t38.5 -93.5t10.5 -255.5z
M737 774q-29 74 -109.5 129t-185.5 55l277 -239q0 7 9 26t9 29zM1069 590h258v18h-258v-18z" />
    <glyph glyph-name="parenleft" unicode="(" horiz-adv-x="700" 
d="M645 2046q-25 -12 -30.5 -43t-10 -92.5t-18 -92t-51.5 -30.5q-118 -144 -170 -297.5t-52 -329.5q0 -62 6 -127.5t15 -128l20 -142t15 -118.5q29 -88 130.5 -238t143 -222.5t57.5 -184.5q-40 0 -56.5 21.5t-49.5 76.5t-59 68q-127 26 -190 97.5t-93.5 196t-53.5 229
t-69 177.5q-9 -18 -9 -54.5t-9 -55.5v442q0 191 22 336.5t92 261.5t199 176q9 37 28.5 52t58 18.5t134.5 3.5zM129 1198q13 36 28.5 108.5l36.5 166.5t39 158t43 120zM184 1198l-18 -129h18l37 129h-37z" />
    <glyph glyph-name="parenright" unicode=")" horiz-adv-x="737" 
d="M313 1991l108.5 -150.5t134 -194t77 -160t31.5 -177.5q0 -53 -37 -166q-56 -112 -56 -185q0 -38 7 -83.5t20.5 -108t21 -104.5t7.5 -91q0 -52 -37 -165q-53 -53 -124 -162t-106.5 -156t-101.5 -88q-30 24 -60 67.5t-63.5 61.5t-116.5 18q70 116 133 235t110.5 237.5
t77.5 247.5t30 257q0 183 -56 351q-79 202 -132 317t-126 199l-55 -56l55 240l240 -221zM332 1640l-19 166l-110 111zM553 1198l37 277l-148 221zM516 811v-313h37v313h-37zM332 627l-37 -148l18 -18l56 166h-37zM387 295l37 18l18 222zM313 332l-129 -129l19 -19l129 148
h-19z" />
    <glyph glyph-name="underscore" unicode="_" horiz-adv-x="1917" 
d="M1806 313l42 -39t36 -42.5t14 -47.5l-36 -37l-19 111q-42 -36 -100 -69.5t-132 -59t-164 -40.5t-194 -15q107 0 148.5 3.5t62 18.5t29.5 51l-74 56h-1087l-48 -48t-46.5 -37.5t-48 -18.5t-78.5 -7l-19 92q92 0 111 19q-26 25 -57 37.5t-65 19t-81 16.5v74l166 -74
l-55 148q155 -52 319.5 -72t343.5 -20q682 0 1032 -19zM1714 258q-24 25 -49 31t-61 6l-72 -18t-79 -14.5t-89 -4.5q50 0 138 -37t120 -37q68 0 92 74z" />
    <glyph glyph-name="plus" unicode="+" horiz-adv-x="1401" 
d="M682 848q-16 80 -22.5 164t-11.5 160.5t-21.5 145t-55.5 138.5l37 -129l-129 -37l37 -387q-25 -69 -84 -109t-134.5 -57.5t-175 -25.5t-122.5 -11l37 -202h516l55 -424q37 0 37 110q0 27 55 56q38 -38 47 -86t9 -136h55q-7 68 -43 172t-52 161t-16 147q292 73 461 73
l-18 -18q48 0 84 15.5t91.5 50.5t82.5 45l-111 36q-24 148 -221 148h-387zM1235 682q-8 16 -21 24.5t-38.5 18t-32.5 12.5q-55 -55 -111 -55q-22 0 -60 10.5t-67 20.5l-50.5 17t-43.5 7q-41 0 -61 -14.5t-50 -58.5z" />
    <glyph glyph-name="braceleft" unicode="{" horiz-adv-x="1253" 
d="M1253 2728q-17 -11 -209 -117.5t-305.5 -199.5t-186.5 -232.5t-73 -335.5q51 -88 62.5 -159t11.5 -191l-74 -37q32 -55 40 -113t14.5 -181.5t19.5 -184.5q35 -69 49 -165.5t23 -166t41.5 -135.5t107.5 -123q22 10 65.5 45.5t70.5 50.5t67 15q-8 -67 -43 -110t-87.5 -67
t-127.5 -45h-19q-36 -36 -36 -55q0 -26 10.5 -46.5t32.5 -52.5t30 -48q73 0 217 9t152 9q-40 -23 -97.5 -32t-152 -13t-137.5 -10q-96 169 -154.5 287t-108.5 257.5t-78 292.5t-28 306l-110 55l18 37l-258 313q136 0 229.5 53.5t120.5 149.5q-7 51 -29.5 145t-33.5 153.5
t-11 125.5q0 93 27 159.5t103 116.5q68 80 165.5 105t257.5 30.5t252.5 21.5t171.5 83zM369 1548h110l-55 166zM442 1475h-73l55 -56q18 19 18 56zM535 627q-37 38 -46 88.5t-9 135.5t-9.5 139t-46.5 97l45 -118.5t32 -98.5t24.5 -111.5t9.5 -131.5z" />
    <glyph glyph-name="braceright" unicode="}" horiz-adv-x="819" 
d="M633 2879q24 -71 39 -144.5t22.5 -153.5t7.5 -154q0 -132 -34 -273l-129 -362q55 -46 85.5 -97t63.5 -135.5t58.5 -137.5t72.5 -107q-51 -41 -107.5 -118t-107 -171.5t-100.5 -214t-82 -221.5q21 -42 28 -61.5t7 -51.5q0 -46 -13.5 -104.5t-34 -117.5l-44 -122.5
t-37.5 -109.5l-91 13.5t-66.5 19.5t-52.5 50t-36 99q47 45 77 83t52 97l-94 205q25 45 35 45q19 0 51.5 -36t58 -56.5t66.5 -20.5l116 793q10 12 38.5 34.5t42.5 48.5t14 77q-76 0 -102.5 56t-26.5 146q0 50 11 159t11 161l47 520q-38 10 -97.5 37t-98.5 41t-84 14
q0 -60 -23 -155t-47 -95q-14 36 -19 115t-12.5 125.5t-38.5 77.5h-59q12 53 37 86.5t76.5 76.5t74.5 65.5t45 66.5q120 90 224 90q57 0 104 -43t72 -140zM633 2654q-16 295 -164 295q-32 0 -64.5 -11t-78.5 -32.5t-58 -26.5h201q58 -46 81 -124.5t23 -192.5
q0 -80 -17 -279.5t-17 -310.5q63 93 78.5 262.5t15.5 419.5zM737 1270q0 55 -12 83.5t-27 36.5t-40.5 17t-36.5 23q0 -90 -13.5 -133t-39.5 -85t-40 -90.5t-14 -146.5q23 87 56.5 137t79.5 87.5zM211 227h117v135z" />
    <glyph glyph-name="bar" unicode="|" horiz-adv-x="406" 
d="M313 1382q17 27 21 58.5t6.5 91.5t9.5 90h56q-13 -193 -17.5 -369t-7 -379.5t-4.5 -454.5t-8 -419q-5 36 -21.5 51.5t-47.5 32.5t-45.5 37t-14.5 63q-19 -18 -19 -110h-92q0 218 16 353t46 332t30 292q0 113 -23 205.5t-87 181.5q45 7 65 30t27 65l13.5 79t23.5 65
l-19 129q32 -21 51 -57.5t30 -121t11 -245.5z" />
    <glyph glyph-name="less" unicode="&#x3c;" horiz-adv-x="2175" 
d="M2175 1640l-92 -73v55q-59 0 -105 -17.5t-84.5 -41l-87.5 -52.5q9 -9 15 -18.5t10 -13.5t12 -4t36.5 27.5t37.5 27.5q11 0 22 -16.5t15 -20.5l-203 -111l74 -73q-19 -62 -67.5 -88t-141 -51t-144.5 -56.5t-71 -99.5q-84 -13 -156.5 -42t-152 -76.5l-153 -90.5t-128.5 -68
q31 -15 43 -47t12 -137q109 -65 286.5 -88t324.5 -39t268.5 -72t189.5 -188q-37 48 -123.5 95t-211 77.5t-273.5 30.5q41 -26 107.5 -81.5t110 -88.5t98 -57t126.5 -31q0 -46 -62 -60t-140 -14l-215 80.5t-261 106.5l-244 104.5l-220 95.5q-45 33 -126 85.5l-194 126.5
l-183.5 123l-123.5 89q93 187 248.5 260.5t428.5 120t441 104.5t301 215q31 -6 95 -10t102 -13t61 -32q13 8 75.5 51t103 67.5t93.5 45t97 20.5q92 0 129 -37zM1604 1493q-13 -45 -47 -64t-85.5 -26.5l-102.5 -14.5t-79 -24q92 56 171 92.5t143 36.5zM1198 1143l258 74h-110
q-19 -19 -83.5 -43t-64.5 -31zM793 1106q-24 7 -45.5 15.5t-43.5 15t-40 6.5q-70 0 -127.5 -33.5t-98 -82t-100 -139.5t-62.5 -95h93q0 20 -9.5 35t-9.5 20q32 45 78 68t82.5 28.5t115 14.5t111.5 18l-55 55q0 33 16 45t51.5 18.5t43.5 10.5zM147 829l222 258
q-52 -10 -112 -37t-103 -65.5t-43 -81.5q0 -11 11.5 -35.5t24.5 -38.5zM793 590q-14 21 -51 26t-68.5 11t-46.5 37q81 0 108.5 -3.5t38 -17.5t19.5 -53zM1419 184q-37 51 -95 78.5t-154.5 52t-140.5 39.5t-89 52q151 0 266 -54t213 -168z" />
    <glyph glyph-name="greater" unicode="&#x3e;" horiz-adv-x="2304" 
d="M2230 1401q0 -83 -37 -134t-74 -71t-125 -60.5t-114 -66.5q7 -38 26 -56t45 -24.5t63 -13.5t50 -17l37 37l19 -37q-188 0 -331.5 -70.5t-331 -226.5t-275.5 -219t-224 -92q-58 -16 -133.5 -34t-128.5 -35t-108 -48.5t-109 -85.5l19 -36q-6 -12 -15.5 -22.5t-21.5 -18.5
t-19 -15q-28 0 -90.5 18.5t-93.5 18.5q63 7 101.5 30t84.5 69t78.5 69t85.5 35q170 37 336 115.5t310 179.5t276 221l-19 18l-368.5 -149l-413.5 -166.5t-370 -129t-359 -89.5l184 111q-37 37 -37 55q0 13 9.5 25.5t30.5 33.5t34.5 37.5t18.5 32.5q181 0 329 54.5t355.5 172
t326.5 173.5t279 79l37 37q-114 0 -186.5 17.5t-203 55.5t-182.5 38q-32 0 -49 -5.5t-43 -31.5q0 113 -47 136.5t-162 43t-159 78.5l-388 92q96 0 254.5 41.5t206.5 50.5q-68 43 -229.5 116.5t-231.5 123.5q154 -19 288.5 -62t335.5 -123t330.5 -126t280.5 -76
q44 -67 113.5 -88.5t191 -37.5t194.5 -48.5t110 -120.5q42 0 100 49t84 61v74q-204 75 -355.5 150l-465 236t-525 250t-423.5 138l-166 129l18 19q219 -121 451 -225.5t536 -227l539 -223t446 -209.5zM811 1475l-129 18l92 -18h37zM1161 1419l479 -184l19 18l-479 185z
M1880 1235q-15 22 -44.5 25t-58.5 5t-44 25q18 -18 27 -38.5t9 -71.5q38 0 58.5 11.5t52.5 43.5zM1327 1180l-37 18l-203 55zM1253 885l129 37h-92z" />
    <glyph glyph-name="question" unicode="?" 
d="M1217 1659q-19 -130 -83 -209t-185.5 -168t-188 -158.5t-96.5 -183.5q0 -67 31.5 -108t95.5 -93.5t97.5 -100.5t33.5 -122l184 -18q0 -84 -34.5 -151t-104.5 -155t-101 -137q-180 0 -291 20.5t-151 71.5q0 55 22 107.5t69 130t73.5 129t38.5 113.5q35 -37 55 -37
q16 0 36 14l39.5 27.5t35.5 13.5q-21 41 -94.5 89.5t-109.5 86.5t-36 119q0 124 46.5 217t143.5 220t150 224t65 224q-19 10 -42.5 13t-83 4t-224.5 1q-104 0 -166 -46t-122.5 -137t-104 -134.5t-123.5 -50.5l111 239q-25 0 -48.5 -15.5t-59.5 -47.5t-58 -47v-37h-37v92
q187 202 414.5 349.5t470.5 184.5q43 -58 81.5 -125t83 -152.5t79.5 -141t88 -115.5zM922 2083q-111 0 -186.5 -19t-164.5 -55q27 0 60.5 7t63 14t55.5 11.5t61 4.5q37 0 62 -6t49 -31v74zM1032 1548q-7 23 -9.5 68.5t-6.5 67t-21 30.5l-18 -166h55zM958 461h74v37h-74v-37z
M793 350l-222 -18v18l-55 -55q0 -47 2.5 -75t16 -57t36.5 -52l-55 92q47 13 104 62.5t83 67t90 17.5zM866 295h92v55z" />
    <glyph glyph-name="asciitilde" unicode="~" horiz-adv-x="1493" 
d="M1475 424q-36 -36 -112.5 -139t-116 -149t-103 -87.5t-148.5 -48.5q-67 7 -124.5 38.5t-145.5 95.5t-145 94t-119 30q-40 0 -73 -13.5t-75 -41.5q-7 -14 -8 -30l-2 -31.5t-8 -30.5q-14 -9 -47.5 -16t-53 -13t-33.5 -24.5t-14 -57.5h-73q0 90 23 152t56 98t88 78t72 59
q55 55 111 55q38 0 83.5 -13.5l91 -27.5t83.5 -14q50 -98 118.5 -150.5t194.5 -52.5q66 25 86 72t30.5 127.5t31.5 114.5q7 0 26 9t29 9l19 -258l184 369q50 -25 62 -70t12 -133z" />
    <glyph glyph-name="colon" unicode=":" horiz-adv-x="700" 
d="M608 1954q0 -125 -30.5 -222.5t-116.5 -146.5q-54 0 -126 -18.5t-95 -18.5q-56 0 -74 56q0 83 46 144t138 150l185 19v37h73zM461 1788l55 -19l19 93zM387 1124q0 -44 15.5 -66t39.5 -34.5l53 -27.5t40 -38q11 17 17 34.5t13 19.5t43 2q0 -80 -25.5 -122t-85.5 -111.5
t-73 -116.5q-12 -6 -44.5 -28.5t-55.5 -34t-48 -11.5q-11 0 -35 11.5t-38 25.5q-38 38 -56 70t-18 59q0 43 25 86t72 100.5t74 98.5t32 83h55z" />
    <glyph glyph-name="quotedbl" unicode="&#x22;" horiz-adv-x="608" 
d="M498 1419l73 19q-32 -32 -43.5 -50t-11.5 -42q0 -43 24.5 -116.5t30.5 -105.5l-165 74q-5 -16 -30.5 -64.5t-25.5 -82.5q-55 82 -55 202q0 54 14 133l27.5 158t13.5 133q51 -12 73 -36.5t28.5 -64.5t14.5 -80t32 -77zM240 1143q0 -49 -24 -69t-68.5 -34.5t-55.5 -25.5
q-47 106 -60.5 262.5t-13.5 363.5q96 -15 113.5 -97.5t33 -215t75.5 -184.5z" />
    <glyph glyph-name="semicolon" unicode=";" horiz-adv-x="700" 
d="M608 1401q0 -125 -30.5 -222.5t-116.5 -146.5q-54 0 -126 -18.5t-95 -18.5q-56 0 -74 56q0 47 17 87.5t44.5 77t61 70l61.5 60.5l185 18v37h73zM461 1235l55 -18l19 92zM387 571q0 -44 16 -66.5t39.5 -34l52.5 -26.5t40 -38q12 18 17.5 34.5t12.5 18.5t43 2
q0 -80 -25.5 -122t-85.5 -111.5t-73 -116.5q-12 -6 -44.5 -28.5t-55.5 -34t-48 -11.5q-11 0 -35 11.5t-38 25.5q-38 38 -56 70t-18 59q0 43 25 86t72 100.5t74 98.5t32 83h55z" />
    <glyph glyph-name="grave" unicode="`" horiz-adv-x="848" 
d="M479 516q53 -6 111.5 -32.5t107 -65t90 -91t60.5 -106.5l-111 -74q41 -13 66.5 -49.5t25.5 -79.5q-137 0 -241 58.5t-193.5 152.5l-194 202.5t-200.5 158.5q49 0 79 -11.5t84.5 -37t76.5 -25.5q29 0 55 74zM645 129l-258 240l-74 18z" />
    <glyph glyph-name="quotesingle" unicode="'" horiz-adv-x="479" 
d="M479 1272q0 -69 -39 -143.5t-96 -131.5t-104 -75q-37 0 -55.5 6t-18.5 30l46 99t32.5 94.5t13.5 138.5l-258 277q37 -37 74 -37q27 0 59 42t61 64.5t101 22.5zM387 1217q-12 12 -22 89.5t-30.5 134t-76.5 89.5q49 -33 69 -83.5t34.5 -128.5t25.5 -101z" />
    <glyph glyph-name="quotedblright" unicode="&#x201d;" horiz-adv-x="0" 
 />
    <glyph glyph-name="quotedblleft" unicode="&#x201c;" horiz-adv-x="0" 
 />
  </font>
</defs>
</svg>
